G04 #@! TF.FileFunction,Other,Fab,Top*
%FSLAX46Y46*%
G04 Gerber Fmt 4.6, Leading zero omitted, Abs format (unit mm)*
G04 Created by KiCad (PCBNEW 4.0.4+e1-6308~48~ubuntu16.04.1-stable) date Sun Oct  9 19:18:54 2016*
%MOMM*%
%LPD*%
G01*
G04 APERTURE LIST*
%ADD10C,0.100000*%
%ADD11C,0.150000*%
G04 APERTURE END LIST*
D10*
D11*
X140770000Y-146050000D02*
X140570000Y-146050000D01*
X141070000Y-146050000D02*
X141270000Y-146050000D01*
X141070000Y-146250000D02*
X141070000Y-145850000D01*
X140770000Y-145850000D02*
X140770000Y-146250000D01*
X141070000Y-146050000D02*
X140770000Y-145850000D01*
X140770000Y-146250000D02*
X141070000Y-146050000D01*
X141970000Y-145450000D02*
X141970000Y-146650000D01*
X139970000Y-145450000D02*
X141970000Y-145450000D01*
X139970000Y-146650000D02*
X139970000Y-145450000D01*
X141970000Y-146650000D02*
X139970000Y-146650000D01*
X378912381Y-136500952D02*
X377912381Y-136500952D01*
X377912381Y-136262857D01*
X377960000Y-136119999D01*
X378055238Y-136024761D01*
X378150476Y-135977142D01*
X378340952Y-135929523D01*
X378483810Y-135929523D01*
X378674286Y-135977142D01*
X378769524Y-136024761D01*
X378864762Y-136119999D01*
X378912381Y-136262857D01*
X378912381Y-136500952D01*
X378912381Y-135500952D02*
X377912381Y-135500952D01*
X378912381Y-135024762D02*
X377912381Y-135024762D01*
X378912381Y-134453333D01*
X377912381Y-134453333D01*
X379007619Y-134215238D02*
X379007619Y-133453333D01*
X377912381Y-132739047D02*
X377912381Y-133215238D01*
X378388571Y-133262857D01*
X378340952Y-133215238D01*
X378293333Y-133120000D01*
X378293333Y-132881904D01*
X378340952Y-132786666D01*
X378388571Y-132739047D01*
X378483810Y-132691428D01*
X378721905Y-132691428D01*
X378817143Y-132739047D01*
X378864762Y-132786666D01*
X378912381Y-132881904D01*
X378912381Y-133120000D01*
X378864762Y-133215238D01*
X378817143Y-133262857D01*
X208604762Y-137421428D02*
X208652381Y-137278571D01*
X208652381Y-137040475D01*
X208604762Y-136945237D01*
X208557143Y-136897618D01*
X208461905Y-136849999D01*
X208366667Y-136849999D01*
X208271429Y-136897618D01*
X208223810Y-136945237D01*
X208176190Y-137040475D01*
X208128571Y-137230952D01*
X208080952Y-137326190D01*
X208033333Y-137373809D01*
X207938095Y-137421428D01*
X207842857Y-137421428D01*
X207747619Y-137373809D01*
X207700000Y-137326190D01*
X207652381Y-137230952D01*
X207652381Y-136992856D01*
X207700000Y-136849999D01*
X207652381Y-136516666D02*
X208652381Y-136278571D01*
X207938095Y-136088094D01*
X208652381Y-135897618D01*
X207652381Y-135659523D01*
X208652381Y-135278571D02*
X207652381Y-135278571D01*
X207652381Y-134945238D02*
X207652381Y-134373809D01*
X208652381Y-134659524D02*
X207652381Y-134659524D01*
X208557143Y-133469047D02*
X208604762Y-133516666D01*
X208652381Y-133659523D01*
X208652381Y-133754761D01*
X208604762Y-133897619D01*
X208509524Y-133992857D01*
X208414286Y-134040476D01*
X208223810Y-134088095D01*
X208080952Y-134088095D01*
X207890476Y-134040476D01*
X207795238Y-133992857D01*
X207700000Y-133897619D01*
X207652381Y-133754761D01*
X207652381Y-133659523D01*
X207700000Y-133516666D01*
X207747619Y-133469047D01*
X208652381Y-133040476D02*
X207652381Y-133040476D01*
X208128571Y-133040476D02*
X208128571Y-132469047D01*
X208652381Y-132469047D02*
X207652381Y-132469047D01*
X208747619Y-132230952D02*
X208747619Y-131469047D01*
X208652381Y-131230952D02*
X207652381Y-131230952D01*
X208652381Y-130754762D02*
X207652381Y-130754762D01*
X208652381Y-130183333D01*
X207652381Y-130183333D01*
X207652381Y-129850000D02*
X208652381Y-129516667D01*
X207652381Y-129183333D01*
X227654762Y-137421428D02*
X227702381Y-137278571D01*
X227702381Y-137040475D01*
X227654762Y-136945237D01*
X227607143Y-136897618D01*
X227511905Y-136849999D01*
X227416667Y-136849999D01*
X227321429Y-136897618D01*
X227273810Y-136945237D01*
X227226190Y-137040475D01*
X227178571Y-137230952D01*
X227130952Y-137326190D01*
X227083333Y-137373809D01*
X226988095Y-137421428D01*
X226892857Y-137421428D01*
X226797619Y-137373809D01*
X226750000Y-137326190D01*
X226702381Y-137230952D01*
X226702381Y-136992856D01*
X226750000Y-136849999D01*
X226702381Y-136516666D02*
X227702381Y-136278571D01*
X226988095Y-136088094D01*
X227702381Y-135897618D01*
X226702381Y-135659523D01*
X227702381Y-135278571D02*
X226702381Y-135278571D01*
X226702381Y-134945238D02*
X226702381Y-134373809D01*
X227702381Y-134659524D02*
X226702381Y-134659524D01*
X227607143Y-133469047D02*
X227654762Y-133516666D01*
X227702381Y-133659523D01*
X227702381Y-133754761D01*
X227654762Y-133897619D01*
X227559524Y-133992857D01*
X227464286Y-134040476D01*
X227273810Y-134088095D01*
X227130952Y-134088095D01*
X226940476Y-134040476D01*
X226845238Y-133992857D01*
X226750000Y-133897619D01*
X226702381Y-133754761D01*
X226702381Y-133659523D01*
X226750000Y-133516666D01*
X226797619Y-133469047D01*
X227702381Y-133040476D02*
X226702381Y-133040476D01*
X227178571Y-133040476D02*
X227178571Y-132469047D01*
X227702381Y-132469047D02*
X226702381Y-132469047D01*
X227797619Y-132230952D02*
X227797619Y-131469047D01*
X227702381Y-131230952D02*
X226702381Y-131230952D01*
X227702381Y-130754762D02*
X226702381Y-130754762D01*
X227702381Y-130183333D01*
X226702381Y-130183333D01*
X226702381Y-129850000D02*
X227702381Y-129516667D01*
X226702381Y-129183333D01*
X247974762Y-137421428D02*
X248022381Y-137278571D01*
X248022381Y-137040475D01*
X247974762Y-136945237D01*
X247927143Y-136897618D01*
X247831905Y-136849999D01*
X247736667Y-136849999D01*
X247641429Y-136897618D01*
X247593810Y-136945237D01*
X247546190Y-137040475D01*
X247498571Y-137230952D01*
X247450952Y-137326190D01*
X247403333Y-137373809D01*
X247308095Y-137421428D01*
X247212857Y-137421428D01*
X247117619Y-137373809D01*
X247070000Y-137326190D01*
X247022381Y-137230952D01*
X247022381Y-136992856D01*
X247070000Y-136849999D01*
X247022381Y-136516666D02*
X248022381Y-136278571D01*
X247308095Y-136088094D01*
X248022381Y-135897618D01*
X247022381Y-135659523D01*
X248022381Y-135278571D02*
X247022381Y-135278571D01*
X247022381Y-134945238D02*
X247022381Y-134373809D01*
X248022381Y-134659524D02*
X247022381Y-134659524D01*
X247927143Y-133469047D02*
X247974762Y-133516666D01*
X248022381Y-133659523D01*
X248022381Y-133754761D01*
X247974762Y-133897619D01*
X247879524Y-133992857D01*
X247784286Y-134040476D01*
X247593810Y-134088095D01*
X247450952Y-134088095D01*
X247260476Y-134040476D01*
X247165238Y-133992857D01*
X247070000Y-133897619D01*
X247022381Y-133754761D01*
X247022381Y-133659523D01*
X247070000Y-133516666D01*
X247117619Y-133469047D01*
X248022381Y-133040476D02*
X247022381Y-133040476D01*
X247498571Y-133040476D02*
X247498571Y-132469047D01*
X248022381Y-132469047D02*
X247022381Y-132469047D01*
X248117619Y-132230952D02*
X248117619Y-131469047D01*
X248022381Y-131230952D02*
X247022381Y-131230952D01*
X248022381Y-130754762D02*
X247022381Y-130754762D01*
X248022381Y-130183333D01*
X247022381Y-130183333D01*
X247022381Y-129850000D02*
X248022381Y-129516667D01*
X247022381Y-129183333D01*
X259564762Y-137421428D02*
X259612381Y-137278571D01*
X259612381Y-137040475D01*
X259564762Y-136945237D01*
X259517143Y-136897618D01*
X259421905Y-136849999D01*
X259326667Y-136849999D01*
X259231429Y-136897618D01*
X259183810Y-136945237D01*
X259136190Y-137040475D01*
X259088571Y-137230952D01*
X259040952Y-137326190D01*
X258993333Y-137373809D01*
X258898095Y-137421428D01*
X258802857Y-137421428D01*
X258707619Y-137373809D01*
X258660000Y-137326190D01*
X258612381Y-137230952D01*
X258612381Y-136992856D01*
X258660000Y-136849999D01*
X258612381Y-136516666D02*
X259612381Y-136278571D01*
X258898095Y-136088094D01*
X259612381Y-135897618D01*
X258612381Y-135659523D01*
X259612381Y-135278571D02*
X258612381Y-135278571D01*
X258612381Y-134945238D02*
X258612381Y-134373809D01*
X259612381Y-134659524D02*
X258612381Y-134659524D01*
X259517143Y-133469047D02*
X259564762Y-133516666D01*
X259612381Y-133659523D01*
X259612381Y-133754761D01*
X259564762Y-133897619D01*
X259469524Y-133992857D01*
X259374286Y-134040476D01*
X259183810Y-134088095D01*
X259040952Y-134088095D01*
X258850476Y-134040476D01*
X258755238Y-133992857D01*
X258660000Y-133897619D01*
X258612381Y-133754761D01*
X258612381Y-133659523D01*
X258660000Y-133516666D01*
X258707619Y-133469047D01*
X259612381Y-133040476D02*
X258612381Y-133040476D01*
X259088571Y-133040476D02*
X259088571Y-132469047D01*
X259612381Y-132469047D02*
X258612381Y-132469047D01*
X259707619Y-132230952D02*
X259707619Y-131469047D01*
X259612381Y-131230952D02*
X258612381Y-131230952D01*
X259612381Y-130754762D02*
X258612381Y-130754762D01*
X259612381Y-130183333D01*
X258612381Y-130183333D01*
X258612381Y-129850000D02*
X259612381Y-129516667D01*
X258612381Y-129183333D01*
X148598571Y-130976667D02*
X149074762Y-130976667D01*
X148503333Y-131262381D02*
X148836666Y-130262381D01*
X149170000Y-131262381D01*
X149503333Y-131262381D02*
X149503333Y-130595714D01*
X149503333Y-130786190D02*
X149550952Y-130690952D01*
X149598571Y-130643333D01*
X149693809Y-130595714D01*
X149789048Y-130595714D01*
X150550953Y-131262381D02*
X150550953Y-130262381D01*
X150550953Y-131214762D02*
X150455715Y-131262381D01*
X150265238Y-131262381D01*
X150170000Y-131214762D01*
X150122381Y-131167143D01*
X150074762Y-131071905D01*
X150074762Y-130786190D01*
X150122381Y-130690952D01*
X150170000Y-130643333D01*
X150265238Y-130595714D01*
X150455715Y-130595714D01*
X150550953Y-130643333D01*
X151455715Y-130595714D02*
X151455715Y-131262381D01*
X151027143Y-130595714D02*
X151027143Y-131119524D01*
X151074762Y-131214762D01*
X151170000Y-131262381D01*
X151312858Y-131262381D01*
X151408096Y-131214762D01*
X151455715Y-131167143D01*
X151931905Y-131262381D02*
X151931905Y-130595714D01*
X151931905Y-130262381D02*
X151884286Y-130310000D01*
X151931905Y-130357619D01*
X151979524Y-130310000D01*
X151931905Y-130262381D01*
X151931905Y-130357619D01*
X152408095Y-130595714D02*
X152408095Y-131262381D01*
X152408095Y-130690952D02*
X152455714Y-130643333D01*
X152550952Y-130595714D01*
X152693810Y-130595714D01*
X152789048Y-130643333D01*
X152836667Y-130738571D01*
X152836667Y-131262381D01*
X153455714Y-131262381D02*
X153360476Y-131214762D01*
X153312857Y-131167143D01*
X153265238Y-131071905D01*
X153265238Y-130786190D01*
X153312857Y-130690952D01*
X153360476Y-130643333D01*
X153455714Y-130595714D01*
X153598572Y-130595714D01*
X153693810Y-130643333D01*
X153741429Y-130690952D01*
X153789048Y-130786190D01*
X153789048Y-131071905D01*
X153741429Y-131167143D01*
X153693810Y-131214762D01*
X153598572Y-131262381D01*
X153455714Y-131262381D01*
X153979524Y-131357619D02*
X154741429Y-131357619D01*
X154979524Y-131262381D02*
X154979524Y-130595714D01*
X154979524Y-130690952D02*
X155027143Y-130643333D01*
X155122381Y-130595714D01*
X155265239Y-130595714D01*
X155360477Y-130643333D01*
X155408096Y-130738571D01*
X155408096Y-131262381D01*
X155408096Y-130738571D02*
X155455715Y-130643333D01*
X155550953Y-130595714D01*
X155693810Y-130595714D01*
X155789048Y-130643333D01*
X155836667Y-130738571D01*
X155836667Y-131262381D01*
X156312857Y-131262381D02*
X156312857Y-130595714D01*
X156312857Y-130262381D02*
X156265238Y-130310000D01*
X156312857Y-130357619D01*
X156360476Y-130310000D01*
X156312857Y-130262381D01*
X156312857Y-130357619D01*
X157217619Y-131214762D02*
X157122381Y-131262381D01*
X156931904Y-131262381D01*
X156836666Y-131214762D01*
X156789047Y-131167143D01*
X156741428Y-131071905D01*
X156741428Y-130786190D01*
X156789047Y-130690952D01*
X156836666Y-130643333D01*
X156931904Y-130595714D01*
X157122381Y-130595714D01*
X157217619Y-130643333D01*
X157646190Y-131262381D02*
X157646190Y-130595714D01*
X157646190Y-130786190D02*
X157693809Y-130690952D01*
X157741428Y-130643333D01*
X157836666Y-130595714D01*
X157931905Y-130595714D01*
X158408095Y-131262381D02*
X158312857Y-131214762D01*
X158265238Y-131167143D01*
X158217619Y-131071905D01*
X158217619Y-130786190D01*
X158265238Y-130690952D01*
X158312857Y-130643333D01*
X158408095Y-130595714D01*
X158550953Y-130595714D01*
X158646191Y-130643333D01*
X158693810Y-130690952D01*
X158741429Y-130786190D01*
X158741429Y-131071905D01*
X158693810Y-131167143D01*
X158646191Y-131214762D01*
X158550953Y-131262381D01*
X158408095Y-131262381D01*
X140708095Y-148102381D02*
X140708095Y-147102381D01*
X140946190Y-147102381D01*
X141089048Y-147150000D01*
X141184286Y-147245238D01*
X141231905Y-147340476D01*
X141279524Y-147530952D01*
X141279524Y-147673810D01*
X141231905Y-147864286D01*
X141184286Y-147959524D01*
X141089048Y-148054762D01*
X140946190Y-148102381D01*
X140708095Y-148102381D01*
X376297619Y-124428095D02*
X376250000Y-124380476D01*
X376202381Y-124285238D01*
X376202381Y-124047142D01*
X376250000Y-123951904D01*
X376297619Y-123904285D01*
X376392857Y-123856666D01*
X376488095Y-123856666D01*
X376630952Y-123904285D01*
X377202381Y-124475714D01*
X377202381Y-123856666D01*
X376297619Y-123475714D02*
X376250000Y-123428095D01*
X376202381Y-123332857D01*
X376202381Y-123094761D01*
X376250000Y-122999523D01*
X376297619Y-122951904D01*
X376392857Y-122904285D01*
X376488095Y-122904285D01*
X376630952Y-122951904D01*
X377202381Y-123523333D01*
X377202381Y-122904285D01*
X376202381Y-122285238D02*
X376202381Y-122189999D01*
X376250000Y-122094761D01*
X376297619Y-122047142D01*
X376392857Y-121999523D01*
X376583333Y-121951904D01*
X376821429Y-121951904D01*
X377011905Y-121999523D01*
X377107143Y-122047142D01*
X377154762Y-122094761D01*
X377202381Y-122189999D01*
X377202381Y-122285238D01*
X377154762Y-122380476D01*
X377107143Y-122428095D01*
X377011905Y-122475714D01*
X376821429Y-122523333D01*
X376583333Y-122523333D01*
X376392857Y-122475714D01*
X376297619Y-122428095D01*
X376250000Y-122380476D01*
X376202381Y-122285238D01*
X374681905Y-147697619D02*
X374729524Y-147650000D01*
X374824762Y-147602381D01*
X375062858Y-147602381D01*
X375158096Y-147650000D01*
X375205715Y-147697619D01*
X375253334Y-147792857D01*
X375253334Y-147888095D01*
X375205715Y-148030952D01*
X374634286Y-148602381D01*
X375253334Y-148602381D01*
X375634286Y-147697619D02*
X375681905Y-147650000D01*
X375777143Y-147602381D01*
X376015239Y-147602381D01*
X376110477Y-147650000D01*
X376158096Y-147697619D01*
X376205715Y-147792857D01*
X376205715Y-147888095D01*
X376158096Y-148030952D01*
X375586667Y-148602381D01*
X376205715Y-148602381D01*
X376824762Y-147602381D02*
X376920001Y-147602381D01*
X377015239Y-147650000D01*
X377062858Y-147697619D01*
X377110477Y-147792857D01*
X377158096Y-147983333D01*
X377158096Y-148221429D01*
X377110477Y-148411905D01*
X377062858Y-148507143D01*
X377015239Y-148554762D01*
X376920001Y-148602381D01*
X376824762Y-148602381D01*
X376729524Y-148554762D01*
X376681905Y-148507143D01*
X376634286Y-148411905D01*
X376586667Y-148221429D01*
X376586667Y-147983333D01*
X376634286Y-147792857D01*
X376681905Y-147697619D01*
X376729524Y-147650000D01*
X376824762Y-147602381D01*
X302184762Y-133922381D02*
X301613333Y-133922381D01*
X301899047Y-133922381D02*
X301899047Y-132922381D01*
X301803809Y-133065238D01*
X301708571Y-133160476D01*
X301613333Y-133208095D01*
X302803809Y-132922381D02*
X302899048Y-132922381D01*
X302994286Y-132970000D01*
X303041905Y-133017619D01*
X303089524Y-133112857D01*
X303137143Y-133303333D01*
X303137143Y-133541429D01*
X303089524Y-133731905D01*
X303041905Y-133827143D01*
X302994286Y-133874762D01*
X302899048Y-133922381D01*
X302803809Y-133922381D01*
X302708571Y-133874762D01*
X302660952Y-133827143D01*
X302613333Y-133731905D01*
X302565714Y-133541429D01*
X302565714Y-133303333D01*
X302613333Y-133112857D01*
X302660952Y-133017619D01*
X302708571Y-132970000D01*
X302803809Y-132922381D01*
X303565714Y-133922381D02*
X303565714Y-132922381D01*
X303660952Y-133541429D02*
X303946667Y-133922381D01*
X303946667Y-133255714D02*
X303565714Y-133636667D01*
X302184762Y-118682381D02*
X301613333Y-118682381D01*
X301899047Y-118682381D02*
X301899047Y-117682381D01*
X301803809Y-117825238D01*
X301708571Y-117920476D01*
X301613333Y-117968095D01*
X302803809Y-117682381D02*
X302899048Y-117682381D01*
X302994286Y-117730000D01*
X303041905Y-117777619D01*
X303089524Y-117872857D01*
X303137143Y-118063333D01*
X303137143Y-118301429D01*
X303089524Y-118491905D01*
X303041905Y-118587143D01*
X302994286Y-118634762D01*
X302899048Y-118682381D01*
X302803809Y-118682381D01*
X302708571Y-118634762D01*
X302660952Y-118587143D01*
X302613333Y-118491905D01*
X302565714Y-118301429D01*
X302565714Y-118063333D01*
X302613333Y-117872857D01*
X302660952Y-117777619D01*
X302708571Y-117730000D01*
X302803809Y-117682381D01*
X303565714Y-118682381D02*
X303565714Y-117682381D01*
X303660952Y-118301429D02*
X303946667Y-118682381D01*
X303946667Y-118015714D02*
X303565714Y-118396667D01*
X248285714Y-145624762D02*
X248428571Y-145672381D01*
X248666667Y-145672381D01*
X248761905Y-145624762D01*
X248809524Y-145577143D01*
X248857143Y-145481905D01*
X248857143Y-145386667D01*
X248809524Y-145291429D01*
X248761905Y-145243810D01*
X248666667Y-145196190D01*
X248476190Y-145148571D01*
X248380952Y-145100952D01*
X248333333Y-145053333D01*
X248285714Y-144958095D01*
X248285714Y-144862857D01*
X248333333Y-144767619D01*
X248380952Y-144720000D01*
X248476190Y-144672381D01*
X248714286Y-144672381D01*
X248857143Y-144720000D01*
X249190476Y-145005714D02*
X249380952Y-145672381D01*
X249571429Y-145196190D01*
X249761905Y-145672381D01*
X249952381Y-145005714D01*
X250333333Y-145672381D02*
X250333333Y-145005714D01*
X250333333Y-144672381D02*
X250285714Y-144720000D01*
X250333333Y-144767619D01*
X250380952Y-144720000D01*
X250333333Y-144672381D01*
X250333333Y-144767619D01*
X250666666Y-145005714D02*
X251047618Y-145005714D01*
X250809523Y-144672381D02*
X250809523Y-145529524D01*
X250857142Y-145624762D01*
X250952380Y-145672381D01*
X251047618Y-145672381D01*
X251809524Y-145624762D02*
X251714286Y-145672381D01*
X251523809Y-145672381D01*
X251428571Y-145624762D01*
X251380952Y-145577143D01*
X251333333Y-145481905D01*
X251333333Y-145196190D01*
X251380952Y-145100952D01*
X251428571Y-145053333D01*
X251523809Y-145005714D01*
X251714286Y-145005714D01*
X251809524Y-145053333D01*
X252238095Y-145672381D02*
X252238095Y-144672381D01*
X252666667Y-145672381D02*
X252666667Y-145148571D01*
X252619048Y-145053333D01*
X252523810Y-145005714D01*
X252380952Y-145005714D01*
X252285714Y-145053333D01*
X252238095Y-145100952D01*
X252904762Y-145767619D02*
X253666667Y-145767619D01*
X253857143Y-145624762D02*
X254000000Y-145672381D01*
X254238096Y-145672381D01*
X254333334Y-145624762D01*
X254380953Y-145577143D01*
X254428572Y-145481905D01*
X254428572Y-145386667D01*
X254380953Y-145291429D01*
X254333334Y-145243810D01*
X254238096Y-145196190D01*
X254047619Y-145148571D01*
X253952381Y-145100952D01*
X253904762Y-145053333D01*
X253857143Y-144958095D01*
X253857143Y-144862857D01*
X253904762Y-144767619D01*
X253952381Y-144720000D01*
X254047619Y-144672381D01*
X254285715Y-144672381D01*
X254428572Y-144720000D01*
X254857143Y-145672381D02*
X254857143Y-144672381D01*
X255238096Y-144672381D01*
X255333334Y-144720000D01*
X255380953Y-144767619D01*
X255428572Y-144862857D01*
X255428572Y-145005714D01*
X255380953Y-145100952D01*
X255333334Y-145148571D01*
X255238096Y-145196190D01*
X254857143Y-145196190D01*
X255857143Y-145672381D02*
X255857143Y-144672381D01*
X256095238Y-144672381D01*
X256238096Y-144720000D01*
X256333334Y-144815238D01*
X256380953Y-144910476D01*
X256428572Y-145100952D01*
X256428572Y-145243810D01*
X256380953Y-145434286D01*
X256333334Y-145529524D01*
X256238096Y-145624762D01*
X256095238Y-145672381D01*
X255857143Y-145672381D01*
X256714286Y-144672381D02*
X257285715Y-144672381D01*
X257000000Y-145672381D02*
X257000000Y-144672381D01*
X257380953Y-145767619D02*
X258142858Y-145767619D01*
X258285715Y-145672381D02*
X258809525Y-145005714D01*
X258285715Y-145005714D02*
X258809525Y-145672381D01*
X259142858Y-144767619D02*
X259190477Y-144720000D01*
X259285715Y-144672381D01*
X259523811Y-144672381D01*
X259619049Y-144720000D01*
X259666668Y-144767619D01*
X259714287Y-144862857D01*
X259714287Y-144958095D01*
X259666668Y-145100952D01*
X259095239Y-145672381D01*
X259714287Y-145672381D01*
X268892381Y-140802381D02*
X269606667Y-140802381D01*
X269749524Y-140850001D01*
X269844762Y-140945239D01*
X269892381Y-141088096D01*
X269892381Y-141183334D01*
X269892381Y-140183334D02*
X269844762Y-140278572D01*
X269797143Y-140326191D01*
X269701905Y-140373810D01*
X269416190Y-140373810D01*
X269320952Y-140326191D01*
X269273333Y-140278572D01*
X269225714Y-140183334D01*
X269225714Y-140040476D01*
X269273333Y-139945238D01*
X269320952Y-139897619D01*
X269416190Y-139850000D01*
X269701905Y-139850000D01*
X269797143Y-139897619D01*
X269844762Y-139945238D01*
X269892381Y-140040476D01*
X269892381Y-140183334D01*
X269225714Y-139516667D02*
X269892381Y-139278572D01*
X269225714Y-139040476D02*
X269892381Y-139278572D01*
X270130476Y-139373810D01*
X270178095Y-139421429D01*
X270225714Y-139516667D01*
X269844762Y-138707143D02*
X269892381Y-138611905D01*
X269892381Y-138421429D01*
X269844762Y-138326190D01*
X269749524Y-138278571D01*
X269701905Y-138278571D01*
X269606667Y-138326190D01*
X269559048Y-138421429D01*
X269559048Y-138564286D01*
X269511429Y-138659524D01*
X269416190Y-138707143D01*
X269368571Y-138707143D01*
X269273333Y-138659524D01*
X269225714Y-138564286D01*
X269225714Y-138421429D01*
X269273333Y-138326190D01*
X269225714Y-137992857D02*
X269225714Y-137611905D01*
X268892381Y-137850000D02*
X269749524Y-137850000D01*
X269844762Y-137802381D01*
X269892381Y-137707143D01*
X269892381Y-137611905D01*
X269892381Y-137278571D02*
X269225714Y-137278571D01*
X268892381Y-137278571D02*
X268940000Y-137326190D01*
X268987619Y-137278571D01*
X268940000Y-137230952D01*
X268892381Y-137278571D01*
X268987619Y-137278571D01*
X269844762Y-136373809D02*
X269892381Y-136469047D01*
X269892381Y-136659524D01*
X269844762Y-136754762D01*
X269797143Y-136802381D01*
X269701905Y-136850000D01*
X269416190Y-136850000D01*
X269320952Y-136802381D01*
X269273333Y-136754762D01*
X269225714Y-136659524D01*
X269225714Y-136469047D01*
X269273333Y-136373809D01*
X269892381Y-135945238D02*
X268892381Y-135945238D01*
X269511429Y-135850000D02*
X269892381Y-135564285D01*
X269225714Y-135564285D02*
X269606667Y-135945238D01*
M02*
