G04 #@! TF.FileFunction,Soldermask,Top*
%FSLAX46Y46*%
G04 Gerber Fmt 4.6, Leading zero omitted, Abs format (unit mm)*
G04 Created by KiCad (PCBNEW 4.0.4+e1-6308~48~ubuntu16.04.1-stable) date Sun Oct  9 19:18:54 2016*
%MOMM*%
%LPD*%
G01*
G04 APERTURE LIST*
%ADD10C,0.100000*%
%ADD11C,2.000000*%
%ADD12R,2.500000X2.500000*%
%ADD13C,2.500000*%
%ADD14C,1.524000*%
%ADD15R,2.000000X2.000000*%
%ADD16R,0.800000X0.900000*%
%ADD17R,1.300000X1.500000*%
%ADD18R,1.500000X1.300000*%
%ADD19R,5.000000X3.000000*%
%ADD20C,1.600000*%
%ADD21C,0.900000*%
%ADD22R,0.700000X1.500000*%
%ADD23R,1.000000X0.800000*%
%ADD24C,1.800000*%
G04 APERTURE END LIST*
D10*
D11*
X303530000Y-137160000D03*
X303530000Y-132080000D03*
X393700000Y-132120000D03*
X393700000Y-137120000D03*
X383700000Y-134620000D03*
X383700000Y-127120000D03*
X383700000Y-142120000D03*
X381200000Y-129620000D03*
X381200000Y-139620000D03*
D12*
X203200000Y-125850000D03*
D13*
X203200000Y-140850000D03*
X203200000Y-133350000D03*
D12*
X222250000Y-125850000D03*
D13*
X222250000Y-140850000D03*
X222250000Y-133350000D03*
D12*
X242570000Y-125850000D03*
D13*
X242570000Y-140850000D03*
X242570000Y-133350000D03*
D12*
X264160000Y-140850000D03*
D13*
X264160000Y-125850000D03*
X264160000Y-133350000D03*
D14*
X146050000Y-143510000D03*
X148590000Y-143510000D03*
X151130000Y-143510000D03*
X153670000Y-143510000D03*
X156210000Y-143510000D03*
X158750000Y-143510000D03*
X161290000Y-143510000D03*
X163830000Y-143510000D03*
X166370000Y-143510000D03*
X168910000Y-143510000D03*
X171450000Y-143510000D03*
X173990000Y-143510000D03*
X176530000Y-143510000D03*
X179070000Y-143510000D03*
X181610000Y-143510000D03*
X184150000Y-143510000D03*
X186690000Y-143510000D03*
X186690000Y-128270000D03*
X184150000Y-128270000D03*
X181610000Y-128270000D03*
X179070000Y-128270000D03*
X176530000Y-128270000D03*
X173990000Y-128270000D03*
X171450000Y-128270000D03*
X168910000Y-128270000D03*
X166370000Y-128270000D03*
X163830000Y-128270000D03*
X161290000Y-128270000D03*
X158750000Y-128270000D03*
X156210000Y-128270000D03*
X153670000Y-128270000D03*
X151130000Y-128270000D03*
X148590000Y-128270000D03*
X146050000Y-128270000D03*
D15*
X139700000Y-142240000D03*
D11*
X139700000Y-139700000D03*
X139700000Y-137160000D03*
X139700000Y-134620000D03*
X139700000Y-132080000D03*
X139700000Y-129540000D03*
D16*
X142020000Y-146050000D03*
X139920000Y-146050000D03*
D17*
X374650000Y-124540000D03*
X374650000Y-121840000D03*
D18*
X374570000Y-146050000D03*
X377270000Y-146050000D03*
D19*
X311280000Y-140970000D03*
X356780000Y-140970000D03*
D20*
X300280000Y-139800000D03*
X300280000Y-137320000D03*
X370280000Y-139420000D03*
X370280000Y-144170000D03*
X300280000Y-142140000D03*
X300280000Y-144620000D03*
D19*
X311280000Y-125730000D03*
X356780000Y-125730000D03*
D20*
X300280000Y-124560000D03*
X300280000Y-122080000D03*
X370280000Y-124180000D03*
X370280000Y-128930000D03*
X300280000Y-126900000D03*
X300280000Y-129380000D03*
D21*
X194080000Y-122865000D03*
X197080000Y-122865000D03*
X252500000Y-141295000D03*
X255500000Y-141295000D03*
D22*
X251750000Y-139545000D03*
X254750000Y-139545000D03*
X256250000Y-139545000D03*
D23*
X250350000Y-142395000D03*
X257650000Y-142395000D03*
X257650000Y-140195000D03*
X250350000Y-140195000D03*
D24*
X284440000Y-123550000D03*
X281940000Y-123550000D03*
X279440000Y-123550000D03*
X272140000Y-130850000D03*
X272140000Y-133350000D03*
X272140000Y-135850000D03*
D13*
X275140000Y-125550000D03*
X275140000Y-141150000D03*
X288740000Y-141150000D03*
X288740000Y-125550000D03*
D11*
X290190000Y-129550000D03*
X294690000Y-137150000D03*
X290190000Y-137150000D03*
X294690000Y-129550000D03*
D19*
X169040000Y-135890000D03*
X214540000Y-135890000D03*
D20*
X158040000Y-137060000D03*
X158040000Y-139540000D03*
X228040000Y-137440000D03*
X228040000Y-132690000D03*
X158040000Y-134720000D03*
X158040000Y-132240000D03*
M02*
