M48
;DRILL file {KiCad 4.0.4+e1-6308~48~ubuntu16.04.1-stable} date Wed Sep 21 12:51:47 2016
;FORMAT={-:-/ absolute / inch / decimal}
FMAT,2
INCH,TZ
T1C0.016
T2C0.024
T3C0.030
T4C0.032
T5C0.039
T6C0.039
T7C0.047
T8C0.051
T9C0.059
T10C0.063
T11C0.079
%
G90
G05
M72
T1
X5.95Y-5.15
X6.5Y-4.95
X6.75Y-5.15
X6.95Y-5.5
X7.6Y-5.45
X8.5Y-5.05
X10.25Y-5.05
X10.95Y-5.6
T2
X6.222Y-5.2516
X6.222Y-5.3008
X6.222Y-5.3992
X6.222Y-5.4484
X7.65Y-4.8516
X7.65Y-4.95
X7.65Y-5.0484
X8.978Y-5.2516
X8.978Y-5.3992
X11.822Y-4.8516
X11.822Y-4.9008
X11.822Y-4.9992
X11.822Y-5.0484
X11.822Y-5.3016
X11.822Y-5.3508
X11.822Y-5.4492
X11.822Y-5.4984
X14.578Y-4.9008
X14.578Y-5.0484
X14.578Y-5.3508
X14.578Y-5.4984
T3
X5.75Y-5.05
X5.75Y-5.65
X5.85Y-5.05
X5.85Y-5.65
X5.95Y-5.05
X5.95Y-5.65
X6.05Y-5.05
X6.05Y-5.65
X6.15Y-5.05
X6.15Y-5.65
X6.25Y-5.05
X6.25Y-5.65
X6.35Y-5.05
X6.35Y-5.65
X6.45Y-5.05
X6.45Y-5.65
X6.55Y-5.05
X6.55Y-5.65
X6.65Y-5.05
X6.65Y-5.65
X6.75Y-5.05
X6.75Y-5.65
X6.85Y-5.05
X6.85Y-5.65
X6.95Y-5.05
X6.95Y-5.65
X7.05Y-5.05
X7.05Y-5.65
X7.15Y-5.05
X7.15Y-5.65
X7.25Y-5.05
X7.25Y-5.65
X7.35Y-5.05
X7.35Y-5.65
T4
X5.75Y-5.25
X5.75Y-5.45
X6.05Y-5.25
X6.05Y-5.45
T5
X10.7142Y-5.1516
X10.7142Y-5.25
X10.7142Y-5.3484
X11.0016Y-4.8642
X11.1Y-4.8642
X11.1984Y-4.8642
X11.95Y-5.2
X11.95Y-5.4
T6
X9.9Y-4.8
X10.3Y-4.8
X12.75Y-5.75
X13.15Y-5.75
T7
X11.4248Y-5.1004
X11.4248Y-5.3996
X11.602Y-5.1004
X11.602Y-5.3996
T8
X5.5Y-5.1
X5.5Y-5.2
X5.5Y-5.3
X5.5Y-5.4
X5.5Y-5.5
X5.5Y-5.6
X15.0079Y-5.1031
X15.0079Y-5.4969
X15.1063Y-5.0047
X15.1063Y-5.3
X15.1063Y-5.5953
X15.5Y-5.2016
X15.5Y-5.3984
T9
X10.8323Y-4.9429
X10.8323Y-5.5571
X11.3677Y-4.9429
X11.3677Y-5.5571
T10
X8.6Y-4.9547
X8.6Y-5.25
X8.6Y-5.5453
X9.2Y-4.9547
X9.2Y-5.25
X9.2Y-5.5453
X9.8Y-4.9547
X9.8Y-5.25
X9.8Y-5.5453
X10.4Y-4.9547
X10.4Y-5.25
X10.4Y-5.5453
T11
X6.6157Y-5.35
X8.4858Y-5.35
X12.2157Y-4.95
X12.2157Y-5.4
X14.0858Y-4.95
X14.0858Y-5.4
T0
M30
