G04 #@! TF.FileFunction,Copper,L1,Top,Signal*
%FSLAX46Y46*%
G04 Gerber Fmt 4.6, Leading zero omitted, Abs format (unit mm)*
G04 Created by KiCad (PCBNEW 4.0.4+e1-6308~48~ubuntu16.04.1-stable) date Sun Oct  9 19:18:54 2016*
%MOMM*%
%LPD*%
G01*
G04 APERTURE LIST*
%ADD10C,0.100000*%
%ADD11C,2.000000*%
%ADD12R,2.500000X2.500000*%
%ADD13C,2.500000*%
%ADD14C,1.524000*%
%ADD15R,2.000000X2.000000*%
%ADD16R,0.800000X0.900000*%
%ADD17R,1.300000X1.500000*%
%ADD18R,1.500000X1.300000*%
%ADD19R,5.000000X3.000000*%
%ADD20C,1.600000*%
%ADD21R,0.700000X1.500000*%
%ADD22R,1.000000X0.800000*%
%ADD23C,1.800000*%
%ADD24C,0.600000*%
%ADD25C,0.250000*%
%ADD26C,0.254000*%
G04 APERTURE END LIST*
D10*
D11*
X303530000Y-137160000D03*
X303530000Y-132080000D03*
X393700000Y-132120000D03*
X393700000Y-137120000D03*
X383700000Y-134620000D03*
X383700000Y-127120000D03*
X383700000Y-142120000D03*
X381200000Y-129620000D03*
X381200000Y-139620000D03*
D12*
X203200000Y-125850000D03*
D13*
X203200000Y-140850000D03*
X203200000Y-133350000D03*
D12*
X222250000Y-125850000D03*
D13*
X222250000Y-140850000D03*
X222250000Y-133350000D03*
D12*
X242570000Y-125850000D03*
D13*
X242570000Y-140850000D03*
X242570000Y-133350000D03*
D12*
X264160000Y-140850000D03*
D13*
X264160000Y-125850000D03*
X264160000Y-133350000D03*
D14*
X146050000Y-143510000D03*
X148590000Y-143510000D03*
X151130000Y-143510000D03*
X153670000Y-143510000D03*
X156210000Y-143510000D03*
X158750000Y-143510000D03*
X161290000Y-143510000D03*
X163830000Y-143510000D03*
X166370000Y-143510000D03*
X168910000Y-143510000D03*
X171450000Y-143510000D03*
X173990000Y-143510000D03*
X176530000Y-143510000D03*
X179070000Y-143510000D03*
X181610000Y-143510000D03*
X184150000Y-143510000D03*
X186690000Y-143510000D03*
X186690000Y-128270000D03*
X184150000Y-128270000D03*
X181610000Y-128270000D03*
X179070000Y-128270000D03*
X176530000Y-128270000D03*
X173990000Y-128270000D03*
X171450000Y-128270000D03*
X168910000Y-128270000D03*
X166370000Y-128270000D03*
X163830000Y-128270000D03*
X161290000Y-128270000D03*
X158750000Y-128270000D03*
X156210000Y-128270000D03*
X153670000Y-128270000D03*
X151130000Y-128270000D03*
X148590000Y-128270000D03*
X146050000Y-128270000D03*
D15*
X139700000Y-142240000D03*
D11*
X139700000Y-139700000D03*
X139700000Y-137160000D03*
X139700000Y-134620000D03*
X139700000Y-132080000D03*
X139700000Y-129540000D03*
D16*
X142020000Y-146050000D03*
X139920000Y-146050000D03*
D17*
X374650000Y-124540000D03*
X374650000Y-121840000D03*
D18*
X374570000Y-146050000D03*
X377270000Y-146050000D03*
D19*
X311280000Y-140970000D03*
X356780000Y-140970000D03*
D20*
X300280000Y-139800000D03*
X300280000Y-137320000D03*
X370280000Y-139420000D03*
X370280000Y-144170000D03*
X300280000Y-142140000D03*
X300280000Y-144620000D03*
D19*
X311280000Y-125730000D03*
X356780000Y-125730000D03*
D20*
X300280000Y-124560000D03*
X300280000Y-122080000D03*
X370280000Y-124180000D03*
X370280000Y-128930000D03*
X300280000Y-126900000D03*
X300280000Y-129380000D03*
D21*
X251750000Y-139545000D03*
X254750000Y-139545000D03*
X256250000Y-139545000D03*
D22*
X250350000Y-142395000D03*
X257650000Y-142395000D03*
X257650000Y-140195000D03*
X250350000Y-140195000D03*
D23*
X284440000Y-123550000D03*
X281940000Y-123550000D03*
X279440000Y-123550000D03*
X272140000Y-130850000D03*
X272140000Y-133350000D03*
X272140000Y-135850000D03*
D13*
X275140000Y-125550000D03*
X275140000Y-141150000D03*
X288740000Y-141150000D03*
X288740000Y-125550000D03*
D11*
X290190000Y-129550000D03*
X294690000Y-137150000D03*
X290190000Y-137150000D03*
X294690000Y-129550000D03*
D19*
X169040000Y-135890000D03*
X214540000Y-135890000D03*
D20*
X158040000Y-137060000D03*
X158040000Y-139540000D03*
X228040000Y-137440000D03*
X228040000Y-132690000D03*
X158040000Y-134720000D03*
X158040000Y-132240000D03*
D24*
X271780000Y-138430000D03*
X267970000Y-138430000D03*
X259080000Y-137160000D03*
X215900000Y-130810000D03*
X219710000Y-130810000D03*
X302260000Y-129540000D03*
X154940000Y-140970000D03*
X167640000Y-120650000D03*
X297180000Y-124460000D03*
X151130000Y-133350000D03*
X189230000Y-121920000D03*
X278130000Y-127000000D03*
X284480000Y-127000000D03*
X198120000Y-127000000D03*
X176530000Y-137160000D03*
X181610000Y-137160000D03*
X190500000Y-132080000D03*
X190500000Y-129540000D03*
X219710000Y-135890000D03*
X171450000Y-130810000D03*
X215900000Y-128270000D03*
X260350000Y-128270000D03*
X176530000Y-139700000D03*
X278130000Y-142240000D03*
X151130000Y-130810000D03*
X144780000Y-140970000D03*
X213360000Y-143510000D03*
X210820000Y-146050000D03*
D25*
X256250000Y-139545000D02*
X256695000Y-139545000D01*
X267970000Y-138430000D02*
X271780000Y-138430000D01*
X256695000Y-139545000D02*
X259080000Y-137160000D01*
X381200000Y-129620000D02*
X383620000Y-129620000D01*
X384810000Y-146050000D02*
X377270000Y-146050000D01*
X387350000Y-143510000D02*
X384810000Y-146050000D01*
X387350000Y-133350000D02*
X387350000Y-143510000D01*
X383620000Y-129620000D02*
X387350000Y-133350000D01*
X381080000Y-129500000D02*
X381200000Y-129620000D01*
X381200000Y-139620000D02*
X380920000Y-139620000D01*
X380920000Y-139620000D02*
X374650000Y-133350000D01*
X374650000Y-133350000D02*
X374650000Y-124540000D01*
X381040000Y-139780000D02*
X381200000Y-139620000D01*
X303530000Y-121920000D02*
X302260000Y-120650000D01*
X302260000Y-120650000D02*
X295910000Y-120650000D01*
X374650000Y-121840000D02*
X303610000Y-121840000D01*
X181610000Y-127000000D02*
X181610000Y-128270000D01*
X295910000Y-120650000D02*
X247650000Y-120650000D01*
X247650000Y-120650000D02*
X187960000Y-120650000D01*
X187960000Y-120650000D02*
X181610000Y-127000000D01*
X303610000Y-121840000D02*
X303530000Y-121920000D01*
X374570000Y-146050000D02*
X374570000Y-138510000D01*
X219710000Y-130810000D02*
X215900000Y-130810000D01*
X306070000Y-129540000D02*
X302260000Y-129540000D01*
X308610000Y-132080000D02*
X306070000Y-129540000D01*
X368140000Y-132080000D02*
X308610000Y-132080000D01*
X374570000Y-138510000D02*
X368140000Y-132080000D01*
X140970000Y-137160000D02*
X139700000Y-137160000D01*
X142240000Y-135890000D02*
X140970000Y-137160000D01*
X147320000Y-135890000D02*
X142240000Y-135890000D01*
X152400000Y-140970000D02*
X147320000Y-135890000D01*
X154940000Y-140970000D02*
X152400000Y-140970000D01*
X300280000Y-137320000D02*
X300280000Y-133910000D01*
X161290000Y-127000000D02*
X161290000Y-128270000D01*
X167640000Y-120650000D02*
X161290000Y-127000000D01*
X297180000Y-130810000D02*
X297180000Y-124460000D01*
X300280000Y-133910000D02*
X297180000Y-130810000D01*
X300280000Y-122080000D02*
X287180000Y-122080000D01*
X274320000Y-121920000D02*
X189230000Y-121920000D01*
X276860000Y-124460000D02*
X274320000Y-121920000D01*
X278130000Y-125730000D02*
X276860000Y-124460000D01*
X278130000Y-127000000D02*
X278130000Y-125730000D01*
X287020000Y-124460000D02*
X284480000Y-127000000D01*
X287020000Y-122240000D02*
X287020000Y-124460000D01*
X287180000Y-122080000D02*
X287020000Y-122240000D01*
X158040000Y-139540000D02*
X157640000Y-139540000D01*
X157640000Y-139540000D02*
X156210000Y-140970000D01*
X156210000Y-140970000D02*
X156210000Y-143510000D01*
X242570000Y-125850000D02*
X260230000Y-125850000D01*
X261380000Y-138190000D02*
X264040000Y-140850000D01*
X261380000Y-127000000D02*
X261380000Y-138190000D01*
X260230000Y-125850000D02*
X261380000Y-127000000D01*
X264040000Y-140850000D02*
X264160000Y-140850000D01*
X222250000Y-125850000D02*
X242570000Y-125850000D01*
X203200000Y-125850000D02*
X222250000Y-125850000D01*
X179070000Y-128270000D02*
X179070000Y-137160000D01*
X200780000Y-138430000D02*
X203200000Y-140850000D01*
X180340000Y-138430000D02*
X200780000Y-138430000D01*
X179070000Y-137160000D02*
X180340000Y-138430000D01*
X203200000Y-133350000D02*
X200660000Y-133350000D01*
X198120000Y-130810000D02*
X198120000Y-127000000D01*
X200660000Y-133350000D02*
X198120000Y-130810000D01*
X222250000Y-133350000D02*
X203200000Y-133350000D01*
X222250000Y-133350000D02*
X223520000Y-134620000D01*
X241300000Y-133350000D02*
X242570000Y-133350000D01*
X240030000Y-134620000D02*
X241300000Y-133350000D01*
X223520000Y-134620000D02*
X240030000Y-134620000D01*
X222250000Y-140850000D02*
X209430000Y-140850000D01*
X173990000Y-130810000D02*
X171450000Y-128270000D01*
X173990000Y-137160000D02*
X173990000Y-130810000D01*
X176530000Y-137160000D02*
X173990000Y-137160000D01*
X205740000Y-137160000D02*
X181610000Y-137160000D01*
X209430000Y-140850000D02*
X205740000Y-137160000D01*
X242570000Y-140850000D02*
X226180000Y-140850000D01*
X190500000Y-129540000D02*
X190500000Y-132080000D01*
X220980000Y-137160000D02*
X219710000Y-135890000D01*
X222490000Y-137160000D02*
X220980000Y-137160000D01*
X226180000Y-140850000D02*
X222490000Y-137160000D01*
X166370000Y-129540000D02*
X166370000Y-128270000D01*
X167640000Y-130810000D02*
X166370000Y-129540000D01*
X171450000Y-130810000D02*
X167640000Y-130810000D01*
X260350000Y-128270000D02*
X215900000Y-128270000D01*
X158750000Y-143510000D02*
X158750000Y-140970000D01*
X160020000Y-139700000D02*
X176530000Y-139700000D01*
X158750000Y-140970000D02*
X160020000Y-139700000D01*
X281940000Y-123550000D02*
X281940000Y-124460000D01*
X161290000Y-142240000D02*
X162560000Y-140970000D01*
X162560000Y-140970000D02*
X189230000Y-140970000D01*
X189230000Y-140970000D02*
X193040000Y-144780000D01*
X193040000Y-144780000D02*
X266700000Y-144780000D01*
X266700000Y-144780000D02*
X274320000Y-137160000D01*
X274320000Y-137160000D02*
X274320000Y-132080000D01*
X274320000Y-132080000D02*
X281940000Y-124460000D01*
X161290000Y-142240000D02*
X161290000Y-143510000D01*
X290190000Y-129550000D02*
X290190000Y-130180000D01*
X290190000Y-130180000D02*
X278130000Y-142240000D01*
X151130000Y-130810000D02*
X162560000Y-130810000D01*
X162560000Y-130810000D02*
X163830000Y-129540000D01*
X163830000Y-129540000D02*
X163830000Y-128270000D01*
X142020000Y-146050000D02*
X142020000Y-142460000D01*
X143510000Y-140970000D02*
X144780000Y-140970000D01*
X142020000Y-142460000D02*
X143510000Y-140970000D01*
X139920000Y-146050000D02*
X139920000Y-142460000D01*
X139920000Y-142460000D02*
X139700000Y-142240000D01*
X254750000Y-139545000D02*
X254750000Y-140220000D01*
X254750000Y-140220000D02*
X254000000Y-140970000D01*
X254000000Y-140970000D02*
X254000000Y-142240000D01*
X254000000Y-142240000D02*
X252730000Y-143510000D01*
X252730000Y-143510000D02*
X213360000Y-143510000D01*
X210820000Y-146050000D02*
X182880000Y-146050000D01*
X182880000Y-146050000D02*
X181610000Y-144780000D01*
X181610000Y-144780000D02*
X181610000Y-143510000D01*
D26*
G36*
X166847808Y-120119673D02*
X166705162Y-120463201D01*
X166705121Y-120510077D01*
X160752599Y-126462599D01*
X160587852Y-126709161D01*
X160530000Y-127000000D01*
X160530000Y-127072469D01*
X160499697Y-127084990D01*
X160106371Y-127477630D01*
X160020051Y-127685512D01*
X159935010Y-127479697D01*
X159542370Y-127086371D01*
X159029100Y-126873243D01*
X158473339Y-126872758D01*
X157959697Y-127084990D01*
X157566371Y-127477630D01*
X157480051Y-127685512D01*
X157395010Y-127479697D01*
X157002370Y-127086371D01*
X156489100Y-126873243D01*
X155933339Y-126872758D01*
X155419697Y-127084990D01*
X155026371Y-127477630D01*
X154940051Y-127685512D01*
X154855010Y-127479697D01*
X154462370Y-127086371D01*
X153949100Y-126873243D01*
X153393339Y-126872758D01*
X152879697Y-127084990D01*
X152486371Y-127477630D01*
X152400051Y-127685512D01*
X152315010Y-127479697D01*
X151922370Y-127086371D01*
X151409100Y-126873243D01*
X150853339Y-126872758D01*
X150339697Y-127084990D01*
X149946371Y-127477630D01*
X149860051Y-127685512D01*
X149775010Y-127479697D01*
X149382370Y-127086371D01*
X148869100Y-126873243D01*
X148313339Y-126872758D01*
X147799697Y-127084990D01*
X147406371Y-127477630D01*
X147320051Y-127685512D01*
X147235010Y-127479697D01*
X146842370Y-127086371D01*
X146329100Y-126873243D01*
X145773339Y-126872758D01*
X145259697Y-127084990D01*
X144866371Y-127477630D01*
X144653243Y-127990900D01*
X144652758Y-128546661D01*
X144864990Y-129060303D01*
X145257630Y-129453629D01*
X145770900Y-129666757D01*
X146326661Y-129667242D01*
X146840303Y-129455010D01*
X147233629Y-129062370D01*
X147319949Y-128854488D01*
X147404990Y-129060303D01*
X147797630Y-129453629D01*
X148310900Y-129666757D01*
X148866661Y-129667242D01*
X149380303Y-129455010D01*
X149773629Y-129062370D01*
X149859949Y-128854488D01*
X149944990Y-129060303D01*
X150337630Y-129453629D01*
X150850900Y-129666757D01*
X151406661Y-129667242D01*
X151920303Y-129455010D01*
X152313629Y-129062370D01*
X152399949Y-128854488D01*
X152484990Y-129060303D01*
X152877630Y-129453629D01*
X153390900Y-129666757D01*
X153946661Y-129667242D01*
X154460303Y-129455010D01*
X154853629Y-129062370D01*
X154939949Y-128854488D01*
X155024990Y-129060303D01*
X155417630Y-129453629D01*
X155930900Y-129666757D01*
X156486661Y-129667242D01*
X157000303Y-129455010D01*
X157393629Y-129062370D01*
X157479949Y-128854488D01*
X157564990Y-129060303D01*
X157957630Y-129453629D01*
X158470900Y-129666757D01*
X159026661Y-129667242D01*
X159540303Y-129455010D01*
X159933629Y-129062370D01*
X160019949Y-128854488D01*
X160104990Y-129060303D01*
X160497630Y-129453629D01*
X161010900Y-129666757D01*
X161566661Y-129667242D01*
X162080303Y-129455010D01*
X162473629Y-129062370D01*
X162559949Y-128854488D01*
X162644990Y-129060303D01*
X162939685Y-129355513D01*
X162245198Y-130050000D01*
X151692463Y-130050000D01*
X151660327Y-130017808D01*
X151316799Y-129875162D01*
X150944833Y-129874838D01*
X150601057Y-130016883D01*
X150337808Y-130279673D01*
X150195162Y-130623201D01*
X150194838Y-130995167D01*
X150336883Y-131338943D01*
X150599673Y-131602192D01*
X150943201Y-131744838D01*
X151315167Y-131745162D01*
X151658943Y-131603117D01*
X151692118Y-131570000D01*
X156764414Y-131570000D01*
X156605250Y-131953309D01*
X156604752Y-132524187D01*
X156822757Y-133051800D01*
X157226077Y-133455824D01*
X157283789Y-133479788D01*
X157228200Y-133502757D01*
X156824176Y-133906077D01*
X156605250Y-134433309D01*
X156604752Y-135004187D01*
X156822757Y-135531800D01*
X157226077Y-135935824D01*
X157244613Y-135943521D01*
X157211861Y-136052255D01*
X158040000Y-136880395D01*
X158868139Y-136052255D01*
X158835522Y-135943969D01*
X158851800Y-135937243D01*
X159255824Y-135533923D01*
X159474750Y-135006691D01*
X159475248Y-134435813D01*
X159456319Y-134390000D01*
X165892560Y-134390000D01*
X165892560Y-137390000D01*
X165936838Y-137625317D01*
X166075910Y-137841441D01*
X166288110Y-137986431D01*
X166540000Y-138037440D01*
X171540000Y-138037440D01*
X171775317Y-137993162D01*
X171991441Y-137854090D01*
X172136431Y-137641890D01*
X172187440Y-137390000D01*
X172187440Y-134390000D01*
X172143162Y-134154683D01*
X172004090Y-133938559D01*
X171791890Y-133793569D01*
X171540000Y-133742560D01*
X166540000Y-133742560D01*
X166304683Y-133786838D01*
X166088559Y-133925910D01*
X165943569Y-134138110D01*
X165892560Y-134390000D01*
X159456319Y-134390000D01*
X159257243Y-133908200D01*
X158853923Y-133504176D01*
X158796211Y-133480212D01*
X158851800Y-133457243D01*
X159255824Y-133053923D01*
X159474750Y-132526691D01*
X159475248Y-131955813D01*
X159315833Y-131570000D01*
X162560000Y-131570000D01*
X162850839Y-131512148D01*
X163097401Y-131347401D01*
X164367401Y-130077401D01*
X164532148Y-129830840D01*
X164590000Y-129540000D01*
X164590000Y-129467531D01*
X164620303Y-129455010D01*
X165013629Y-129062370D01*
X165099949Y-128854488D01*
X165184990Y-129060303D01*
X165577630Y-129453629D01*
X165610000Y-129467070D01*
X165610000Y-129540000D01*
X165667852Y-129830839D01*
X165832599Y-130077401D01*
X167102599Y-131347401D01*
X167349160Y-131512148D01*
X167640000Y-131570000D01*
X170887537Y-131570000D01*
X170919673Y-131602192D01*
X171263201Y-131744838D01*
X171635167Y-131745162D01*
X171978943Y-131603117D01*
X172242192Y-131340327D01*
X172384838Y-130996799D01*
X172385162Y-130624833D01*
X172243117Y-130281057D01*
X171980327Y-130017808D01*
X171636799Y-129875162D01*
X171264833Y-129874838D01*
X170921057Y-130016883D01*
X170887882Y-130050000D01*
X167954802Y-130050000D01*
X167260145Y-129355343D01*
X167553629Y-129062370D01*
X167639949Y-128854488D01*
X167724990Y-129060303D01*
X168117630Y-129453629D01*
X168630900Y-129666757D01*
X169186661Y-129667242D01*
X169700303Y-129455010D01*
X170093629Y-129062370D01*
X170179949Y-128854488D01*
X170264990Y-129060303D01*
X170657630Y-129453629D01*
X171170900Y-129666757D01*
X171726661Y-129667242D01*
X171759055Y-129653857D01*
X173230000Y-131124802D01*
X173230000Y-137160000D01*
X173287852Y-137450839D01*
X173452599Y-137697401D01*
X173699161Y-137862148D01*
X173990000Y-137920000D01*
X175967537Y-137920000D01*
X175999673Y-137952192D01*
X176343201Y-138094838D01*
X176715167Y-138095162D01*
X177058943Y-137953117D01*
X177322192Y-137690327D01*
X177464838Y-137346799D01*
X177465162Y-136974833D01*
X177323117Y-136631057D01*
X177060327Y-136367808D01*
X176716799Y-136225162D01*
X176344833Y-136224838D01*
X176001057Y-136366883D01*
X175967882Y-136400000D01*
X174750000Y-136400000D01*
X174750000Y-130810000D01*
X174697758Y-130547363D01*
X174692148Y-130519160D01*
X174527401Y-130272599D01*
X173921743Y-129666941D01*
X174266661Y-129667242D01*
X174780303Y-129455010D01*
X175173629Y-129062370D01*
X175259949Y-128854488D01*
X175344990Y-129060303D01*
X175737630Y-129453629D01*
X176250900Y-129666757D01*
X176806661Y-129667242D01*
X177320303Y-129455010D01*
X177713629Y-129062370D01*
X177799949Y-128854488D01*
X177884990Y-129060303D01*
X178277630Y-129453629D01*
X178310000Y-129467070D01*
X178310000Y-137160000D01*
X178367852Y-137450839D01*
X178532599Y-137697401D01*
X179802599Y-138967401D01*
X180049160Y-139132148D01*
X180340000Y-139190000D01*
X200465198Y-139190000D01*
X201442453Y-140167255D01*
X201315328Y-140473405D01*
X201314674Y-141223305D01*
X201601043Y-141916372D01*
X202130839Y-142447093D01*
X202823405Y-142734672D01*
X203573305Y-142735326D01*
X204266372Y-142448957D01*
X204797093Y-141919161D01*
X205084672Y-141226595D01*
X205085326Y-140476695D01*
X204798957Y-139783628D01*
X204269161Y-139252907D01*
X203576595Y-138965328D01*
X202826695Y-138964674D01*
X202517311Y-139092509D01*
X201344802Y-137920000D01*
X205425198Y-137920000D01*
X208892599Y-141387401D01*
X209139161Y-141552148D01*
X209430000Y-141610000D01*
X220524453Y-141610000D01*
X220651043Y-141916372D01*
X221180839Y-142447093D01*
X221873405Y-142734672D01*
X222623305Y-142735326D01*
X223316372Y-142448957D01*
X223847093Y-141919161D01*
X224134672Y-141226595D01*
X224135326Y-140476695D01*
X223848957Y-139783628D01*
X223319161Y-139252907D01*
X222626595Y-138965328D01*
X221876695Y-138964674D01*
X221183628Y-139251043D01*
X220652907Y-139780839D01*
X220524532Y-140090000D01*
X209744802Y-140090000D01*
X206277401Y-136622599D01*
X206030839Y-136457852D01*
X205740000Y-136400000D01*
X182172463Y-136400000D01*
X182140327Y-136367808D01*
X181796799Y-136225162D01*
X181424833Y-136224838D01*
X181081057Y-136366883D01*
X180817808Y-136629673D01*
X180675162Y-136973201D01*
X180674838Y-137345167D01*
X180809056Y-137670000D01*
X180654802Y-137670000D01*
X179830000Y-136845198D01*
X179830000Y-129725167D01*
X189564838Y-129725167D01*
X189706883Y-130068943D01*
X189740000Y-130102118D01*
X189740000Y-131517537D01*
X189707808Y-131549673D01*
X189565162Y-131893201D01*
X189564838Y-132265167D01*
X189706883Y-132608943D01*
X189969673Y-132872192D01*
X190313201Y-133014838D01*
X190685167Y-133015162D01*
X191028943Y-132873117D01*
X191292192Y-132610327D01*
X191434838Y-132266799D01*
X191435162Y-131894833D01*
X191293117Y-131551057D01*
X191260000Y-131517882D01*
X191260000Y-130102463D01*
X191292192Y-130070327D01*
X191434838Y-129726799D01*
X191435162Y-129354833D01*
X191293117Y-129011057D01*
X191030327Y-128747808D01*
X190686799Y-128605162D01*
X190314833Y-128604838D01*
X189971057Y-128746883D01*
X189707808Y-129009673D01*
X189565162Y-129353201D01*
X189564838Y-129725167D01*
X179830000Y-129725167D01*
X179830000Y-129467531D01*
X179860303Y-129455010D01*
X180253629Y-129062370D01*
X180339949Y-128854488D01*
X180424990Y-129060303D01*
X180817630Y-129453629D01*
X181330900Y-129666757D01*
X181886661Y-129667242D01*
X182400303Y-129455010D01*
X182793629Y-129062370D01*
X182879949Y-128854488D01*
X182964990Y-129060303D01*
X183357630Y-129453629D01*
X183870900Y-129666757D01*
X184426661Y-129667242D01*
X184940303Y-129455010D01*
X185333629Y-129062370D01*
X185419949Y-128854488D01*
X185504990Y-129060303D01*
X185897630Y-129453629D01*
X186410900Y-129666757D01*
X186966661Y-129667242D01*
X187480303Y-129455010D01*
X187873629Y-129062370D01*
X188086757Y-128549100D01*
X188087242Y-127993339D01*
X187875010Y-127479697D01*
X187580994Y-127185167D01*
X197184838Y-127185167D01*
X197326883Y-127528943D01*
X197360000Y-127562118D01*
X197360000Y-130810000D01*
X197417852Y-131100839D01*
X197582599Y-131347401D01*
X200122599Y-133887401D01*
X200369160Y-134052148D01*
X200417414Y-134061746D01*
X200660000Y-134110000D01*
X201474453Y-134110000D01*
X201601043Y-134416372D01*
X202130839Y-134947093D01*
X202823405Y-135234672D01*
X203573305Y-135235326D01*
X204266372Y-134948957D01*
X204797093Y-134419161D01*
X204925468Y-134110000D01*
X211462776Y-134110000D01*
X211443569Y-134138110D01*
X211392560Y-134390000D01*
X211392560Y-137390000D01*
X211436838Y-137625317D01*
X211575910Y-137841441D01*
X211788110Y-137986431D01*
X212040000Y-138037440D01*
X217040000Y-138037440D01*
X217275317Y-137993162D01*
X217491441Y-137854090D01*
X217636431Y-137641890D01*
X217687440Y-137390000D01*
X217687440Y-136075167D01*
X218774838Y-136075167D01*
X218916883Y-136418943D01*
X219179673Y-136682192D01*
X219523201Y-136824838D01*
X219570077Y-136824879D01*
X220442599Y-137697401D01*
X220689160Y-137862148D01*
X220980000Y-137920000D01*
X222175198Y-137920000D01*
X225642599Y-141387401D01*
X225889161Y-141552148D01*
X226180000Y-141610000D01*
X240844453Y-141610000D01*
X240971043Y-141916372D01*
X241500839Y-142447093D01*
X242193405Y-142734672D01*
X242943305Y-142735326D01*
X243636372Y-142448957D01*
X244167093Y-141919161D01*
X244454672Y-141226595D01*
X244455326Y-140476695D01*
X244168957Y-139783628D01*
X243639161Y-139252907D01*
X242946595Y-138965328D01*
X242196695Y-138964674D01*
X241503628Y-139251043D01*
X240972907Y-139780839D01*
X240844532Y-140090000D01*
X226494802Y-140090000D01*
X224128989Y-137724187D01*
X226604752Y-137724187D01*
X226822757Y-138251800D01*
X227226077Y-138655824D01*
X227753309Y-138874750D01*
X228324187Y-138875248D01*
X228851800Y-138657243D01*
X229255824Y-138253923D01*
X229474750Y-137726691D01*
X229475248Y-137155813D01*
X229257243Y-136628200D01*
X228853923Y-136224176D01*
X228326691Y-136005250D01*
X227755813Y-136004752D01*
X227228200Y-136222757D01*
X226824176Y-136626077D01*
X226605250Y-137153309D01*
X226604752Y-137724187D01*
X224128989Y-137724187D01*
X223027401Y-136622599D01*
X222780839Y-136457852D01*
X222490000Y-136400000D01*
X221294802Y-136400000D01*
X220645122Y-135750320D01*
X220645162Y-135704833D01*
X220503117Y-135361057D01*
X220240327Y-135097808D01*
X219896799Y-134955162D01*
X219524833Y-134954838D01*
X219181057Y-135096883D01*
X218917808Y-135359673D01*
X218775162Y-135703201D01*
X218774838Y-136075167D01*
X217687440Y-136075167D01*
X217687440Y-134390000D01*
X217643162Y-134154683D01*
X217614409Y-134110000D01*
X220524453Y-134110000D01*
X220651043Y-134416372D01*
X221180839Y-134947093D01*
X221873405Y-135234672D01*
X222623305Y-135235326D01*
X222932689Y-135107491D01*
X222982599Y-135157401D01*
X223229160Y-135322148D01*
X223520000Y-135380000D01*
X240030000Y-135380000D01*
X240320839Y-135322148D01*
X240567401Y-135157401D01*
X241139589Y-134585213D01*
X241500839Y-134947093D01*
X242193405Y-135234672D01*
X242943305Y-135235326D01*
X243636372Y-134948957D01*
X244167093Y-134419161D01*
X244454672Y-133726595D01*
X244455326Y-132976695D01*
X244168957Y-132283628D01*
X243639161Y-131752907D01*
X242946595Y-131465328D01*
X242196695Y-131464674D01*
X241503628Y-131751043D01*
X240972907Y-132280839D01*
X240744646Y-132830552D01*
X239715198Y-133860000D01*
X228899125Y-133860000D01*
X229255824Y-133503923D01*
X229474750Y-132976691D01*
X229475248Y-132405813D01*
X229257243Y-131878200D01*
X228853923Y-131474176D01*
X228326691Y-131255250D01*
X227755813Y-131254752D01*
X227228200Y-131472757D01*
X226824176Y-131876077D01*
X226605250Y-132403309D01*
X226604752Y-132974187D01*
X226822757Y-133501800D01*
X227180333Y-133860000D01*
X224079277Y-133860000D01*
X224134672Y-133726595D01*
X224135326Y-132976695D01*
X223848957Y-132283628D01*
X223319161Y-131752907D01*
X222626595Y-131465328D01*
X221876695Y-131464674D01*
X221183628Y-131751043D01*
X220652907Y-132280839D01*
X220524532Y-132590000D01*
X204925547Y-132590000D01*
X204798957Y-132283628D01*
X204269161Y-131752907D01*
X203576595Y-131465328D01*
X202826695Y-131464674D01*
X202133628Y-131751043D01*
X201602907Y-132280839D01*
X201474532Y-132590000D01*
X200974802Y-132590000D01*
X199379969Y-130995167D01*
X214964838Y-130995167D01*
X215106883Y-131338943D01*
X215369673Y-131602192D01*
X215713201Y-131744838D01*
X216085167Y-131745162D01*
X216428943Y-131603117D01*
X216462118Y-131570000D01*
X219147537Y-131570000D01*
X219179673Y-131602192D01*
X219523201Y-131744838D01*
X219895167Y-131745162D01*
X220238943Y-131603117D01*
X220502192Y-131340327D01*
X220644838Y-130996799D01*
X220645162Y-130624833D01*
X220503117Y-130281057D01*
X220240327Y-130017808D01*
X219896799Y-129875162D01*
X219524833Y-129874838D01*
X219181057Y-130016883D01*
X219147882Y-130050000D01*
X216462463Y-130050000D01*
X216430327Y-130017808D01*
X216086799Y-129875162D01*
X215714833Y-129874838D01*
X215371057Y-130016883D01*
X215107808Y-130279673D01*
X214965162Y-130623201D01*
X214964838Y-130995167D01*
X199379969Y-130995167D01*
X198880000Y-130495198D01*
X198880000Y-127562463D01*
X198912192Y-127530327D01*
X199054838Y-127186799D01*
X199055162Y-126814833D01*
X198913117Y-126471057D01*
X198650327Y-126207808D01*
X198306799Y-126065162D01*
X197934833Y-126064838D01*
X197591057Y-126206883D01*
X197327808Y-126469673D01*
X197185162Y-126813201D01*
X197184838Y-127185167D01*
X187580994Y-127185167D01*
X187482370Y-127086371D01*
X186969100Y-126873243D01*
X186413339Y-126872758D01*
X185899697Y-127084990D01*
X185506371Y-127477630D01*
X185420051Y-127685512D01*
X185335010Y-127479697D01*
X184942370Y-127086371D01*
X184429100Y-126873243D01*
X183873339Y-126872758D01*
X183359697Y-127084990D01*
X182966371Y-127477630D01*
X182880051Y-127685512D01*
X182795010Y-127479697D01*
X182500315Y-127184487D01*
X185084802Y-124600000D01*
X201302560Y-124600000D01*
X201302560Y-127100000D01*
X201346838Y-127335317D01*
X201485910Y-127551441D01*
X201698110Y-127696431D01*
X201950000Y-127747440D01*
X204450000Y-127747440D01*
X204685317Y-127703162D01*
X204901441Y-127564090D01*
X205046431Y-127351890D01*
X205097440Y-127100000D01*
X205097440Y-126610000D01*
X220352560Y-126610000D01*
X220352560Y-127100000D01*
X220396838Y-127335317D01*
X220509243Y-127510000D01*
X216462463Y-127510000D01*
X216430327Y-127477808D01*
X216086799Y-127335162D01*
X215714833Y-127334838D01*
X215371057Y-127476883D01*
X215107808Y-127739673D01*
X214965162Y-128083201D01*
X214964838Y-128455167D01*
X215106883Y-128798943D01*
X215369673Y-129062192D01*
X215713201Y-129204838D01*
X216085167Y-129205162D01*
X216428943Y-129063117D01*
X216462118Y-129030000D01*
X259787537Y-129030000D01*
X259819673Y-129062192D01*
X260163201Y-129204838D01*
X260535167Y-129205162D01*
X260620000Y-129170110D01*
X260620000Y-138190000D01*
X260677852Y-138480839D01*
X260842599Y-138727401D01*
X262262560Y-140147362D01*
X262262560Y-142100000D01*
X262306838Y-142335317D01*
X262445910Y-142551441D01*
X262658110Y-142696431D01*
X262910000Y-142747440D01*
X265410000Y-142747440D01*
X265645317Y-142703162D01*
X265861441Y-142564090D01*
X266006431Y-142351890D01*
X266057440Y-142100000D01*
X266057440Y-139600000D01*
X266013162Y-139364683D01*
X265874090Y-139148559D01*
X265661890Y-139003569D01*
X265410000Y-138952560D01*
X263217362Y-138952560D01*
X262140000Y-137875198D01*
X262140000Y-136930159D01*
X271239446Y-136930159D01*
X271325852Y-137186643D01*
X271899336Y-137396458D01*
X272509460Y-137370839D01*
X272954148Y-137186643D01*
X273040554Y-136930159D01*
X272140000Y-136029605D01*
X271239446Y-136930159D01*
X262140000Y-136930159D01*
X262140000Y-135609336D01*
X270593542Y-135609336D01*
X270619161Y-136219460D01*
X270803357Y-136664148D01*
X271059841Y-136750554D01*
X271960395Y-135850000D01*
X271059841Y-134949446D01*
X270803357Y-135035852D01*
X270593542Y-135609336D01*
X262140000Y-135609336D01*
X262140000Y-133723305D01*
X262274674Y-133723305D01*
X262561043Y-134416372D01*
X263090839Y-134947093D01*
X263783405Y-135234672D01*
X264533305Y-135235326D01*
X265226372Y-134948957D01*
X265757093Y-134419161D01*
X266044672Y-133726595D01*
X266045326Y-132976695D01*
X265758957Y-132283628D01*
X265229161Y-131752907D01*
X264536595Y-131465328D01*
X263786695Y-131464674D01*
X263093628Y-131751043D01*
X262562907Y-132280839D01*
X262275328Y-132973405D01*
X262274674Y-133723305D01*
X262140000Y-133723305D01*
X262140000Y-127000000D01*
X262082148Y-126709161D01*
X261917401Y-126462599D01*
X261678107Y-126223305D01*
X262274674Y-126223305D01*
X262561043Y-126916372D01*
X263090839Y-127447093D01*
X263783405Y-127734672D01*
X264533305Y-127735326D01*
X265226372Y-127448957D01*
X265757093Y-126919161D01*
X266044672Y-126226595D01*
X266045326Y-125476695D01*
X265758957Y-124783628D01*
X265229161Y-124252907D01*
X264536595Y-123965328D01*
X263786695Y-123964674D01*
X263093628Y-124251043D01*
X262562907Y-124780839D01*
X262275328Y-125473405D01*
X262274674Y-126223305D01*
X261678107Y-126223305D01*
X260767401Y-125312599D01*
X260520839Y-125147852D01*
X260230000Y-125090000D01*
X244467440Y-125090000D01*
X244467440Y-124600000D01*
X244423162Y-124364683D01*
X244284090Y-124148559D01*
X244071890Y-124003569D01*
X243820000Y-123952560D01*
X241320000Y-123952560D01*
X241084683Y-123996838D01*
X240868559Y-124135910D01*
X240723569Y-124348110D01*
X240672560Y-124600000D01*
X240672560Y-125090000D01*
X224147440Y-125090000D01*
X224147440Y-124600000D01*
X224103162Y-124364683D01*
X223964090Y-124148559D01*
X223751890Y-124003569D01*
X223500000Y-123952560D01*
X221000000Y-123952560D01*
X220764683Y-123996838D01*
X220548559Y-124135910D01*
X220403569Y-124348110D01*
X220352560Y-124600000D01*
X220352560Y-125090000D01*
X205097440Y-125090000D01*
X205097440Y-124600000D01*
X205053162Y-124364683D01*
X204914090Y-124148559D01*
X204701890Y-124003569D01*
X204450000Y-123952560D01*
X201950000Y-123952560D01*
X201714683Y-123996838D01*
X201498559Y-124135910D01*
X201353569Y-124348110D01*
X201302560Y-124600000D01*
X185084802Y-124600000D01*
X188274802Y-121410000D01*
X188429367Y-121410000D01*
X188295162Y-121733201D01*
X188294838Y-122105167D01*
X188436883Y-122448943D01*
X188699673Y-122712192D01*
X189043201Y-122854838D01*
X189415167Y-122855162D01*
X189758943Y-122713117D01*
X189792118Y-122680000D01*
X192995161Y-122680000D01*
X192994812Y-123079873D01*
X193159646Y-123478800D01*
X193464595Y-123784282D01*
X193863233Y-123949811D01*
X194294873Y-123950188D01*
X194693800Y-123785354D01*
X194999282Y-123480405D01*
X195164811Y-123081767D01*
X195165162Y-122680000D01*
X195995161Y-122680000D01*
X195994812Y-123079873D01*
X196159646Y-123478800D01*
X196464595Y-123784282D01*
X196863233Y-123949811D01*
X197294873Y-123950188D01*
X197693800Y-123785354D01*
X197999282Y-123480405D01*
X198164811Y-123081767D01*
X198165162Y-122680000D01*
X274005198Y-122680000D01*
X274990067Y-123664869D01*
X274766695Y-123664674D01*
X274073628Y-123951043D01*
X273542907Y-124480839D01*
X273255328Y-125173405D01*
X273254674Y-125923305D01*
X273541043Y-126616372D01*
X274070839Y-127147093D01*
X274763405Y-127434672D01*
X275513305Y-127435326D01*
X276206372Y-127148957D01*
X276737093Y-126619161D01*
X277024672Y-125926595D01*
X277024870Y-125699672D01*
X277370000Y-126044802D01*
X277370000Y-126437537D01*
X277337808Y-126469673D01*
X277195162Y-126813201D01*
X277194838Y-127185167D01*
X277336883Y-127528943D01*
X277566369Y-127758829D01*
X273782599Y-131542599D01*
X273617852Y-131789161D01*
X273560000Y-132080000D01*
X273560000Y-132767046D01*
X273442068Y-132481629D01*
X273060818Y-132099712D01*
X273440551Y-131720643D01*
X273674733Y-131156670D01*
X273675265Y-130546009D01*
X273442068Y-129981629D01*
X273010643Y-129549449D01*
X272446670Y-129315267D01*
X271836009Y-129314735D01*
X271271629Y-129547932D01*
X270839449Y-129979357D01*
X270605267Y-130543330D01*
X270604735Y-131153991D01*
X270837932Y-131718371D01*
X271219182Y-132100288D01*
X270839449Y-132479357D01*
X270605267Y-133043330D01*
X270604735Y-133653991D01*
X270837932Y-134218371D01*
X271269357Y-134650551D01*
X271278372Y-134654294D01*
X271239446Y-134769841D01*
X272140000Y-135670395D01*
X273040554Y-134769841D01*
X273001793Y-134654786D01*
X273008371Y-134652068D01*
X273440551Y-134220643D01*
X273560000Y-133932978D01*
X273560000Y-135237093D01*
X273476643Y-135035852D01*
X273220159Y-134949446D01*
X272319605Y-135850000D01*
X273220159Y-136750554D01*
X273476643Y-136664148D01*
X273560000Y-136436310D01*
X273560000Y-136845198D01*
X272538659Y-137866539D01*
X272310327Y-137637808D01*
X271966799Y-137495162D01*
X271594833Y-137494838D01*
X271251057Y-137636883D01*
X271217882Y-137670000D01*
X268532463Y-137670000D01*
X268500327Y-137637808D01*
X268156799Y-137495162D01*
X267784833Y-137494838D01*
X267441057Y-137636883D01*
X267177808Y-137899673D01*
X267035162Y-138243201D01*
X267034838Y-138615167D01*
X267176883Y-138958943D01*
X267439673Y-139222192D01*
X267783201Y-139364838D01*
X268155167Y-139365162D01*
X268498943Y-139223117D01*
X268532118Y-139190000D01*
X271215198Y-139190000D01*
X266385198Y-144020000D01*
X253294802Y-144020000D01*
X254537401Y-142777401D01*
X254702148Y-142530840D01*
X254760000Y-142240000D01*
X254760000Y-142089469D01*
X254884595Y-142214282D01*
X255283233Y-142379811D01*
X255714873Y-142380188D01*
X256113800Y-142215354D01*
X256334539Y-141995000D01*
X256502560Y-141995000D01*
X256502560Y-142795000D01*
X256546838Y-143030317D01*
X256685910Y-143246441D01*
X256898110Y-143391431D01*
X257150000Y-143442440D01*
X258150000Y-143442440D01*
X258385317Y-143398162D01*
X258601441Y-143259090D01*
X258746431Y-143046890D01*
X258797440Y-142795000D01*
X258797440Y-141995000D01*
X258753162Y-141759683D01*
X258614090Y-141543559D01*
X258401890Y-141398569D01*
X258150000Y-141347560D01*
X257150000Y-141347560D01*
X256914683Y-141391838D01*
X256698559Y-141530910D01*
X256553569Y-141743110D01*
X256502560Y-141995000D01*
X256334539Y-141995000D01*
X256419282Y-141910405D01*
X256584811Y-141511767D01*
X256585188Y-141080127D01*
X256528297Y-140942440D01*
X256600000Y-140942440D01*
X256616937Y-140939253D01*
X256685910Y-141046441D01*
X256898110Y-141191431D01*
X257150000Y-141242440D01*
X258150000Y-141242440D01*
X258385317Y-141198162D01*
X258601441Y-141059090D01*
X258746431Y-140846890D01*
X258797440Y-140595000D01*
X258797440Y-139795000D01*
X258753162Y-139559683D01*
X258614090Y-139343559D01*
X258401890Y-139198569D01*
X258164338Y-139150464D01*
X259219680Y-138095122D01*
X259265167Y-138095162D01*
X259608943Y-137953117D01*
X259872192Y-137690327D01*
X260014838Y-137346799D01*
X260015162Y-136974833D01*
X259873117Y-136631057D01*
X259610327Y-136367808D01*
X259266799Y-136225162D01*
X258894833Y-136224838D01*
X258551057Y-136366883D01*
X258287808Y-136629673D01*
X258145162Y-136973201D01*
X258145121Y-137020077D01*
X256920054Y-138245144D01*
X256851890Y-138198569D01*
X256600000Y-138147560D01*
X255900000Y-138147560D01*
X255664683Y-138191838D01*
X255498523Y-138298759D01*
X255351890Y-138198569D01*
X255100000Y-138147560D01*
X254400000Y-138147560D01*
X254164683Y-138191838D01*
X253948559Y-138330910D01*
X253803569Y-138543110D01*
X253752560Y-138795000D01*
X253752560Y-140142638D01*
X253462599Y-140432599D01*
X253346155Y-140606871D01*
X253115405Y-140375718D01*
X252747440Y-140222926D01*
X252747440Y-138795000D01*
X252703162Y-138559683D01*
X252564090Y-138343559D01*
X252351890Y-138198569D01*
X252100000Y-138147560D01*
X251400000Y-138147560D01*
X251164683Y-138191838D01*
X250948559Y-138330910D01*
X250803569Y-138543110D01*
X250752560Y-138795000D01*
X250752560Y-139147560D01*
X249850000Y-139147560D01*
X249614683Y-139191838D01*
X249398559Y-139330910D01*
X249253569Y-139543110D01*
X249202560Y-139795000D01*
X249202560Y-140595000D01*
X249246838Y-140830317D01*
X249385910Y-141046441D01*
X249598110Y-141191431D01*
X249850000Y-141242440D01*
X250850000Y-141242440D01*
X251085317Y-141198162D01*
X251301441Y-141059090D01*
X251383436Y-140939086D01*
X251400000Y-140942440D01*
X251471575Y-140942440D01*
X251415189Y-141078233D01*
X251414812Y-141509873D01*
X251579646Y-141908800D01*
X251884595Y-142214282D01*
X252283233Y-142379811D01*
X252714873Y-142380188D01*
X252834396Y-142330802D01*
X252415198Y-142750000D01*
X251497440Y-142750000D01*
X251497440Y-141995000D01*
X251453162Y-141759683D01*
X251314090Y-141543559D01*
X251101890Y-141398569D01*
X250850000Y-141347560D01*
X249850000Y-141347560D01*
X249614683Y-141391838D01*
X249398559Y-141530910D01*
X249253569Y-141743110D01*
X249202560Y-141995000D01*
X249202560Y-142750000D01*
X213922463Y-142750000D01*
X213890327Y-142717808D01*
X213546799Y-142575162D01*
X213174833Y-142574838D01*
X212831057Y-142716883D01*
X212567808Y-142979673D01*
X212425162Y-143323201D01*
X212424838Y-143695167D01*
X212559056Y-144020000D01*
X193354802Y-144020000D01*
X189767401Y-140432599D01*
X189520839Y-140267852D01*
X189230000Y-140210000D01*
X177330633Y-140210000D01*
X177464838Y-139886799D01*
X177465162Y-139514833D01*
X177323117Y-139171057D01*
X177060327Y-138907808D01*
X176716799Y-138765162D01*
X176344833Y-138764838D01*
X176001057Y-138906883D01*
X175967882Y-138940000D01*
X160020000Y-138940000D01*
X159729160Y-138997852D01*
X159482599Y-139162599D01*
X159450143Y-139195055D01*
X159257243Y-138728200D01*
X158853923Y-138324176D01*
X158797905Y-138300915D01*
X158868139Y-138067745D01*
X158040000Y-137239605D01*
X157211861Y-138067745D01*
X157281980Y-138300535D01*
X157228200Y-138322757D01*
X156824176Y-138726077D01*
X156605250Y-139253309D01*
X156605035Y-139500163D01*
X155698659Y-140406539D01*
X155470327Y-140177808D01*
X155126799Y-140035162D01*
X154754833Y-140034838D01*
X154411057Y-140176883D01*
X154377882Y-140210000D01*
X152714802Y-140210000D01*
X149348025Y-136843223D01*
X156593035Y-136843223D01*
X156620222Y-137413454D01*
X156786136Y-137814005D01*
X157032255Y-137888139D01*
X157860395Y-137060000D01*
X158219605Y-137060000D01*
X159047745Y-137888139D01*
X159293864Y-137814005D01*
X159486965Y-137276777D01*
X159459778Y-136706546D01*
X159293864Y-136305995D01*
X159047745Y-136231861D01*
X158219605Y-137060000D01*
X157860395Y-137060000D01*
X157032255Y-136231861D01*
X156786136Y-136305995D01*
X156593035Y-136843223D01*
X149348025Y-136843223D01*
X147857401Y-135352599D01*
X147610839Y-135187852D01*
X147320000Y-135130000D01*
X142240000Y-135130000D01*
X141949160Y-135187852D01*
X141702599Y-135352599D01*
X140953634Y-136101564D01*
X140742241Y-135889801D01*
X141085278Y-135547363D01*
X141334716Y-134946648D01*
X141335284Y-134296205D01*
X141086894Y-133695057D01*
X140742241Y-133349801D01*
X141085278Y-133007363D01*
X141334716Y-132406648D01*
X141335284Y-131756205D01*
X141086894Y-131155057D01*
X140742241Y-130809801D01*
X141085278Y-130467363D01*
X141334716Y-129866648D01*
X141335284Y-129216205D01*
X141086894Y-128615057D01*
X140627363Y-128154722D01*
X140026648Y-127905284D01*
X139376205Y-127904716D01*
X138775057Y-128153106D01*
X138314722Y-128612637D01*
X138065284Y-129213352D01*
X138064716Y-129863795D01*
X138313106Y-130464943D01*
X138657759Y-130810199D01*
X138314722Y-131152637D01*
X138065284Y-131753352D01*
X138064716Y-132403795D01*
X138313106Y-133004943D01*
X138657759Y-133350199D01*
X138314722Y-133692637D01*
X138065284Y-134293352D01*
X138064716Y-134943795D01*
X138313106Y-135544943D01*
X138657759Y-135890199D01*
X138314722Y-136232637D01*
X138065284Y-136833352D01*
X138064716Y-137483795D01*
X138313106Y-138084943D01*
X138657759Y-138430199D01*
X138314722Y-138772637D01*
X138065284Y-139373352D01*
X138064716Y-140023795D01*
X138313106Y-140624943D01*
X138379621Y-140691574D01*
X138248559Y-140775910D01*
X138103569Y-140988110D01*
X138052560Y-141240000D01*
X138052560Y-143240000D01*
X138096838Y-143475317D01*
X138235910Y-143691441D01*
X138448110Y-143836431D01*
X138700000Y-143887440D01*
X139160000Y-143887440D01*
X139160000Y-145077069D01*
X139068559Y-145135910D01*
X138923569Y-145348110D01*
X138872560Y-145600000D01*
X138872560Y-146500000D01*
X138916838Y-146735317D01*
X139055910Y-146951441D01*
X139268110Y-147096431D01*
X139520000Y-147147440D01*
X140320000Y-147147440D01*
X140555317Y-147103162D01*
X140771441Y-146964090D01*
X140916431Y-146751890D01*
X140967440Y-146500000D01*
X140967440Y-145600000D01*
X140923162Y-145364683D01*
X140784090Y-145148559D01*
X140680000Y-145077437D01*
X140680000Y-143887440D01*
X140700000Y-143887440D01*
X140935317Y-143843162D01*
X141151441Y-143704090D01*
X141260000Y-143545209D01*
X141260000Y-145077069D01*
X141168559Y-145135910D01*
X141023569Y-145348110D01*
X140972560Y-145600000D01*
X140972560Y-146500000D01*
X141016838Y-146735317D01*
X141155910Y-146951441D01*
X141368110Y-147096431D01*
X141620000Y-147147440D01*
X142420000Y-147147440D01*
X142655317Y-147103162D01*
X142871441Y-146964090D01*
X143016431Y-146751890D01*
X143067440Y-146500000D01*
X143067440Y-145600000D01*
X143023162Y-145364683D01*
X142884090Y-145148559D01*
X142780000Y-145077437D01*
X142780000Y-143786661D01*
X144652758Y-143786661D01*
X144864990Y-144300303D01*
X145257630Y-144693629D01*
X145770900Y-144906757D01*
X146326661Y-144907242D01*
X146840303Y-144695010D01*
X147233629Y-144302370D01*
X147319949Y-144094488D01*
X147404990Y-144300303D01*
X147797630Y-144693629D01*
X148310900Y-144906757D01*
X148866661Y-144907242D01*
X149380303Y-144695010D01*
X149585457Y-144490213D01*
X150329392Y-144490213D01*
X150398857Y-144732397D01*
X150922302Y-144919144D01*
X151477368Y-144891362D01*
X151861143Y-144732397D01*
X151930608Y-144490213D01*
X151130000Y-143689605D01*
X150329392Y-144490213D01*
X149585457Y-144490213D01*
X149773629Y-144302370D01*
X149853395Y-144110273D01*
X149907603Y-144241143D01*
X150149787Y-144310608D01*
X150950395Y-143510000D01*
X150149787Y-142709392D01*
X149907603Y-142778857D01*
X149857491Y-142919318D01*
X149775010Y-142719697D01*
X149585432Y-142529787D01*
X150329392Y-142529787D01*
X151130000Y-143330395D01*
X151930608Y-142529787D01*
X151861143Y-142287603D01*
X151337698Y-142100856D01*
X150782632Y-142128638D01*
X150398857Y-142287603D01*
X150329392Y-142529787D01*
X149585432Y-142529787D01*
X149382370Y-142326371D01*
X148869100Y-142113243D01*
X148313339Y-142112758D01*
X147799697Y-142324990D01*
X147406371Y-142717630D01*
X147320051Y-142925512D01*
X147235010Y-142719697D01*
X146842370Y-142326371D01*
X146329100Y-142113243D01*
X145773339Y-142112758D01*
X145259697Y-142324990D01*
X144866371Y-142717630D01*
X144653243Y-143230900D01*
X144652758Y-143786661D01*
X142780000Y-143786661D01*
X142780000Y-142774802D01*
X143824802Y-141730000D01*
X144217537Y-141730000D01*
X144249673Y-141762192D01*
X144593201Y-141904838D01*
X144965167Y-141905162D01*
X145308943Y-141763117D01*
X145572192Y-141500327D01*
X145714838Y-141156799D01*
X145715162Y-140784833D01*
X145573117Y-140441057D01*
X145310327Y-140177808D01*
X144966799Y-140035162D01*
X144594833Y-140034838D01*
X144251057Y-140176883D01*
X144217882Y-140210000D01*
X143510000Y-140210000D01*
X143219160Y-140267852D01*
X142972599Y-140432599D01*
X141482599Y-141922599D01*
X141347440Y-142124879D01*
X141347440Y-141240000D01*
X141303162Y-141004683D01*
X141164090Y-140788559D01*
X141021439Y-140691090D01*
X141085278Y-140627363D01*
X141334716Y-140026648D01*
X141335284Y-139376205D01*
X141086894Y-138775057D01*
X140742241Y-138429801D01*
X141085278Y-138087363D01*
X141171409Y-137879937D01*
X141260839Y-137862148D01*
X141507401Y-137697401D01*
X142554802Y-136650000D01*
X147005198Y-136650000D01*
X151862599Y-141507401D01*
X152109161Y-141672148D01*
X152400000Y-141730000D01*
X154377537Y-141730000D01*
X154409673Y-141762192D01*
X154753201Y-141904838D01*
X155125167Y-141905162D01*
X155450000Y-141770944D01*
X155450000Y-142312469D01*
X155419697Y-142324990D01*
X155026371Y-142717630D01*
X154940051Y-142925512D01*
X154855010Y-142719697D01*
X154462370Y-142326371D01*
X153949100Y-142113243D01*
X153393339Y-142112758D01*
X152879697Y-142324990D01*
X152486371Y-142717630D01*
X152406605Y-142909727D01*
X152352397Y-142778857D01*
X152110213Y-142709392D01*
X151309605Y-143510000D01*
X152110213Y-144310608D01*
X152352397Y-144241143D01*
X152402509Y-144100682D01*
X152484990Y-144300303D01*
X152877630Y-144693629D01*
X153390900Y-144906757D01*
X153946661Y-144907242D01*
X154460303Y-144695010D01*
X154853629Y-144302370D01*
X154939949Y-144094488D01*
X155024990Y-144300303D01*
X155417630Y-144693629D01*
X155930900Y-144906757D01*
X156486661Y-144907242D01*
X157000303Y-144695010D01*
X157393629Y-144302370D01*
X157479949Y-144094488D01*
X157564990Y-144300303D01*
X157957630Y-144693629D01*
X158470900Y-144906757D01*
X159026661Y-144907242D01*
X159540303Y-144695010D01*
X159933629Y-144302370D01*
X160019949Y-144094488D01*
X160104990Y-144300303D01*
X160497630Y-144693629D01*
X161010900Y-144906757D01*
X161566661Y-144907242D01*
X162080303Y-144695010D01*
X162473629Y-144302370D01*
X162559949Y-144094488D01*
X162644990Y-144300303D01*
X163037630Y-144693629D01*
X163550900Y-144906757D01*
X164106661Y-144907242D01*
X164620303Y-144695010D01*
X165013629Y-144302370D01*
X165099949Y-144094488D01*
X165184990Y-144300303D01*
X165577630Y-144693629D01*
X166090900Y-144906757D01*
X166646661Y-144907242D01*
X167160303Y-144695010D01*
X167553629Y-144302370D01*
X167639949Y-144094488D01*
X167724990Y-144300303D01*
X168117630Y-144693629D01*
X168630900Y-144906757D01*
X169186661Y-144907242D01*
X169700303Y-144695010D01*
X170093629Y-144302370D01*
X170179949Y-144094488D01*
X170264990Y-144300303D01*
X170657630Y-144693629D01*
X171170900Y-144906757D01*
X171726661Y-144907242D01*
X172240303Y-144695010D01*
X172633629Y-144302370D01*
X172719949Y-144094488D01*
X172804990Y-144300303D01*
X173197630Y-144693629D01*
X173710900Y-144906757D01*
X174266661Y-144907242D01*
X174780303Y-144695010D01*
X175173629Y-144302370D01*
X175259949Y-144094488D01*
X175344990Y-144300303D01*
X175737630Y-144693629D01*
X176250900Y-144906757D01*
X176806661Y-144907242D01*
X177320303Y-144695010D01*
X177713629Y-144302370D01*
X177799949Y-144094488D01*
X177884990Y-144300303D01*
X178277630Y-144693629D01*
X178790900Y-144906757D01*
X179346661Y-144907242D01*
X179860303Y-144695010D01*
X180253629Y-144302370D01*
X180339949Y-144094488D01*
X180424990Y-144300303D01*
X180817630Y-144693629D01*
X180850000Y-144707070D01*
X180850000Y-144780000D01*
X180907852Y-145070839D01*
X181072599Y-145317401D01*
X182342599Y-146587401D01*
X182589160Y-146752148D01*
X182880000Y-146810000D01*
X210257537Y-146810000D01*
X210289673Y-146842192D01*
X210633201Y-146984838D01*
X211005167Y-146985162D01*
X211348943Y-146843117D01*
X211612192Y-146580327D01*
X211754838Y-146236799D01*
X211755162Y-145864833D01*
X211620944Y-145540000D01*
X266700000Y-145540000D01*
X266990839Y-145482148D01*
X267237401Y-145317401D01*
X271031497Y-141523305D01*
X273254674Y-141523305D01*
X273541043Y-142216372D01*
X274070839Y-142747093D01*
X274763405Y-143034672D01*
X275513305Y-143035326D01*
X276206372Y-142748957D01*
X276530727Y-142425167D01*
X277194838Y-142425167D01*
X277336883Y-142768943D01*
X277599673Y-143032192D01*
X277943201Y-143174838D01*
X278315167Y-143175162D01*
X278658943Y-143033117D01*
X278922192Y-142770327D01*
X279064838Y-142426799D01*
X279064879Y-142379923D01*
X279921497Y-141523305D01*
X286854674Y-141523305D01*
X287141043Y-142216372D01*
X287670839Y-142747093D01*
X288363405Y-143034672D01*
X289113305Y-143035326D01*
X289806372Y-142748957D01*
X290337093Y-142219161D01*
X290624672Y-141526595D01*
X290625326Y-140776695D01*
X290338957Y-140083628D01*
X289809161Y-139552907D01*
X289116595Y-139265328D01*
X288366695Y-139264674D01*
X287673628Y-139551043D01*
X287142907Y-140080839D01*
X286855328Y-140773405D01*
X286854674Y-141523305D01*
X279921497Y-141523305D01*
X283971007Y-137473795D01*
X288554716Y-137473795D01*
X288803106Y-138074943D01*
X289262637Y-138535278D01*
X289863352Y-138784716D01*
X290513795Y-138785284D01*
X291114943Y-138536894D01*
X291575278Y-138077363D01*
X291824716Y-137476648D01*
X291824718Y-137473795D01*
X293054716Y-137473795D01*
X293303106Y-138074943D01*
X293762637Y-138535278D01*
X294363352Y-138784716D01*
X295013795Y-138785284D01*
X295614943Y-138536894D01*
X296075278Y-138077363D01*
X296324716Y-137476648D01*
X296325284Y-136826205D01*
X296076894Y-136225057D01*
X295617363Y-135764722D01*
X295016648Y-135515284D01*
X294366205Y-135514716D01*
X293765057Y-135763106D01*
X293304722Y-136222637D01*
X293055284Y-136823352D01*
X293054716Y-137473795D01*
X291824718Y-137473795D01*
X291825284Y-136826205D01*
X291576894Y-136225057D01*
X291117363Y-135764722D01*
X290516648Y-135515284D01*
X289866205Y-135514716D01*
X289265057Y-135763106D01*
X288804722Y-136222637D01*
X288555284Y-136823352D01*
X288554716Y-137473795D01*
X283971007Y-137473795D01*
X290259740Y-131185062D01*
X290513795Y-131185284D01*
X291114943Y-130936894D01*
X291575278Y-130477363D01*
X291824716Y-129876648D01*
X291824718Y-129873795D01*
X293054716Y-129873795D01*
X293303106Y-130474943D01*
X293762637Y-130935278D01*
X294363352Y-131184716D01*
X295013795Y-131185284D01*
X295614943Y-130936894D01*
X296075278Y-130477363D01*
X296324716Y-129876648D01*
X296325284Y-129226205D01*
X296076894Y-128625057D01*
X295617363Y-128164722D01*
X295016648Y-127915284D01*
X294366205Y-127914716D01*
X293765057Y-128163106D01*
X293304722Y-128622637D01*
X293055284Y-129223352D01*
X293054716Y-129873795D01*
X291824718Y-129873795D01*
X291825284Y-129226205D01*
X291576894Y-128625057D01*
X291117363Y-128164722D01*
X290516648Y-127915284D01*
X289866205Y-127914716D01*
X289265057Y-128163106D01*
X288804722Y-128622637D01*
X288555284Y-129223352D01*
X288554716Y-129873795D01*
X288803106Y-130474943D01*
X288811673Y-130483525D01*
X277990320Y-141304878D01*
X277944833Y-141304838D01*
X277601057Y-141446883D01*
X277337808Y-141709673D01*
X277195162Y-142053201D01*
X277194838Y-142425167D01*
X276530727Y-142425167D01*
X276737093Y-142219161D01*
X277024672Y-141526595D01*
X277025326Y-140776695D01*
X276738957Y-140083628D01*
X276209161Y-139552907D01*
X275516595Y-139265328D01*
X274766695Y-139264674D01*
X274073628Y-139551043D01*
X273542907Y-140080839D01*
X273255328Y-140773405D01*
X273254674Y-141523305D01*
X271031497Y-141523305D01*
X274857401Y-137697401D01*
X275022148Y-137450840D01*
X275080000Y-137160000D01*
X275080000Y-132394802D01*
X282477401Y-124997401D01*
X282485320Y-124985550D01*
X282808371Y-124852068D01*
X283190288Y-124470818D01*
X283569357Y-124850551D01*
X284133330Y-125084733D01*
X284743991Y-125085265D01*
X285308371Y-124852068D01*
X285740551Y-124420643D01*
X285974733Y-123856670D01*
X285975265Y-123246009D01*
X285742068Y-122681629D01*
X285310643Y-122249449D01*
X284746670Y-122015267D01*
X284136009Y-122014735D01*
X283571629Y-122247932D01*
X283189712Y-122629182D01*
X282810643Y-122249449D01*
X282246670Y-122015267D01*
X281636009Y-122014735D01*
X281071629Y-122247932D01*
X280639449Y-122679357D01*
X280635706Y-122688372D01*
X280520159Y-122649446D01*
X279619605Y-123550000D01*
X280520159Y-124450554D01*
X280635214Y-124411793D01*
X280637932Y-124418371D01*
X280772262Y-124552936D01*
X278890000Y-126435198D01*
X278890000Y-125730000D01*
X278838960Y-125473405D01*
X278832148Y-125439160D01*
X278667401Y-125192599D01*
X278104961Y-124630159D01*
X278539446Y-124630159D01*
X278625852Y-124886643D01*
X279199336Y-125096458D01*
X279809460Y-125070839D01*
X280254148Y-124886643D01*
X280340554Y-124630159D01*
X279440000Y-123729605D01*
X278539446Y-124630159D01*
X278104961Y-124630159D01*
X276784138Y-123309336D01*
X277893542Y-123309336D01*
X277919161Y-123919460D01*
X278103357Y-124364148D01*
X278359841Y-124450554D01*
X279260395Y-123550000D01*
X278359841Y-122649446D01*
X278103357Y-122735852D01*
X277893542Y-123309336D01*
X276784138Y-123309336D01*
X275944643Y-122469841D01*
X278539446Y-122469841D01*
X279440000Y-123370395D01*
X280340554Y-122469841D01*
X280254148Y-122213357D01*
X279680664Y-122003542D01*
X279070540Y-122029161D01*
X278625852Y-122213357D01*
X278539446Y-122469841D01*
X275944643Y-122469841D01*
X274884802Y-121410000D01*
X286841047Y-121410000D01*
X286642599Y-121542599D01*
X286482599Y-121702599D01*
X286317852Y-121949161D01*
X286260000Y-122240000D01*
X286260000Y-124145198D01*
X284340320Y-126064878D01*
X284294833Y-126064838D01*
X283951057Y-126206883D01*
X283687808Y-126469673D01*
X283545162Y-126813201D01*
X283544838Y-127185167D01*
X283686883Y-127528943D01*
X283949673Y-127792192D01*
X284293201Y-127934838D01*
X284665167Y-127935162D01*
X285008943Y-127793117D01*
X285272192Y-127530327D01*
X285414838Y-127186799D01*
X285414879Y-127139923D01*
X286854869Y-125699933D01*
X286854674Y-125923305D01*
X287141043Y-126616372D01*
X287670839Y-127147093D01*
X288363405Y-127434672D01*
X289113305Y-127435326D01*
X289806372Y-127148957D01*
X290337093Y-126619161D01*
X290624672Y-125926595D01*
X290625326Y-125176695D01*
X290405704Y-124645167D01*
X296244838Y-124645167D01*
X296386883Y-124988943D01*
X296420000Y-125022118D01*
X296420000Y-130810000D01*
X296477852Y-131100839D01*
X296642599Y-131347401D01*
X299520000Y-134224802D01*
X299520000Y-136081354D01*
X299468200Y-136102757D01*
X299064176Y-136506077D01*
X298845250Y-137033309D01*
X298844752Y-137604187D01*
X299062757Y-138131800D01*
X299466077Y-138535824D01*
X299523789Y-138559788D01*
X299468200Y-138582757D01*
X299064176Y-138986077D01*
X298845250Y-139513309D01*
X298844752Y-140084187D01*
X299062757Y-140611800D01*
X299420603Y-140970271D01*
X299064176Y-141326077D01*
X298845250Y-141853309D01*
X298844752Y-142424187D01*
X299062757Y-142951800D01*
X299466077Y-143355824D01*
X299523789Y-143379788D01*
X299468200Y-143402757D01*
X299064176Y-143806077D01*
X298845250Y-144333309D01*
X298844752Y-144904187D01*
X299062757Y-145431800D01*
X299466077Y-145835824D01*
X299993309Y-146054750D01*
X300564187Y-146055248D01*
X301091800Y-145837243D01*
X301495824Y-145433923D01*
X301714750Y-144906691D01*
X301715144Y-144454187D01*
X368844752Y-144454187D01*
X369062757Y-144981800D01*
X369466077Y-145385824D01*
X369993309Y-145604750D01*
X370564187Y-145605248D01*
X371091800Y-145387243D01*
X371495824Y-144983923D01*
X371714750Y-144456691D01*
X371715248Y-143885813D01*
X371497243Y-143358200D01*
X371093923Y-142954176D01*
X370566691Y-142735250D01*
X369995813Y-142734752D01*
X369468200Y-142952757D01*
X369064176Y-143356077D01*
X368845250Y-143883309D01*
X368844752Y-144454187D01*
X301715144Y-144454187D01*
X301715248Y-144335813D01*
X301497243Y-143808200D01*
X301093923Y-143404176D01*
X301036211Y-143380212D01*
X301091800Y-143357243D01*
X301495824Y-142953923D01*
X301714750Y-142426691D01*
X301715248Y-141855813D01*
X301497243Y-141328200D01*
X301139397Y-140969729D01*
X301495824Y-140613923D01*
X301714750Y-140086691D01*
X301715248Y-139515813D01*
X301696319Y-139470000D01*
X308132560Y-139470000D01*
X308132560Y-142470000D01*
X308176838Y-142705317D01*
X308315910Y-142921441D01*
X308528110Y-143066431D01*
X308780000Y-143117440D01*
X313780000Y-143117440D01*
X314015317Y-143073162D01*
X314231441Y-142934090D01*
X314376431Y-142721890D01*
X314427440Y-142470000D01*
X314427440Y-139470000D01*
X353632560Y-139470000D01*
X353632560Y-142470000D01*
X353676838Y-142705317D01*
X353815910Y-142921441D01*
X354028110Y-143066431D01*
X354280000Y-143117440D01*
X359280000Y-143117440D01*
X359515317Y-143073162D01*
X359731441Y-142934090D01*
X359876431Y-142721890D01*
X359927440Y-142470000D01*
X359927440Y-140427745D01*
X369451861Y-140427745D01*
X369525995Y-140673864D01*
X370063223Y-140866965D01*
X370633454Y-140839778D01*
X371034005Y-140673864D01*
X371108139Y-140427745D01*
X370280000Y-139599605D01*
X369451861Y-140427745D01*
X359927440Y-140427745D01*
X359927440Y-139470000D01*
X359883162Y-139234683D01*
X359862919Y-139203223D01*
X368833035Y-139203223D01*
X368860222Y-139773454D01*
X369026136Y-140174005D01*
X369272255Y-140248139D01*
X370100395Y-139420000D01*
X370459605Y-139420000D01*
X371287745Y-140248139D01*
X371533864Y-140174005D01*
X371726965Y-139636777D01*
X371699778Y-139066546D01*
X371533864Y-138665995D01*
X371287745Y-138591861D01*
X370459605Y-139420000D01*
X370100395Y-139420000D01*
X369272255Y-138591861D01*
X369026136Y-138665995D01*
X368833035Y-139203223D01*
X359862919Y-139203223D01*
X359744090Y-139018559D01*
X359531890Y-138873569D01*
X359280000Y-138822560D01*
X354280000Y-138822560D01*
X354044683Y-138866838D01*
X353828559Y-139005910D01*
X353683569Y-139218110D01*
X353632560Y-139470000D01*
X314427440Y-139470000D01*
X314383162Y-139234683D01*
X314244090Y-139018559D01*
X314031890Y-138873569D01*
X313780000Y-138822560D01*
X308780000Y-138822560D01*
X308544683Y-138866838D01*
X308328559Y-139005910D01*
X308183569Y-139218110D01*
X308132560Y-139470000D01*
X301696319Y-139470000D01*
X301497243Y-138988200D01*
X301093923Y-138584176D01*
X301036211Y-138560212D01*
X301091800Y-138537243D01*
X301495824Y-138133923D01*
X301714750Y-137606691D01*
X301714857Y-137483795D01*
X301894716Y-137483795D01*
X302143106Y-138084943D01*
X302602637Y-138545278D01*
X303203352Y-138794716D01*
X303853795Y-138795284D01*
X304454943Y-138546894D01*
X304589817Y-138412255D01*
X369451861Y-138412255D01*
X370280000Y-139240395D01*
X371108139Y-138412255D01*
X371034005Y-138166136D01*
X370496777Y-137973035D01*
X369926546Y-138000222D01*
X369525995Y-138166136D01*
X369451861Y-138412255D01*
X304589817Y-138412255D01*
X304915278Y-138087363D01*
X305164716Y-137486648D01*
X305165284Y-136836205D01*
X304916894Y-136235057D01*
X304457363Y-135774722D01*
X303856648Y-135525284D01*
X303206205Y-135524716D01*
X302605057Y-135773106D01*
X302144722Y-136232637D01*
X301895284Y-136833352D01*
X301894716Y-137483795D01*
X301714857Y-137483795D01*
X301715248Y-137035813D01*
X301497243Y-136508200D01*
X301093923Y-136104176D01*
X301040000Y-136081785D01*
X301040000Y-133910000D01*
X300982148Y-133619161D01*
X300817401Y-133372599D01*
X299848597Y-132403795D01*
X301894716Y-132403795D01*
X302143106Y-133004943D01*
X302602637Y-133465278D01*
X303203352Y-133714716D01*
X303853795Y-133715284D01*
X304454943Y-133466894D01*
X304915278Y-133007363D01*
X305164716Y-132406648D01*
X305165284Y-131756205D01*
X304916894Y-131155057D01*
X304457363Y-130694722D01*
X303856648Y-130445284D01*
X303206205Y-130444716D01*
X302605057Y-130693106D01*
X302144722Y-131152637D01*
X301895284Y-131753352D01*
X301894716Y-132403795D01*
X299848597Y-132403795D01*
X297940000Y-130495198D01*
X297940000Y-125022463D01*
X297972192Y-124990327D01*
X298114838Y-124646799D01*
X298115162Y-124274833D01*
X297973117Y-123931057D01*
X297710327Y-123667808D01*
X297366799Y-123525162D01*
X296994833Y-123524838D01*
X296651057Y-123666883D01*
X296387808Y-123929673D01*
X296245162Y-124273201D01*
X296244838Y-124645167D01*
X290405704Y-124645167D01*
X290338957Y-124483628D01*
X289809161Y-123952907D01*
X289116595Y-123665328D01*
X288366695Y-123664674D01*
X287780000Y-123907091D01*
X287780000Y-122840000D01*
X299041354Y-122840000D01*
X299062757Y-122891800D01*
X299466077Y-123295824D01*
X299523789Y-123319788D01*
X299468200Y-123342757D01*
X299064176Y-123746077D01*
X298845250Y-124273309D01*
X298844752Y-124844187D01*
X299062757Y-125371800D01*
X299420603Y-125730271D01*
X299064176Y-126086077D01*
X298845250Y-126613309D01*
X298844752Y-127184187D01*
X299062757Y-127711800D01*
X299466077Y-128115824D01*
X299523789Y-128139788D01*
X299468200Y-128162757D01*
X299064176Y-128566077D01*
X298845250Y-129093309D01*
X298844752Y-129664187D01*
X299062757Y-130191800D01*
X299466077Y-130595824D01*
X299993309Y-130814750D01*
X300564187Y-130815248D01*
X301091800Y-130597243D01*
X301495824Y-130193923D01*
X301523973Y-130126133D01*
X301729673Y-130332192D01*
X302073201Y-130474838D01*
X302445167Y-130475162D01*
X302788943Y-130333117D01*
X302822118Y-130300000D01*
X305755198Y-130300000D01*
X308072599Y-132617401D01*
X308319160Y-132782148D01*
X308367414Y-132791746D01*
X308610000Y-132840000D01*
X367825198Y-132840000D01*
X373810000Y-138824802D01*
X373810000Y-144754442D01*
X373584683Y-144796838D01*
X373368559Y-144935910D01*
X373223569Y-145148110D01*
X373172560Y-145400000D01*
X373172560Y-146700000D01*
X373216838Y-146935317D01*
X373355910Y-147151441D01*
X373568110Y-147296431D01*
X373820000Y-147347440D01*
X375320000Y-147347440D01*
X375555317Y-147303162D01*
X375771441Y-147164090D01*
X375916431Y-146951890D01*
X375919081Y-146938803D01*
X376055910Y-147151441D01*
X376268110Y-147296431D01*
X376520000Y-147347440D01*
X378020000Y-147347440D01*
X378255317Y-147303162D01*
X378471441Y-147164090D01*
X378616431Y-146951890D01*
X378645164Y-146810000D01*
X384810000Y-146810000D01*
X385100839Y-146752148D01*
X385347401Y-146587401D01*
X387887401Y-144047401D01*
X388052148Y-143800840D01*
X388072843Y-143696799D01*
X388110000Y-143510000D01*
X388110000Y-137443795D01*
X392064716Y-137443795D01*
X392313106Y-138044943D01*
X392772637Y-138505278D01*
X393373352Y-138754716D01*
X394023795Y-138755284D01*
X394624943Y-138506894D01*
X395085278Y-138047363D01*
X395334716Y-137446648D01*
X395335284Y-136796205D01*
X395086894Y-136195057D01*
X394627363Y-135734722D01*
X394026648Y-135485284D01*
X393376205Y-135484716D01*
X392775057Y-135733106D01*
X392314722Y-136192637D01*
X392065284Y-136793352D01*
X392064716Y-137443795D01*
X388110000Y-137443795D01*
X388110000Y-133350000D01*
X388052148Y-133059161D01*
X387887401Y-132812599D01*
X387518597Y-132443795D01*
X392064716Y-132443795D01*
X392313106Y-133044943D01*
X392772637Y-133505278D01*
X393373352Y-133754716D01*
X394023795Y-133755284D01*
X394624943Y-133506894D01*
X395085278Y-133047363D01*
X395334716Y-132446648D01*
X395335284Y-131796205D01*
X395086894Y-131195057D01*
X394627363Y-130734722D01*
X394026648Y-130485284D01*
X393376205Y-130484716D01*
X392775057Y-130733106D01*
X392314722Y-131192637D01*
X392065284Y-131793352D01*
X392064716Y-132443795D01*
X387518597Y-132443795D01*
X384157401Y-129082599D01*
X383910839Y-128917852D01*
X383620000Y-128860000D01*
X382655047Y-128860000D01*
X382586894Y-128695057D01*
X382127363Y-128234722D01*
X381526648Y-127985284D01*
X380876205Y-127984716D01*
X380275057Y-128233106D01*
X379814722Y-128692637D01*
X379565284Y-129293352D01*
X379564716Y-129943795D01*
X379813106Y-130544943D01*
X380272637Y-131005278D01*
X380873352Y-131254716D01*
X381523795Y-131255284D01*
X382124943Y-131006894D01*
X382585278Y-130547363D01*
X382654773Y-130380000D01*
X383305198Y-130380000D01*
X386590000Y-133664802D01*
X386590000Y-143195198D01*
X384495198Y-145290000D01*
X378646742Y-145290000D01*
X378623162Y-145164683D01*
X378484090Y-144948559D01*
X378271890Y-144803569D01*
X378020000Y-144752560D01*
X376520000Y-144752560D01*
X376284683Y-144796838D01*
X376068559Y-144935910D01*
X375923569Y-145148110D01*
X375920919Y-145161197D01*
X375784090Y-144948559D01*
X375571890Y-144803569D01*
X375330000Y-144754585D01*
X375330000Y-142443795D01*
X382064716Y-142443795D01*
X382313106Y-143044943D01*
X382772637Y-143505278D01*
X383373352Y-143754716D01*
X384023795Y-143755284D01*
X384624943Y-143506894D01*
X385085278Y-143047363D01*
X385334716Y-142446648D01*
X385335284Y-141796205D01*
X385086894Y-141195057D01*
X384627363Y-140734722D01*
X384026648Y-140485284D01*
X383376205Y-140484716D01*
X382775057Y-140733106D01*
X382314722Y-141192637D01*
X382065284Y-141793352D01*
X382064716Y-142443795D01*
X375330000Y-142443795D01*
X375330000Y-138510000D01*
X375296893Y-138343559D01*
X375272148Y-138219160D01*
X375107401Y-137972599D01*
X368677401Y-131542599D01*
X368430839Y-131377852D01*
X368140000Y-131320000D01*
X308924802Y-131320000D01*
X306818989Y-129214187D01*
X368844752Y-129214187D01*
X369062757Y-129741800D01*
X369466077Y-130145824D01*
X369993309Y-130364750D01*
X370564187Y-130365248D01*
X371091800Y-130147243D01*
X371495824Y-129743923D01*
X371714750Y-129216691D01*
X371715248Y-128645813D01*
X371497243Y-128118200D01*
X371093923Y-127714176D01*
X370566691Y-127495250D01*
X369995813Y-127494752D01*
X369468200Y-127712757D01*
X369064176Y-128116077D01*
X368845250Y-128643309D01*
X368844752Y-129214187D01*
X306818989Y-129214187D01*
X306607401Y-129002599D01*
X306360839Y-128837852D01*
X306070000Y-128780000D01*
X302822463Y-128780000D01*
X302790327Y-128747808D01*
X302446799Y-128605162D01*
X302074833Y-128604838D01*
X301731057Y-128746883D01*
X301617792Y-128859951D01*
X301497243Y-128568200D01*
X301093923Y-128164176D01*
X301036211Y-128140212D01*
X301091800Y-128117243D01*
X301495824Y-127713923D01*
X301714750Y-127186691D01*
X301715248Y-126615813D01*
X301497243Y-126088200D01*
X301139397Y-125729729D01*
X301495824Y-125373923D01*
X301714750Y-124846691D01*
X301715248Y-124275813D01*
X301696319Y-124230000D01*
X308132560Y-124230000D01*
X308132560Y-127230000D01*
X308176838Y-127465317D01*
X308315910Y-127681441D01*
X308528110Y-127826431D01*
X308780000Y-127877440D01*
X313780000Y-127877440D01*
X314015317Y-127833162D01*
X314231441Y-127694090D01*
X314376431Y-127481890D01*
X314427440Y-127230000D01*
X314427440Y-124230000D01*
X353632560Y-124230000D01*
X353632560Y-127230000D01*
X353676838Y-127465317D01*
X353815910Y-127681441D01*
X354028110Y-127826431D01*
X354280000Y-127877440D01*
X359280000Y-127877440D01*
X359515317Y-127833162D01*
X359731441Y-127694090D01*
X359876431Y-127481890D01*
X359927440Y-127230000D01*
X359927440Y-125187745D01*
X369451861Y-125187745D01*
X369525995Y-125433864D01*
X370063223Y-125626965D01*
X370633454Y-125599778D01*
X371034005Y-125433864D01*
X371108139Y-125187745D01*
X370280000Y-124359605D01*
X369451861Y-125187745D01*
X359927440Y-125187745D01*
X359927440Y-124230000D01*
X359883162Y-123994683D01*
X359862919Y-123963223D01*
X368833035Y-123963223D01*
X368860222Y-124533454D01*
X369026136Y-124934005D01*
X369272255Y-125008139D01*
X370100395Y-124180000D01*
X370459605Y-124180000D01*
X371287745Y-125008139D01*
X371533864Y-124934005D01*
X371726965Y-124396777D01*
X371699778Y-123826546D01*
X371533864Y-123425995D01*
X371287745Y-123351861D01*
X370459605Y-124180000D01*
X370100395Y-124180000D01*
X369272255Y-123351861D01*
X369026136Y-123425995D01*
X368833035Y-123963223D01*
X359862919Y-123963223D01*
X359744090Y-123778559D01*
X359531890Y-123633569D01*
X359280000Y-123582560D01*
X354280000Y-123582560D01*
X354044683Y-123626838D01*
X353828559Y-123765910D01*
X353683569Y-123978110D01*
X353632560Y-124230000D01*
X314427440Y-124230000D01*
X314383162Y-123994683D01*
X314244090Y-123778559D01*
X314031890Y-123633569D01*
X313780000Y-123582560D01*
X308780000Y-123582560D01*
X308544683Y-123626838D01*
X308328559Y-123765910D01*
X308183569Y-123978110D01*
X308132560Y-124230000D01*
X301696319Y-124230000D01*
X301497243Y-123748200D01*
X301093923Y-123344176D01*
X301036211Y-123320212D01*
X301091800Y-123297243D01*
X301217006Y-123172255D01*
X369451861Y-123172255D01*
X370280000Y-124000395D01*
X371108139Y-123172255D01*
X371034005Y-122926136D01*
X370496777Y-122733035D01*
X369926546Y-122760222D01*
X369525995Y-122926136D01*
X369451861Y-123172255D01*
X301217006Y-123172255D01*
X301495824Y-122893923D01*
X301714750Y-122366691D01*
X301715248Y-121795813D01*
X301555833Y-121410000D01*
X301945198Y-121410000D01*
X302992599Y-122457401D01*
X303239160Y-122622148D01*
X303530000Y-122680000D01*
X303820839Y-122622148D01*
X303853986Y-122600000D01*
X373354442Y-122600000D01*
X373396838Y-122825317D01*
X373535910Y-123041441D01*
X373748110Y-123186431D01*
X373761197Y-123189081D01*
X373548559Y-123325910D01*
X373403569Y-123538110D01*
X373352560Y-123790000D01*
X373352560Y-125290000D01*
X373396838Y-125525317D01*
X373535910Y-125741441D01*
X373748110Y-125886431D01*
X373890000Y-125915164D01*
X373890000Y-133350000D01*
X373947852Y-133640839D01*
X374112599Y-133887401D01*
X379565243Y-139340045D01*
X379564716Y-139943795D01*
X379813106Y-140544943D01*
X380272637Y-141005278D01*
X380873352Y-141254716D01*
X381523795Y-141255284D01*
X382124943Y-141006894D01*
X382585278Y-140547363D01*
X382834716Y-139946648D01*
X382835284Y-139296205D01*
X382586894Y-138695057D01*
X382127363Y-138234722D01*
X381526648Y-137985284D01*
X380876205Y-137984716D01*
X380510588Y-138135786D01*
X377318597Y-134943795D01*
X382064716Y-134943795D01*
X382313106Y-135544943D01*
X382772637Y-136005278D01*
X383373352Y-136254716D01*
X384023795Y-136255284D01*
X384624943Y-136006894D01*
X385085278Y-135547363D01*
X385334716Y-134946648D01*
X385335284Y-134296205D01*
X385086894Y-133695057D01*
X384627363Y-133234722D01*
X384026648Y-132985284D01*
X383376205Y-132984716D01*
X382775057Y-133233106D01*
X382314722Y-133692637D01*
X382065284Y-134293352D01*
X382064716Y-134943795D01*
X377318597Y-134943795D01*
X375410000Y-133035198D01*
X375410000Y-127443795D01*
X382064716Y-127443795D01*
X382313106Y-128044943D01*
X382772637Y-128505278D01*
X383373352Y-128754716D01*
X384023795Y-128755284D01*
X384624943Y-128506894D01*
X385085278Y-128047363D01*
X385334716Y-127446648D01*
X385335284Y-126796205D01*
X385086894Y-126195057D01*
X384627363Y-125734722D01*
X384026648Y-125485284D01*
X383376205Y-125484716D01*
X382775057Y-125733106D01*
X382314722Y-126192637D01*
X382065284Y-126793352D01*
X382064716Y-127443795D01*
X375410000Y-127443795D01*
X375410000Y-125916742D01*
X375535317Y-125893162D01*
X375751441Y-125754090D01*
X375896431Y-125541890D01*
X375947440Y-125290000D01*
X375947440Y-123790000D01*
X375903162Y-123554683D01*
X375764090Y-123338559D01*
X375551890Y-123193569D01*
X375538803Y-123190919D01*
X375751441Y-123054090D01*
X375896431Y-122841890D01*
X375947440Y-122590000D01*
X375947440Y-121090000D01*
X375903162Y-120854683D01*
X375764090Y-120638559D01*
X375551890Y-120493569D01*
X375300000Y-120442560D01*
X374000000Y-120442560D01*
X373764683Y-120486838D01*
X373548559Y-120625910D01*
X373403569Y-120838110D01*
X373354585Y-121080000D01*
X303764802Y-121080000D01*
X302797401Y-120112599D01*
X302726164Y-120065000D01*
X395555000Y-120065000D01*
X395555000Y-147905000D01*
X137845000Y-147905000D01*
X137845000Y-120065000D01*
X166902576Y-120065000D01*
X166847808Y-120119673D01*
X166847808Y-120119673D01*
G37*
X166847808Y-120119673D02*
X166705162Y-120463201D01*
X166705121Y-120510077D01*
X160752599Y-126462599D01*
X160587852Y-126709161D01*
X160530000Y-127000000D01*
X160530000Y-127072469D01*
X160499697Y-127084990D01*
X160106371Y-127477630D01*
X160020051Y-127685512D01*
X159935010Y-127479697D01*
X159542370Y-127086371D01*
X159029100Y-126873243D01*
X158473339Y-126872758D01*
X157959697Y-127084990D01*
X157566371Y-127477630D01*
X157480051Y-127685512D01*
X157395010Y-127479697D01*
X157002370Y-127086371D01*
X156489100Y-126873243D01*
X155933339Y-126872758D01*
X155419697Y-127084990D01*
X155026371Y-127477630D01*
X154940051Y-127685512D01*
X154855010Y-127479697D01*
X154462370Y-127086371D01*
X153949100Y-126873243D01*
X153393339Y-126872758D01*
X152879697Y-127084990D01*
X152486371Y-127477630D01*
X152400051Y-127685512D01*
X152315010Y-127479697D01*
X151922370Y-127086371D01*
X151409100Y-126873243D01*
X150853339Y-126872758D01*
X150339697Y-127084990D01*
X149946371Y-127477630D01*
X149860051Y-127685512D01*
X149775010Y-127479697D01*
X149382370Y-127086371D01*
X148869100Y-126873243D01*
X148313339Y-126872758D01*
X147799697Y-127084990D01*
X147406371Y-127477630D01*
X147320051Y-127685512D01*
X147235010Y-127479697D01*
X146842370Y-127086371D01*
X146329100Y-126873243D01*
X145773339Y-126872758D01*
X145259697Y-127084990D01*
X144866371Y-127477630D01*
X144653243Y-127990900D01*
X144652758Y-128546661D01*
X144864990Y-129060303D01*
X145257630Y-129453629D01*
X145770900Y-129666757D01*
X146326661Y-129667242D01*
X146840303Y-129455010D01*
X147233629Y-129062370D01*
X147319949Y-128854488D01*
X147404990Y-129060303D01*
X147797630Y-129453629D01*
X148310900Y-129666757D01*
X148866661Y-129667242D01*
X149380303Y-129455010D01*
X149773629Y-129062370D01*
X149859949Y-128854488D01*
X149944990Y-129060303D01*
X150337630Y-129453629D01*
X150850900Y-129666757D01*
X151406661Y-129667242D01*
X151920303Y-129455010D01*
X152313629Y-129062370D01*
X152399949Y-128854488D01*
X152484990Y-129060303D01*
X152877630Y-129453629D01*
X153390900Y-129666757D01*
X153946661Y-129667242D01*
X154460303Y-129455010D01*
X154853629Y-129062370D01*
X154939949Y-128854488D01*
X155024990Y-129060303D01*
X155417630Y-129453629D01*
X155930900Y-129666757D01*
X156486661Y-129667242D01*
X157000303Y-129455010D01*
X157393629Y-129062370D01*
X157479949Y-128854488D01*
X157564990Y-129060303D01*
X157957630Y-129453629D01*
X158470900Y-129666757D01*
X159026661Y-129667242D01*
X159540303Y-129455010D01*
X159933629Y-129062370D01*
X160019949Y-128854488D01*
X160104990Y-129060303D01*
X160497630Y-129453629D01*
X161010900Y-129666757D01*
X161566661Y-129667242D01*
X162080303Y-129455010D01*
X162473629Y-129062370D01*
X162559949Y-128854488D01*
X162644990Y-129060303D01*
X162939685Y-129355513D01*
X162245198Y-130050000D01*
X151692463Y-130050000D01*
X151660327Y-130017808D01*
X151316799Y-129875162D01*
X150944833Y-129874838D01*
X150601057Y-130016883D01*
X150337808Y-130279673D01*
X150195162Y-130623201D01*
X150194838Y-130995167D01*
X150336883Y-131338943D01*
X150599673Y-131602192D01*
X150943201Y-131744838D01*
X151315167Y-131745162D01*
X151658943Y-131603117D01*
X151692118Y-131570000D01*
X156764414Y-131570000D01*
X156605250Y-131953309D01*
X156604752Y-132524187D01*
X156822757Y-133051800D01*
X157226077Y-133455824D01*
X157283789Y-133479788D01*
X157228200Y-133502757D01*
X156824176Y-133906077D01*
X156605250Y-134433309D01*
X156604752Y-135004187D01*
X156822757Y-135531800D01*
X157226077Y-135935824D01*
X157244613Y-135943521D01*
X157211861Y-136052255D01*
X158040000Y-136880395D01*
X158868139Y-136052255D01*
X158835522Y-135943969D01*
X158851800Y-135937243D01*
X159255824Y-135533923D01*
X159474750Y-135006691D01*
X159475248Y-134435813D01*
X159456319Y-134390000D01*
X165892560Y-134390000D01*
X165892560Y-137390000D01*
X165936838Y-137625317D01*
X166075910Y-137841441D01*
X166288110Y-137986431D01*
X166540000Y-138037440D01*
X171540000Y-138037440D01*
X171775317Y-137993162D01*
X171991441Y-137854090D01*
X172136431Y-137641890D01*
X172187440Y-137390000D01*
X172187440Y-134390000D01*
X172143162Y-134154683D01*
X172004090Y-133938559D01*
X171791890Y-133793569D01*
X171540000Y-133742560D01*
X166540000Y-133742560D01*
X166304683Y-133786838D01*
X166088559Y-133925910D01*
X165943569Y-134138110D01*
X165892560Y-134390000D01*
X159456319Y-134390000D01*
X159257243Y-133908200D01*
X158853923Y-133504176D01*
X158796211Y-133480212D01*
X158851800Y-133457243D01*
X159255824Y-133053923D01*
X159474750Y-132526691D01*
X159475248Y-131955813D01*
X159315833Y-131570000D01*
X162560000Y-131570000D01*
X162850839Y-131512148D01*
X163097401Y-131347401D01*
X164367401Y-130077401D01*
X164532148Y-129830840D01*
X164590000Y-129540000D01*
X164590000Y-129467531D01*
X164620303Y-129455010D01*
X165013629Y-129062370D01*
X165099949Y-128854488D01*
X165184990Y-129060303D01*
X165577630Y-129453629D01*
X165610000Y-129467070D01*
X165610000Y-129540000D01*
X165667852Y-129830839D01*
X165832599Y-130077401D01*
X167102599Y-131347401D01*
X167349160Y-131512148D01*
X167640000Y-131570000D01*
X170887537Y-131570000D01*
X170919673Y-131602192D01*
X171263201Y-131744838D01*
X171635167Y-131745162D01*
X171978943Y-131603117D01*
X172242192Y-131340327D01*
X172384838Y-130996799D01*
X172385162Y-130624833D01*
X172243117Y-130281057D01*
X171980327Y-130017808D01*
X171636799Y-129875162D01*
X171264833Y-129874838D01*
X170921057Y-130016883D01*
X170887882Y-130050000D01*
X167954802Y-130050000D01*
X167260145Y-129355343D01*
X167553629Y-129062370D01*
X167639949Y-128854488D01*
X167724990Y-129060303D01*
X168117630Y-129453629D01*
X168630900Y-129666757D01*
X169186661Y-129667242D01*
X169700303Y-129455010D01*
X170093629Y-129062370D01*
X170179949Y-128854488D01*
X170264990Y-129060303D01*
X170657630Y-129453629D01*
X171170900Y-129666757D01*
X171726661Y-129667242D01*
X171759055Y-129653857D01*
X173230000Y-131124802D01*
X173230000Y-137160000D01*
X173287852Y-137450839D01*
X173452599Y-137697401D01*
X173699161Y-137862148D01*
X173990000Y-137920000D01*
X175967537Y-137920000D01*
X175999673Y-137952192D01*
X176343201Y-138094838D01*
X176715167Y-138095162D01*
X177058943Y-137953117D01*
X177322192Y-137690327D01*
X177464838Y-137346799D01*
X177465162Y-136974833D01*
X177323117Y-136631057D01*
X177060327Y-136367808D01*
X176716799Y-136225162D01*
X176344833Y-136224838D01*
X176001057Y-136366883D01*
X175967882Y-136400000D01*
X174750000Y-136400000D01*
X174750000Y-130810000D01*
X174697758Y-130547363D01*
X174692148Y-130519160D01*
X174527401Y-130272599D01*
X173921743Y-129666941D01*
X174266661Y-129667242D01*
X174780303Y-129455010D01*
X175173629Y-129062370D01*
X175259949Y-128854488D01*
X175344990Y-129060303D01*
X175737630Y-129453629D01*
X176250900Y-129666757D01*
X176806661Y-129667242D01*
X177320303Y-129455010D01*
X177713629Y-129062370D01*
X177799949Y-128854488D01*
X177884990Y-129060303D01*
X178277630Y-129453629D01*
X178310000Y-129467070D01*
X178310000Y-137160000D01*
X178367852Y-137450839D01*
X178532599Y-137697401D01*
X179802599Y-138967401D01*
X180049160Y-139132148D01*
X180340000Y-139190000D01*
X200465198Y-139190000D01*
X201442453Y-140167255D01*
X201315328Y-140473405D01*
X201314674Y-141223305D01*
X201601043Y-141916372D01*
X202130839Y-142447093D01*
X202823405Y-142734672D01*
X203573305Y-142735326D01*
X204266372Y-142448957D01*
X204797093Y-141919161D01*
X205084672Y-141226595D01*
X205085326Y-140476695D01*
X204798957Y-139783628D01*
X204269161Y-139252907D01*
X203576595Y-138965328D01*
X202826695Y-138964674D01*
X202517311Y-139092509D01*
X201344802Y-137920000D01*
X205425198Y-137920000D01*
X208892599Y-141387401D01*
X209139161Y-141552148D01*
X209430000Y-141610000D01*
X220524453Y-141610000D01*
X220651043Y-141916372D01*
X221180839Y-142447093D01*
X221873405Y-142734672D01*
X222623305Y-142735326D01*
X223316372Y-142448957D01*
X223847093Y-141919161D01*
X224134672Y-141226595D01*
X224135326Y-140476695D01*
X223848957Y-139783628D01*
X223319161Y-139252907D01*
X222626595Y-138965328D01*
X221876695Y-138964674D01*
X221183628Y-139251043D01*
X220652907Y-139780839D01*
X220524532Y-140090000D01*
X209744802Y-140090000D01*
X206277401Y-136622599D01*
X206030839Y-136457852D01*
X205740000Y-136400000D01*
X182172463Y-136400000D01*
X182140327Y-136367808D01*
X181796799Y-136225162D01*
X181424833Y-136224838D01*
X181081057Y-136366883D01*
X180817808Y-136629673D01*
X180675162Y-136973201D01*
X180674838Y-137345167D01*
X180809056Y-137670000D01*
X180654802Y-137670000D01*
X179830000Y-136845198D01*
X179830000Y-129725167D01*
X189564838Y-129725167D01*
X189706883Y-130068943D01*
X189740000Y-130102118D01*
X189740000Y-131517537D01*
X189707808Y-131549673D01*
X189565162Y-131893201D01*
X189564838Y-132265167D01*
X189706883Y-132608943D01*
X189969673Y-132872192D01*
X190313201Y-133014838D01*
X190685167Y-133015162D01*
X191028943Y-132873117D01*
X191292192Y-132610327D01*
X191434838Y-132266799D01*
X191435162Y-131894833D01*
X191293117Y-131551057D01*
X191260000Y-131517882D01*
X191260000Y-130102463D01*
X191292192Y-130070327D01*
X191434838Y-129726799D01*
X191435162Y-129354833D01*
X191293117Y-129011057D01*
X191030327Y-128747808D01*
X190686799Y-128605162D01*
X190314833Y-128604838D01*
X189971057Y-128746883D01*
X189707808Y-129009673D01*
X189565162Y-129353201D01*
X189564838Y-129725167D01*
X179830000Y-129725167D01*
X179830000Y-129467531D01*
X179860303Y-129455010D01*
X180253629Y-129062370D01*
X180339949Y-128854488D01*
X180424990Y-129060303D01*
X180817630Y-129453629D01*
X181330900Y-129666757D01*
X181886661Y-129667242D01*
X182400303Y-129455010D01*
X182793629Y-129062370D01*
X182879949Y-128854488D01*
X182964990Y-129060303D01*
X183357630Y-129453629D01*
X183870900Y-129666757D01*
X184426661Y-129667242D01*
X184940303Y-129455010D01*
X185333629Y-129062370D01*
X185419949Y-128854488D01*
X185504990Y-129060303D01*
X185897630Y-129453629D01*
X186410900Y-129666757D01*
X186966661Y-129667242D01*
X187480303Y-129455010D01*
X187873629Y-129062370D01*
X188086757Y-128549100D01*
X188087242Y-127993339D01*
X187875010Y-127479697D01*
X187580994Y-127185167D01*
X197184838Y-127185167D01*
X197326883Y-127528943D01*
X197360000Y-127562118D01*
X197360000Y-130810000D01*
X197417852Y-131100839D01*
X197582599Y-131347401D01*
X200122599Y-133887401D01*
X200369160Y-134052148D01*
X200417414Y-134061746D01*
X200660000Y-134110000D01*
X201474453Y-134110000D01*
X201601043Y-134416372D01*
X202130839Y-134947093D01*
X202823405Y-135234672D01*
X203573305Y-135235326D01*
X204266372Y-134948957D01*
X204797093Y-134419161D01*
X204925468Y-134110000D01*
X211462776Y-134110000D01*
X211443569Y-134138110D01*
X211392560Y-134390000D01*
X211392560Y-137390000D01*
X211436838Y-137625317D01*
X211575910Y-137841441D01*
X211788110Y-137986431D01*
X212040000Y-138037440D01*
X217040000Y-138037440D01*
X217275317Y-137993162D01*
X217491441Y-137854090D01*
X217636431Y-137641890D01*
X217687440Y-137390000D01*
X217687440Y-136075167D01*
X218774838Y-136075167D01*
X218916883Y-136418943D01*
X219179673Y-136682192D01*
X219523201Y-136824838D01*
X219570077Y-136824879D01*
X220442599Y-137697401D01*
X220689160Y-137862148D01*
X220980000Y-137920000D01*
X222175198Y-137920000D01*
X225642599Y-141387401D01*
X225889161Y-141552148D01*
X226180000Y-141610000D01*
X240844453Y-141610000D01*
X240971043Y-141916372D01*
X241500839Y-142447093D01*
X242193405Y-142734672D01*
X242943305Y-142735326D01*
X243636372Y-142448957D01*
X244167093Y-141919161D01*
X244454672Y-141226595D01*
X244455326Y-140476695D01*
X244168957Y-139783628D01*
X243639161Y-139252907D01*
X242946595Y-138965328D01*
X242196695Y-138964674D01*
X241503628Y-139251043D01*
X240972907Y-139780839D01*
X240844532Y-140090000D01*
X226494802Y-140090000D01*
X224128989Y-137724187D01*
X226604752Y-137724187D01*
X226822757Y-138251800D01*
X227226077Y-138655824D01*
X227753309Y-138874750D01*
X228324187Y-138875248D01*
X228851800Y-138657243D01*
X229255824Y-138253923D01*
X229474750Y-137726691D01*
X229475248Y-137155813D01*
X229257243Y-136628200D01*
X228853923Y-136224176D01*
X228326691Y-136005250D01*
X227755813Y-136004752D01*
X227228200Y-136222757D01*
X226824176Y-136626077D01*
X226605250Y-137153309D01*
X226604752Y-137724187D01*
X224128989Y-137724187D01*
X223027401Y-136622599D01*
X222780839Y-136457852D01*
X222490000Y-136400000D01*
X221294802Y-136400000D01*
X220645122Y-135750320D01*
X220645162Y-135704833D01*
X220503117Y-135361057D01*
X220240327Y-135097808D01*
X219896799Y-134955162D01*
X219524833Y-134954838D01*
X219181057Y-135096883D01*
X218917808Y-135359673D01*
X218775162Y-135703201D01*
X218774838Y-136075167D01*
X217687440Y-136075167D01*
X217687440Y-134390000D01*
X217643162Y-134154683D01*
X217614409Y-134110000D01*
X220524453Y-134110000D01*
X220651043Y-134416372D01*
X221180839Y-134947093D01*
X221873405Y-135234672D01*
X222623305Y-135235326D01*
X222932689Y-135107491D01*
X222982599Y-135157401D01*
X223229160Y-135322148D01*
X223520000Y-135380000D01*
X240030000Y-135380000D01*
X240320839Y-135322148D01*
X240567401Y-135157401D01*
X241139589Y-134585213D01*
X241500839Y-134947093D01*
X242193405Y-135234672D01*
X242943305Y-135235326D01*
X243636372Y-134948957D01*
X244167093Y-134419161D01*
X244454672Y-133726595D01*
X244455326Y-132976695D01*
X244168957Y-132283628D01*
X243639161Y-131752907D01*
X242946595Y-131465328D01*
X242196695Y-131464674D01*
X241503628Y-131751043D01*
X240972907Y-132280839D01*
X240744646Y-132830552D01*
X239715198Y-133860000D01*
X228899125Y-133860000D01*
X229255824Y-133503923D01*
X229474750Y-132976691D01*
X229475248Y-132405813D01*
X229257243Y-131878200D01*
X228853923Y-131474176D01*
X228326691Y-131255250D01*
X227755813Y-131254752D01*
X227228200Y-131472757D01*
X226824176Y-131876077D01*
X226605250Y-132403309D01*
X226604752Y-132974187D01*
X226822757Y-133501800D01*
X227180333Y-133860000D01*
X224079277Y-133860000D01*
X224134672Y-133726595D01*
X224135326Y-132976695D01*
X223848957Y-132283628D01*
X223319161Y-131752907D01*
X222626595Y-131465328D01*
X221876695Y-131464674D01*
X221183628Y-131751043D01*
X220652907Y-132280839D01*
X220524532Y-132590000D01*
X204925547Y-132590000D01*
X204798957Y-132283628D01*
X204269161Y-131752907D01*
X203576595Y-131465328D01*
X202826695Y-131464674D01*
X202133628Y-131751043D01*
X201602907Y-132280839D01*
X201474532Y-132590000D01*
X200974802Y-132590000D01*
X199379969Y-130995167D01*
X214964838Y-130995167D01*
X215106883Y-131338943D01*
X215369673Y-131602192D01*
X215713201Y-131744838D01*
X216085167Y-131745162D01*
X216428943Y-131603117D01*
X216462118Y-131570000D01*
X219147537Y-131570000D01*
X219179673Y-131602192D01*
X219523201Y-131744838D01*
X219895167Y-131745162D01*
X220238943Y-131603117D01*
X220502192Y-131340327D01*
X220644838Y-130996799D01*
X220645162Y-130624833D01*
X220503117Y-130281057D01*
X220240327Y-130017808D01*
X219896799Y-129875162D01*
X219524833Y-129874838D01*
X219181057Y-130016883D01*
X219147882Y-130050000D01*
X216462463Y-130050000D01*
X216430327Y-130017808D01*
X216086799Y-129875162D01*
X215714833Y-129874838D01*
X215371057Y-130016883D01*
X215107808Y-130279673D01*
X214965162Y-130623201D01*
X214964838Y-130995167D01*
X199379969Y-130995167D01*
X198880000Y-130495198D01*
X198880000Y-127562463D01*
X198912192Y-127530327D01*
X199054838Y-127186799D01*
X199055162Y-126814833D01*
X198913117Y-126471057D01*
X198650327Y-126207808D01*
X198306799Y-126065162D01*
X197934833Y-126064838D01*
X197591057Y-126206883D01*
X197327808Y-126469673D01*
X197185162Y-126813201D01*
X197184838Y-127185167D01*
X187580994Y-127185167D01*
X187482370Y-127086371D01*
X186969100Y-126873243D01*
X186413339Y-126872758D01*
X185899697Y-127084990D01*
X185506371Y-127477630D01*
X185420051Y-127685512D01*
X185335010Y-127479697D01*
X184942370Y-127086371D01*
X184429100Y-126873243D01*
X183873339Y-126872758D01*
X183359697Y-127084990D01*
X182966371Y-127477630D01*
X182880051Y-127685512D01*
X182795010Y-127479697D01*
X182500315Y-127184487D01*
X185084802Y-124600000D01*
X201302560Y-124600000D01*
X201302560Y-127100000D01*
X201346838Y-127335317D01*
X201485910Y-127551441D01*
X201698110Y-127696431D01*
X201950000Y-127747440D01*
X204450000Y-127747440D01*
X204685317Y-127703162D01*
X204901441Y-127564090D01*
X205046431Y-127351890D01*
X205097440Y-127100000D01*
X205097440Y-126610000D01*
X220352560Y-126610000D01*
X220352560Y-127100000D01*
X220396838Y-127335317D01*
X220509243Y-127510000D01*
X216462463Y-127510000D01*
X216430327Y-127477808D01*
X216086799Y-127335162D01*
X215714833Y-127334838D01*
X215371057Y-127476883D01*
X215107808Y-127739673D01*
X214965162Y-128083201D01*
X214964838Y-128455167D01*
X215106883Y-128798943D01*
X215369673Y-129062192D01*
X215713201Y-129204838D01*
X216085167Y-129205162D01*
X216428943Y-129063117D01*
X216462118Y-129030000D01*
X259787537Y-129030000D01*
X259819673Y-129062192D01*
X260163201Y-129204838D01*
X260535167Y-129205162D01*
X260620000Y-129170110D01*
X260620000Y-138190000D01*
X260677852Y-138480839D01*
X260842599Y-138727401D01*
X262262560Y-140147362D01*
X262262560Y-142100000D01*
X262306838Y-142335317D01*
X262445910Y-142551441D01*
X262658110Y-142696431D01*
X262910000Y-142747440D01*
X265410000Y-142747440D01*
X265645317Y-142703162D01*
X265861441Y-142564090D01*
X266006431Y-142351890D01*
X266057440Y-142100000D01*
X266057440Y-139600000D01*
X266013162Y-139364683D01*
X265874090Y-139148559D01*
X265661890Y-139003569D01*
X265410000Y-138952560D01*
X263217362Y-138952560D01*
X262140000Y-137875198D01*
X262140000Y-136930159D01*
X271239446Y-136930159D01*
X271325852Y-137186643D01*
X271899336Y-137396458D01*
X272509460Y-137370839D01*
X272954148Y-137186643D01*
X273040554Y-136930159D01*
X272140000Y-136029605D01*
X271239446Y-136930159D01*
X262140000Y-136930159D01*
X262140000Y-135609336D01*
X270593542Y-135609336D01*
X270619161Y-136219460D01*
X270803357Y-136664148D01*
X271059841Y-136750554D01*
X271960395Y-135850000D01*
X271059841Y-134949446D01*
X270803357Y-135035852D01*
X270593542Y-135609336D01*
X262140000Y-135609336D01*
X262140000Y-133723305D01*
X262274674Y-133723305D01*
X262561043Y-134416372D01*
X263090839Y-134947093D01*
X263783405Y-135234672D01*
X264533305Y-135235326D01*
X265226372Y-134948957D01*
X265757093Y-134419161D01*
X266044672Y-133726595D01*
X266045326Y-132976695D01*
X265758957Y-132283628D01*
X265229161Y-131752907D01*
X264536595Y-131465328D01*
X263786695Y-131464674D01*
X263093628Y-131751043D01*
X262562907Y-132280839D01*
X262275328Y-132973405D01*
X262274674Y-133723305D01*
X262140000Y-133723305D01*
X262140000Y-127000000D01*
X262082148Y-126709161D01*
X261917401Y-126462599D01*
X261678107Y-126223305D01*
X262274674Y-126223305D01*
X262561043Y-126916372D01*
X263090839Y-127447093D01*
X263783405Y-127734672D01*
X264533305Y-127735326D01*
X265226372Y-127448957D01*
X265757093Y-126919161D01*
X266044672Y-126226595D01*
X266045326Y-125476695D01*
X265758957Y-124783628D01*
X265229161Y-124252907D01*
X264536595Y-123965328D01*
X263786695Y-123964674D01*
X263093628Y-124251043D01*
X262562907Y-124780839D01*
X262275328Y-125473405D01*
X262274674Y-126223305D01*
X261678107Y-126223305D01*
X260767401Y-125312599D01*
X260520839Y-125147852D01*
X260230000Y-125090000D01*
X244467440Y-125090000D01*
X244467440Y-124600000D01*
X244423162Y-124364683D01*
X244284090Y-124148559D01*
X244071890Y-124003569D01*
X243820000Y-123952560D01*
X241320000Y-123952560D01*
X241084683Y-123996838D01*
X240868559Y-124135910D01*
X240723569Y-124348110D01*
X240672560Y-124600000D01*
X240672560Y-125090000D01*
X224147440Y-125090000D01*
X224147440Y-124600000D01*
X224103162Y-124364683D01*
X223964090Y-124148559D01*
X223751890Y-124003569D01*
X223500000Y-123952560D01*
X221000000Y-123952560D01*
X220764683Y-123996838D01*
X220548559Y-124135910D01*
X220403569Y-124348110D01*
X220352560Y-124600000D01*
X220352560Y-125090000D01*
X205097440Y-125090000D01*
X205097440Y-124600000D01*
X205053162Y-124364683D01*
X204914090Y-124148559D01*
X204701890Y-124003569D01*
X204450000Y-123952560D01*
X201950000Y-123952560D01*
X201714683Y-123996838D01*
X201498559Y-124135910D01*
X201353569Y-124348110D01*
X201302560Y-124600000D01*
X185084802Y-124600000D01*
X188274802Y-121410000D01*
X188429367Y-121410000D01*
X188295162Y-121733201D01*
X188294838Y-122105167D01*
X188436883Y-122448943D01*
X188699673Y-122712192D01*
X189043201Y-122854838D01*
X189415167Y-122855162D01*
X189758943Y-122713117D01*
X189792118Y-122680000D01*
X192995161Y-122680000D01*
X192994812Y-123079873D01*
X193159646Y-123478800D01*
X193464595Y-123784282D01*
X193863233Y-123949811D01*
X194294873Y-123950188D01*
X194693800Y-123785354D01*
X194999282Y-123480405D01*
X195164811Y-123081767D01*
X195165162Y-122680000D01*
X195995161Y-122680000D01*
X195994812Y-123079873D01*
X196159646Y-123478800D01*
X196464595Y-123784282D01*
X196863233Y-123949811D01*
X197294873Y-123950188D01*
X197693800Y-123785354D01*
X197999282Y-123480405D01*
X198164811Y-123081767D01*
X198165162Y-122680000D01*
X274005198Y-122680000D01*
X274990067Y-123664869D01*
X274766695Y-123664674D01*
X274073628Y-123951043D01*
X273542907Y-124480839D01*
X273255328Y-125173405D01*
X273254674Y-125923305D01*
X273541043Y-126616372D01*
X274070839Y-127147093D01*
X274763405Y-127434672D01*
X275513305Y-127435326D01*
X276206372Y-127148957D01*
X276737093Y-126619161D01*
X277024672Y-125926595D01*
X277024870Y-125699672D01*
X277370000Y-126044802D01*
X277370000Y-126437537D01*
X277337808Y-126469673D01*
X277195162Y-126813201D01*
X277194838Y-127185167D01*
X277336883Y-127528943D01*
X277566369Y-127758829D01*
X273782599Y-131542599D01*
X273617852Y-131789161D01*
X273560000Y-132080000D01*
X273560000Y-132767046D01*
X273442068Y-132481629D01*
X273060818Y-132099712D01*
X273440551Y-131720643D01*
X273674733Y-131156670D01*
X273675265Y-130546009D01*
X273442068Y-129981629D01*
X273010643Y-129549449D01*
X272446670Y-129315267D01*
X271836009Y-129314735D01*
X271271629Y-129547932D01*
X270839449Y-129979357D01*
X270605267Y-130543330D01*
X270604735Y-131153991D01*
X270837932Y-131718371D01*
X271219182Y-132100288D01*
X270839449Y-132479357D01*
X270605267Y-133043330D01*
X270604735Y-133653991D01*
X270837932Y-134218371D01*
X271269357Y-134650551D01*
X271278372Y-134654294D01*
X271239446Y-134769841D01*
X272140000Y-135670395D01*
X273040554Y-134769841D01*
X273001793Y-134654786D01*
X273008371Y-134652068D01*
X273440551Y-134220643D01*
X273560000Y-133932978D01*
X273560000Y-135237093D01*
X273476643Y-135035852D01*
X273220159Y-134949446D01*
X272319605Y-135850000D01*
X273220159Y-136750554D01*
X273476643Y-136664148D01*
X273560000Y-136436310D01*
X273560000Y-136845198D01*
X272538659Y-137866539D01*
X272310327Y-137637808D01*
X271966799Y-137495162D01*
X271594833Y-137494838D01*
X271251057Y-137636883D01*
X271217882Y-137670000D01*
X268532463Y-137670000D01*
X268500327Y-137637808D01*
X268156799Y-137495162D01*
X267784833Y-137494838D01*
X267441057Y-137636883D01*
X267177808Y-137899673D01*
X267035162Y-138243201D01*
X267034838Y-138615167D01*
X267176883Y-138958943D01*
X267439673Y-139222192D01*
X267783201Y-139364838D01*
X268155167Y-139365162D01*
X268498943Y-139223117D01*
X268532118Y-139190000D01*
X271215198Y-139190000D01*
X266385198Y-144020000D01*
X253294802Y-144020000D01*
X254537401Y-142777401D01*
X254702148Y-142530840D01*
X254760000Y-142240000D01*
X254760000Y-142089469D01*
X254884595Y-142214282D01*
X255283233Y-142379811D01*
X255714873Y-142380188D01*
X256113800Y-142215354D01*
X256334539Y-141995000D01*
X256502560Y-141995000D01*
X256502560Y-142795000D01*
X256546838Y-143030317D01*
X256685910Y-143246441D01*
X256898110Y-143391431D01*
X257150000Y-143442440D01*
X258150000Y-143442440D01*
X258385317Y-143398162D01*
X258601441Y-143259090D01*
X258746431Y-143046890D01*
X258797440Y-142795000D01*
X258797440Y-141995000D01*
X258753162Y-141759683D01*
X258614090Y-141543559D01*
X258401890Y-141398569D01*
X258150000Y-141347560D01*
X257150000Y-141347560D01*
X256914683Y-141391838D01*
X256698559Y-141530910D01*
X256553569Y-141743110D01*
X256502560Y-141995000D01*
X256334539Y-141995000D01*
X256419282Y-141910405D01*
X256584811Y-141511767D01*
X256585188Y-141080127D01*
X256528297Y-140942440D01*
X256600000Y-140942440D01*
X256616937Y-140939253D01*
X256685910Y-141046441D01*
X256898110Y-141191431D01*
X257150000Y-141242440D01*
X258150000Y-141242440D01*
X258385317Y-141198162D01*
X258601441Y-141059090D01*
X258746431Y-140846890D01*
X258797440Y-140595000D01*
X258797440Y-139795000D01*
X258753162Y-139559683D01*
X258614090Y-139343559D01*
X258401890Y-139198569D01*
X258164338Y-139150464D01*
X259219680Y-138095122D01*
X259265167Y-138095162D01*
X259608943Y-137953117D01*
X259872192Y-137690327D01*
X260014838Y-137346799D01*
X260015162Y-136974833D01*
X259873117Y-136631057D01*
X259610327Y-136367808D01*
X259266799Y-136225162D01*
X258894833Y-136224838D01*
X258551057Y-136366883D01*
X258287808Y-136629673D01*
X258145162Y-136973201D01*
X258145121Y-137020077D01*
X256920054Y-138245144D01*
X256851890Y-138198569D01*
X256600000Y-138147560D01*
X255900000Y-138147560D01*
X255664683Y-138191838D01*
X255498523Y-138298759D01*
X255351890Y-138198569D01*
X255100000Y-138147560D01*
X254400000Y-138147560D01*
X254164683Y-138191838D01*
X253948559Y-138330910D01*
X253803569Y-138543110D01*
X253752560Y-138795000D01*
X253752560Y-140142638D01*
X253462599Y-140432599D01*
X253346155Y-140606871D01*
X253115405Y-140375718D01*
X252747440Y-140222926D01*
X252747440Y-138795000D01*
X252703162Y-138559683D01*
X252564090Y-138343559D01*
X252351890Y-138198569D01*
X252100000Y-138147560D01*
X251400000Y-138147560D01*
X251164683Y-138191838D01*
X250948559Y-138330910D01*
X250803569Y-138543110D01*
X250752560Y-138795000D01*
X250752560Y-139147560D01*
X249850000Y-139147560D01*
X249614683Y-139191838D01*
X249398559Y-139330910D01*
X249253569Y-139543110D01*
X249202560Y-139795000D01*
X249202560Y-140595000D01*
X249246838Y-140830317D01*
X249385910Y-141046441D01*
X249598110Y-141191431D01*
X249850000Y-141242440D01*
X250850000Y-141242440D01*
X251085317Y-141198162D01*
X251301441Y-141059090D01*
X251383436Y-140939086D01*
X251400000Y-140942440D01*
X251471575Y-140942440D01*
X251415189Y-141078233D01*
X251414812Y-141509873D01*
X251579646Y-141908800D01*
X251884595Y-142214282D01*
X252283233Y-142379811D01*
X252714873Y-142380188D01*
X252834396Y-142330802D01*
X252415198Y-142750000D01*
X251497440Y-142750000D01*
X251497440Y-141995000D01*
X251453162Y-141759683D01*
X251314090Y-141543559D01*
X251101890Y-141398569D01*
X250850000Y-141347560D01*
X249850000Y-141347560D01*
X249614683Y-141391838D01*
X249398559Y-141530910D01*
X249253569Y-141743110D01*
X249202560Y-141995000D01*
X249202560Y-142750000D01*
X213922463Y-142750000D01*
X213890327Y-142717808D01*
X213546799Y-142575162D01*
X213174833Y-142574838D01*
X212831057Y-142716883D01*
X212567808Y-142979673D01*
X212425162Y-143323201D01*
X212424838Y-143695167D01*
X212559056Y-144020000D01*
X193354802Y-144020000D01*
X189767401Y-140432599D01*
X189520839Y-140267852D01*
X189230000Y-140210000D01*
X177330633Y-140210000D01*
X177464838Y-139886799D01*
X177465162Y-139514833D01*
X177323117Y-139171057D01*
X177060327Y-138907808D01*
X176716799Y-138765162D01*
X176344833Y-138764838D01*
X176001057Y-138906883D01*
X175967882Y-138940000D01*
X160020000Y-138940000D01*
X159729160Y-138997852D01*
X159482599Y-139162599D01*
X159450143Y-139195055D01*
X159257243Y-138728200D01*
X158853923Y-138324176D01*
X158797905Y-138300915D01*
X158868139Y-138067745D01*
X158040000Y-137239605D01*
X157211861Y-138067745D01*
X157281980Y-138300535D01*
X157228200Y-138322757D01*
X156824176Y-138726077D01*
X156605250Y-139253309D01*
X156605035Y-139500163D01*
X155698659Y-140406539D01*
X155470327Y-140177808D01*
X155126799Y-140035162D01*
X154754833Y-140034838D01*
X154411057Y-140176883D01*
X154377882Y-140210000D01*
X152714802Y-140210000D01*
X149348025Y-136843223D01*
X156593035Y-136843223D01*
X156620222Y-137413454D01*
X156786136Y-137814005D01*
X157032255Y-137888139D01*
X157860395Y-137060000D01*
X158219605Y-137060000D01*
X159047745Y-137888139D01*
X159293864Y-137814005D01*
X159486965Y-137276777D01*
X159459778Y-136706546D01*
X159293864Y-136305995D01*
X159047745Y-136231861D01*
X158219605Y-137060000D01*
X157860395Y-137060000D01*
X157032255Y-136231861D01*
X156786136Y-136305995D01*
X156593035Y-136843223D01*
X149348025Y-136843223D01*
X147857401Y-135352599D01*
X147610839Y-135187852D01*
X147320000Y-135130000D01*
X142240000Y-135130000D01*
X141949160Y-135187852D01*
X141702599Y-135352599D01*
X140953634Y-136101564D01*
X140742241Y-135889801D01*
X141085278Y-135547363D01*
X141334716Y-134946648D01*
X141335284Y-134296205D01*
X141086894Y-133695057D01*
X140742241Y-133349801D01*
X141085278Y-133007363D01*
X141334716Y-132406648D01*
X141335284Y-131756205D01*
X141086894Y-131155057D01*
X140742241Y-130809801D01*
X141085278Y-130467363D01*
X141334716Y-129866648D01*
X141335284Y-129216205D01*
X141086894Y-128615057D01*
X140627363Y-128154722D01*
X140026648Y-127905284D01*
X139376205Y-127904716D01*
X138775057Y-128153106D01*
X138314722Y-128612637D01*
X138065284Y-129213352D01*
X138064716Y-129863795D01*
X138313106Y-130464943D01*
X138657759Y-130810199D01*
X138314722Y-131152637D01*
X138065284Y-131753352D01*
X138064716Y-132403795D01*
X138313106Y-133004943D01*
X138657759Y-133350199D01*
X138314722Y-133692637D01*
X138065284Y-134293352D01*
X138064716Y-134943795D01*
X138313106Y-135544943D01*
X138657759Y-135890199D01*
X138314722Y-136232637D01*
X138065284Y-136833352D01*
X138064716Y-137483795D01*
X138313106Y-138084943D01*
X138657759Y-138430199D01*
X138314722Y-138772637D01*
X138065284Y-139373352D01*
X138064716Y-140023795D01*
X138313106Y-140624943D01*
X138379621Y-140691574D01*
X138248559Y-140775910D01*
X138103569Y-140988110D01*
X138052560Y-141240000D01*
X138052560Y-143240000D01*
X138096838Y-143475317D01*
X138235910Y-143691441D01*
X138448110Y-143836431D01*
X138700000Y-143887440D01*
X139160000Y-143887440D01*
X139160000Y-145077069D01*
X139068559Y-145135910D01*
X138923569Y-145348110D01*
X138872560Y-145600000D01*
X138872560Y-146500000D01*
X138916838Y-146735317D01*
X139055910Y-146951441D01*
X139268110Y-147096431D01*
X139520000Y-147147440D01*
X140320000Y-147147440D01*
X140555317Y-147103162D01*
X140771441Y-146964090D01*
X140916431Y-146751890D01*
X140967440Y-146500000D01*
X140967440Y-145600000D01*
X140923162Y-145364683D01*
X140784090Y-145148559D01*
X140680000Y-145077437D01*
X140680000Y-143887440D01*
X140700000Y-143887440D01*
X140935317Y-143843162D01*
X141151441Y-143704090D01*
X141260000Y-143545209D01*
X141260000Y-145077069D01*
X141168559Y-145135910D01*
X141023569Y-145348110D01*
X140972560Y-145600000D01*
X140972560Y-146500000D01*
X141016838Y-146735317D01*
X141155910Y-146951441D01*
X141368110Y-147096431D01*
X141620000Y-147147440D01*
X142420000Y-147147440D01*
X142655317Y-147103162D01*
X142871441Y-146964090D01*
X143016431Y-146751890D01*
X143067440Y-146500000D01*
X143067440Y-145600000D01*
X143023162Y-145364683D01*
X142884090Y-145148559D01*
X142780000Y-145077437D01*
X142780000Y-143786661D01*
X144652758Y-143786661D01*
X144864990Y-144300303D01*
X145257630Y-144693629D01*
X145770900Y-144906757D01*
X146326661Y-144907242D01*
X146840303Y-144695010D01*
X147233629Y-144302370D01*
X147319949Y-144094488D01*
X147404990Y-144300303D01*
X147797630Y-144693629D01*
X148310900Y-144906757D01*
X148866661Y-144907242D01*
X149380303Y-144695010D01*
X149585457Y-144490213D01*
X150329392Y-144490213D01*
X150398857Y-144732397D01*
X150922302Y-144919144D01*
X151477368Y-144891362D01*
X151861143Y-144732397D01*
X151930608Y-144490213D01*
X151130000Y-143689605D01*
X150329392Y-144490213D01*
X149585457Y-144490213D01*
X149773629Y-144302370D01*
X149853395Y-144110273D01*
X149907603Y-144241143D01*
X150149787Y-144310608D01*
X150950395Y-143510000D01*
X150149787Y-142709392D01*
X149907603Y-142778857D01*
X149857491Y-142919318D01*
X149775010Y-142719697D01*
X149585432Y-142529787D01*
X150329392Y-142529787D01*
X151130000Y-143330395D01*
X151930608Y-142529787D01*
X151861143Y-142287603D01*
X151337698Y-142100856D01*
X150782632Y-142128638D01*
X150398857Y-142287603D01*
X150329392Y-142529787D01*
X149585432Y-142529787D01*
X149382370Y-142326371D01*
X148869100Y-142113243D01*
X148313339Y-142112758D01*
X147799697Y-142324990D01*
X147406371Y-142717630D01*
X147320051Y-142925512D01*
X147235010Y-142719697D01*
X146842370Y-142326371D01*
X146329100Y-142113243D01*
X145773339Y-142112758D01*
X145259697Y-142324990D01*
X144866371Y-142717630D01*
X144653243Y-143230900D01*
X144652758Y-143786661D01*
X142780000Y-143786661D01*
X142780000Y-142774802D01*
X143824802Y-141730000D01*
X144217537Y-141730000D01*
X144249673Y-141762192D01*
X144593201Y-141904838D01*
X144965167Y-141905162D01*
X145308943Y-141763117D01*
X145572192Y-141500327D01*
X145714838Y-141156799D01*
X145715162Y-140784833D01*
X145573117Y-140441057D01*
X145310327Y-140177808D01*
X144966799Y-140035162D01*
X144594833Y-140034838D01*
X144251057Y-140176883D01*
X144217882Y-140210000D01*
X143510000Y-140210000D01*
X143219160Y-140267852D01*
X142972599Y-140432599D01*
X141482599Y-141922599D01*
X141347440Y-142124879D01*
X141347440Y-141240000D01*
X141303162Y-141004683D01*
X141164090Y-140788559D01*
X141021439Y-140691090D01*
X141085278Y-140627363D01*
X141334716Y-140026648D01*
X141335284Y-139376205D01*
X141086894Y-138775057D01*
X140742241Y-138429801D01*
X141085278Y-138087363D01*
X141171409Y-137879937D01*
X141260839Y-137862148D01*
X141507401Y-137697401D01*
X142554802Y-136650000D01*
X147005198Y-136650000D01*
X151862599Y-141507401D01*
X152109161Y-141672148D01*
X152400000Y-141730000D01*
X154377537Y-141730000D01*
X154409673Y-141762192D01*
X154753201Y-141904838D01*
X155125167Y-141905162D01*
X155450000Y-141770944D01*
X155450000Y-142312469D01*
X155419697Y-142324990D01*
X155026371Y-142717630D01*
X154940051Y-142925512D01*
X154855010Y-142719697D01*
X154462370Y-142326371D01*
X153949100Y-142113243D01*
X153393339Y-142112758D01*
X152879697Y-142324990D01*
X152486371Y-142717630D01*
X152406605Y-142909727D01*
X152352397Y-142778857D01*
X152110213Y-142709392D01*
X151309605Y-143510000D01*
X152110213Y-144310608D01*
X152352397Y-144241143D01*
X152402509Y-144100682D01*
X152484990Y-144300303D01*
X152877630Y-144693629D01*
X153390900Y-144906757D01*
X153946661Y-144907242D01*
X154460303Y-144695010D01*
X154853629Y-144302370D01*
X154939949Y-144094488D01*
X155024990Y-144300303D01*
X155417630Y-144693629D01*
X155930900Y-144906757D01*
X156486661Y-144907242D01*
X157000303Y-144695010D01*
X157393629Y-144302370D01*
X157479949Y-144094488D01*
X157564990Y-144300303D01*
X157957630Y-144693629D01*
X158470900Y-144906757D01*
X159026661Y-144907242D01*
X159540303Y-144695010D01*
X159933629Y-144302370D01*
X160019949Y-144094488D01*
X160104990Y-144300303D01*
X160497630Y-144693629D01*
X161010900Y-144906757D01*
X161566661Y-144907242D01*
X162080303Y-144695010D01*
X162473629Y-144302370D01*
X162559949Y-144094488D01*
X162644990Y-144300303D01*
X163037630Y-144693629D01*
X163550900Y-144906757D01*
X164106661Y-144907242D01*
X164620303Y-144695010D01*
X165013629Y-144302370D01*
X165099949Y-144094488D01*
X165184990Y-144300303D01*
X165577630Y-144693629D01*
X166090900Y-144906757D01*
X166646661Y-144907242D01*
X167160303Y-144695010D01*
X167553629Y-144302370D01*
X167639949Y-144094488D01*
X167724990Y-144300303D01*
X168117630Y-144693629D01*
X168630900Y-144906757D01*
X169186661Y-144907242D01*
X169700303Y-144695010D01*
X170093629Y-144302370D01*
X170179949Y-144094488D01*
X170264990Y-144300303D01*
X170657630Y-144693629D01*
X171170900Y-144906757D01*
X171726661Y-144907242D01*
X172240303Y-144695010D01*
X172633629Y-144302370D01*
X172719949Y-144094488D01*
X172804990Y-144300303D01*
X173197630Y-144693629D01*
X173710900Y-144906757D01*
X174266661Y-144907242D01*
X174780303Y-144695010D01*
X175173629Y-144302370D01*
X175259949Y-144094488D01*
X175344990Y-144300303D01*
X175737630Y-144693629D01*
X176250900Y-144906757D01*
X176806661Y-144907242D01*
X177320303Y-144695010D01*
X177713629Y-144302370D01*
X177799949Y-144094488D01*
X177884990Y-144300303D01*
X178277630Y-144693629D01*
X178790900Y-144906757D01*
X179346661Y-144907242D01*
X179860303Y-144695010D01*
X180253629Y-144302370D01*
X180339949Y-144094488D01*
X180424990Y-144300303D01*
X180817630Y-144693629D01*
X180850000Y-144707070D01*
X180850000Y-144780000D01*
X180907852Y-145070839D01*
X181072599Y-145317401D01*
X182342599Y-146587401D01*
X182589160Y-146752148D01*
X182880000Y-146810000D01*
X210257537Y-146810000D01*
X210289673Y-146842192D01*
X210633201Y-146984838D01*
X211005167Y-146985162D01*
X211348943Y-146843117D01*
X211612192Y-146580327D01*
X211754838Y-146236799D01*
X211755162Y-145864833D01*
X211620944Y-145540000D01*
X266700000Y-145540000D01*
X266990839Y-145482148D01*
X267237401Y-145317401D01*
X271031497Y-141523305D01*
X273254674Y-141523305D01*
X273541043Y-142216372D01*
X274070839Y-142747093D01*
X274763405Y-143034672D01*
X275513305Y-143035326D01*
X276206372Y-142748957D01*
X276530727Y-142425167D01*
X277194838Y-142425167D01*
X277336883Y-142768943D01*
X277599673Y-143032192D01*
X277943201Y-143174838D01*
X278315167Y-143175162D01*
X278658943Y-143033117D01*
X278922192Y-142770327D01*
X279064838Y-142426799D01*
X279064879Y-142379923D01*
X279921497Y-141523305D01*
X286854674Y-141523305D01*
X287141043Y-142216372D01*
X287670839Y-142747093D01*
X288363405Y-143034672D01*
X289113305Y-143035326D01*
X289806372Y-142748957D01*
X290337093Y-142219161D01*
X290624672Y-141526595D01*
X290625326Y-140776695D01*
X290338957Y-140083628D01*
X289809161Y-139552907D01*
X289116595Y-139265328D01*
X288366695Y-139264674D01*
X287673628Y-139551043D01*
X287142907Y-140080839D01*
X286855328Y-140773405D01*
X286854674Y-141523305D01*
X279921497Y-141523305D01*
X283971007Y-137473795D01*
X288554716Y-137473795D01*
X288803106Y-138074943D01*
X289262637Y-138535278D01*
X289863352Y-138784716D01*
X290513795Y-138785284D01*
X291114943Y-138536894D01*
X291575278Y-138077363D01*
X291824716Y-137476648D01*
X291824718Y-137473795D01*
X293054716Y-137473795D01*
X293303106Y-138074943D01*
X293762637Y-138535278D01*
X294363352Y-138784716D01*
X295013795Y-138785284D01*
X295614943Y-138536894D01*
X296075278Y-138077363D01*
X296324716Y-137476648D01*
X296325284Y-136826205D01*
X296076894Y-136225057D01*
X295617363Y-135764722D01*
X295016648Y-135515284D01*
X294366205Y-135514716D01*
X293765057Y-135763106D01*
X293304722Y-136222637D01*
X293055284Y-136823352D01*
X293054716Y-137473795D01*
X291824718Y-137473795D01*
X291825284Y-136826205D01*
X291576894Y-136225057D01*
X291117363Y-135764722D01*
X290516648Y-135515284D01*
X289866205Y-135514716D01*
X289265057Y-135763106D01*
X288804722Y-136222637D01*
X288555284Y-136823352D01*
X288554716Y-137473795D01*
X283971007Y-137473795D01*
X290259740Y-131185062D01*
X290513795Y-131185284D01*
X291114943Y-130936894D01*
X291575278Y-130477363D01*
X291824716Y-129876648D01*
X291824718Y-129873795D01*
X293054716Y-129873795D01*
X293303106Y-130474943D01*
X293762637Y-130935278D01*
X294363352Y-131184716D01*
X295013795Y-131185284D01*
X295614943Y-130936894D01*
X296075278Y-130477363D01*
X296324716Y-129876648D01*
X296325284Y-129226205D01*
X296076894Y-128625057D01*
X295617363Y-128164722D01*
X295016648Y-127915284D01*
X294366205Y-127914716D01*
X293765057Y-128163106D01*
X293304722Y-128622637D01*
X293055284Y-129223352D01*
X293054716Y-129873795D01*
X291824718Y-129873795D01*
X291825284Y-129226205D01*
X291576894Y-128625057D01*
X291117363Y-128164722D01*
X290516648Y-127915284D01*
X289866205Y-127914716D01*
X289265057Y-128163106D01*
X288804722Y-128622637D01*
X288555284Y-129223352D01*
X288554716Y-129873795D01*
X288803106Y-130474943D01*
X288811673Y-130483525D01*
X277990320Y-141304878D01*
X277944833Y-141304838D01*
X277601057Y-141446883D01*
X277337808Y-141709673D01*
X277195162Y-142053201D01*
X277194838Y-142425167D01*
X276530727Y-142425167D01*
X276737093Y-142219161D01*
X277024672Y-141526595D01*
X277025326Y-140776695D01*
X276738957Y-140083628D01*
X276209161Y-139552907D01*
X275516595Y-139265328D01*
X274766695Y-139264674D01*
X274073628Y-139551043D01*
X273542907Y-140080839D01*
X273255328Y-140773405D01*
X273254674Y-141523305D01*
X271031497Y-141523305D01*
X274857401Y-137697401D01*
X275022148Y-137450840D01*
X275080000Y-137160000D01*
X275080000Y-132394802D01*
X282477401Y-124997401D01*
X282485320Y-124985550D01*
X282808371Y-124852068D01*
X283190288Y-124470818D01*
X283569357Y-124850551D01*
X284133330Y-125084733D01*
X284743991Y-125085265D01*
X285308371Y-124852068D01*
X285740551Y-124420643D01*
X285974733Y-123856670D01*
X285975265Y-123246009D01*
X285742068Y-122681629D01*
X285310643Y-122249449D01*
X284746670Y-122015267D01*
X284136009Y-122014735D01*
X283571629Y-122247932D01*
X283189712Y-122629182D01*
X282810643Y-122249449D01*
X282246670Y-122015267D01*
X281636009Y-122014735D01*
X281071629Y-122247932D01*
X280639449Y-122679357D01*
X280635706Y-122688372D01*
X280520159Y-122649446D01*
X279619605Y-123550000D01*
X280520159Y-124450554D01*
X280635214Y-124411793D01*
X280637932Y-124418371D01*
X280772262Y-124552936D01*
X278890000Y-126435198D01*
X278890000Y-125730000D01*
X278838960Y-125473405D01*
X278832148Y-125439160D01*
X278667401Y-125192599D01*
X278104961Y-124630159D01*
X278539446Y-124630159D01*
X278625852Y-124886643D01*
X279199336Y-125096458D01*
X279809460Y-125070839D01*
X280254148Y-124886643D01*
X280340554Y-124630159D01*
X279440000Y-123729605D01*
X278539446Y-124630159D01*
X278104961Y-124630159D01*
X276784138Y-123309336D01*
X277893542Y-123309336D01*
X277919161Y-123919460D01*
X278103357Y-124364148D01*
X278359841Y-124450554D01*
X279260395Y-123550000D01*
X278359841Y-122649446D01*
X278103357Y-122735852D01*
X277893542Y-123309336D01*
X276784138Y-123309336D01*
X275944643Y-122469841D01*
X278539446Y-122469841D01*
X279440000Y-123370395D01*
X280340554Y-122469841D01*
X280254148Y-122213357D01*
X279680664Y-122003542D01*
X279070540Y-122029161D01*
X278625852Y-122213357D01*
X278539446Y-122469841D01*
X275944643Y-122469841D01*
X274884802Y-121410000D01*
X286841047Y-121410000D01*
X286642599Y-121542599D01*
X286482599Y-121702599D01*
X286317852Y-121949161D01*
X286260000Y-122240000D01*
X286260000Y-124145198D01*
X284340320Y-126064878D01*
X284294833Y-126064838D01*
X283951057Y-126206883D01*
X283687808Y-126469673D01*
X283545162Y-126813201D01*
X283544838Y-127185167D01*
X283686883Y-127528943D01*
X283949673Y-127792192D01*
X284293201Y-127934838D01*
X284665167Y-127935162D01*
X285008943Y-127793117D01*
X285272192Y-127530327D01*
X285414838Y-127186799D01*
X285414879Y-127139923D01*
X286854869Y-125699933D01*
X286854674Y-125923305D01*
X287141043Y-126616372D01*
X287670839Y-127147093D01*
X288363405Y-127434672D01*
X289113305Y-127435326D01*
X289806372Y-127148957D01*
X290337093Y-126619161D01*
X290624672Y-125926595D01*
X290625326Y-125176695D01*
X290405704Y-124645167D01*
X296244838Y-124645167D01*
X296386883Y-124988943D01*
X296420000Y-125022118D01*
X296420000Y-130810000D01*
X296477852Y-131100839D01*
X296642599Y-131347401D01*
X299520000Y-134224802D01*
X299520000Y-136081354D01*
X299468200Y-136102757D01*
X299064176Y-136506077D01*
X298845250Y-137033309D01*
X298844752Y-137604187D01*
X299062757Y-138131800D01*
X299466077Y-138535824D01*
X299523789Y-138559788D01*
X299468200Y-138582757D01*
X299064176Y-138986077D01*
X298845250Y-139513309D01*
X298844752Y-140084187D01*
X299062757Y-140611800D01*
X299420603Y-140970271D01*
X299064176Y-141326077D01*
X298845250Y-141853309D01*
X298844752Y-142424187D01*
X299062757Y-142951800D01*
X299466077Y-143355824D01*
X299523789Y-143379788D01*
X299468200Y-143402757D01*
X299064176Y-143806077D01*
X298845250Y-144333309D01*
X298844752Y-144904187D01*
X299062757Y-145431800D01*
X299466077Y-145835824D01*
X299993309Y-146054750D01*
X300564187Y-146055248D01*
X301091800Y-145837243D01*
X301495824Y-145433923D01*
X301714750Y-144906691D01*
X301715144Y-144454187D01*
X368844752Y-144454187D01*
X369062757Y-144981800D01*
X369466077Y-145385824D01*
X369993309Y-145604750D01*
X370564187Y-145605248D01*
X371091800Y-145387243D01*
X371495824Y-144983923D01*
X371714750Y-144456691D01*
X371715248Y-143885813D01*
X371497243Y-143358200D01*
X371093923Y-142954176D01*
X370566691Y-142735250D01*
X369995813Y-142734752D01*
X369468200Y-142952757D01*
X369064176Y-143356077D01*
X368845250Y-143883309D01*
X368844752Y-144454187D01*
X301715144Y-144454187D01*
X301715248Y-144335813D01*
X301497243Y-143808200D01*
X301093923Y-143404176D01*
X301036211Y-143380212D01*
X301091800Y-143357243D01*
X301495824Y-142953923D01*
X301714750Y-142426691D01*
X301715248Y-141855813D01*
X301497243Y-141328200D01*
X301139397Y-140969729D01*
X301495824Y-140613923D01*
X301714750Y-140086691D01*
X301715248Y-139515813D01*
X301696319Y-139470000D01*
X308132560Y-139470000D01*
X308132560Y-142470000D01*
X308176838Y-142705317D01*
X308315910Y-142921441D01*
X308528110Y-143066431D01*
X308780000Y-143117440D01*
X313780000Y-143117440D01*
X314015317Y-143073162D01*
X314231441Y-142934090D01*
X314376431Y-142721890D01*
X314427440Y-142470000D01*
X314427440Y-139470000D01*
X353632560Y-139470000D01*
X353632560Y-142470000D01*
X353676838Y-142705317D01*
X353815910Y-142921441D01*
X354028110Y-143066431D01*
X354280000Y-143117440D01*
X359280000Y-143117440D01*
X359515317Y-143073162D01*
X359731441Y-142934090D01*
X359876431Y-142721890D01*
X359927440Y-142470000D01*
X359927440Y-140427745D01*
X369451861Y-140427745D01*
X369525995Y-140673864D01*
X370063223Y-140866965D01*
X370633454Y-140839778D01*
X371034005Y-140673864D01*
X371108139Y-140427745D01*
X370280000Y-139599605D01*
X369451861Y-140427745D01*
X359927440Y-140427745D01*
X359927440Y-139470000D01*
X359883162Y-139234683D01*
X359862919Y-139203223D01*
X368833035Y-139203223D01*
X368860222Y-139773454D01*
X369026136Y-140174005D01*
X369272255Y-140248139D01*
X370100395Y-139420000D01*
X370459605Y-139420000D01*
X371287745Y-140248139D01*
X371533864Y-140174005D01*
X371726965Y-139636777D01*
X371699778Y-139066546D01*
X371533864Y-138665995D01*
X371287745Y-138591861D01*
X370459605Y-139420000D01*
X370100395Y-139420000D01*
X369272255Y-138591861D01*
X369026136Y-138665995D01*
X368833035Y-139203223D01*
X359862919Y-139203223D01*
X359744090Y-139018559D01*
X359531890Y-138873569D01*
X359280000Y-138822560D01*
X354280000Y-138822560D01*
X354044683Y-138866838D01*
X353828559Y-139005910D01*
X353683569Y-139218110D01*
X353632560Y-139470000D01*
X314427440Y-139470000D01*
X314383162Y-139234683D01*
X314244090Y-139018559D01*
X314031890Y-138873569D01*
X313780000Y-138822560D01*
X308780000Y-138822560D01*
X308544683Y-138866838D01*
X308328559Y-139005910D01*
X308183569Y-139218110D01*
X308132560Y-139470000D01*
X301696319Y-139470000D01*
X301497243Y-138988200D01*
X301093923Y-138584176D01*
X301036211Y-138560212D01*
X301091800Y-138537243D01*
X301495824Y-138133923D01*
X301714750Y-137606691D01*
X301714857Y-137483795D01*
X301894716Y-137483795D01*
X302143106Y-138084943D01*
X302602637Y-138545278D01*
X303203352Y-138794716D01*
X303853795Y-138795284D01*
X304454943Y-138546894D01*
X304589817Y-138412255D01*
X369451861Y-138412255D01*
X370280000Y-139240395D01*
X371108139Y-138412255D01*
X371034005Y-138166136D01*
X370496777Y-137973035D01*
X369926546Y-138000222D01*
X369525995Y-138166136D01*
X369451861Y-138412255D01*
X304589817Y-138412255D01*
X304915278Y-138087363D01*
X305164716Y-137486648D01*
X305165284Y-136836205D01*
X304916894Y-136235057D01*
X304457363Y-135774722D01*
X303856648Y-135525284D01*
X303206205Y-135524716D01*
X302605057Y-135773106D01*
X302144722Y-136232637D01*
X301895284Y-136833352D01*
X301894716Y-137483795D01*
X301714857Y-137483795D01*
X301715248Y-137035813D01*
X301497243Y-136508200D01*
X301093923Y-136104176D01*
X301040000Y-136081785D01*
X301040000Y-133910000D01*
X300982148Y-133619161D01*
X300817401Y-133372599D01*
X299848597Y-132403795D01*
X301894716Y-132403795D01*
X302143106Y-133004943D01*
X302602637Y-133465278D01*
X303203352Y-133714716D01*
X303853795Y-133715284D01*
X304454943Y-133466894D01*
X304915278Y-133007363D01*
X305164716Y-132406648D01*
X305165284Y-131756205D01*
X304916894Y-131155057D01*
X304457363Y-130694722D01*
X303856648Y-130445284D01*
X303206205Y-130444716D01*
X302605057Y-130693106D01*
X302144722Y-131152637D01*
X301895284Y-131753352D01*
X301894716Y-132403795D01*
X299848597Y-132403795D01*
X297940000Y-130495198D01*
X297940000Y-125022463D01*
X297972192Y-124990327D01*
X298114838Y-124646799D01*
X298115162Y-124274833D01*
X297973117Y-123931057D01*
X297710327Y-123667808D01*
X297366799Y-123525162D01*
X296994833Y-123524838D01*
X296651057Y-123666883D01*
X296387808Y-123929673D01*
X296245162Y-124273201D01*
X296244838Y-124645167D01*
X290405704Y-124645167D01*
X290338957Y-124483628D01*
X289809161Y-123952907D01*
X289116595Y-123665328D01*
X288366695Y-123664674D01*
X287780000Y-123907091D01*
X287780000Y-122840000D01*
X299041354Y-122840000D01*
X299062757Y-122891800D01*
X299466077Y-123295824D01*
X299523789Y-123319788D01*
X299468200Y-123342757D01*
X299064176Y-123746077D01*
X298845250Y-124273309D01*
X298844752Y-124844187D01*
X299062757Y-125371800D01*
X299420603Y-125730271D01*
X299064176Y-126086077D01*
X298845250Y-126613309D01*
X298844752Y-127184187D01*
X299062757Y-127711800D01*
X299466077Y-128115824D01*
X299523789Y-128139788D01*
X299468200Y-128162757D01*
X299064176Y-128566077D01*
X298845250Y-129093309D01*
X298844752Y-129664187D01*
X299062757Y-130191800D01*
X299466077Y-130595824D01*
X299993309Y-130814750D01*
X300564187Y-130815248D01*
X301091800Y-130597243D01*
X301495824Y-130193923D01*
X301523973Y-130126133D01*
X301729673Y-130332192D01*
X302073201Y-130474838D01*
X302445167Y-130475162D01*
X302788943Y-130333117D01*
X302822118Y-130300000D01*
X305755198Y-130300000D01*
X308072599Y-132617401D01*
X308319160Y-132782148D01*
X308367414Y-132791746D01*
X308610000Y-132840000D01*
X367825198Y-132840000D01*
X373810000Y-138824802D01*
X373810000Y-144754442D01*
X373584683Y-144796838D01*
X373368559Y-144935910D01*
X373223569Y-145148110D01*
X373172560Y-145400000D01*
X373172560Y-146700000D01*
X373216838Y-146935317D01*
X373355910Y-147151441D01*
X373568110Y-147296431D01*
X373820000Y-147347440D01*
X375320000Y-147347440D01*
X375555317Y-147303162D01*
X375771441Y-147164090D01*
X375916431Y-146951890D01*
X375919081Y-146938803D01*
X376055910Y-147151441D01*
X376268110Y-147296431D01*
X376520000Y-147347440D01*
X378020000Y-147347440D01*
X378255317Y-147303162D01*
X378471441Y-147164090D01*
X378616431Y-146951890D01*
X378645164Y-146810000D01*
X384810000Y-146810000D01*
X385100839Y-146752148D01*
X385347401Y-146587401D01*
X387887401Y-144047401D01*
X388052148Y-143800840D01*
X388072843Y-143696799D01*
X388110000Y-143510000D01*
X388110000Y-137443795D01*
X392064716Y-137443795D01*
X392313106Y-138044943D01*
X392772637Y-138505278D01*
X393373352Y-138754716D01*
X394023795Y-138755284D01*
X394624943Y-138506894D01*
X395085278Y-138047363D01*
X395334716Y-137446648D01*
X395335284Y-136796205D01*
X395086894Y-136195057D01*
X394627363Y-135734722D01*
X394026648Y-135485284D01*
X393376205Y-135484716D01*
X392775057Y-135733106D01*
X392314722Y-136192637D01*
X392065284Y-136793352D01*
X392064716Y-137443795D01*
X388110000Y-137443795D01*
X388110000Y-133350000D01*
X388052148Y-133059161D01*
X387887401Y-132812599D01*
X387518597Y-132443795D01*
X392064716Y-132443795D01*
X392313106Y-133044943D01*
X392772637Y-133505278D01*
X393373352Y-133754716D01*
X394023795Y-133755284D01*
X394624943Y-133506894D01*
X395085278Y-133047363D01*
X395334716Y-132446648D01*
X395335284Y-131796205D01*
X395086894Y-131195057D01*
X394627363Y-130734722D01*
X394026648Y-130485284D01*
X393376205Y-130484716D01*
X392775057Y-130733106D01*
X392314722Y-131192637D01*
X392065284Y-131793352D01*
X392064716Y-132443795D01*
X387518597Y-132443795D01*
X384157401Y-129082599D01*
X383910839Y-128917852D01*
X383620000Y-128860000D01*
X382655047Y-128860000D01*
X382586894Y-128695057D01*
X382127363Y-128234722D01*
X381526648Y-127985284D01*
X380876205Y-127984716D01*
X380275057Y-128233106D01*
X379814722Y-128692637D01*
X379565284Y-129293352D01*
X379564716Y-129943795D01*
X379813106Y-130544943D01*
X380272637Y-131005278D01*
X380873352Y-131254716D01*
X381523795Y-131255284D01*
X382124943Y-131006894D01*
X382585278Y-130547363D01*
X382654773Y-130380000D01*
X383305198Y-130380000D01*
X386590000Y-133664802D01*
X386590000Y-143195198D01*
X384495198Y-145290000D01*
X378646742Y-145290000D01*
X378623162Y-145164683D01*
X378484090Y-144948559D01*
X378271890Y-144803569D01*
X378020000Y-144752560D01*
X376520000Y-144752560D01*
X376284683Y-144796838D01*
X376068559Y-144935910D01*
X375923569Y-145148110D01*
X375920919Y-145161197D01*
X375784090Y-144948559D01*
X375571890Y-144803569D01*
X375330000Y-144754585D01*
X375330000Y-142443795D01*
X382064716Y-142443795D01*
X382313106Y-143044943D01*
X382772637Y-143505278D01*
X383373352Y-143754716D01*
X384023795Y-143755284D01*
X384624943Y-143506894D01*
X385085278Y-143047363D01*
X385334716Y-142446648D01*
X385335284Y-141796205D01*
X385086894Y-141195057D01*
X384627363Y-140734722D01*
X384026648Y-140485284D01*
X383376205Y-140484716D01*
X382775057Y-140733106D01*
X382314722Y-141192637D01*
X382065284Y-141793352D01*
X382064716Y-142443795D01*
X375330000Y-142443795D01*
X375330000Y-138510000D01*
X375296893Y-138343559D01*
X375272148Y-138219160D01*
X375107401Y-137972599D01*
X368677401Y-131542599D01*
X368430839Y-131377852D01*
X368140000Y-131320000D01*
X308924802Y-131320000D01*
X306818989Y-129214187D01*
X368844752Y-129214187D01*
X369062757Y-129741800D01*
X369466077Y-130145824D01*
X369993309Y-130364750D01*
X370564187Y-130365248D01*
X371091800Y-130147243D01*
X371495824Y-129743923D01*
X371714750Y-129216691D01*
X371715248Y-128645813D01*
X371497243Y-128118200D01*
X371093923Y-127714176D01*
X370566691Y-127495250D01*
X369995813Y-127494752D01*
X369468200Y-127712757D01*
X369064176Y-128116077D01*
X368845250Y-128643309D01*
X368844752Y-129214187D01*
X306818989Y-129214187D01*
X306607401Y-129002599D01*
X306360839Y-128837852D01*
X306070000Y-128780000D01*
X302822463Y-128780000D01*
X302790327Y-128747808D01*
X302446799Y-128605162D01*
X302074833Y-128604838D01*
X301731057Y-128746883D01*
X301617792Y-128859951D01*
X301497243Y-128568200D01*
X301093923Y-128164176D01*
X301036211Y-128140212D01*
X301091800Y-128117243D01*
X301495824Y-127713923D01*
X301714750Y-127186691D01*
X301715248Y-126615813D01*
X301497243Y-126088200D01*
X301139397Y-125729729D01*
X301495824Y-125373923D01*
X301714750Y-124846691D01*
X301715248Y-124275813D01*
X301696319Y-124230000D01*
X308132560Y-124230000D01*
X308132560Y-127230000D01*
X308176838Y-127465317D01*
X308315910Y-127681441D01*
X308528110Y-127826431D01*
X308780000Y-127877440D01*
X313780000Y-127877440D01*
X314015317Y-127833162D01*
X314231441Y-127694090D01*
X314376431Y-127481890D01*
X314427440Y-127230000D01*
X314427440Y-124230000D01*
X353632560Y-124230000D01*
X353632560Y-127230000D01*
X353676838Y-127465317D01*
X353815910Y-127681441D01*
X354028110Y-127826431D01*
X354280000Y-127877440D01*
X359280000Y-127877440D01*
X359515317Y-127833162D01*
X359731441Y-127694090D01*
X359876431Y-127481890D01*
X359927440Y-127230000D01*
X359927440Y-125187745D01*
X369451861Y-125187745D01*
X369525995Y-125433864D01*
X370063223Y-125626965D01*
X370633454Y-125599778D01*
X371034005Y-125433864D01*
X371108139Y-125187745D01*
X370280000Y-124359605D01*
X369451861Y-125187745D01*
X359927440Y-125187745D01*
X359927440Y-124230000D01*
X359883162Y-123994683D01*
X359862919Y-123963223D01*
X368833035Y-123963223D01*
X368860222Y-124533454D01*
X369026136Y-124934005D01*
X369272255Y-125008139D01*
X370100395Y-124180000D01*
X370459605Y-124180000D01*
X371287745Y-125008139D01*
X371533864Y-124934005D01*
X371726965Y-124396777D01*
X371699778Y-123826546D01*
X371533864Y-123425995D01*
X371287745Y-123351861D01*
X370459605Y-124180000D01*
X370100395Y-124180000D01*
X369272255Y-123351861D01*
X369026136Y-123425995D01*
X368833035Y-123963223D01*
X359862919Y-123963223D01*
X359744090Y-123778559D01*
X359531890Y-123633569D01*
X359280000Y-123582560D01*
X354280000Y-123582560D01*
X354044683Y-123626838D01*
X353828559Y-123765910D01*
X353683569Y-123978110D01*
X353632560Y-124230000D01*
X314427440Y-124230000D01*
X314383162Y-123994683D01*
X314244090Y-123778559D01*
X314031890Y-123633569D01*
X313780000Y-123582560D01*
X308780000Y-123582560D01*
X308544683Y-123626838D01*
X308328559Y-123765910D01*
X308183569Y-123978110D01*
X308132560Y-124230000D01*
X301696319Y-124230000D01*
X301497243Y-123748200D01*
X301093923Y-123344176D01*
X301036211Y-123320212D01*
X301091800Y-123297243D01*
X301217006Y-123172255D01*
X369451861Y-123172255D01*
X370280000Y-124000395D01*
X371108139Y-123172255D01*
X371034005Y-122926136D01*
X370496777Y-122733035D01*
X369926546Y-122760222D01*
X369525995Y-122926136D01*
X369451861Y-123172255D01*
X301217006Y-123172255D01*
X301495824Y-122893923D01*
X301714750Y-122366691D01*
X301715248Y-121795813D01*
X301555833Y-121410000D01*
X301945198Y-121410000D01*
X302992599Y-122457401D01*
X303239160Y-122622148D01*
X303530000Y-122680000D01*
X303820839Y-122622148D01*
X303853986Y-122600000D01*
X373354442Y-122600000D01*
X373396838Y-122825317D01*
X373535910Y-123041441D01*
X373748110Y-123186431D01*
X373761197Y-123189081D01*
X373548559Y-123325910D01*
X373403569Y-123538110D01*
X373352560Y-123790000D01*
X373352560Y-125290000D01*
X373396838Y-125525317D01*
X373535910Y-125741441D01*
X373748110Y-125886431D01*
X373890000Y-125915164D01*
X373890000Y-133350000D01*
X373947852Y-133640839D01*
X374112599Y-133887401D01*
X379565243Y-139340045D01*
X379564716Y-139943795D01*
X379813106Y-140544943D01*
X380272637Y-141005278D01*
X380873352Y-141254716D01*
X381523795Y-141255284D01*
X382124943Y-141006894D01*
X382585278Y-140547363D01*
X382834716Y-139946648D01*
X382835284Y-139296205D01*
X382586894Y-138695057D01*
X382127363Y-138234722D01*
X381526648Y-137985284D01*
X380876205Y-137984716D01*
X380510588Y-138135786D01*
X377318597Y-134943795D01*
X382064716Y-134943795D01*
X382313106Y-135544943D01*
X382772637Y-136005278D01*
X383373352Y-136254716D01*
X384023795Y-136255284D01*
X384624943Y-136006894D01*
X385085278Y-135547363D01*
X385334716Y-134946648D01*
X385335284Y-134296205D01*
X385086894Y-133695057D01*
X384627363Y-133234722D01*
X384026648Y-132985284D01*
X383376205Y-132984716D01*
X382775057Y-133233106D01*
X382314722Y-133692637D01*
X382065284Y-134293352D01*
X382064716Y-134943795D01*
X377318597Y-134943795D01*
X375410000Y-133035198D01*
X375410000Y-127443795D01*
X382064716Y-127443795D01*
X382313106Y-128044943D01*
X382772637Y-128505278D01*
X383373352Y-128754716D01*
X384023795Y-128755284D01*
X384624943Y-128506894D01*
X385085278Y-128047363D01*
X385334716Y-127446648D01*
X385335284Y-126796205D01*
X385086894Y-126195057D01*
X384627363Y-125734722D01*
X384026648Y-125485284D01*
X383376205Y-125484716D01*
X382775057Y-125733106D01*
X382314722Y-126192637D01*
X382065284Y-126793352D01*
X382064716Y-127443795D01*
X375410000Y-127443795D01*
X375410000Y-125916742D01*
X375535317Y-125893162D01*
X375751441Y-125754090D01*
X375896431Y-125541890D01*
X375947440Y-125290000D01*
X375947440Y-123790000D01*
X375903162Y-123554683D01*
X375764090Y-123338559D01*
X375551890Y-123193569D01*
X375538803Y-123190919D01*
X375751441Y-123054090D01*
X375896431Y-122841890D01*
X375947440Y-122590000D01*
X375947440Y-121090000D01*
X375903162Y-120854683D01*
X375764090Y-120638559D01*
X375551890Y-120493569D01*
X375300000Y-120442560D01*
X374000000Y-120442560D01*
X373764683Y-120486838D01*
X373548559Y-120625910D01*
X373403569Y-120838110D01*
X373354585Y-121080000D01*
X303764802Y-121080000D01*
X302797401Y-120112599D01*
X302726164Y-120065000D01*
X395555000Y-120065000D01*
X395555000Y-147905000D01*
X137845000Y-147905000D01*
X137845000Y-120065000D01*
X166902576Y-120065000D01*
X166847808Y-120119673D01*
M02*
