G04 #@! TF.FileFunction,Legend,Bot*
%FSLAX46Y46*%
G04 Gerber Fmt 4.6, Leading zero omitted, Abs format (unit mm)*
G04 Created by KiCad (PCBNEW 4.0.4+e1-6308~48~ubuntu16.04.1-stable) date Sun Oct  9 19:18:54 2016*
%MOMM*%
%LPD*%
G01*
G04 APERTURE LIST*
%ADD10C,0.100000*%
%ADD11C,0.150000*%
G04 APERTURE END LIST*
D10*
D11*
X196330000Y-121865000D02*
X196330000Y-121565000D01*
X194830000Y-121865000D02*
X194830000Y-121565000D01*
X196980000Y-124165000D02*
X197180000Y-124165000D01*
X194180000Y-120265000D02*
X194380000Y-120065000D01*
X195480000Y-120265000D02*
X195280000Y-120065000D01*
X194180000Y-121565000D02*
X194180000Y-120265000D01*
X194380000Y-120065000D02*
X195280000Y-120065000D01*
X195480000Y-120265000D02*
X195480000Y-121565000D01*
X192730000Y-121565000D02*
X198430000Y-121565000D01*
X193980000Y-124165000D02*
X195680000Y-124165000D01*
X192230000Y-123265000D02*
X192230000Y-122465000D01*
X198930000Y-122465000D02*
X198930000Y-123265000D01*
X146710000Y-139090000D02*
X146710000Y-139340000D01*
X146710000Y-139340000D02*
X153010000Y-139340000D01*
X153010000Y-139340000D02*
X153010000Y-139090000D01*
X146710000Y-134590000D02*
X146710000Y-137190000D01*
X153010000Y-132690000D02*
X153010000Y-132440000D01*
X153010000Y-132440000D02*
X146710000Y-132440000D01*
X146710000Y-132440000D02*
X146710000Y-132690000D01*
X153010000Y-137190000D02*
X153010000Y-134590000D01*
X151510000Y-135890000D02*
G75*
G03X151510000Y-135890000I-1650000J0D01*
G01*
X155540000Y-140890000D02*
X230540000Y-140890000D01*
X230540000Y-140890000D02*
X230540000Y-130890000D01*
X230540000Y-130890000D02*
X155540000Y-130890000D01*
X155540000Y-130890000D02*
X155540000Y-140890000D01*
X300918571Y-133834286D02*
X300966190Y-133977143D01*
X301013810Y-134024762D01*
X301109048Y-134072381D01*
X301251905Y-134072381D01*
X301347143Y-134024762D01*
X301394762Y-133977143D01*
X301442381Y-133881905D01*
X301442381Y-133500952D01*
X300442381Y-133500952D01*
X300442381Y-133834286D01*
X300490000Y-133929524D01*
X300537619Y-133977143D01*
X300632857Y-134024762D01*
X300728095Y-134024762D01*
X300823333Y-133977143D01*
X300870952Y-133929524D01*
X300918571Y-133834286D01*
X300918571Y-133500952D01*
X300442381Y-134358095D02*
X300442381Y-134929524D01*
X301442381Y-134643809D02*
X300442381Y-134643809D01*
X301442381Y-135786667D02*
X301442381Y-135215238D01*
X301442381Y-135500952D02*
X300442381Y-135500952D01*
X300585238Y-135405714D01*
X300680476Y-135310476D01*
X300728095Y-135215238D01*
X141692381Y-131318095D02*
X142501905Y-131318095D01*
X142597143Y-131365714D01*
X142644762Y-131413333D01*
X142692381Y-131508571D01*
X142692381Y-131699048D01*
X142644762Y-131794286D01*
X142597143Y-131841905D01*
X142501905Y-131889524D01*
X141692381Y-131889524D01*
X141787619Y-132318095D02*
X141740000Y-132365714D01*
X141692381Y-132460952D01*
X141692381Y-132699048D01*
X141740000Y-132794286D01*
X141787619Y-132841905D01*
X141882857Y-132889524D01*
X141978095Y-132889524D01*
X142120952Y-132841905D01*
X142692381Y-132270476D01*
X142692381Y-132889524D01*
X195413333Y-126769762D02*
X195270476Y-126817381D01*
X195032380Y-126817381D01*
X194937142Y-126769762D01*
X194889523Y-126722143D01*
X194841904Y-126626905D01*
X194841904Y-126531667D01*
X194889523Y-126436429D01*
X194937142Y-126388810D01*
X195032380Y-126341190D01*
X195222857Y-126293571D01*
X195318095Y-126245952D01*
X195365714Y-126198333D01*
X195413333Y-126103095D01*
X195413333Y-126007857D01*
X195365714Y-125912619D01*
X195318095Y-125865000D01*
X195222857Y-125817381D01*
X194984761Y-125817381D01*
X194841904Y-125865000D01*
X194508571Y-125817381D02*
X194270476Y-126817381D01*
X194079999Y-126103095D01*
X193889523Y-126817381D01*
X193651428Y-125817381D01*
X192794285Y-125817381D02*
X193270476Y-125817381D01*
X193318095Y-126293571D01*
X193270476Y-126245952D01*
X193175238Y-126198333D01*
X192937142Y-126198333D01*
X192841904Y-126245952D01*
X192794285Y-126293571D01*
X192746666Y-126388810D01*
X192746666Y-126626905D01*
X192794285Y-126722143D01*
X192841904Y-126769762D01*
X192937142Y-126817381D01*
X193175238Y-126817381D01*
X193270476Y-126769762D01*
X193318095Y-126722143D01*
X151193333Y-140794762D02*
X151050476Y-140842381D01*
X150812380Y-140842381D01*
X150717142Y-140794762D01*
X150669523Y-140747143D01*
X150621904Y-140651905D01*
X150621904Y-140556667D01*
X150669523Y-140461429D01*
X150717142Y-140413810D01*
X150812380Y-140366190D01*
X151002857Y-140318571D01*
X151098095Y-140270952D01*
X151145714Y-140223333D01*
X151193333Y-140128095D01*
X151193333Y-140032857D01*
X151145714Y-139937619D01*
X151098095Y-139890000D01*
X151002857Y-139842381D01*
X150764761Y-139842381D01*
X150621904Y-139890000D01*
X150288571Y-139842381D02*
X150050476Y-140842381D01*
X149859999Y-140128095D01*
X149669523Y-140842381D01*
X149431428Y-139842381D01*
X148621904Y-139842381D02*
X148812381Y-139842381D01*
X148907619Y-139890000D01*
X148955238Y-139937619D01*
X149050476Y-140080476D01*
X149098095Y-140270952D01*
X149098095Y-140651905D01*
X149050476Y-140747143D01*
X149002857Y-140794762D01*
X148907619Y-140842381D01*
X148717142Y-140842381D01*
X148621904Y-140794762D01*
X148574285Y-140747143D01*
X148526666Y-140651905D01*
X148526666Y-140413810D01*
X148574285Y-140318571D01*
X148621904Y-140270952D01*
X148717142Y-140223333D01*
X148907619Y-140223333D01*
X149002857Y-140270952D01*
X149050476Y-140318571D01*
X149098095Y-140413810D01*
X228635238Y-143842381D02*
X228968572Y-143366190D01*
X229206667Y-143842381D02*
X229206667Y-142842381D01*
X228825714Y-142842381D01*
X228730476Y-142890000D01*
X228682857Y-142937619D01*
X228635238Y-143032857D01*
X228635238Y-143175714D01*
X228682857Y-143270952D01*
X228730476Y-143318571D01*
X228825714Y-143366190D01*
X229206667Y-143366190D01*
X228349524Y-142842381D02*
X228016191Y-143842381D01*
X227682857Y-142842381D01*
X227444762Y-142842381D02*
X226825714Y-142842381D01*
X227159048Y-143223333D01*
X227016190Y-143223333D01*
X226920952Y-143270952D01*
X226873333Y-143318571D01*
X226825714Y-143413810D01*
X226825714Y-143651905D01*
X226873333Y-143747143D01*
X226920952Y-143794762D01*
X227016190Y-143842381D01*
X227301905Y-143842381D01*
X227397143Y-143794762D01*
X227444762Y-143747143D01*
M02*
