G04 #@! TF.FileFunction,Copper,L1,Top,Signal*
%FSLAX46Y46*%
G04 Gerber Fmt 4.6, Leading zero omitted, Abs format (unit mm)*
G04 Created by KiCad (PCBNEW 4.0.4+e1-6308~48~ubuntu16.04.1-stable) date Wed Sep 21 12:51:57 2016*
%MOMM*%
%LPD*%
G01*
G04 APERTURE LIST*
%ADD10C,0.100000*%
%ADD11C,2.600000*%
%ADD12C,0.900000*%
%ADD13C,2.000000*%
%ADD14C,1.998980*%
%ADD15R,2.500000X2.500000*%
%ADD16C,2.500000*%
%ADD17C,1.000000*%
%ADD18C,1.397000*%
%ADD19C,1.524000*%
%ADD20R,2.000000X2.000000*%
%ADD21C,1.500000*%
%ADD22C,1.600000*%
%ADD23C,0.600000*%
%ADD24C,0.250000*%
%ADD25C,0.254000*%
G04 APERTURE END LIST*
D10*
D11*
X168040000Y-135890000D03*
X215540000Y-135890000D03*
D12*
X158040000Y-137140000D03*
X158040000Y-138390000D03*
X228040000Y-137140000D03*
X228040000Y-133390000D03*
X158040000Y-134640000D03*
X158040000Y-133390000D03*
D13*
X303530000Y-137160000D03*
X303530000Y-132080000D03*
X393700000Y-132120000D03*
X393700000Y-137120000D03*
X383700000Y-134620000D03*
X383700000Y-127120000D03*
X383700000Y-142120000D03*
X381200000Y-129620000D03*
X381200000Y-139620000D03*
D14*
X261620000Y-121920000D03*
X251460000Y-121920000D03*
X323850000Y-146050000D03*
X334010000Y-146050000D03*
D11*
X310280000Y-125730000D03*
X357780000Y-125730000D03*
D12*
X300280000Y-124480000D03*
X300280000Y-123230000D03*
X370280000Y-124480000D03*
X370280000Y-128230000D03*
X300280000Y-126980000D03*
X300280000Y-128230000D03*
D11*
X310280000Y-137160000D03*
X357780000Y-137160000D03*
D12*
X300280000Y-135910000D03*
X300280000Y-134660000D03*
X370280000Y-135910000D03*
X370280000Y-139660000D03*
X300280000Y-138410000D03*
X300280000Y-139660000D03*
D15*
X218440000Y-125850000D03*
D16*
X218440000Y-140850000D03*
X218440000Y-133350000D03*
D15*
X233680000Y-125850000D03*
D16*
X233680000Y-140850000D03*
X233680000Y-133350000D03*
D15*
X248920000Y-125850000D03*
D16*
X248920000Y-140850000D03*
X248920000Y-133350000D03*
D15*
X264160000Y-140850000D03*
D16*
X264160000Y-125850000D03*
X264160000Y-133350000D03*
D17*
X194310000Y-123230000D03*
X194310000Y-125730000D03*
X194310000Y-128230000D03*
D18*
X153670000Y-138430000D03*
X153670000Y-133350000D03*
X146050000Y-138430000D03*
X146050000Y-133350000D03*
D19*
X146050000Y-143510000D03*
X148590000Y-143510000D03*
X151130000Y-143510000D03*
X153670000Y-143510000D03*
X156210000Y-143510000D03*
X158750000Y-143510000D03*
X161290000Y-143510000D03*
X163830000Y-143510000D03*
X166370000Y-143510000D03*
X168910000Y-143510000D03*
X171450000Y-143510000D03*
X173990000Y-143510000D03*
X176530000Y-143510000D03*
X179070000Y-143510000D03*
X181610000Y-143510000D03*
X184150000Y-143510000D03*
X186690000Y-143510000D03*
X186690000Y-128270000D03*
X184150000Y-128270000D03*
X181610000Y-128270000D03*
X179070000Y-128270000D03*
X176530000Y-128270000D03*
X173990000Y-128270000D03*
X171450000Y-128270000D03*
X168910000Y-128270000D03*
X166370000Y-128270000D03*
X163830000Y-128270000D03*
X161290000Y-128270000D03*
X158750000Y-128270000D03*
X156210000Y-128270000D03*
X153670000Y-128270000D03*
X151130000Y-128270000D03*
X148590000Y-128270000D03*
X146050000Y-128270000D03*
D20*
X139700000Y-142240000D03*
D13*
X139700000Y-139700000D03*
X139700000Y-137160000D03*
X139700000Y-134620000D03*
X139700000Y-132080000D03*
X139700000Y-129540000D03*
D21*
X284440000Y-123550000D03*
X281940000Y-123550000D03*
X279440000Y-123550000D03*
X272140000Y-130850000D03*
X272140000Y-133350000D03*
X272140000Y-135850000D03*
D13*
X275140000Y-125550000D03*
X275140000Y-141150000D03*
X288740000Y-141150000D03*
X288740000Y-125550000D03*
D22*
X290190000Y-129550000D03*
X294690000Y-137150000D03*
X290190000Y-137150000D03*
X294690000Y-129550000D03*
D23*
X165100000Y-125730000D03*
X193040000Y-138430000D03*
X171450000Y-130810000D03*
X215900000Y-128270000D03*
X260350000Y-128270000D03*
X176530000Y-139700000D03*
X278130000Y-142240000D03*
X151130000Y-130810000D03*
D24*
X181610000Y-143510000D02*
X184150000Y-146050000D01*
X303530000Y-142240000D02*
X303530000Y-137160000D01*
X299720000Y-146050000D02*
X303530000Y-142240000D01*
X184150000Y-146050000D02*
X299720000Y-146050000D01*
X334010000Y-146050000D02*
X335280000Y-146050000D01*
X383620000Y-129620000D02*
X381200000Y-129620000D01*
X388620000Y-134620000D02*
X383620000Y-129620000D01*
X388620000Y-146050000D02*
X388620000Y-134620000D01*
X387350000Y-147320000D02*
X388620000Y-146050000D01*
X336550000Y-147320000D02*
X387350000Y-147320000D01*
X335280000Y-146050000D02*
X336550000Y-147320000D01*
X261620000Y-121920000D02*
X276860000Y-121920000D01*
X378460000Y-136880000D02*
X381200000Y-139620000D01*
X378460000Y-127000000D02*
X378460000Y-136880000D01*
X372110000Y-120650000D02*
X378460000Y-127000000D01*
X278130000Y-120650000D02*
X372110000Y-120650000D01*
X276860000Y-121920000D02*
X278130000Y-120650000D01*
X251460000Y-121920000D02*
X189230000Y-121920000D01*
X181610000Y-127000000D02*
X181610000Y-128270000D01*
X186690000Y-121920000D02*
X181610000Y-127000000D01*
X189230000Y-121920000D02*
X186690000Y-121920000D01*
X146050000Y-133350000D02*
X153670000Y-133350000D01*
X146050000Y-133350000D02*
X143510000Y-133350000D01*
X143510000Y-133350000D02*
X139700000Y-137160000D01*
X323850000Y-146050000D02*
X321310000Y-146050000D01*
X173990000Y-144780000D02*
X173990000Y-143510000D01*
X176530000Y-147320000D02*
X173990000Y-144780000D01*
X320040000Y-147320000D02*
X176530000Y-147320000D01*
X321310000Y-146050000D02*
X320040000Y-147320000D01*
X156210000Y-127000000D02*
X156210000Y-128270000D01*
X157480000Y-125730000D02*
X156210000Y-127000000D01*
X165100000Y-125730000D02*
X157480000Y-125730000D01*
X156210000Y-143510000D02*
X156210000Y-139700000D01*
X157520000Y-138390000D02*
X158040000Y-138390000D01*
X156210000Y-139700000D02*
X157520000Y-138390000D01*
X248920000Y-125850000D02*
X260470000Y-125850000D01*
X267970000Y-137040000D02*
X264160000Y-140850000D01*
X267970000Y-133350000D02*
X267970000Y-137040000D01*
X260470000Y-125850000D02*
X267970000Y-133350000D01*
X233680000Y-125850000D02*
X248920000Y-125850000D01*
X218440000Y-125850000D02*
X233680000Y-125850000D01*
X194310000Y-123230000D02*
X215820000Y-123230000D01*
X215820000Y-123230000D02*
X218440000Y-125850000D01*
X218440000Y-140850000D02*
X193160000Y-140850000D01*
X179070000Y-129540000D02*
X179070000Y-128270000D01*
X186690000Y-137160000D02*
X179070000Y-129540000D01*
X189470000Y-137160000D02*
X186690000Y-137160000D01*
X193160000Y-140850000D02*
X189470000Y-137160000D01*
X248920000Y-133350000D02*
X264160000Y-133350000D01*
X233680000Y-133350000D02*
X248920000Y-133350000D01*
X218440000Y-133350000D02*
X223520000Y-133350000D01*
X231140000Y-130810000D02*
X233680000Y-133350000D01*
X226060000Y-130810000D02*
X231140000Y-130810000D01*
X223520000Y-133350000D02*
X226060000Y-130810000D01*
X194310000Y-128230000D02*
X213320000Y-128230000D01*
X213320000Y-128230000D02*
X218440000Y-133350000D01*
X172720000Y-129540000D02*
X171450000Y-128270000D01*
X224910000Y-140850000D02*
X222250000Y-143510000D01*
X222250000Y-143510000D02*
X214630000Y-143510000D01*
X214630000Y-143510000D02*
X193040000Y-143510000D01*
X193040000Y-143510000D02*
X187960000Y-138430000D01*
X187960000Y-138430000D02*
X185420000Y-138430000D01*
X185420000Y-138430000D02*
X181610000Y-138430000D01*
X181610000Y-138430000D02*
X172720000Y-129540000D01*
X224910000Y-140850000D02*
X233680000Y-140850000D01*
X238880000Y-140850000D02*
X236460000Y-138430000D01*
X236460000Y-138430000D02*
X193040000Y-138430000D01*
X238880000Y-140850000D02*
X248920000Y-140850000D01*
X166370000Y-129540000D02*
X166370000Y-128270000D01*
X167640000Y-130810000D02*
X166370000Y-129540000D01*
X171450000Y-130810000D02*
X167640000Y-130810000D01*
X260350000Y-128270000D02*
X215900000Y-128270000D01*
X153670000Y-138430000D02*
X153670000Y-143510000D01*
X153670000Y-138430000D02*
X146050000Y-138430000D01*
X139700000Y-142240000D02*
X142240000Y-142240000D01*
X142240000Y-142240000D02*
X146050000Y-138430000D01*
X158750000Y-143510000D02*
X158750000Y-140970000D01*
X160020000Y-139700000D02*
X176530000Y-139700000D01*
X158750000Y-140970000D02*
X160020000Y-139700000D01*
X281940000Y-123550000D02*
X281940000Y-124460000D01*
X161290000Y-142240000D02*
X162560000Y-140970000D01*
X162560000Y-140970000D02*
X189230000Y-140970000D01*
X189230000Y-140970000D02*
X193040000Y-144780000D01*
X193040000Y-144780000D02*
X266700000Y-144780000D01*
X266700000Y-144780000D02*
X274320000Y-137160000D01*
X274320000Y-137160000D02*
X274320000Y-132080000D01*
X274320000Y-132080000D02*
X281940000Y-124460000D01*
X161290000Y-142240000D02*
X161290000Y-143510000D01*
X290190000Y-129550000D02*
X290190000Y-130180000D01*
X290190000Y-130180000D02*
X278130000Y-142240000D01*
X151130000Y-130810000D02*
X162560000Y-130810000D01*
X162560000Y-130810000D02*
X163830000Y-129540000D01*
X163830000Y-129540000D02*
X163830000Y-128270000D01*
D25*
G36*
X277592599Y-120112599D02*
X276545198Y-121160000D01*
X263074496Y-121160000D01*
X263006462Y-120995345D01*
X262547073Y-120535154D01*
X261946547Y-120285794D01*
X261296306Y-120285226D01*
X260695345Y-120533538D01*
X260235154Y-120992927D01*
X259985794Y-121593453D01*
X259985226Y-122243694D01*
X260233538Y-122844655D01*
X260692927Y-123304846D01*
X261293453Y-123554206D01*
X261943694Y-123554774D01*
X262450972Y-123345171D01*
X278042799Y-123345171D01*
X278070770Y-123895448D01*
X278227540Y-124273923D01*
X278468483Y-124341912D01*
X279260395Y-123550000D01*
X278468483Y-122758088D01*
X278227540Y-122826077D01*
X278042799Y-123345171D01*
X262450972Y-123345171D01*
X262544655Y-123306462D01*
X263004846Y-122847073D01*
X263074221Y-122680000D01*
X276860000Y-122680000D01*
X277150839Y-122622148D01*
X277216188Y-122578483D01*
X278648088Y-122578483D01*
X279440000Y-123370395D01*
X280231912Y-122578483D01*
X280163923Y-122337540D01*
X279644829Y-122152799D01*
X279094552Y-122180770D01*
X278716077Y-122337540D01*
X278648088Y-122578483D01*
X277216188Y-122578483D01*
X277397401Y-122457401D01*
X278444802Y-121410000D01*
X371795198Y-121410000D01*
X377700000Y-127314802D01*
X377700000Y-136880000D01*
X377757852Y-137170839D01*
X377922599Y-137417401D01*
X379633725Y-139128527D01*
X379565284Y-139293352D01*
X379564716Y-139943795D01*
X379813106Y-140544943D01*
X380272637Y-141005278D01*
X380873352Y-141254716D01*
X381523795Y-141255284D01*
X382124943Y-141006894D01*
X382585278Y-140547363D01*
X382834716Y-139946648D01*
X382835284Y-139296205D01*
X382586894Y-138695057D01*
X382127363Y-138234722D01*
X381526648Y-137985284D01*
X380876205Y-137984716D01*
X380708721Y-138053919D01*
X379220000Y-136565198D01*
X379220000Y-134943795D01*
X382064716Y-134943795D01*
X382313106Y-135544943D01*
X382772637Y-136005278D01*
X383373352Y-136254716D01*
X384023795Y-136255284D01*
X384624943Y-136006894D01*
X385085278Y-135547363D01*
X385334716Y-134946648D01*
X385335284Y-134296205D01*
X385086894Y-133695057D01*
X384627363Y-133234722D01*
X384026648Y-132985284D01*
X383376205Y-132984716D01*
X382775057Y-133233106D01*
X382314722Y-133692637D01*
X382065284Y-134293352D01*
X382064716Y-134943795D01*
X379220000Y-134943795D01*
X379220000Y-127443795D01*
X382064716Y-127443795D01*
X382313106Y-128044943D01*
X382772637Y-128505278D01*
X383373352Y-128754716D01*
X384023795Y-128755284D01*
X384624943Y-128506894D01*
X385085278Y-128047363D01*
X385334716Y-127446648D01*
X385335284Y-126796205D01*
X385086894Y-126195057D01*
X384627363Y-125734722D01*
X384026648Y-125485284D01*
X383376205Y-125484716D01*
X382775057Y-125733106D01*
X382314722Y-126192637D01*
X382065284Y-126793352D01*
X382064716Y-127443795D01*
X379220000Y-127443795D01*
X379220000Y-127000000D01*
X379162148Y-126709161D01*
X378997401Y-126462599D01*
X372647401Y-120112599D01*
X372576164Y-120065000D01*
X395555000Y-120065000D01*
X395555000Y-147905000D01*
X387816164Y-147905000D01*
X387887401Y-147857401D01*
X389157401Y-146587401D01*
X389322148Y-146340840D01*
X389380000Y-146050000D01*
X389380000Y-137443795D01*
X392064716Y-137443795D01*
X392313106Y-138044943D01*
X392772637Y-138505278D01*
X393373352Y-138754716D01*
X394023795Y-138755284D01*
X394624943Y-138506894D01*
X395085278Y-138047363D01*
X395334716Y-137446648D01*
X395335284Y-136796205D01*
X395086894Y-136195057D01*
X394627363Y-135734722D01*
X394026648Y-135485284D01*
X393376205Y-135484716D01*
X392775057Y-135733106D01*
X392314722Y-136192637D01*
X392065284Y-136793352D01*
X392064716Y-137443795D01*
X389380000Y-137443795D01*
X389380000Y-134620000D01*
X389322148Y-134329161D01*
X389157401Y-134082599D01*
X387518597Y-132443795D01*
X392064716Y-132443795D01*
X392313106Y-133044943D01*
X392772637Y-133505278D01*
X393373352Y-133754716D01*
X394023795Y-133755284D01*
X394624943Y-133506894D01*
X395085278Y-133047363D01*
X395334716Y-132446648D01*
X395335284Y-131796205D01*
X395086894Y-131195057D01*
X394627363Y-130734722D01*
X394026648Y-130485284D01*
X393376205Y-130484716D01*
X392775057Y-130733106D01*
X392314722Y-131192637D01*
X392065284Y-131793352D01*
X392064716Y-132443795D01*
X387518597Y-132443795D01*
X384157401Y-129082599D01*
X383910839Y-128917852D01*
X383620000Y-128860000D01*
X382655047Y-128860000D01*
X382586894Y-128695057D01*
X382127363Y-128234722D01*
X381526648Y-127985284D01*
X380876205Y-127984716D01*
X380275057Y-128233106D01*
X379814722Y-128692637D01*
X379565284Y-129293352D01*
X379564716Y-129943795D01*
X379813106Y-130544943D01*
X380272637Y-131005278D01*
X380873352Y-131254716D01*
X381523795Y-131255284D01*
X382124943Y-131006894D01*
X382585278Y-130547363D01*
X382654773Y-130380000D01*
X383305198Y-130380000D01*
X387860000Y-134934802D01*
X387860000Y-145735198D01*
X387035198Y-146560000D01*
X336864802Y-146560000D01*
X335817401Y-145512599D01*
X335570839Y-145347852D01*
X335481018Y-145329985D01*
X335396462Y-145125345D01*
X334937073Y-144665154D01*
X334336547Y-144415794D01*
X333686306Y-144415226D01*
X333085345Y-144663538D01*
X332625154Y-145122927D01*
X332375794Y-145723453D01*
X332375226Y-146373694D01*
X332623538Y-146974655D01*
X333082927Y-147434846D01*
X333683453Y-147684206D01*
X334333694Y-147684774D01*
X334934655Y-147436462D01*
X335263444Y-147108246D01*
X336012599Y-147857401D01*
X336083836Y-147905000D01*
X320506164Y-147905000D01*
X320577401Y-147857401D01*
X321624802Y-146810000D01*
X322395504Y-146810000D01*
X322463538Y-146974655D01*
X322922927Y-147434846D01*
X323523453Y-147684206D01*
X324173694Y-147684774D01*
X324774655Y-147436462D01*
X325234846Y-146977073D01*
X325484206Y-146376547D01*
X325484774Y-145726306D01*
X325236462Y-145125345D01*
X324777073Y-144665154D01*
X324176547Y-144415794D01*
X323526306Y-144415226D01*
X322925345Y-144663538D01*
X322465154Y-145122927D01*
X322395779Y-145290000D01*
X321310000Y-145290000D01*
X321019160Y-145347852D01*
X320772599Y-145512599D01*
X319725198Y-146560000D01*
X300284802Y-146560000D01*
X304067401Y-142777401D01*
X304232148Y-142530839D01*
X304249462Y-142443795D01*
X382064716Y-142443795D01*
X382313106Y-143044943D01*
X382772637Y-143505278D01*
X383373352Y-143754716D01*
X384023795Y-143755284D01*
X384624943Y-143506894D01*
X385085278Y-143047363D01*
X385334716Y-142446648D01*
X385335284Y-141796205D01*
X385086894Y-141195057D01*
X384627363Y-140734722D01*
X384026648Y-140485284D01*
X383376205Y-140484716D01*
X382775057Y-140733106D01*
X382314722Y-141192637D01*
X382065284Y-141793352D01*
X382064716Y-142443795D01*
X304249462Y-142443795D01*
X304290000Y-142240000D01*
X304290000Y-139874873D01*
X369194812Y-139874873D01*
X369359646Y-140273800D01*
X369664595Y-140579282D01*
X370063233Y-140744811D01*
X370494873Y-140745188D01*
X370893800Y-140580354D01*
X371199282Y-140275405D01*
X371364811Y-139876767D01*
X371365188Y-139445127D01*
X371200354Y-139046200D01*
X370895405Y-138740718D01*
X370496767Y-138575189D01*
X370065127Y-138574812D01*
X369666200Y-138739646D01*
X369360718Y-139044595D01*
X369195189Y-139443233D01*
X369194812Y-139874873D01*
X304290000Y-139874873D01*
X304290000Y-138615047D01*
X304454943Y-138546894D01*
X304915278Y-138087363D01*
X305141230Y-137543207D01*
X308344665Y-137543207D01*
X308638630Y-138254658D01*
X309182479Y-138799457D01*
X309893416Y-139094663D01*
X310663207Y-139095335D01*
X311374658Y-138801370D01*
X311919457Y-138257521D01*
X312214663Y-137546584D01*
X312214665Y-137543207D01*
X355844665Y-137543207D01*
X356138630Y-138254658D01*
X356682479Y-138799457D01*
X357393416Y-139094663D01*
X358163207Y-139095335D01*
X358874658Y-138801370D01*
X359419457Y-138257521D01*
X359714663Y-137546584D01*
X359715335Y-136776793D01*
X359668625Y-136663745D01*
X369705860Y-136663745D01*
X369736803Y-136873712D01*
X370146948Y-137008226D01*
X370577349Y-136975546D01*
X370823197Y-136873712D01*
X370854140Y-136663745D01*
X370280000Y-136089605D01*
X369705860Y-136663745D01*
X359668625Y-136663745D01*
X359421370Y-136065342D01*
X359133479Y-135776948D01*
X369181774Y-135776948D01*
X369214454Y-136207349D01*
X369316288Y-136453197D01*
X369526255Y-136484140D01*
X370100395Y-135910000D01*
X370459605Y-135910000D01*
X371033745Y-136484140D01*
X371243712Y-136453197D01*
X371378226Y-136043052D01*
X371345546Y-135612651D01*
X371243712Y-135366803D01*
X371033745Y-135335860D01*
X370459605Y-135910000D01*
X370100395Y-135910000D01*
X369526255Y-135335860D01*
X369316288Y-135366803D01*
X369181774Y-135776948D01*
X359133479Y-135776948D01*
X358877521Y-135520543D01*
X358166584Y-135225337D01*
X357396793Y-135224665D01*
X356685342Y-135518630D01*
X356140543Y-136062479D01*
X355845337Y-136773416D01*
X355844665Y-137543207D01*
X312214665Y-137543207D01*
X312215335Y-136776793D01*
X311921370Y-136065342D01*
X311377521Y-135520543D01*
X310666584Y-135225337D01*
X309896793Y-135224665D01*
X309185342Y-135518630D01*
X308640543Y-136062479D01*
X308345337Y-136773416D01*
X308344665Y-137543207D01*
X305141230Y-137543207D01*
X305164716Y-137486648D01*
X305165284Y-136836205D01*
X304916894Y-136235057D01*
X304457363Y-135774722D01*
X303856648Y-135525284D01*
X303206205Y-135524716D01*
X302605057Y-135773106D01*
X302144722Y-136232637D01*
X301895284Y-136833352D01*
X301894716Y-137483795D01*
X302143106Y-138084943D01*
X302602637Y-138545278D01*
X302770000Y-138614773D01*
X302770000Y-141925198D01*
X299405198Y-145290000D01*
X267264802Y-145290000D01*
X271081007Y-141473795D01*
X273504716Y-141473795D01*
X273753106Y-142074943D01*
X274212637Y-142535278D01*
X274813352Y-142784716D01*
X275463795Y-142785284D01*
X276064943Y-142536894D01*
X276176865Y-142425167D01*
X277194838Y-142425167D01*
X277336883Y-142768943D01*
X277599673Y-143032192D01*
X277943201Y-143174838D01*
X278315167Y-143175162D01*
X278658943Y-143033117D01*
X278922192Y-142770327D01*
X279064838Y-142426799D01*
X279064879Y-142379923D01*
X279971007Y-141473795D01*
X287104716Y-141473795D01*
X287353106Y-142074943D01*
X287812637Y-142535278D01*
X288413352Y-142784716D01*
X289063795Y-142785284D01*
X289664943Y-142536894D01*
X290125278Y-142077363D01*
X290374716Y-141476648D01*
X290375284Y-140826205D01*
X290126894Y-140225057D01*
X289667363Y-139764722D01*
X289066648Y-139515284D01*
X288416205Y-139514716D01*
X287815057Y-139763106D01*
X287354722Y-140222637D01*
X287105284Y-140823352D01*
X287104716Y-141473795D01*
X279971007Y-141473795D01*
X282819929Y-138624873D01*
X299194812Y-138624873D01*
X299359646Y-139023800D01*
X299370579Y-139034752D01*
X299360718Y-139044595D01*
X299195189Y-139443233D01*
X299194812Y-139874873D01*
X299359646Y-140273800D01*
X299664595Y-140579282D01*
X300063233Y-140744811D01*
X300494873Y-140745188D01*
X300893800Y-140580354D01*
X301199282Y-140275405D01*
X301364811Y-139876767D01*
X301365188Y-139445127D01*
X301200354Y-139046200D01*
X301189421Y-139035248D01*
X301199282Y-139025405D01*
X301364811Y-138626767D01*
X301365188Y-138195127D01*
X301200354Y-137796200D01*
X300895405Y-137490718D01*
X300496767Y-137325189D01*
X300065127Y-137324812D01*
X299666200Y-137489646D01*
X299360718Y-137794595D01*
X299195189Y-138193233D01*
X299194812Y-138624873D01*
X282819929Y-138624873D01*
X284010615Y-137434187D01*
X288754752Y-137434187D01*
X288972757Y-137961800D01*
X289376077Y-138365824D01*
X289903309Y-138584750D01*
X290474187Y-138585248D01*
X291001800Y-138367243D01*
X291405824Y-137963923D01*
X291624750Y-137436691D01*
X291624752Y-137434187D01*
X293254752Y-137434187D01*
X293472757Y-137961800D01*
X293876077Y-138365824D01*
X294403309Y-138584750D01*
X294974187Y-138585248D01*
X295501800Y-138367243D01*
X295905824Y-137963923D01*
X296124750Y-137436691D01*
X296125248Y-136865813D01*
X295907243Y-136338200D01*
X295503923Y-135934176D01*
X294976691Y-135715250D01*
X294405813Y-135714752D01*
X293878200Y-135932757D01*
X293474176Y-136336077D01*
X293255250Y-136863309D01*
X293254752Y-137434187D01*
X291624752Y-137434187D01*
X291625248Y-136865813D01*
X291407243Y-136338200D01*
X291003923Y-135934176D01*
X290476691Y-135715250D01*
X289905813Y-135714752D01*
X289378200Y-135932757D01*
X288974176Y-136336077D01*
X288755250Y-136863309D01*
X288754752Y-137434187D01*
X284010615Y-137434187D01*
X286569929Y-134874873D01*
X299194812Y-134874873D01*
X299359646Y-135273800D01*
X299370579Y-135284752D01*
X299360718Y-135294595D01*
X299195189Y-135693233D01*
X299194812Y-136124873D01*
X299359646Y-136523800D01*
X299664595Y-136829282D01*
X300063233Y-136994811D01*
X300494873Y-136995188D01*
X300893800Y-136830354D01*
X301199282Y-136525405D01*
X301364811Y-136126767D01*
X301365188Y-135695127D01*
X301200354Y-135296200D01*
X301189421Y-135285248D01*
X301199282Y-135275405D01*
X301248757Y-135156255D01*
X369705860Y-135156255D01*
X370280000Y-135730395D01*
X370854140Y-135156255D01*
X370823197Y-134946288D01*
X370413052Y-134811774D01*
X369982651Y-134844454D01*
X369736803Y-134946288D01*
X369705860Y-135156255D01*
X301248757Y-135156255D01*
X301364811Y-134876767D01*
X301365188Y-134445127D01*
X301200354Y-134046200D01*
X300895405Y-133740718D01*
X300496767Y-133575189D01*
X300065127Y-133574812D01*
X299666200Y-133739646D01*
X299360718Y-134044595D01*
X299195189Y-134443233D01*
X299194812Y-134874873D01*
X286569929Y-134874873D01*
X289041007Y-132403795D01*
X301894716Y-132403795D01*
X302143106Y-133004943D01*
X302602637Y-133465278D01*
X303203352Y-133714716D01*
X303853795Y-133715284D01*
X304454943Y-133466894D01*
X304915278Y-133007363D01*
X305164716Y-132406648D01*
X305165284Y-131756205D01*
X304916894Y-131155057D01*
X304457363Y-130694722D01*
X303856648Y-130445284D01*
X303206205Y-130444716D01*
X302605057Y-130693106D01*
X302144722Y-131152637D01*
X301895284Y-131753352D01*
X301894716Y-132403795D01*
X289041007Y-132403795D01*
X290459567Y-130985235D01*
X290474187Y-130985248D01*
X291001800Y-130767243D01*
X291405824Y-130363923D01*
X291624750Y-129836691D01*
X291624752Y-129834187D01*
X293254752Y-129834187D01*
X293472757Y-130361800D01*
X293876077Y-130765824D01*
X294403309Y-130984750D01*
X294974187Y-130985248D01*
X295501800Y-130767243D01*
X295905824Y-130363923D01*
X296124750Y-129836691D01*
X296125248Y-129265813D01*
X295907243Y-128738200D01*
X295503923Y-128334176D01*
X294976691Y-128115250D01*
X294405813Y-128114752D01*
X293878200Y-128332757D01*
X293474176Y-128736077D01*
X293255250Y-129263309D01*
X293254752Y-129834187D01*
X291624752Y-129834187D01*
X291625248Y-129265813D01*
X291407243Y-128738200D01*
X291003923Y-128334176D01*
X290476691Y-128115250D01*
X289905813Y-128114752D01*
X289378200Y-128332757D01*
X288974176Y-128736077D01*
X288755250Y-129263309D01*
X288754752Y-129834187D01*
X288961249Y-130333949D01*
X277990320Y-141304878D01*
X277944833Y-141304838D01*
X277601057Y-141446883D01*
X277337808Y-141709673D01*
X277195162Y-142053201D01*
X277194838Y-142425167D01*
X276176865Y-142425167D01*
X276525278Y-142077363D01*
X276774716Y-141476648D01*
X276775284Y-140826205D01*
X276526894Y-140225057D01*
X276067363Y-139764722D01*
X275466648Y-139515284D01*
X274816205Y-139514716D01*
X274215057Y-139763106D01*
X273754722Y-140222637D01*
X273505284Y-140823352D01*
X273504716Y-141473795D01*
X271081007Y-141473795D01*
X274857401Y-137697401D01*
X275022148Y-137450840D01*
X275080000Y-137160000D01*
X275080000Y-132394802D01*
X280279929Y-127194873D01*
X299194812Y-127194873D01*
X299359646Y-127593800D01*
X299370579Y-127604752D01*
X299360718Y-127614595D01*
X299195189Y-128013233D01*
X299194812Y-128444873D01*
X299359646Y-128843800D01*
X299664595Y-129149282D01*
X300063233Y-129314811D01*
X300494873Y-129315188D01*
X300893800Y-129150354D01*
X301199282Y-128845405D01*
X301364811Y-128446767D01*
X301364812Y-128444873D01*
X369194812Y-128444873D01*
X369359646Y-128843800D01*
X369664595Y-129149282D01*
X370063233Y-129314811D01*
X370494873Y-129315188D01*
X370893800Y-129150354D01*
X371199282Y-128845405D01*
X371364811Y-128446767D01*
X371365188Y-128015127D01*
X371200354Y-127616200D01*
X370895405Y-127310718D01*
X370496767Y-127145189D01*
X370065127Y-127144812D01*
X369666200Y-127309646D01*
X369360718Y-127614595D01*
X369195189Y-128013233D01*
X369194812Y-128444873D01*
X301364812Y-128444873D01*
X301365188Y-128015127D01*
X301200354Y-127616200D01*
X301189421Y-127605248D01*
X301199282Y-127595405D01*
X301364811Y-127196767D01*
X301365188Y-126765127D01*
X301200354Y-126366200D01*
X300947803Y-126113207D01*
X308344665Y-126113207D01*
X308638630Y-126824658D01*
X309182479Y-127369457D01*
X309893416Y-127664663D01*
X310663207Y-127665335D01*
X311374658Y-127371370D01*
X311919457Y-126827521D01*
X312214663Y-126116584D01*
X312214665Y-126113207D01*
X355844665Y-126113207D01*
X356138630Y-126824658D01*
X356682479Y-127369457D01*
X357393416Y-127664663D01*
X358163207Y-127665335D01*
X358874658Y-127371370D01*
X359419457Y-126827521D01*
X359714663Y-126116584D01*
X359715335Y-125346793D01*
X359668625Y-125233745D01*
X369705860Y-125233745D01*
X369736803Y-125443712D01*
X370146948Y-125578226D01*
X370577349Y-125545546D01*
X370823197Y-125443712D01*
X370854140Y-125233745D01*
X370280000Y-124659605D01*
X369705860Y-125233745D01*
X359668625Y-125233745D01*
X359421370Y-124635342D01*
X359133479Y-124346948D01*
X369181774Y-124346948D01*
X369214454Y-124777349D01*
X369316288Y-125023197D01*
X369526255Y-125054140D01*
X370100395Y-124480000D01*
X370459605Y-124480000D01*
X371033745Y-125054140D01*
X371243712Y-125023197D01*
X371378226Y-124613052D01*
X371345546Y-124182651D01*
X371243712Y-123936803D01*
X371033745Y-123905860D01*
X370459605Y-124480000D01*
X370100395Y-124480000D01*
X369526255Y-123905860D01*
X369316288Y-123936803D01*
X369181774Y-124346948D01*
X359133479Y-124346948D01*
X358877521Y-124090543D01*
X358166584Y-123795337D01*
X357396793Y-123794665D01*
X356685342Y-124088630D01*
X356140543Y-124632479D01*
X355845337Y-125343416D01*
X355844665Y-126113207D01*
X312214665Y-126113207D01*
X312215335Y-125346793D01*
X311921370Y-124635342D01*
X311377521Y-124090543D01*
X310666584Y-123795337D01*
X309896793Y-123794665D01*
X309185342Y-124088630D01*
X308640543Y-124632479D01*
X308345337Y-125343416D01*
X308344665Y-126113207D01*
X300947803Y-126113207D01*
X300895405Y-126060718D01*
X300496767Y-125895189D01*
X300065127Y-125894812D01*
X299666200Y-126059646D01*
X299360718Y-126364595D01*
X299195189Y-126763233D01*
X299194812Y-127194873D01*
X280279929Y-127194873D01*
X281601007Y-125873795D01*
X287104716Y-125873795D01*
X287353106Y-126474943D01*
X287812637Y-126935278D01*
X288413352Y-127184716D01*
X289063795Y-127185284D01*
X289664943Y-126936894D01*
X290125278Y-126477363D01*
X290374716Y-125876648D01*
X290375284Y-125226205D01*
X290126894Y-124625057D01*
X289667363Y-124164722D01*
X289066648Y-123915284D01*
X288416205Y-123914716D01*
X287815057Y-124163106D01*
X287354722Y-124622637D01*
X287105284Y-125223352D01*
X287104716Y-125873795D01*
X281601007Y-125873795D01*
X282477401Y-124997401D01*
X282635123Y-124761354D01*
X282723515Y-124724831D01*
X283113461Y-124335564D01*
X283189927Y-124151414D01*
X283265169Y-124333515D01*
X283654436Y-124723461D01*
X284163298Y-124934759D01*
X284714285Y-124935240D01*
X285223515Y-124724831D01*
X285613461Y-124335564D01*
X285824759Y-123826702D01*
X285825092Y-123444873D01*
X299194812Y-123444873D01*
X299359646Y-123843800D01*
X299370579Y-123854752D01*
X299360718Y-123864595D01*
X299195189Y-124263233D01*
X299194812Y-124694873D01*
X299359646Y-125093800D01*
X299664595Y-125399282D01*
X300063233Y-125564811D01*
X300494873Y-125565188D01*
X300893800Y-125400354D01*
X301199282Y-125095405D01*
X301364811Y-124696767D01*
X301365188Y-124265127D01*
X301200354Y-123866200D01*
X301189421Y-123855248D01*
X301199282Y-123845405D01*
X301248757Y-123726255D01*
X369705860Y-123726255D01*
X370280000Y-124300395D01*
X370854140Y-123726255D01*
X370823197Y-123516288D01*
X370413052Y-123381774D01*
X369982651Y-123414454D01*
X369736803Y-123516288D01*
X369705860Y-123726255D01*
X301248757Y-123726255D01*
X301364811Y-123446767D01*
X301365188Y-123015127D01*
X301200354Y-122616200D01*
X300895405Y-122310718D01*
X300496767Y-122145189D01*
X300065127Y-122144812D01*
X299666200Y-122309646D01*
X299360718Y-122614595D01*
X299195189Y-123013233D01*
X299194812Y-123444873D01*
X285825092Y-123444873D01*
X285825240Y-123275715D01*
X285614831Y-122766485D01*
X285225564Y-122376539D01*
X284716702Y-122165241D01*
X284165715Y-122164760D01*
X283656485Y-122375169D01*
X283266539Y-122764436D01*
X283190073Y-122948586D01*
X283114831Y-122766485D01*
X282725564Y-122376539D01*
X282216702Y-122165241D01*
X281665715Y-122164760D01*
X281156485Y-122375169D01*
X280766539Y-122764436D01*
X280696647Y-122932754D01*
X280652460Y-122826077D01*
X280411517Y-122758088D01*
X279619605Y-123550000D01*
X280411517Y-124341912D01*
X280652460Y-124273923D01*
X280693222Y-124159389D01*
X280765169Y-124333515D01*
X280878327Y-124446871D01*
X273782599Y-131542599D01*
X273617852Y-131789161D01*
X273560000Y-132080000D01*
X273560000Y-136845198D01*
X266385198Y-144020000D01*
X222814802Y-144020000D01*
X225224802Y-141610000D01*
X231954453Y-141610000D01*
X232081043Y-141916372D01*
X232610839Y-142447093D01*
X233303405Y-142734672D01*
X234053305Y-142735326D01*
X234746372Y-142448957D01*
X235277093Y-141919161D01*
X235564672Y-141226595D01*
X235565326Y-140476695D01*
X235278957Y-139783628D01*
X234749161Y-139252907D01*
X234597664Y-139190000D01*
X236145198Y-139190000D01*
X238342599Y-141387401D01*
X238589161Y-141552148D01*
X238880000Y-141610000D01*
X247194453Y-141610000D01*
X247321043Y-141916372D01*
X247850839Y-142447093D01*
X248543405Y-142734672D01*
X249293305Y-142735326D01*
X249986372Y-142448957D01*
X250517093Y-141919161D01*
X250804672Y-141226595D01*
X250805326Y-140476695D01*
X250518957Y-139783628D01*
X249989161Y-139252907D01*
X249296595Y-138965328D01*
X248546695Y-138964674D01*
X247853628Y-139251043D01*
X247322907Y-139780839D01*
X247194532Y-140090000D01*
X239194802Y-140090000D01*
X236997401Y-137892599D01*
X236750839Y-137727852D01*
X236460000Y-137670000D01*
X228994745Y-137670000D01*
X229124811Y-137356767D01*
X229125188Y-136925127D01*
X228960354Y-136526200D01*
X228655405Y-136220718D01*
X228256767Y-136055189D01*
X227825127Y-136054812D01*
X227426200Y-136219646D01*
X227120718Y-136524595D01*
X226955189Y-136923233D01*
X226954812Y-137354873D01*
X227085020Y-137670000D01*
X216299147Y-137670000D01*
X216634658Y-137531370D01*
X217179457Y-136987521D01*
X217474663Y-136276584D01*
X217475335Y-135506793D01*
X217181370Y-134795342D01*
X216637521Y-134250543D01*
X215926584Y-133955337D01*
X215156793Y-133954665D01*
X214445342Y-134248630D01*
X213900543Y-134792479D01*
X213605337Y-135503416D01*
X213604665Y-136273207D01*
X213898630Y-136984658D01*
X214442479Y-137529457D01*
X214780945Y-137670000D01*
X193602463Y-137670000D01*
X193570327Y-137637808D01*
X193226799Y-137495162D01*
X192854833Y-137494838D01*
X192511057Y-137636883D01*
X192247808Y-137899673D01*
X192105162Y-138243201D01*
X192104838Y-138615167D01*
X192178679Y-138793877D01*
X190007401Y-136622599D01*
X189760839Y-136457852D01*
X189470000Y-136400000D01*
X187004802Y-136400000D01*
X179960145Y-129355343D01*
X180253629Y-129062370D01*
X180339949Y-128854488D01*
X180424990Y-129060303D01*
X180817630Y-129453629D01*
X181330900Y-129666757D01*
X181886661Y-129667242D01*
X182400303Y-129455010D01*
X182793629Y-129062370D01*
X182879949Y-128854488D01*
X182964990Y-129060303D01*
X183357630Y-129453629D01*
X183870900Y-129666757D01*
X184426661Y-129667242D01*
X184940303Y-129455010D01*
X185333629Y-129062370D01*
X185419949Y-128854488D01*
X185504990Y-129060303D01*
X185897630Y-129453629D01*
X186410900Y-129666757D01*
X186966661Y-129667242D01*
X187480303Y-129455010D01*
X187873629Y-129062370D01*
X188086757Y-128549100D01*
X188086839Y-128454775D01*
X193174803Y-128454775D01*
X193347233Y-128872086D01*
X193666235Y-129191645D01*
X194083244Y-129364803D01*
X194534775Y-129365197D01*
X194952086Y-129192767D01*
X195155207Y-128990000D01*
X213005198Y-128990000D01*
X216682453Y-132667255D01*
X216555328Y-132973405D01*
X216554674Y-133723305D01*
X216841043Y-134416372D01*
X217370839Y-134947093D01*
X218063405Y-135234672D01*
X218813305Y-135235326D01*
X219506372Y-134948957D01*
X220037093Y-134419161D01*
X220165468Y-134110000D01*
X223520000Y-134110000D01*
X223810839Y-134052148D01*
X224057401Y-133887401D01*
X224339929Y-133604873D01*
X226954812Y-133604873D01*
X227119646Y-134003800D01*
X227424595Y-134309282D01*
X227823233Y-134474811D01*
X228254873Y-134475188D01*
X228653800Y-134310354D01*
X228959282Y-134005405D01*
X229124811Y-133606767D01*
X229125188Y-133175127D01*
X228960354Y-132776200D01*
X228655405Y-132470718D01*
X228256767Y-132305189D01*
X227825127Y-132304812D01*
X227426200Y-132469646D01*
X227120718Y-132774595D01*
X226955189Y-133173233D01*
X226954812Y-133604873D01*
X224339929Y-133604873D01*
X226374802Y-131570000D01*
X230825198Y-131570000D01*
X231922453Y-132667255D01*
X231795328Y-132973405D01*
X231794674Y-133723305D01*
X232081043Y-134416372D01*
X232610839Y-134947093D01*
X233303405Y-135234672D01*
X234053305Y-135235326D01*
X234746372Y-134948957D01*
X235277093Y-134419161D01*
X235405468Y-134110000D01*
X247194453Y-134110000D01*
X247321043Y-134416372D01*
X247850839Y-134947093D01*
X248543405Y-135234672D01*
X249293305Y-135235326D01*
X249986372Y-134948957D01*
X250517093Y-134419161D01*
X250645468Y-134110000D01*
X262434453Y-134110000D01*
X262561043Y-134416372D01*
X263090839Y-134947093D01*
X263783405Y-135234672D01*
X264533305Y-135235326D01*
X265226372Y-134948957D01*
X265757093Y-134419161D01*
X266044672Y-133726595D01*
X266045326Y-132976695D01*
X265758957Y-132283628D01*
X265229161Y-131752907D01*
X264536595Y-131465328D01*
X263786695Y-131464674D01*
X263093628Y-131751043D01*
X262562907Y-132280839D01*
X262434532Y-132590000D01*
X250645547Y-132590000D01*
X250518957Y-132283628D01*
X249989161Y-131752907D01*
X249296595Y-131465328D01*
X248546695Y-131464674D01*
X247853628Y-131751043D01*
X247322907Y-132280839D01*
X247194532Y-132590000D01*
X235405547Y-132590000D01*
X235278957Y-132283628D01*
X234749161Y-131752907D01*
X234056595Y-131465328D01*
X233306695Y-131464674D01*
X232997311Y-131592509D01*
X231677401Y-130272599D01*
X231430839Y-130107852D01*
X231140000Y-130050000D01*
X226060000Y-130050000D01*
X225817414Y-130098254D01*
X225769160Y-130107852D01*
X225522599Y-130272599D01*
X223205198Y-132590000D01*
X220165547Y-132590000D01*
X220038957Y-132283628D01*
X219509161Y-131752907D01*
X218816595Y-131465328D01*
X218066695Y-131464674D01*
X217757311Y-131592509D01*
X213857401Y-127692599D01*
X213610839Y-127527852D01*
X213320000Y-127470000D01*
X195155059Y-127470000D01*
X194953765Y-127268355D01*
X194536756Y-127095197D01*
X194085225Y-127094803D01*
X193667914Y-127267233D01*
X193348355Y-127586235D01*
X193175197Y-128003244D01*
X193174803Y-128454775D01*
X188086839Y-128454775D01*
X188087242Y-127993339D01*
X187875010Y-127479697D01*
X187482370Y-127086371D01*
X186969100Y-126873243D01*
X186413339Y-126872758D01*
X185899697Y-127084990D01*
X185506371Y-127477630D01*
X185420051Y-127685512D01*
X185335010Y-127479697D01*
X184942370Y-127086371D01*
X184429100Y-126873243D01*
X183873339Y-126872758D01*
X183359697Y-127084990D01*
X182966371Y-127477630D01*
X182880051Y-127685512D01*
X182795010Y-127479697D01*
X182500315Y-127184487D01*
X183730027Y-125954775D01*
X193174803Y-125954775D01*
X193347233Y-126372086D01*
X193666235Y-126691645D01*
X194083244Y-126864803D01*
X194534775Y-126865197D01*
X194952086Y-126692767D01*
X195271645Y-126373765D01*
X195444803Y-125956756D01*
X195445197Y-125505225D01*
X195272767Y-125087914D01*
X194953765Y-124768355D01*
X194536756Y-124595197D01*
X194085225Y-124594803D01*
X193667914Y-124767233D01*
X193348355Y-125086235D01*
X193175197Y-125503244D01*
X193174803Y-125954775D01*
X183730027Y-125954775D01*
X187004802Y-122680000D01*
X193309420Y-122680000D01*
X193175197Y-123003244D01*
X193174803Y-123454775D01*
X193347233Y-123872086D01*
X193666235Y-124191645D01*
X194083244Y-124364803D01*
X194534775Y-124365197D01*
X194952086Y-124192767D01*
X195155207Y-123990000D01*
X215505198Y-123990000D01*
X216542560Y-125027362D01*
X216542560Y-127100000D01*
X216586838Y-127335317D01*
X216699243Y-127510000D01*
X216462463Y-127510000D01*
X216430327Y-127477808D01*
X216086799Y-127335162D01*
X215714833Y-127334838D01*
X215371057Y-127476883D01*
X215107808Y-127739673D01*
X214965162Y-128083201D01*
X214964838Y-128455167D01*
X215106883Y-128798943D01*
X215369673Y-129062192D01*
X215713201Y-129204838D01*
X216085167Y-129205162D01*
X216428943Y-129063117D01*
X216462118Y-129030000D01*
X259787537Y-129030000D01*
X259819673Y-129062192D01*
X260163201Y-129204838D01*
X260535167Y-129205162D01*
X260878943Y-129063117D01*
X261142192Y-128800327D01*
X261284838Y-128456799D01*
X261285162Y-128084833D01*
X261143117Y-127741057D01*
X260880327Y-127477808D01*
X260536799Y-127335162D01*
X260164833Y-127334838D01*
X259821057Y-127476883D01*
X259787882Y-127510000D01*
X250658399Y-127510000D01*
X250766431Y-127351890D01*
X250817440Y-127100000D01*
X250817440Y-126610000D01*
X260155198Y-126610000D01*
X267210000Y-133664802D01*
X267210000Y-136725198D01*
X264982638Y-138952560D01*
X262910000Y-138952560D01*
X262674683Y-138996838D01*
X262458559Y-139135910D01*
X262313569Y-139348110D01*
X262262560Y-139600000D01*
X262262560Y-142100000D01*
X262306838Y-142335317D01*
X262445910Y-142551441D01*
X262658110Y-142696431D01*
X262910000Y-142747440D01*
X265410000Y-142747440D01*
X265645317Y-142703162D01*
X265861441Y-142564090D01*
X266006431Y-142351890D01*
X266057440Y-142100000D01*
X266057440Y-140027362D01*
X268507401Y-137577401D01*
X268672148Y-137330839D01*
X268730000Y-137040000D01*
X268730000Y-136821517D01*
X271348088Y-136821517D01*
X271416077Y-137062460D01*
X271935171Y-137247201D01*
X272485448Y-137219230D01*
X272863923Y-137062460D01*
X272931912Y-136821517D01*
X272140000Y-136029605D01*
X271348088Y-136821517D01*
X268730000Y-136821517D01*
X268730000Y-135645171D01*
X270742799Y-135645171D01*
X270770770Y-136195448D01*
X270927540Y-136573923D01*
X271168483Y-136641912D01*
X271960395Y-135850000D01*
X272319605Y-135850000D01*
X273111517Y-136641912D01*
X273352460Y-136573923D01*
X273537201Y-136054829D01*
X273509230Y-135504552D01*
X273352460Y-135126077D01*
X273111517Y-135058088D01*
X272319605Y-135850000D01*
X271960395Y-135850000D01*
X271168483Y-135058088D01*
X270927540Y-135126077D01*
X270742799Y-135645171D01*
X268730000Y-135645171D01*
X268730000Y-133350000D01*
X268672148Y-133059161D01*
X268507401Y-132812599D01*
X266819087Y-131124285D01*
X270754760Y-131124285D01*
X270965169Y-131633515D01*
X271354436Y-132023461D01*
X271538586Y-132099927D01*
X271356485Y-132175169D01*
X270966539Y-132564436D01*
X270755241Y-133073298D01*
X270754760Y-133624285D01*
X270965169Y-134133515D01*
X271354436Y-134523461D01*
X271522754Y-134593353D01*
X271416077Y-134637540D01*
X271348088Y-134878483D01*
X272140000Y-135670395D01*
X272931912Y-134878483D01*
X272863923Y-134637540D01*
X272749389Y-134596778D01*
X272923515Y-134524831D01*
X273313461Y-134135564D01*
X273524759Y-133626702D01*
X273525240Y-133075715D01*
X273314831Y-132566485D01*
X272925564Y-132176539D01*
X272741414Y-132100073D01*
X272923515Y-132024831D01*
X273313461Y-131635564D01*
X273524759Y-131126702D01*
X273525240Y-130575715D01*
X273314831Y-130066485D01*
X272925564Y-129676539D01*
X272416702Y-129465241D01*
X271865715Y-129464760D01*
X271356485Y-129675169D01*
X270966539Y-130064436D01*
X270755241Y-130573298D01*
X270754760Y-131124285D01*
X266819087Y-131124285D01*
X263178150Y-127483348D01*
X263783405Y-127734672D01*
X264533305Y-127735326D01*
X265226372Y-127448957D01*
X265757093Y-126919161D01*
X266044672Y-126226595D01*
X266044979Y-125873795D01*
X273504716Y-125873795D01*
X273753106Y-126474943D01*
X274212637Y-126935278D01*
X274813352Y-127184716D01*
X275463795Y-127185284D01*
X276064943Y-126936894D01*
X276525278Y-126477363D01*
X276774716Y-125876648D01*
X276775284Y-125226205D01*
X276526894Y-124625057D01*
X276423535Y-124521517D01*
X278648088Y-124521517D01*
X278716077Y-124762460D01*
X279235171Y-124947201D01*
X279785448Y-124919230D01*
X280163923Y-124762460D01*
X280231912Y-124521517D01*
X279440000Y-123729605D01*
X278648088Y-124521517D01*
X276423535Y-124521517D01*
X276067363Y-124164722D01*
X275466648Y-123915284D01*
X274816205Y-123914716D01*
X274215057Y-124163106D01*
X273754722Y-124622637D01*
X273505284Y-125223352D01*
X273504716Y-125873795D01*
X266044979Y-125873795D01*
X266045326Y-125476695D01*
X265758957Y-124783628D01*
X265229161Y-124252907D01*
X264536595Y-123965328D01*
X263786695Y-123964674D01*
X263093628Y-124251043D01*
X262562907Y-124780839D01*
X262275328Y-125473405D01*
X262274674Y-126223305D01*
X262525744Y-126830942D01*
X261007401Y-125312599D01*
X260760839Y-125147852D01*
X260470000Y-125090000D01*
X250817440Y-125090000D01*
X250817440Y-124600000D01*
X250773162Y-124364683D01*
X250634090Y-124148559D01*
X250421890Y-124003569D01*
X250170000Y-123952560D01*
X247670000Y-123952560D01*
X247434683Y-123996838D01*
X247218559Y-124135910D01*
X247073569Y-124348110D01*
X247022560Y-124600000D01*
X247022560Y-125090000D01*
X235577440Y-125090000D01*
X235577440Y-124600000D01*
X235533162Y-124364683D01*
X235394090Y-124148559D01*
X235181890Y-124003569D01*
X234930000Y-123952560D01*
X232430000Y-123952560D01*
X232194683Y-123996838D01*
X231978559Y-124135910D01*
X231833569Y-124348110D01*
X231782560Y-124600000D01*
X231782560Y-125090000D01*
X220337440Y-125090000D01*
X220337440Y-124600000D01*
X220293162Y-124364683D01*
X220154090Y-124148559D01*
X219941890Y-124003569D01*
X219690000Y-123952560D01*
X217617362Y-123952560D01*
X216357401Y-122692599D01*
X216338545Y-122680000D01*
X250005504Y-122680000D01*
X250073538Y-122844655D01*
X250532927Y-123304846D01*
X251133453Y-123554206D01*
X251783694Y-123554774D01*
X252384655Y-123306462D01*
X252844846Y-122847073D01*
X253094206Y-122246547D01*
X253094774Y-121596306D01*
X252846462Y-120995345D01*
X252387073Y-120535154D01*
X251786547Y-120285794D01*
X251136306Y-120285226D01*
X250535345Y-120533538D01*
X250075154Y-120992927D01*
X250005779Y-121160000D01*
X186690000Y-121160000D01*
X186399161Y-121217852D01*
X186152599Y-121382599D01*
X181072599Y-126462599D01*
X180907852Y-126709161D01*
X180850000Y-127000000D01*
X180850000Y-127072469D01*
X180819697Y-127084990D01*
X180426371Y-127477630D01*
X180340051Y-127685512D01*
X180255010Y-127479697D01*
X179862370Y-127086371D01*
X179349100Y-126873243D01*
X178793339Y-126872758D01*
X178279697Y-127084990D01*
X177886371Y-127477630D01*
X177800051Y-127685512D01*
X177715010Y-127479697D01*
X177322370Y-127086371D01*
X176809100Y-126873243D01*
X176253339Y-126872758D01*
X175739697Y-127084990D01*
X175346371Y-127477630D01*
X175260051Y-127685512D01*
X175175010Y-127479697D01*
X174782370Y-127086371D01*
X174269100Y-126873243D01*
X173713339Y-126872758D01*
X173199697Y-127084990D01*
X172806371Y-127477630D01*
X172720051Y-127685512D01*
X172635010Y-127479697D01*
X172242370Y-127086371D01*
X171729100Y-126873243D01*
X171173339Y-126872758D01*
X170659697Y-127084990D01*
X170266371Y-127477630D01*
X170180051Y-127685512D01*
X170095010Y-127479697D01*
X169702370Y-127086371D01*
X169189100Y-126873243D01*
X168633339Y-126872758D01*
X168119697Y-127084990D01*
X167726371Y-127477630D01*
X167640051Y-127685512D01*
X167555010Y-127479697D01*
X167162370Y-127086371D01*
X166649100Y-126873243D01*
X166093339Y-126872758D01*
X165579697Y-127084990D01*
X165186371Y-127477630D01*
X165100051Y-127685512D01*
X165015010Y-127479697D01*
X164622370Y-127086371D01*
X164109100Y-126873243D01*
X163553339Y-126872758D01*
X163039697Y-127084990D01*
X162646371Y-127477630D01*
X162560051Y-127685512D01*
X162475010Y-127479697D01*
X162082370Y-127086371D01*
X161569100Y-126873243D01*
X161013339Y-126872758D01*
X160499697Y-127084990D01*
X160106371Y-127477630D01*
X160020051Y-127685512D01*
X159935010Y-127479697D01*
X159542370Y-127086371D01*
X159029100Y-126873243D01*
X158473339Y-126872758D01*
X157959697Y-127084990D01*
X157566371Y-127477630D01*
X157480051Y-127685512D01*
X157395010Y-127479697D01*
X157100315Y-127184487D01*
X157794802Y-126490000D01*
X164537537Y-126490000D01*
X164569673Y-126522192D01*
X164913201Y-126664838D01*
X165285167Y-126665162D01*
X165628943Y-126523117D01*
X165892192Y-126260327D01*
X166034838Y-125916799D01*
X166035162Y-125544833D01*
X165893117Y-125201057D01*
X165630327Y-124937808D01*
X165286799Y-124795162D01*
X164914833Y-124794838D01*
X164571057Y-124936883D01*
X164537882Y-124970000D01*
X157480000Y-124970000D01*
X157189160Y-125027852D01*
X156942599Y-125192599D01*
X155672599Y-126462599D01*
X155507852Y-126709161D01*
X155450000Y-127000000D01*
X155450000Y-127072469D01*
X155419697Y-127084990D01*
X155026371Y-127477630D01*
X154940051Y-127685512D01*
X154855010Y-127479697D01*
X154462370Y-127086371D01*
X153949100Y-126873243D01*
X153393339Y-126872758D01*
X152879697Y-127084990D01*
X152486371Y-127477630D01*
X152400051Y-127685512D01*
X152315010Y-127479697D01*
X151922370Y-127086371D01*
X151409100Y-126873243D01*
X150853339Y-126872758D01*
X150339697Y-127084990D01*
X149946371Y-127477630D01*
X149860051Y-127685512D01*
X149775010Y-127479697D01*
X149382370Y-127086371D01*
X148869100Y-126873243D01*
X148313339Y-126872758D01*
X147799697Y-127084990D01*
X147406371Y-127477630D01*
X147320051Y-127685512D01*
X147235010Y-127479697D01*
X146842370Y-127086371D01*
X146329100Y-126873243D01*
X145773339Y-126872758D01*
X145259697Y-127084990D01*
X144866371Y-127477630D01*
X144653243Y-127990900D01*
X144652758Y-128546661D01*
X144864990Y-129060303D01*
X145257630Y-129453629D01*
X145770900Y-129666757D01*
X146326661Y-129667242D01*
X146840303Y-129455010D01*
X147233629Y-129062370D01*
X147319949Y-128854488D01*
X147404990Y-129060303D01*
X147797630Y-129453629D01*
X148310900Y-129666757D01*
X148866661Y-129667242D01*
X149380303Y-129455010D01*
X149773629Y-129062370D01*
X149859949Y-128854488D01*
X149944990Y-129060303D01*
X150337630Y-129453629D01*
X150850900Y-129666757D01*
X151406661Y-129667242D01*
X151920303Y-129455010D01*
X152313629Y-129062370D01*
X152399949Y-128854488D01*
X152484990Y-129060303D01*
X152877630Y-129453629D01*
X153390900Y-129666757D01*
X153946661Y-129667242D01*
X154460303Y-129455010D01*
X154853629Y-129062370D01*
X154939949Y-128854488D01*
X155024990Y-129060303D01*
X155417630Y-129453629D01*
X155930900Y-129666757D01*
X156486661Y-129667242D01*
X157000303Y-129455010D01*
X157393629Y-129062370D01*
X157479949Y-128854488D01*
X157564990Y-129060303D01*
X157957630Y-129453629D01*
X158470900Y-129666757D01*
X159026661Y-129667242D01*
X159540303Y-129455010D01*
X159933629Y-129062370D01*
X160019949Y-128854488D01*
X160104990Y-129060303D01*
X160497630Y-129453629D01*
X161010900Y-129666757D01*
X161566661Y-129667242D01*
X162080303Y-129455010D01*
X162473629Y-129062370D01*
X162559949Y-128854488D01*
X162644990Y-129060303D01*
X162939685Y-129355513D01*
X162245198Y-130050000D01*
X151692463Y-130050000D01*
X151660327Y-130017808D01*
X151316799Y-129875162D01*
X150944833Y-129874838D01*
X150601057Y-130016883D01*
X150337808Y-130279673D01*
X150195162Y-130623201D01*
X150194838Y-130995167D01*
X150336883Y-131338943D01*
X150599673Y-131602192D01*
X150943201Y-131744838D01*
X151315167Y-131745162D01*
X151658943Y-131603117D01*
X151692118Y-131570000D01*
X162560000Y-131570000D01*
X162850839Y-131512148D01*
X163097401Y-131347401D01*
X164367401Y-130077401D01*
X164532148Y-129830840D01*
X164590000Y-129540000D01*
X164590000Y-129467531D01*
X164620303Y-129455010D01*
X165013629Y-129062370D01*
X165099949Y-128854488D01*
X165184990Y-129060303D01*
X165577630Y-129453629D01*
X165610000Y-129467070D01*
X165610000Y-129540000D01*
X165667852Y-129830839D01*
X165832599Y-130077401D01*
X167102599Y-131347401D01*
X167349160Y-131512148D01*
X167640000Y-131570000D01*
X170887537Y-131570000D01*
X170919673Y-131602192D01*
X171263201Y-131744838D01*
X171635167Y-131745162D01*
X171978943Y-131603117D01*
X172242192Y-131340327D01*
X172384838Y-130996799D01*
X172385162Y-130624833D01*
X172243117Y-130281057D01*
X171980327Y-130017808D01*
X171636799Y-129875162D01*
X171264833Y-129874838D01*
X170921057Y-130016883D01*
X170887882Y-130050000D01*
X167954802Y-130050000D01*
X167260145Y-129355343D01*
X167553629Y-129062370D01*
X167639949Y-128854488D01*
X167724990Y-129060303D01*
X168117630Y-129453629D01*
X168630900Y-129666757D01*
X169186661Y-129667242D01*
X169700303Y-129455010D01*
X170093629Y-129062370D01*
X170179949Y-128854488D01*
X170264990Y-129060303D01*
X170657630Y-129453629D01*
X171170900Y-129666757D01*
X171726661Y-129667242D01*
X171759055Y-129653857D01*
X181072599Y-138967401D01*
X181319161Y-139132148D01*
X181610000Y-139190000D01*
X187645198Y-139190000D01*
X188665198Y-140210000D01*
X177330633Y-140210000D01*
X177464838Y-139886799D01*
X177465162Y-139514833D01*
X177323117Y-139171057D01*
X177060327Y-138907808D01*
X176716799Y-138765162D01*
X176344833Y-138764838D01*
X176001057Y-138906883D01*
X175967882Y-138940000D01*
X160020000Y-138940000D01*
X159729160Y-138997852D01*
X159482599Y-139162599D01*
X158212599Y-140432599D01*
X158047852Y-140679161D01*
X157990000Y-140970000D01*
X157990000Y-142312469D01*
X157959697Y-142324990D01*
X157566371Y-142717630D01*
X157480051Y-142925512D01*
X157395010Y-142719697D01*
X157002370Y-142326371D01*
X156970000Y-142312930D01*
X156970000Y-140014802D01*
X157601898Y-139382904D01*
X157823233Y-139474811D01*
X158254873Y-139475188D01*
X158653800Y-139310354D01*
X158959282Y-139005405D01*
X159124811Y-138606767D01*
X159125188Y-138175127D01*
X158960354Y-137776200D01*
X158884980Y-137700695D01*
X159003712Y-137683197D01*
X159138226Y-137273052D01*
X159105546Y-136842651D01*
X159003712Y-136596803D01*
X158793745Y-136565860D01*
X158219605Y-137140000D01*
X158233748Y-137154143D01*
X158082853Y-137305037D01*
X157997072Y-137304962D01*
X157846253Y-137154143D01*
X157860395Y-137140000D01*
X157286255Y-136565860D01*
X157076288Y-136596803D01*
X156941774Y-137006948D01*
X156974454Y-137437349D01*
X157076288Y-137683197D01*
X157194783Y-137700660D01*
X157163992Y-137731396D01*
X156982599Y-137852599D01*
X155672599Y-139162599D01*
X155507852Y-139409161D01*
X155450000Y-139700000D01*
X155450000Y-142312469D01*
X155419697Y-142324990D01*
X155026371Y-142717630D01*
X154940051Y-142925512D01*
X154855010Y-142719697D01*
X154462370Y-142326371D01*
X154430000Y-142312930D01*
X154430000Y-139555536D01*
X154799827Y-139186353D01*
X155003268Y-138696413D01*
X155003731Y-138165914D01*
X154801146Y-137675620D01*
X154426353Y-137300173D01*
X153936413Y-137096732D01*
X153405914Y-137096269D01*
X152915620Y-137298854D01*
X152543826Y-137670000D01*
X147175536Y-137670000D01*
X146806353Y-137300173D01*
X146316413Y-137096732D01*
X145785914Y-137096269D01*
X145295620Y-137298854D01*
X144920173Y-137673647D01*
X144716732Y-138163587D01*
X144716274Y-138688924D01*
X141925198Y-141480000D01*
X141347440Y-141480000D01*
X141347440Y-141240000D01*
X141303162Y-141004683D01*
X141164090Y-140788559D01*
X141021439Y-140691090D01*
X141085278Y-140627363D01*
X141334716Y-140026648D01*
X141335284Y-139376205D01*
X141086894Y-138775057D01*
X140742241Y-138429801D01*
X141085278Y-138087363D01*
X141334716Y-137486648D01*
X141335284Y-136836205D01*
X141266081Y-136668721D01*
X141548547Y-136386255D01*
X157465860Y-136386255D01*
X158040000Y-136960395D01*
X158614140Y-136386255D01*
X158597481Y-136273207D01*
X166104665Y-136273207D01*
X166398630Y-136984658D01*
X166942479Y-137529457D01*
X167653416Y-137824663D01*
X168423207Y-137825335D01*
X169134658Y-137531370D01*
X169679457Y-136987521D01*
X169974663Y-136276584D01*
X169975335Y-135506793D01*
X169681370Y-134795342D01*
X169137521Y-134250543D01*
X168426584Y-133955337D01*
X167656793Y-133954665D01*
X166945342Y-134248630D01*
X166400543Y-134792479D01*
X166105337Y-135503416D01*
X166104665Y-136273207D01*
X158597481Y-136273207D01*
X158583197Y-136176288D01*
X158173052Y-136041774D01*
X157742651Y-136074454D01*
X157496803Y-136176288D01*
X157465860Y-136386255D01*
X141548547Y-136386255D01*
X143824802Y-134110000D01*
X144924464Y-134110000D01*
X145293647Y-134479827D01*
X145783587Y-134683268D01*
X146314086Y-134683731D01*
X146804380Y-134481146D01*
X147176174Y-134110000D01*
X152544464Y-134110000D01*
X152913647Y-134479827D01*
X153403587Y-134683268D01*
X153934086Y-134683731D01*
X154424380Y-134481146D01*
X154799827Y-134106353D01*
X155003268Y-133616413D01*
X155003278Y-133604873D01*
X156954812Y-133604873D01*
X157119646Y-134003800D01*
X157130579Y-134014752D01*
X157120718Y-134024595D01*
X156955189Y-134423233D01*
X156954812Y-134854873D01*
X157119646Y-135253800D01*
X157424595Y-135559282D01*
X157823233Y-135724811D01*
X158254873Y-135725188D01*
X158653800Y-135560354D01*
X158959282Y-135255405D01*
X159124811Y-134856767D01*
X159125188Y-134425127D01*
X158960354Y-134026200D01*
X158949421Y-134015248D01*
X158959282Y-134005405D01*
X159124811Y-133606767D01*
X159125188Y-133175127D01*
X158960354Y-132776200D01*
X158655405Y-132470718D01*
X158256767Y-132305189D01*
X157825127Y-132304812D01*
X157426200Y-132469646D01*
X157120718Y-132774595D01*
X156955189Y-133173233D01*
X156954812Y-133604873D01*
X155003278Y-133604873D01*
X155003731Y-133085914D01*
X154801146Y-132595620D01*
X154426353Y-132220173D01*
X153936413Y-132016732D01*
X153405914Y-132016269D01*
X152915620Y-132218854D01*
X152543826Y-132590000D01*
X147175536Y-132590000D01*
X146806353Y-132220173D01*
X146316413Y-132016732D01*
X145785914Y-132016269D01*
X145295620Y-132218854D01*
X144923826Y-132590000D01*
X143510000Y-132590000D01*
X143219161Y-132647852D01*
X142972599Y-132812599D01*
X141335150Y-134450048D01*
X141335284Y-134296205D01*
X141086894Y-133695057D01*
X140742241Y-133349801D01*
X141085278Y-133007363D01*
X141334716Y-132406648D01*
X141335284Y-131756205D01*
X141086894Y-131155057D01*
X140742241Y-130809801D01*
X141085278Y-130467363D01*
X141334716Y-129866648D01*
X141335284Y-129216205D01*
X141086894Y-128615057D01*
X140627363Y-128154722D01*
X140026648Y-127905284D01*
X139376205Y-127904716D01*
X138775057Y-128153106D01*
X138314722Y-128612637D01*
X138065284Y-129213352D01*
X138064716Y-129863795D01*
X138313106Y-130464943D01*
X138657759Y-130810199D01*
X138314722Y-131152637D01*
X138065284Y-131753352D01*
X138064716Y-132403795D01*
X138313106Y-133004943D01*
X138657759Y-133350199D01*
X138314722Y-133692637D01*
X138065284Y-134293352D01*
X138064716Y-134943795D01*
X138313106Y-135544943D01*
X138657759Y-135890199D01*
X138314722Y-136232637D01*
X138065284Y-136833352D01*
X138064716Y-137483795D01*
X138313106Y-138084943D01*
X138657759Y-138430199D01*
X138314722Y-138772637D01*
X138065284Y-139373352D01*
X138064716Y-140023795D01*
X138313106Y-140624943D01*
X138379621Y-140691574D01*
X138248559Y-140775910D01*
X138103569Y-140988110D01*
X138052560Y-141240000D01*
X138052560Y-143240000D01*
X138096838Y-143475317D01*
X138235910Y-143691441D01*
X138448110Y-143836431D01*
X138700000Y-143887440D01*
X140700000Y-143887440D01*
X140935317Y-143843162D01*
X141023122Y-143786661D01*
X144652758Y-143786661D01*
X144864990Y-144300303D01*
X145257630Y-144693629D01*
X145770900Y-144906757D01*
X146326661Y-144907242D01*
X146840303Y-144695010D01*
X147233629Y-144302370D01*
X147319949Y-144094488D01*
X147404990Y-144300303D01*
X147797630Y-144693629D01*
X148310900Y-144906757D01*
X148866661Y-144907242D01*
X149380303Y-144695010D01*
X149585457Y-144490213D01*
X150329392Y-144490213D01*
X150398857Y-144732397D01*
X150922302Y-144919144D01*
X151477368Y-144891362D01*
X151861143Y-144732397D01*
X151930608Y-144490213D01*
X151130000Y-143689605D01*
X150329392Y-144490213D01*
X149585457Y-144490213D01*
X149773629Y-144302370D01*
X149853395Y-144110273D01*
X149907603Y-144241143D01*
X150149787Y-144310608D01*
X150950395Y-143510000D01*
X150149787Y-142709392D01*
X149907603Y-142778857D01*
X149857491Y-142919318D01*
X149775010Y-142719697D01*
X149585432Y-142529787D01*
X150329392Y-142529787D01*
X151130000Y-143330395D01*
X151930608Y-142529787D01*
X151861143Y-142287603D01*
X151337698Y-142100856D01*
X150782632Y-142128638D01*
X150398857Y-142287603D01*
X150329392Y-142529787D01*
X149585432Y-142529787D01*
X149382370Y-142326371D01*
X148869100Y-142113243D01*
X148313339Y-142112758D01*
X147799697Y-142324990D01*
X147406371Y-142717630D01*
X147320051Y-142925512D01*
X147235010Y-142719697D01*
X146842370Y-142326371D01*
X146329100Y-142113243D01*
X145773339Y-142112758D01*
X145259697Y-142324990D01*
X144866371Y-142717630D01*
X144653243Y-143230900D01*
X144652758Y-143786661D01*
X141023122Y-143786661D01*
X141151441Y-143704090D01*
X141296431Y-143491890D01*
X141347440Y-143240000D01*
X141347440Y-143000000D01*
X142240000Y-143000000D01*
X142530839Y-142942148D01*
X142777401Y-142777401D01*
X145791527Y-139763275D01*
X146314086Y-139763731D01*
X146804380Y-139561146D01*
X147176174Y-139190000D01*
X152544464Y-139190000D01*
X152910000Y-139556174D01*
X152910000Y-142312469D01*
X152879697Y-142324990D01*
X152486371Y-142717630D01*
X152406605Y-142909727D01*
X152352397Y-142778857D01*
X152110213Y-142709392D01*
X151309605Y-143510000D01*
X152110213Y-144310608D01*
X152352397Y-144241143D01*
X152402509Y-144100682D01*
X152484990Y-144300303D01*
X152877630Y-144693629D01*
X153390900Y-144906757D01*
X153946661Y-144907242D01*
X154460303Y-144695010D01*
X154853629Y-144302370D01*
X154939949Y-144094488D01*
X155024990Y-144300303D01*
X155417630Y-144693629D01*
X155930900Y-144906757D01*
X156486661Y-144907242D01*
X157000303Y-144695010D01*
X157393629Y-144302370D01*
X157479949Y-144094488D01*
X157564990Y-144300303D01*
X157957630Y-144693629D01*
X158470900Y-144906757D01*
X159026661Y-144907242D01*
X159540303Y-144695010D01*
X159933629Y-144302370D01*
X160019949Y-144094488D01*
X160104990Y-144300303D01*
X160497630Y-144693629D01*
X161010900Y-144906757D01*
X161566661Y-144907242D01*
X162080303Y-144695010D01*
X162473629Y-144302370D01*
X162559949Y-144094488D01*
X162644990Y-144300303D01*
X163037630Y-144693629D01*
X163550900Y-144906757D01*
X164106661Y-144907242D01*
X164620303Y-144695010D01*
X165013629Y-144302370D01*
X165099949Y-144094488D01*
X165184990Y-144300303D01*
X165577630Y-144693629D01*
X166090900Y-144906757D01*
X166646661Y-144907242D01*
X167160303Y-144695010D01*
X167553629Y-144302370D01*
X167639949Y-144094488D01*
X167724990Y-144300303D01*
X168117630Y-144693629D01*
X168630900Y-144906757D01*
X169186661Y-144907242D01*
X169700303Y-144695010D01*
X170093629Y-144302370D01*
X170179949Y-144094488D01*
X170264990Y-144300303D01*
X170657630Y-144693629D01*
X171170900Y-144906757D01*
X171726661Y-144907242D01*
X172240303Y-144695010D01*
X172633629Y-144302370D01*
X172719949Y-144094488D01*
X172804990Y-144300303D01*
X173197630Y-144693629D01*
X173230000Y-144707070D01*
X173230000Y-144780000D01*
X173287852Y-145070839D01*
X173452599Y-145317401D01*
X175992599Y-147857401D01*
X176063836Y-147905000D01*
X137845000Y-147905000D01*
X137845000Y-120065000D01*
X277663836Y-120065000D01*
X277592599Y-120112599D01*
X277592599Y-120112599D01*
G37*
X277592599Y-120112599D02*
X276545198Y-121160000D01*
X263074496Y-121160000D01*
X263006462Y-120995345D01*
X262547073Y-120535154D01*
X261946547Y-120285794D01*
X261296306Y-120285226D01*
X260695345Y-120533538D01*
X260235154Y-120992927D01*
X259985794Y-121593453D01*
X259985226Y-122243694D01*
X260233538Y-122844655D01*
X260692927Y-123304846D01*
X261293453Y-123554206D01*
X261943694Y-123554774D01*
X262450972Y-123345171D01*
X278042799Y-123345171D01*
X278070770Y-123895448D01*
X278227540Y-124273923D01*
X278468483Y-124341912D01*
X279260395Y-123550000D01*
X278468483Y-122758088D01*
X278227540Y-122826077D01*
X278042799Y-123345171D01*
X262450972Y-123345171D01*
X262544655Y-123306462D01*
X263004846Y-122847073D01*
X263074221Y-122680000D01*
X276860000Y-122680000D01*
X277150839Y-122622148D01*
X277216188Y-122578483D01*
X278648088Y-122578483D01*
X279440000Y-123370395D01*
X280231912Y-122578483D01*
X280163923Y-122337540D01*
X279644829Y-122152799D01*
X279094552Y-122180770D01*
X278716077Y-122337540D01*
X278648088Y-122578483D01*
X277216188Y-122578483D01*
X277397401Y-122457401D01*
X278444802Y-121410000D01*
X371795198Y-121410000D01*
X377700000Y-127314802D01*
X377700000Y-136880000D01*
X377757852Y-137170839D01*
X377922599Y-137417401D01*
X379633725Y-139128527D01*
X379565284Y-139293352D01*
X379564716Y-139943795D01*
X379813106Y-140544943D01*
X380272637Y-141005278D01*
X380873352Y-141254716D01*
X381523795Y-141255284D01*
X382124943Y-141006894D01*
X382585278Y-140547363D01*
X382834716Y-139946648D01*
X382835284Y-139296205D01*
X382586894Y-138695057D01*
X382127363Y-138234722D01*
X381526648Y-137985284D01*
X380876205Y-137984716D01*
X380708721Y-138053919D01*
X379220000Y-136565198D01*
X379220000Y-134943795D01*
X382064716Y-134943795D01*
X382313106Y-135544943D01*
X382772637Y-136005278D01*
X383373352Y-136254716D01*
X384023795Y-136255284D01*
X384624943Y-136006894D01*
X385085278Y-135547363D01*
X385334716Y-134946648D01*
X385335284Y-134296205D01*
X385086894Y-133695057D01*
X384627363Y-133234722D01*
X384026648Y-132985284D01*
X383376205Y-132984716D01*
X382775057Y-133233106D01*
X382314722Y-133692637D01*
X382065284Y-134293352D01*
X382064716Y-134943795D01*
X379220000Y-134943795D01*
X379220000Y-127443795D01*
X382064716Y-127443795D01*
X382313106Y-128044943D01*
X382772637Y-128505278D01*
X383373352Y-128754716D01*
X384023795Y-128755284D01*
X384624943Y-128506894D01*
X385085278Y-128047363D01*
X385334716Y-127446648D01*
X385335284Y-126796205D01*
X385086894Y-126195057D01*
X384627363Y-125734722D01*
X384026648Y-125485284D01*
X383376205Y-125484716D01*
X382775057Y-125733106D01*
X382314722Y-126192637D01*
X382065284Y-126793352D01*
X382064716Y-127443795D01*
X379220000Y-127443795D01*
X379220000Y-127000000D01*
X379162148Y-126709161D01*
X378997401Y-126462599D01*
X372647401Y-120112599D01*
X372576164Y-120065000D01*
X395555000Y-120065000D01*
X395555000Y-147905000D01*
X387816164Y-147905000D01*
X387887401Y-147857401D01*
X389157401Y-146587401D01*
X389322148Y-146340840D01*
X389380000Y-146050000D01*
X389380000Y-137443795D01*
X392064716Y-137443795D01*
X392313106Y-138044943D01*
X392772637Y-138505278D01*
X393373352Y-138754716D01*
X394023795Y-138755284D01*
X394624943Y-138506894D01*
X395085278Y-138047363D01*
X395334716Y-137446648D01*
X395335284Y-136796205D01*
X395086894Y-136195057D01*
X394627363Y-135734722D01*
X394026648Y-135485284D01*
X393376205Y-135484716D01*
X392775057Y-135733106D01*
X392314722Y-136192637D01*
X392065284Y-136793352D01*
X392064716Y-137443795D01*
X389380000Y-137443795D01*
X389380000Y-134620000D01*
X389322148Y-134329161D01*
X389157401Y-134082599D01*
X387518597Y-132443795D01*
X392064716Y-132443795D01*
X392313106Y-133044943D01*
X392772637Y-133505278D01*
X393373352Y-133754716D01*
X394023795Y-133755284D01*
X394624943Y-133506894D01*
X395085278Y-133047363D01*
X395334716Y-132446648D01*
X395335284Y-131796205D01*
X395086894Y-131195057D01*
X394627363Y-130734722D01*
X394026648Y-130485284D01*
X393376205Y-130484716D01*
X392775057Y-130733106D01*
X392314722Y-131192637D01*
X392065284Y-131793352D01*
X392064716Y-132443795D01*
X387518597Y-132443795D01*
X384157401Y-129082599D01*
X383910839Y-128917852D01*
X383620000Y-128860000D01*
X382655047Y-128860000D01*
X382586894Y-128695057D01*
X382127363Y-128234722D01*
X381526648Y-127985284D01*
X380876205Y-127984716D01*
X380275057Y-128233106D01*
X379814722Y-128692637D01*
X379565284Y-129293352D01*
X379564716Y-129943795D01*
X379813106Y-130544943D01*
X380272637Y-131005278D01*
X380873352Y-131254716D01*
X381523795Y-131255284D01*
X382124943Y-131006894D01*
X382585278Y-130547363D01*
X382654773Y-130380000D01*
X383305198Y-130380000D01*
X387860000Y-134934802D01*
X387860000Y-145735198D01*
X387035198Y-146560000D01*
X336864802Y-146560000D01*
X335817401Y-145512599D01*
X335570839Y-145347852D01*
X335481018Y-145329985D01*
X335396462Y-145125345D01*
X334937073Y-144665154D01*
X334336547Y-144415794D01*
X333686306Y-144415226D01*
X333085345Y-144663538D01*
X332625154Y-145122927D01*
X332375794Y-145723453D01*
X332375226Y-146373694D01*
X332623538Y-146974655D01*
X333082927Y-147434846D01*
X333683453Y-147684206D01*
X334333694Y-147684774D01*
X334934655Y-147436462D01*
X335263444Y-147108246D01*
X336012599Y-147857401D01*
X336083836Y-147905000D01*
X320506164Y-147905000D01*
X320577401Y-147857401D01*
X321624802Y-146810000D01*
X322395504Y-146810000D01*
X322463538Y-146974655D01*
X322922927Y-147434846D01*
X323523453Y-147684206D01*
X324173694Y-147684774D01*
X324774655Y-147436462D01*
X325234846Y-146977073D01*
X325484206Y-146376547D01*
X325484774Y-145726306D01*
X325236462Y-145125345D01*
X324777073Y-144665154D01*
X324176547Y-144415794D01*
X323526306Y-144415226D01*
X322925345Y-144663538D01*
X322465154Y-145122927D01*
X322395779Y-145290000D01*
X321310000Y-145290000D01*
X321019160Y-145347852D01*
X320772599Y-145512599D01*
X319725198Y-146560000D01*
X300284802Y-146560000D01*
X304067401Y-142777401D01*
X304232148Y-142530839D01*
X304249462Y-142443795D01*
X382064716Y-142443795D01*
X382313106Y-143044943D01*
X382772637Y-143505278D01*
X383373352Y-143754716D01*
X384023795Y-143755284D01*
X384624943Y-143506894D01*
X385085278Y-143047363D01*
X385334716Y-142446648D01*
X385335284Y-141796205D01*
X385086894Y-141195057D01*
X384627363Y-140734722D01*
X384026648Y-140485284D01*
X383376205Y-140484716D01*
X382775057Y-140733106D01*
X382314722Y-141192637D01*
X382065284Y-141793352D01*
X382064716Y-142443795D01*
X304249462Y-142443795D01*
X304290000Y-142240000D01*
X304290000Y-139874873D01*
X369194812Y-139874873D01*
X369359646Y-140273800D01*
X369664595Y-140579282D01*
X370063233Y-140744811D01*
X370494873Y-140745188D01*
X370893800Y-140580354D01*
X371199282Y-140275405D01*
X371364811Y-139876767D01*
X371365188Y-139445127D01*
X371200354Y-139046200D01*
X370895405Y-138740718D01*
X370496767Y-138575189D01*
X370065127Y-138574812D01*
X369666200Y-138739646D01*
X369360718Y-139044595D01*
X369195189Y-139443233D01*
X369194812Y-139874873D01*
X304290000Y-139874873D01*
X304290000Y-138615047D01*
X304454943Y-138546894D01*
X304915278Y-138087363D01*
X305141230Y-137543207D01*
X308344665Y-137543207D01*
X308638630Y-138254658D01*
X309182479Y-138799457D01*
X309893416Y-139094663D01*
X310663207Y-139095335D01*
X311374658Y-138801370D01*
X311919457Y-138257521D01*
X312214663Y-137546584D01*
X312214665Y-137543207D01*
X355844665Y-137543207D01*
X356138630Y-138254658D01*
X356682479Y-138799457D01*
X357393416Y-139094663D01*
X358163207Y-139095335D01*
X358874658Y-138801370D01*
X359419457Y-138257521D01*
X359714663Y-137546584D01*
X359715335Y-136776793D01*
X359668625Y-136663745D01*
X369705860Y-136663745D01*
X369736803Y-136873712D01*
X370146948Y-137008226D01*
X370577349Y-136975546D01*
X370823197Y-136873712D01*
X370854140Y-136663745D01*
X370280000Y-136089605D01*
X369705860Y-136663745D01*
X359668625Y-136663745D01*
X359421370Y-136065342D01*
X359133479Y-135776948D01*
X369181774Y-135776948D01*
X369214454Y-136207349D01*
X369316288Y-136453197D01*
X369526255Y-136484140D01*
X370100395Y-135910000D01*
X370459605Y-135910000D01*
X371033745Y-136484140D01*
X371243712Y-136453197D01*
X371378226Y-136043052D01*
X371345546Y-135612651D01*
X371243712Y-135366803D01*
X371033745Y-135335860D01*
X370459605Y-135910000D01*
X370100395Y-135910000D01*
X369526255Y-135335860D01*
X369316288Y-135366803D01*
X369181774Y-135776948D01*
X359133479Y-135776948D01*
X358877521Y-135520543D01*
X358166584Y-135225337D01*
X357396793Y-135224665D01*
X356685342Y-135518630D01*
X356140543Y-136062479D01*
X355845337Y-136773416D01*
X355844665Y-137543207D01*
X312214665Y-137543207D01*
X312215335Y-136776793D01*
X311921370Y-136065342D01*
X311377521Y-135520543D01*
X310666584Y-135225337D01*
X309896793Y-135224665D01*
X309185342Y-135518630D01*
X308640543Y-136062479D01*
X308345337Y-136773416D01*
X308344665Y-137543207D01*
X305141230Y-137543207D01*
X305164716Y-137486648D01*
X305165284Y-136836205D01*
X304916894Y-136235057D01*
X304457363Y-135774722D01*
X303856648Y-135525284D01*
X303206205Y-135524716D01*
X302605057Y-135773106D01*
X302144722Y-136232637D01*
X301895284Y-136833352D01*
X301894716Y-137483795D01*
X302143106Y-138084943D01*
X302602637Y-138545278D01*
X302770000Y-138614773D01*
X302770000Y-141925198D01*
X299405198Y-145290000D01*
X267264802Y-145290000D01*
X271081007Y-141473795D01*
X273504716Y-141473795D01*
X273753106Y-142074943D01*
X274212637Y-142535278D01*
X274813352Y-142784716D01*
X275463795Y-142785284D01*
X276064943Y-142536894D01*
X276176865Y-142425167D01*
X277194838Y-142425167D01*
X277336883Y-142768943D01*
X277599673Y-143032192D01*
X277943201Y-143174838D01*
X278315167Y-143175162D01*
X278658943Y-143033117D01*
X278922192Y-142770327D01*
X279064838Y-142426799D01*
X279064879Y-142379923D01*
X279971007Y-141473795D01*
X287104716Y-141473795D01*
X287353106Y-142074943D01*
X287812637Y-142535278D01*
X288413352Y-142784716D01*
X289063795Y-142785284D01*
X289664943Y-142536894D01*
X290125278Y-142077363D01*
X290374716Y-141476648D01*
X290375284Y-140826205D01*
X290126894Y-140225057D01*
X289667363Y-139764722D01*
X289066648Y-139515284D01*
X288416205Y-139514716D01*
X287815057Y-139763106D01*
X287354722Y-140222637D01*
X287105284Y-140823352D01*
X287104716Y-141473795D01*
X279971007Y-141473795D01*
X282819929Y-138624873D01*
X299194812Y-138624873D01*
X299359646Y-139023800D01*
X299370579Y-139034752D01*
X299360718Y-139044595D01*
X299195189Y-139443233D01*
X299194812Y-139874873D01*
X299359646Y-140273800D01*
X299664595Y-140579282D01*
X300063233Y-140744811D01*
X300494873Y-140745188D01*
X300893800Y-140580354D01*
X301199282Y-140275405D01*
X301364811Y-139876767D01*
X301365188Y-139445127D01*
X301200354Y-139046200D01*
X301189421Y-139035248D01*
X301199282Y-139025405D01*
X301364811Y-138626767D01*
X301365188Y-138195127D01*
X301200354Y-137796200D01*
X300895405Y-137490718D01*
X300496767Y-137325189D01*
X300065127Y-137324812D01*
X299666200Y-137489646D01*
X299360718Y-137794595D01*
X299195189Y-138193233D01*
X299194812Y-138624873D01*
X282819929Y-138624873D01*
X284010615Y-137434187D01*
X288754752Y-137434187D01*
X288972757Y-137961800D01*
X289376077Y-138365824D01*
X289903309Y-138584750D01*
X290474187Y-138585248D01*
X291001800Y-138367243D01*
X291405824Y-137963923D01*
X291624750Y-137436691D01*
X291624752Y-137434187D01*
X293254752Y-137434187D01*
X293472757Y-137961800D01*
X293876077Y-138365824D01*
X294403309Y-138584750D01*
X294974187Y-138585248D01*
X295501800Y-138367243D01*
X295905824Y-137963923D01*
X296124750Y-137436691D01*
X296125248Y-136865813D01*
X295907243Y-136338200D01*
X295503923Y-135934176D01*
X294976691Y-135715250D01*
X294405813Y-135714752D01*
X293878200Y-135932757D01*
X293474176Y-136336077D01*
X293255250Y-136863309D01*
X293254752Y-137434187D01*
X291624752Y-137434187D01*
X291625248Y-136865813D01*
X291407243Y-136338200D01*
X291003923Y-135934176D01*
X290476691Y-135715250D01*
X289905813Y-135714752D01*
X289378200Y-135932757D01*
X288974176Y-136336077D01*
X288755250Y-136863309D01*
X288754752Y-137434187D01*
X284010615Y-137434187D01*
X286569929Y-134874873D01*
X299194812Y-134874873D01*
X299359646Y-135273800D01*
X299370579Y-135284752D01*
X299360718Y-135294595D01*
X299195189Y-135693233D01*
X299194812Y-136124873D01*
X299359646Y-136523800D01*
X299664595Y-136829282D01*
X300063233Y-136994811D01*
X300494873Y-136995188D01*
X300893800Y-136830354D01*
X301199282Y-136525405D01*
X301364811Y-136126767D01*
X301365188Y-135695127D01*
X301200354Y-135296200D01*
X301189421Y-135285248D01*
X301199282Y-135275405D01*
X301248757Y-135156255D01*
X369705860Y-135156255D01*
X370280000Y-135730395D01*
X370854140Y-135156255D01*
X370823197Y-134946288D01*
X370413052Y-134811774D01*
X369982651Y-134844454D01*
X369736803Y-134946288D01*
X369705860Y-135156255D01*
X301248757Y-135156255D01*
X301364811Y-134876767D01*
X301365188Y-134445127D01*
X301200354Y-134046200D01*
X300895405Y-133740718D01*
X300496767Y-133575189D01*
X300065127Y-133574812D01*
X299666200Y-133739646D01*
X299360718Y-134044595D01*
X299195189Y-134443233D01*
X299194812Y-134874873D01*
X286569929Y-134874873D01*
X289041007Y-132403795D01*
X301894716Y-132403795D01*
X302143106Y-133004943D01*
X302602637Y-133465278D01*
X303203352Y-133714716D01*
X303853795Y-133715284D01*
X304454943Y-133466894D01*
X304915278Y-133007363D01*
X305164716Y-132406648D01*
X305165284Y-131756205D01*
X304916894Y-131155057D01*
X304457363Y-130694722D01*
X303856648Y-130445284D01*
X303206205Y-130444716D01*
X302605057Y-130693106D01*
X302144722Y-131152637D01*
X301895284Y-131753352D01*
X301894716Y-132403795D01*
X289041007Y-132403795D01*
X290459567Y-130985235D01*
X290474187Y-130985248D01*
X291001800Y-130767243D01*
X291405824Y-130363923D01*
X291624750Y-129836691D01*
X291624752Y-129834187D01*
X293254752Y-129834187D01*
X293472757Y-130361800D01*
X293876077Y-130765824D01*
X294403309Y-130984750D01*
X294974187Y-130985248D01*
X295501800Y-130767243D01*
X295905824Y-130363923D01*
X296124750Y-129836691D01*
X296125248Y-129265813D01*
X295907243Y-128738200D01*
X295503923Y-128334176D01*
X294976691Y-128115250D01*
X294405813Y-128114752D01*
X293878200Y-128332757D01*
X293474176Y-128736077D01*
X293255250Y-129263309D01*
X293254752Y-129834187D01*
X291624752Y-129834187D01*
X291625248Y-129265813D01*
X291407243Y-128738200D01*
X291003923Y-128334176D01*
X290476691Y-128115250D01*
X289905813Y-128114752D01*
X289378200Y-128332757D01*
X288974176Y-128736077D01*
X288755250Y-129263309D01*
X288754752Y-129834187D01*
X288961249Y-130333949D01*
X277990320Y-141304878D01*
X277944833Y-141304838D01*
X277601057Y-141446883D01*
X277337808Y-141709673D01*
X277195162Y-142053201D01*
X277194838Y-142425167D01*
X276176865Y-142425167D01*
X276525278Y-142077363D01*
X276774716Y-141476648D01*
X276775284Y-140826205D01*
X276526894Y-140225057D01*
X276067363Y-139764722D01*
X275466648Y-139515284D01*
X274816205Y-139514716D01*
X274215057Y-139763106D01*
X273754722Y-140222637D01*
X273505284Y-140823352D01*
X273504716Y-141473795D01*
X271081007Y-141473795D01*
X274857401Y-137697401D01*
X275022148Y-137450840D01*
X275080000Y-137160000D01*
X275080000Y-132394802D01*
X280279929Y-127194873D01*
X299194812Y-127194873D01*
X299359646Y-127593800D01*
X299370579Y-127604752D01*
X299360718Y-127614595D01*
X299195189Y-128013233D01*
X299194812Y-128444873D01*
X299359646Y-128843800D01*
X299664595Y-129149282D01*
X300063233Y-129314811D01*
X300494873Y-129315188D01*
X300893800Y-129150354D01*
X301199282Y-128845405D01*
X301364811Y-128446767D01*
X301364812Y-128444873D01*
X369194812Y-128444873D01*
X369359646Y-128843800D01*
X369664595Y-129149282D01*
X370063233Y-129314811D01*
X370494873Y-129315188D01*
X370893800Y-129150354D01*
X371199282Y-128845405D01*
X371364811Y-128446767D01*
X371365188Y-128015127D01*
X371200354Y-127616200D01*
X370895405Y-127310718D01*
X370496767Y-127145189D01*
X370065127Y-127144812D01*
X369666200Y-127309646D01*
X369360718Y-127614595D01*
X369195189Y-128013233D01*
X369194812Y-128444873D01*
X301364812Y-128444873D01*
X301365188Y-128015127D01*
X301200354Y-127616200D01*
X301189421Y-127605248D01*
X301199282Y-127595405D01*
X301364811Y-127196767D01*
X301365188Y-126765127D01*
X301200354Y-126366200D01*
X300947803Y-126113207D01*
X308344665Y-126113207D01*
X308638630Y-126824658D01*
X309182479Y-127369457D01*
X309893416Y-127664663D01*
X310663207Y-127665335D01*
X311374658Y-127371370D01*
X311919457Y-126827521D01*
X312214663Y-126116584D01*
X312214665Y-126113207D01*
X355844665Y-126113207D01*
X356138630Y-126824658D01*
X356682479Y-127369457D01*
X357393416Y-127664663D01*
X358163207Y-127665335D01*
X358874658Y-127371370D01*
X359419457Y-126827521D01*
X359714663Y-126116584D01*
X359715335Y-125346793D01*
X359668625Y-125233745D01*
X369705860Y-125233745D01*
X369736803Y-125443712D01*
X370146948Y-125578226D01*
X370577349Y-125545546D01*
X370823197Y-125443712D01*
X370854140Y-125233745D01*
X370280000Y-124659605D01*
X369705860Y-125233745D01*
X359668625Y-125233745D01*
X359421370Y-124635342D01*
X359133479Y-124346948D01*
X369181774Y-124346948D01*
X369214454Y-124777349D01*
X369316288Y-125023197D01*
X369526255Y-125054140D01*
X370100395Y-124480000D01*
X370459605Y-124480000D01*
X371033745Y-125054140D01*
X371243712Y-125023197D01*
X371378226Y-124613052D01*
X371345546Y-124182651D01*
X371243712Y-123936803D01*
X371033745Y-123905860D01*
X370459605Y-124480000D01*
X370100395Y-124480000D01*
X369526255Y-123905860D01*
X369316288Y-123936803D01*
X369181774Y-124346948D01*
X359133479Y-124346948D01*
X358877521Y-124090543D01*
X358166584Y-123795337D01*
X357396793Y-123794665D01*
X356685342Y-124088630D01*
X356140543Y-124632479D01*
X355845337Y-125343416D01*
X355844665Y-126113207D01*
X312214665Y-126113207D01*
X312215335Y-125346793D01*
X311921370Y-124635342D01*
X311377521Y-124090543D01*
X310666584Y-123795337D01*
X309896793Y-123794665D01*
X309185342Y-124088630D01*
X308640543Y-124632479D01*
X308345337Y-125343416D01*
X308344665Y-126113207D01*
X300947803Y-126113207D01*
X300895405Y-126060718D01*
X300496767Y-125895189D01*
X300065127Y-125894812D01*
X299666200Y-126059646D01*
X299360718Y-126364595D01*
X299195189Y-126763233D01*
X299194812Y-127194873D01*
X280279929Y-127194873D01*
X281601007Y-125873795D01*
X287104716Y-125873795D01*
X287353106Y-126474943D01*
X287812637Y-126935278D01*
X288413352Y-127184716D01*
X289063795Y-127185284D01*
X289664943Y-126936894D01*
X290125278Y-126477363D01*
X290374716Y-125876648D01*
X290375284Y-125226205D01*
X290126894Y-124625057D01*
X289667363Y-124164722D01*
X289066648Y-123915284D01*
X288416205Y-123914716D01*
X287815057Y-124163106D01*
X287354722Y-124622637D01*
X287105284Y-125223352D01*
X287104716Y-125873795D01*
X281601007Y-125873795D01*
X282477401Y-124997401D01*
X282635123Y-124761354D01*
X282723515Y-124724831D01*
X283113461Y-124335564D01*
X283189927Y-124151414D01*
X283265169Y-124333515D01*
X283654436Y-124723461D01*
X284163298Y-124934759D01*
X284714285Y-124935240D01*
X285223515Y-124724831D01*
X285613461Y-124335564D01*
X285824759Y-123826702D01*
X285825092Y-123444873D01*
X299194812Y-123444873D01*
X299359646Y-123843800D01*
X299370579Y-123854752D01*
X299360718Y-123864595D01*
X299195189Y-124263233D01*
X299194812Y-124694873D01*
X299359646Y-125093800D01*
X299664595Y-125399282D01*
X300063233Y-125564811D01*
X300494873Y-125565188D01*
X300893800Y-125400354D01*
X301199282Y-125095405D01*
X301364811Y-124696767D01*
X301365188Y-124265127D01*
X301200354Y-123866200D01*
X301189421Y-123855248D01*
X301199282Y-123845405D01*
X301248757Y-123726255D01*
X369705860Y-123726255D01*
X370280000Y-124300395D01*
X370854140Y-123726255D01*
X370823197Y-123516288D01*
X370413052Y-123381774D01*
X369982651Y-123414454D01*
X369736803Y-123516288D01*
X369705860Y-123726255D01*
X301248757Y-123726255D01*
X301364811Y-123446767D01*
X301365188Y-123015127D01*
X301200354Y-122616200D01*
X300895405Y-122310718D01*
X300496767Y-122145189D01*
X300065127Y-122144812D01*
X299666200Y-122309646D01*
X299360718Y-122614595D01*
X299195189Y-123013233D01*
X299194812Y-123444873D01*
X285825092Y-123444873D01*
X285825240Y-123275715D01*
X285614831Y-122766485D01*
X285225564Y-122376539D01*
X284716702Y-122165241D01*
X284165715Y-122164760D01*
X283656485Y-122375169D01*
X283266539Y-122764436D01*
X283190073Y-122948586D01*
X283114831Y-122766485D01*
X282725564Y-122376539D01*
X282216702Y-122165241D01*
X281665715Y-122164760D01*
X281156485Y-122375169D01*
X280766539Y-122764436D01*
X280696647Y-122932754D01*
X280652460Y-122826077D01*
X280411517Y-122758088D01*
X279619605Y-123550000D01*
X280411517Y-124341912D01*
X280652460Y-124273923D01*
X280693222Y-124159389D01*
X280765169Y-124333515D01*
X280878327Y-124446871D01*
X273782599Y-131542599D01*
X273617852Y-131789161D01*
X273560000Y-132080000D01*
X273560000Y-136845198D01*
X266385198Y-144020000D01*
X222814802Y-144020000D01*
X225224802Y-141610000D01*
X231954453Y-141610000D01*
X232081043Y-141916372D01*
X232610839Y-142447093D01*
X233303405Y-142734672D01*
X234053305Y-142735326D01*
X234746372Y-142448957D01*
X235277093Y-141919161D01*
X235564672Y-141226595D01*
X235565326Y-140476695D01*
X235278957Y-139783628D01*
X234749161Y-139252907D01*
X234597664Y-139190000D01*
X236145198Y-139190000D01*
X238342599Y-141387401D01*
X238589161Y-141552148D01*
X238880000Y-141610000D01*
X247194453Y-141610000D01*
X247321043Y-141916372D01*
X247850839Y-142447093D01*
X248543405Y-142734672D01*
X249293305Y-142735326D01*
X249986372Y-142448957D01*
X250517093Y-141919161D01*
X250804672Y-141226595D01*
X250805326Y-140476695D01*
X250518957Y-139783628D01*
X249989161Y-139252907D01*
X249296595Y-138965328D01*
X248546695Y-138964674D01*
X247853628Y-139251043D01*
X247322907Y-139780839D01*
X247194532Y-140090000D01*
X239194802Y-140090000D01*
X236997401Y-137892599D01*
X236750839Y-137727852D01*
X236460000Y-137670000D01*
X228994745Y-137670000D01*
X229124811Y-137356767D01*
X229125188Y-136925127D01*
X228960354Y-136526200D01*
X228655405Y-136220718D01*
X228256767Y-136055189D01*
X227825127Y-136054812D01*
X227426200Y-136219646D01*
X227120718Y-136524595D01*
X226955189Y-136923233D01*
X226954812Y-137354873D01*
X227085020Y-137670000D01*
X216299147Y-137670000D01*
X216634658Y-137531370D01*
X217179457Y-136987521D01*
X217474663Y-136276584D01*
X217475335Y-135506793D01*
X217181370Y-134795342D01*
X216637521Y-134250543D01*
X215926584Y-133955337D01*
X215156793Y-133954665D01*
X214445342Y-134248630D01*
X213900543Y-134792479D01*
X213605337Y-135503416D01*
X213604665Y-136273207D01*
X213898630Y-136984658D01*
X214442479Y-137529457D01*
X214780945Y-137670000D01*
X193602463Y-137670000D01*
X193570327Y-137637808D01*
X193226799Y-137495162D01*
X192854833Y-137494838D01*
X192511057Y-137636883D01*
X192247808Y-137899673D01*
X192105162Y-138243201D01*
X192104838Y-138615167D01*
X192178679Y-138793877D01*
X190007401Y-136622599D01*
X189760839Y-136457852D01*
X189470000Y-136400000D01*
X187004802Y-136400000D01*
X179960145Y-129355343D01*
X180253629Y-129062370D01*
X180339949Y-128854488D01*
X180424990Y-129060303D01*
X180817630Y-129453629D01*
X181330900Y-129666757D01*
X181886661Y-129667242D01*
X182400303Y-129455010D01*
X182793629Y-129062370D01*
X182879949Y-128854488D01*
X182964990Y-129060303D01*
X183357630Y-129453629D01*
X183870900Y-129666757D01*
X184426661Y-129667242D01*
X184940303Y-129455010D01*
X185333629Y-129062370D01*
X185419949Y-128854488D01*
X185504990Y-129060303D01*
X185897630Y-129453629D01*
X186410900Y-129666757D01*
X186966661Y-129667242D01*
X187480303Y-129455010D01*
X187873629Y-129062370D01*
X188086757Y-128549100D01*
X188086839Y-128454775D01*
X193174803Y-128454775D01*
X193347233Y-128872086D01*
X193666235Y-129191645D01*
X194083244Y-129364803D01*
X194534775Y-129365197D01*
X194952086Y-129192767D01*
X195155207Y-128990000D01*
X213005198Y-128990000D01*
X216682453Y-132667255D01*
X216555328Y-132973405D01*
X216554674Y-133723305D01*
X216841043Y-134416372D01*
X217370839Y-134947093D01*
X218063405Y-135234672D01*
X218813305Y-135235326D01*
X219506372Y-134948957D01*
X220037093Y-134419161D01*
X220165468Y-134110000D01*
X223520000Y-134110000D01*
X223810839Y-134052148D01*
X224057401Y-133887401D01*
X224339929Y-133604873D01*
X226954812Y-133604873D01*
X227119646Y-134003800D01*
X227424595Y-134309282D01*
X227823233Y-134474811D01*
X228254873Y-134475188D01*
X228653800Y-134310354D01*
X228959282Y-134005405D01*
X229124811Y-133606767D01*
X229125188Y-133175127D01*
X228960354Y-132776200D01*
X228655405Y-132470718D01*
X228256767Y-132305189D01*
X227825127Y-132304812D01*
X227426200Y-132469646D01*
X227120718Y-132774595D01*
X226955189Y-133173233D01*
X226954812Y-133604873D01*
X224339929Y-133604873D01*
X226374802Y-131570000D01*
X230825198Y-131570000D01*
X231922453Y-132667255D01*
X231795328Y-132973405D01*
X231794674Y-133723305D01*
X232081043Y-134416372D01*
X232610839Y-134947093D01*
X233303405Y-135234672D01*
X234053305Y-135235326D01*
X234746372Y-134948957D01*
X235277093Y-134419161D01*
X235405468Y-134110000D01*
X247194453Y-134110000D01*
X247321043Y-134416372D01*
X247850839Y-134947093D01*
X248543405Y-135234672D01*
X249293305Y-135235326D01*
X249986372Y-134948957D01*
X250517093Y-134419161D01*
X250645468Y-134110000D01*
X262434453Y-134110000D01*
X262561043Y-134416372D01*
X263090839Y-134947093D01*
X263783405Y-135234672D01*
X264533305Y-135235326D01*
X265226372Y-134948957D01*
X265757093Y-134419161D01*
X266044672Y-133726595D01*
X266045326Y-132976695D01*
X265758957Y-132283628D01*
X265229161Y-131752907D01*
X264536595Y-131465328D01*
X263786695Y-131464674D01*
X263093628Y-131751043D01*
X262562907Y-132280839D01*
X262434532Y-132590000D01*
X250645547Y-132590000D01*
X250518957Y-132283628D01*
X249989161Y-131752907D01*
X249296595Y-131465328D01*
X248546695Y-131464674D01*
X247853628Y-131751043D01*
X247322907Y-132280839D01*
X247194532Y-132590000D01*
X235405547Y-132590000D01*
X235278957Y-132283628D01*
X234749161Y-131752907D01*
X234056595Y-131465328D01*
X233306695Y-131464674D01*
X232997311Y-131592509D01*
X231677401Y-130272599D01*
X231430839Y-130107852D01*
X231140000Y-130050000D01*
X226060000Y-130050000D01*
X225817414Y-130098254D01*
X225769160Y-130107852D01*
X225522599Y-130272599D01*
X223205198Y-132590000D01*
X220165547Y-132590000D01*
X220038957Y-132283628D01*
X219509161Y-131752907D01*
X218816595Y-131465328D01*
X218066695Y-131464674D01*
X217757311Y-131592509D01*
X213857401Y-127692599D01*
X213610839Y-127527852D01*
X213320000Y-127470000D01*
X195155059Y-127470000D01*
X194953765Y-127268355D01*
X194536756Y-127095197D01*
X194085225Y-127094803D01*
X193667914Y-127267233D01*
X193348355Y-127586235D01*
X193175197Y-128003244D01*
X193174803Y-128454775D01*
X188086839Y-128454775D01*
X188087242Y-127993339D01*
X187875010Y-127479697D01*
X187482370Y-127086371D01*
X186969100Y-126873243D01*
X186413339Y-126872758D01*
X185899697Y-127084990D01*
X185506371Y-127477630D01*
X185420051Y-127685512D01*
X185335010Y-127479697D01*
X184942370Y-127086371D01*
X184429100Y-126873243D01*
X183873339Y-126872758D01*
X183359697Y-127084990D01*
X182966371Y-127477630D01*
X182880051Y-127685512D01*
X182795010Y-127479697D01*
X182500315Y-127184487D01*
X183730027Y-125954775D01*
X193174803Y-125954775D01*
X193347233Y-126372086D01*
X193666235Y-126691645D01*
X194083244Y-126864803D01*
X194534775Y-126865197D01*
X194952086Y-126692767D01*
X195271645Y-126373765D01*
X195444803Y-125956756D01*
X195445197Y-125505225D01*
X195272767Y-125087914D01*
X194953765Y-124768355D01*
X194536756Y-124595197D01*
X194085225Y-124594803D01*
X193667914Y-124767233D01*
X193348355Y-125086235D01*
X193175197Y-125503244D01*
X193174803Y-125954775D01*
X183730027Y-125954775D01*
X187004802Y-122680000D01*
X193309420Y-122680000D01*
X193175197Y-123003244D01*
X193174803Y-123454775D01*
X193347233Y-123872086D01*
X193666235Y-124191645D01*
X194083244Y-124364803D01*
X194534775Y-124365197D01*
X194952086Y-124192767D01*
X195155207Y-123990000D01*
X215505198Y-123990000D01*
X216542560Y-125027362D01*
X216542560Y-127100000D01*
X216586838Y-127335317D01*
X216699243Y-127510000D01*
X216462463Y-127510000D01*
X216430327Y-127477808D01*
X216086799Y-127335162D01*
X215714833Y-127334838D01*
X215371057Y-127476883D01*
X215107808Y-127739673D01*
X214965162Y-128083201D01*
X214964838Y-128455167D01*
X215106883Y-128798943D01*
X215369673Y-129062192D01*
X215713201Y-129204838D01*
X216085167Y-129205162D01*
X216428943Y-129063117D01*
X216462118Y-129030000D01*
X259787537Y-129030000D01*
X259819673Y-129062192D01*
X260163201Y-129204838D01*
X260535167Y-129205162D01*
X260878943Y-129063117D01*
X261142192Y-128800327D01*
X261284838Y-128456799D01*
X261285162Y-128084833D01*
X261143117Y-127741057D01*
X260880327Y-127477808D01*
X260536799Y-127335162D01*
X260164833Y-127334838D01*
X259821057Y-127476883D01*
X259787882Y-127510000D01*
X250658399Y-127510000D01*
X250766431Y-127351890D01*
X250817440Y-127100000D01*
X250817440Y-126610000D01*
X260155198Y-126610000D01*
X267210000Y-133664802D01*
X267210000Y-136725198D01*
X264982638Y-138952560D01*
X262910000Y-138952560D01*
X262674683Y-138996838D01*
X262458559Y-139135910D01*
X262313569Y-139348110D01*
X262262560Y-139600000D01*
X262262560Y-142100000D01*
X262306838Y-142335317D01*
X262445910Y-142551441D01*
X262658110Y-142696431D01*
X262910000Y-142747440D01*
X265410000Y-142747440D01*
X265645317Y-142703162D01*
X265861441Y-142564090D01*
X266006431Y-142351890D01*
X266057440Y-142100000D01*
X266057440Y-140027362D01*
X268507401Y-137577401D01*
X268672148Y-137330839D01*
X268730000Y-137040000D01*
X268730000Y-136821517D01*
X271348088Y-136821517D01*
X271416077Y-137062460D01*
X271935171Y-137247201D01*
X272485448Y-137219230D01*
X272863923Y-137062460D01*
X272931912Y-136821517D01*
X272140000Y-136029605D01*
X271348088Y-136821517D01*
X268730000Y-136821517D01*
X268730000Y-135645171D01*
X270742799Y-135645171D01*
X270770770Y-136195448D01*
X270927540Y-136573923D01*
X271168483Y-136641912D01*
X271960395Y-135850000D01*
X272319605Y-135850000D01*
X273111517Y-136641912D01*
X273352460Y-136573923D01*
X273537201Y-136054829D01*
X273509230Y-135504552D01*
X273352460Y-135126077D01*
X273111517Y-135058088D01*
X272319605Y-135850000D01*
X271960395Y-135850000D01*
X271168483Y-135058088D01*
X270927540Y-135126077D01*
X270742799Y-135645171D01*
X268730000Y-135645171D01*
X268730000Y-133350000D01*
X268672148Y-133059161D01*
X268507401Y-132812599D01*
X266819087Y-131124285D01*
X270754760Y-131124285D01*
X270965169Y-131633515D01*
X271354436Y-132023461D01*
X271538586Y-132099927D01*
X271356485Y-132175169D01*
X270966539Y-132564436D01*
X270755241Y-133073298D01*
X270754760Y-133624285D01*
X270965169Y-134133515D01*
X271354436Y-134523461D01*
X271522754Y-134593353D01*
X271416077Y-134637540D01*
X271348088Y-134878483D01*
X272140000Y-135670395D01*
X272931912Y-134878483D01*
X272863923Y-134637540D01*
X272749389Y-134596778D01*
X272923515Y-134524831D01*
X273313461Y-134135564D01*
X273524759Y-133626702D01*
X273525240Y-133075715D01*
X273314831Y-132566485D01*
X272925564Y-132176539D01*
X272741414Y-132100073D01*
X272923515Y-132024831D01*
X273313461Y-131635564D01*
X273524759Y-131126702D01*
X273525240Y-130575715D01*
X273314831Y-130066485D01*
X272925564Y-129676539D01*
X272416702Y-129465241D01*
X271865715Y-129464760D01*
X271356485Y-129675169D01*
X270966539Y-130064436D01*
X270755241Y-130573298D01*
X270754760Y-131124285D01*
X266819087Y-131124285D01*
X263178150Y-127483348D01*
X263783405Y-127734672D01*
X264533305Y-127735326D01*
X265226372Y-127448957D01*
X265757093Y-126919161D01*
X266044672Y-126226595D01*
X266044979Y-125873795D01*
X273504716Y-125873795D01*
X273753106Y-126474943D01*
X274212637Y-126935278D01*
X274813352Y-127184716D01*
X275463795Y-127185284D01*
X276064943Y-126936894D01*
X276525278Y-126477363D01*
X276774716Y-125876648D01*
X276775284Y-125226205D01*
X276526894Y-124625057D01*
X276423535Y-124521517D01*
X278648088Y-124521517D01*
X278716077Y-124762460D01*
X279235171Y-124947201D01*
X279785448Y-124919230D01*
X280163923Y-124762460D01*
X280231912Y-124521517D01*
X279440000Y-123729605D01*
X278648088Y-124521517D01*
X276423535Y-124521517D01*
X276067363Y-124164722D01*
X275466648Y-123915284D01*
X274816205Y-123914716D01*
X274215057Y-124163106D01*
X273754722Y-124622637D01*
X273505284Y-125223352D01*
X273504716Y-125873795D01*
X266044979Y-125873795D01*
X266045326Y-125476695D01*
X265758957Y-124783628D01*
X265229161Y-124252907D01*
X264536595Y-123965328D01*
X263786695Y-123964674D01*
X263093628Y-124251043D01*
X262562907Y-124780839D01*
X262275328Y-125473405D01*
X262274674Y-126223305D01*
X262525744Y-126830942D01*
X261007401Y-125312599D01*
X260760839Y-125147852D01*
X260470000Y-125090000D01*
X250817440Y-125090000D01*
X250817440Y-124600000D01*
X250773162Y-124364683D01*
X250634090Y-124148559D01*
X250421890Y-124003569D01*
X250170000Y-123952560D01*
X247670000Y-123952560D01*
X247434683Y-123996838D01*
X247218559Y-124135910D01*
X247073569Y-124348110D01*
X247022560Y-124600000D01*
X247022560Y-125090000D01*
X235577440Y-125090000D01*
X235577440Y-124600000D01*
X235533162Y-124364683D01*
X235394090Y-124148559D01*
X235181890Y-124003569D01*
X234930000Y-123952560D01*
X232430000Y-123952560D01*
X232194683Y-123996838D01*
X231978559Y-124135910D01*
X231833569Y-124348110D01*
X231782560Y-124600000D01*
X231782560Y-125090000D01*
X220337440Y-125090000D01*
X220337440Y-124600000D01*
X220293162Y-124364683D01*
X220154090Y-124148559D01*
X219941890Y-124003569D01*
X219690000Y-123952560D01*
X217617362Y-123952560D01*
X216357401Y-122692599D01*
X216338545Y-122680000D01*
X250005504Y-122680000D01*
X250073538Y-122844655D01*
X250532927Y-123304846D01*
X251133453Y-123554206D01*
X251783694Y-123554774D01*
X252384655Y-123306462D01*
X252844846Y-122847073D01*
X253094206Y-122246547D01*
X253094774Y-121596306D01*
X252846462Y-120995345D01*
X252387073Y-120535154D01*
X251786547Y-120285794D01*
X251136306Y-120285226D01*
X250535345Y-120533538D01*
X250075154Y-120992927D01*
X250005779Y-121160000D01*
X186690000Y-121160000D01*
X186399161Y-121217852D01*
X186152599Y-121382599D01*
X181072599Y-126462599D01*
X180907852Y-126709161D01*
X180850000Y-127000000D01*
X180850000Y-127072469D01*
X180819697Y-127084990D01*
X180426371Y-127477630D01*
X180340051Y-127685512D01*
X180255010Y-127479697D01*
X179862370Y-127086371D01*
X179349100Y-126873243D01*
X178793339Y-126872758D01*
X178279697Y-127084990D01*
X177886371Y-127477630D01*
X177800051Y-127685512D01*
X177715010Y-127479697D01*
X177322370Y-127086371D01*
X176809100Y-126873243D01*
X176253339Y-126872758D01*
X175739697Y-127084990D01*
X175346371Y-127477630D01*
X175260051Y-127685512D01*
X175175010Y-127479697D01*
X174782370Y-127086371D01*
X174269100Y-126873243D01*
X173713339Y-126872758D01*
X173199697Y-127084990D01*
X172806371Y-127477630D01*
X172720051Y-127685512D01*
X172635010Y-127479697D01*
X172242370Y-127086371D01*
X171729100Y-126873243D01*
X171173339Y-126872758D01*
X170659697Y-127084990D01*
X170266371Y-127477630D01*
X170180051Y-127685512D01*
X170095010Y-127479697D01*
X169702370Y-127086371D01*
X169189100Y-126873243D01*
X168633339Y-126872758D01*
X168119697Y-127084990D01*
X167726371Y-127477630D01*
X167640051Y-127685512D01*
X167555010Y-127479697D01*
X167162370Y-127086371D01*
X166649100Y-126873243D01*
X166093339Y-126872758D01*
X165579697Y-127084990D01*
X165186371Y-127477630D01*
X165100051Y-127685512D01*
X165015010Y-127479697D01*
X164622370Y-127086371D01*
X164109100Y-126873243D01*
X163553339Y-126872758D01*
X163039697Y-127084990D01*
X162646371Y-127477630D01*
X162560051Y-127685512D01*
X162475010Y-127479697D01*
X162082370Y-127086371D01*
X161569100Y-126873243D01*
X161013339Y-126872758D01*
X160499697Y-127084990D01*
X160106371Y-127477630D01*
X160020051Y-127685512D01*
X159935010Y-127479697D01*
X159542370Y-127086371D01*
X159029100Y-126873243D01*
X158473339Y-126872758D01*
X157959697Y-127084990D01*
X157566371Y-127477630D01*
X157480051Y-127685512D01*
X157395010Y-127479697D01*
X157100315Y-127184487D01*
X157794802Y-126490000D01*
X164537537Y-126490000D01*
X164569673Y-126522192D01*
X164913201Y-126664838D01*
X165285167Y-126665162D01*
X165628943Y-126523117D01*
X165892192Y-126260327D01*
X166034838Y-125916799D01*
X166035162Y-125544833D01*
X165893117Y-125201057D01*
X165630327Y-124937808D01*
X165286799Y-124795162D01*
X164914833Y-124794838D01*
X164571057Y-124936883D01*
X164537882Y-124970000D01*
X157480000Y-124970000D01*
X157189160Y-125027852D01*
X156942599Y-125192599D01*
X155672599Y-126462599D01*
X155507852Y-126709161D01*
X155450000Y-127000000D01*
X155450000Y-127072469D01*
X155419697Y-127084990D01*
X155026371Y-127477630D01*
X154940051Y-127685512D01*
X154855010Y-127479697D01*
X154462370Y-127086371D01*
X153949100Y-126873243D01*
X153393339Y-126872758D01*
X152879697Y-127084990D01*
X152486371Y-127477630D01*
X152400051Y-127685512D01*
X152315010Y-127479697D01*
X151922370Y-127086371D01*
X151409100Y-126873243D01*
X150853339Y-126872758D01*
X150339697Y-127084990D01*
X149946371Y-127477630D01*
X149860051Y-127685512D01*
X149775010Y-127479697D01*
X149382370Y-127086371D01*
X148869100Y-126873243D01*
X148313339Y-126872758D01*
X147799697Y-127084990D01*
X147406371Y-127477630D01*
X147320051Y-127685512D01*
X147235010Y-127479697D01*
X146842370Y-127086371D01*
X146329100Y-126873243D01*
X145773339Y-126872758D01*
X145259697Y-127084990D01*
X144866371Y-127477630D01*
X144653243Y-127990900D01*
X144652758Y-128546661D01*
X144864990Y-129060303D01*
X145257630Y-129453629D01*
X145770900Y-129666757D01*
X146326661Y-129667242D01*
X146840303Y-129455010D01*
X147233629Y-129062370D01*
X147319949Y-128854488D01*
X147404990Y-129060303D01*
X147797630Y-129453629D01*
X148310900Y-129666757D01*
X148866661Y-129667242D01*
X149380303Y-129455010D01*
X149773629Y-129062370D01*
X149859949Y-128854488D01*
X149944990Y-129060303D01*
X150337630Y-129453629D01*
X150850900Y-129666757D01*
X151406661Y-129667242D01*
X151920303Y-129455010D01*
X152313629Y-129062370D01*
X152399949Y-128854488D01*
X152484990Y-129060303D01*
X152877630Y-129453629D01*
X153390900Y-129666757D01*
X153946661Y-129667242D01*
X154460303Y-129455010D01*
X154853629Y-129062370D01*
X154939949Y-128854488D01*
X155024990Y-129060303D01*
X155417630Y-129453629D01*
X155930900Y-129666757D01*
X156486661Y-129667242D01*
X157000303Y-129455010D01*
X157393629Y-129062370D01*
X157479949Y-128854488D01*
X157564990Y-129060303D01*
X157957630Y-129453629D01*
X158470900Y-129666757D01*
X159026661Y-129667242D01*
X159540303Y-129455010D01*
X159933629Y-129062370D01*
X160019949Y-128854488D01*
X160104990Y-129060303D01*
X160497630Y-129453629D01*
X161010900Y-129666757D01*
X161566661Y-129667242D01*
X162080303Y-129455010D01*
X162473629Y-129062370D01*
X162559949Y-128854488D01*
X162644990Y-129060303D01*
X162939685Y-129355513D01*
X162245198Y-130050000D01*
X151692463Y-130050000D01*
X151660327Y-130017808D01*
X151316799Y-129875162D01*
X150944833Y-129874838D01*
X150601057Y-130016883D01*
X150337808Y-130279673D01*
X150195162Y-130623201D01*
X150194838Y-130995167D01*
X150336883Y-131338943D01*
X150599673Y-131602192D01*
X150943201Y-131744838D01*
X151315167Y-131745162D01*
X151658943Y-131603117D01*
X151692118Y-131570000D01*
X162560000Y-131570000D01*
X162850839Y-131512148D01*
X163097401Y-131347401D01*
X164367401Y-130077401D01*
X164532148Y-129830840D01*
X164590000Y-129540000D01*
X164590000Y-129467531D01*
X164620303Y-129455010D01*
X165013629Y-129062370D01*
X165099949Y-128854488D01*
X165184990Y-129060303D01*
X165577630Y-129453629D01*
X165610000Y-129467070D01*
X165610000Y-129540000D01*
X165667852Y-129830839D01*
X165832599Y-130077401D01*
X167102599Y-131347401D01*
X167349160Y-131512148D01*
X167640000Y-131570000D01*
X170887537Y-131570000D01*
X170919673Y-131602192D01*
X171263201Y-131744838D01*
X171635167Y-131745162D01*
X171978943Y-131603117D01*
X172242192Y-131340327D01*
X172384838Y-130996799D01*
X172385162Y-130624833D01*
X172243117Y-130281057D01*
X171980327Y-130017808D01*
X171636799Y-129875162D01*
X171264833Y-129874838D01*
X170921057Y-130016883D01*
X170887882Y-130050000D01*
X167954802Y-130050000D01*
X167260145Y-129355343D01*
X167553629Y-129062370D01*
X167639949Y-128854488D01*
X167724990Y-129060303D01*
X168117630Y-129453629D01*
X168630900Y-129666757D01*
X169186661Y-129667242D01*
X169700303Y-129455010D01*
X170093629Y-129062370D01*
X170179949Y-128854488D01*
X170264990Y-129060303D01*
X170657630Y-129453629D01*
X171170900Y-129666757D01*
X171726661Y-129667242D01*
X171759055Y-129653857D01*
X181072599Y-138967401D01*
X181319161Y-139132148D01*
X181610000Y-139190000D01*
X187645198Y-139190000D01*
X188665198Y-140210000D01*
X177330633Y-140210000D01*
X177464838Y-139886799D01*
X177465162Y-139514833D01*
X177323117Y-139171057D01*
X177060327Y-138907808D01*
X176716799Y-138765162D01*
X176344833Y-138764838D01*
X176001057Y-138906883D01*
X175967882Y-138940000D01*
X160020000Y-138940000D01*
X159729160Y-138997852D01*
X159482599Y-139162599D01*
X158212599Y-140432599D01*
X158047852Y-140679161D01*
X157990000Y-140970000D01*
X157990000Y-142312469D01*
X157959697Y-142324990D01*
X157566371Y-142717630D01*
X157480051Y-142925512D01*
X157395010Y-142719697D01*
X157002370Y-142326371D01*
X156970000Y-142312930D01*
X156970000Y-140014802D01*
X157601898Y-139382904D01*
X157823233Y-139474811D01*
X158254873Y-139475188D01*
X158653800Y-139310354D01*
X158959282Y-139005405D01*
X159124811Y-138606767D01*
X159125188Y-138175127D01*
X158960354Y-137776200D01*
X158884980Y-137700695D01*
X159003712Y-137683197D01*
X159138226Y-137273052D01*
X159105546Y-136842651D01*
X159003712Y-136596803D01*
X158793745Y-136565860D01*
X158219605Y-137140000D01*
X158233748Y-137154143D01*
X158082853Y-137305037D01*
X157997072Y-137304962D01*
X157846253Y-137154143D01*
X157860395Y-137140000D01*
X157286255Y-136565860D01*
X157076288Y-136596803D01*
X156941774Y-137006948D01*
X156974454Y-137437349D01*
X157076288Y-137683197D01*
X157194783Y-137700660D01*
X157163992Y-137731396D01*
X156982599Y-137852599D01*
X155672599Y-139162599D01*
X155507852Y-139409161D01*
X155450000Y-139700000D01*
X155450000Y-142312469D01*
X155419697Y-142324990D01*
X155026371Y-142717630D01*
X154940051Y-142925512D01*
X154855010Y-142719697D01*
X154462370Y-142326371D01*
X154430000Y-142312930D01*
X154430000Y-139555536D01*
X154799827Y-139186353D01*
X155003268Y-138696413D01*
X155003731Y-138165914D01*
X154801146Y-137675620D01*
X154426353Y-137300173D01*
X153936413Y-137096732D01*
X153405914Y-137096269D01*
X152915620Y-137298854D01*
X152543826Y-137670000D01*
X147175536Y-137670000D01*
X146806353Y-137300173D01*
X146316413Y-137096732D01*
X145785914Y-137096269D01*
X145295620Y-137298854D01*
X144920173Y-137673647D01*
X144716732Y-138163587D01*
X144716274Y-138688924D01*
X141925198Y-141480000D01*
X141347440Y-141480000D01*
X141347440Y-141240000D01*
X141303162Y-141004683D01*
X141164090Y-140788559D01*
X141021439Y-140691090D01*
X141085278Y-140627363D01*
X141334716Y-140026648D01*
X141335284Y-139376205D01*
X141086894Y-138775057D01*
X140742241Y-138429801D01*
X141085278Y-138087363D01*
X141334716Y-137486648D01*
X141335284Y-136836205D01*
X141266081Y-136668721D01*
X141548547Y-136386255D01*
X157465860Y-136386255D01*
X158040000Y-136960395D01*
X158614140Y-136386255D01*
X158597481Y-136273207D01*
X166104665Y-136273207D01*
X166398630Y-136984658D01*
X166942479Y-137529457D01*
X167653416Y-137824663D01*
X168423207Y-137825335D01*
X169134658Y-137531370D01*
X169679457Y-136987521D01*
X169974663Y-136276584D01*
X169975335Y-135506793D01*
X169681370Y-134795342D01*
X169137521Y-134250543D01*
X168426584Y-133955337D01*
X167656793Y-133954665D01*
X166945342Y-134248630D01*
X166400543Y-134792479D01*
X166105337Y-135503416D01*
X166104665Y-136273207D01*
X158597481Y-136273207D01*
X158583197Y-136176288D01*
X158173052Y-136041774D01*
X157742651Y-136074454D01*
X157496803Y-136176288D01*
X157465860Y-136386255D01*
X141548547Y-136386255D01*
X143824802Y-134110000D01*
X144924464Y-134110000D01*
X145293647Y-134479827D01*
X145783587Y-134683268D01*
X146314086Y-134683731D01*
X146804380Y-134481146D01*
X147176174Y-134110000D01*
X152544464Y-134110000D01*
X152913647Y-134479827D01*
X153403587Y-134683268D01*
X153934086Y-134683731D01*
X154424380Y-134481146D01*
X154799827Y-134106353D01*
X155003268Y-133616413D01*
X155003278Y-133604873D01*
X156954812Y-133604873D01*
X157119646Y-134003800D01*
X157130579Y-134014752D01*
X157120718Y-134024595D01*
X156955189Y-134423233D01*
X156954812Y-134854873D01*
X157119646Y-135253800D01*
X157424595Y-135559282D01*
X157823233Y-135724811D01*
X158254873Y-135725188D01*
X158653800Y-135560354D01*
X158959282Y-135255405D01*
X159124811Y-134856767D01*
X159125188Y-134425127D01*
X158960354Y-134026200D01*
X158949421Y-134015248D01*
X158959282Y-134005405D01*
X159124811Y-133606767D01*
X159125188Y-133175127D01*
X158960354Y-132776200D01*
X158655405Y-132470718D01*
X158256767Y-132305189D01*
X157825127Y-132304812D01*
X157426200Y-132469646D01*
X157120718Y-132774595D01*
X156955189Y-133173233D01*
X156954812Y-133604873D01*
X155003278Y-133604873D01*
X155003731Y-133085914D01*
X154801146Y-132595620D01*
X154426353Y-132220173D01*
X153936413Y-132016732D01*
X153405914Y-132016269D01*
X152915620Y-132218854D01*
X152543826Y-132590000D01*
X147175536Y-132590000D01*
X146806353Y-132220173D01*
X146316413Y-132016732D01*
X145785914Y-132016269D01*
X145295620Y-132218854D01*
X144923826Y-132590000D01*
X143510000Y-132590000D01*
X143219161Y-132647852D01*
X142972599Y-132812599D01*
X141335150Y-134450048D01*
X141335284Y-134296205D01*
X141086894Y-133695057D01*
X140742241Y-133349801D01*
X141085278Y-133007363D01*
X141334716Y-132406648D01*
X141335284Y-131756205D01*
X141086894Y-131155057D01*
X140742241Y-130809801D01*
X141085278Y-130467363D01*
X141334716Y-129866648D01*
X141335284Y-129216205D01*
X141086894Y-128615057D01*
X140627363Y-128154722D01*
X140026648Y-127905284D01*
X139376205Y-127904716D01*
X138775057Y-128153106D01*
X138314722Y-128612637D01*
X138065284Y-129213352D01*
X138064716Y-129863795D01*
X138313106Y-130464943D01*
X138657759Y-130810199D01*
X138314722Y-131152637D01*
X138065284Y-131753352D01*
X138064716Y-132403795D01*
X138313106Y-133004943D01*
X138657759Y-133350199D01*
X138314722Y-133692637D01*
X138065284Y-134293352D01*
X138064716Y-134943795D01*
X138313106Y-135544943D01*
X138657759Y-135890199D01*
X138314722Y-136232637D01*
X138065284Y-136833352D01*
X138064716Y-137483795D01*
X138313106Y-138084943D01*
X138657759Y-138430199D01*
X138314722Y-138772637D01*
X138065284Y-139373352D01*
X138064716Y-140023795D01*
X138313106Y-140624943D01*
X138379621Y-140691574D01*
X138248559Y-140775910D01*
X138103569Y-140988110D01*
X138052560Y-141240000D01*
X138052560Y-143240000D01*
X138096838Y-143475317D01*
X138235910Y-143691441D01*
X138448110Y-143836431D01*
X138700000Y-143887440D01*
X140700000Y-143887440D01*
X140935317Y-143843162D01*
X141023122Y-143786661D01*
X144652758Y-143786661D01*
X144864990Y-144300303D01*
X145257630Y-144693629D01*
X145770900Y-144906757D01*
X146326661Y-144907242D01*
X146840303Y-144695010D01*
X147233629Y-144302370D01*
X147319949Y-144094488D01*
X147404990Y-144300303D01*
X147797630Y-144693629D01*
X148310900Y-144906757D01*
X148866661Y-144907242D01*
X149380303Y-144695010D01*
X149585457Y-144490213D01*
X150329392Y-144490213D01*
X150398857Y-144732397D01*
X150922302Y-144919144D01*
X151477368Y-144891362D01*
X151861143Y-144732397D01*
X151930608Y-144490213D01*
X151130000Y-143689605D01*
X150329392Y-144490213D01*
X149585457Y-144490213D01*
X149773629Y-144302370D01*
X149853395Y-144110273D01*
X149907603Y-144241143D01*
X150149787Y-144310608D01*
X150950395Y-143510000D01*
X150149787Y-142709392D01*
X149907603Y-142778857D01*
X149857491Y-142919318D01*
X149775010Y-142719697D01*
X149585432Y-142529787D01*
X150329392Y-142529787D01*
X151130000Y-143330395D01*
X151930608Y-142529787D01*
X151861143Y-142287603D01*
X151337698Y-142100856D01*
X150782632Y-142128638D01*
X150398857Y-142287603D01*
X150329392Y-142529787D01*
X149585432Y-142529787D01*
X149382370Y-142326371D01*
X148869100Y-142113243D01*
X148313339Y-142112758D01*
X147799697Y-142324990D01*
X147406371Y-142717630D01*
X147320051Y-142925512D01*
X147235010Y-142719697D01*
X146842370Y-142326371D01*
X146329100Y-142113243D01*
X145773339Y-142112758D01*
X145259697Y-142324990D01*
X144866371Y-142717630D01*
X144653243Y-143230900D01*
X144652758Y-143786661D01*
X141023122Y-143786661D01*
X141151441Y-143704090D01*
X141296431Y-143491890D01*
X141347440Y-143240000D01*
X141347440Y-143000000D01*
X142240000Y-143000000D01*
X142530839Y-142942148D01*
X142777401Y-142777401D01*
X145791527Y-139763275D01*
X146314086Y-139763731D01*
X146804380Y-139561146D01*
X147176174Y-139190000D01*
X152544464Y-139190000D01*
X152910000Y-139556174D01*
X152910000Y-142312469D01*
X152879697Y-142324990D01*
X152486371Y-142717630D01*
X152406605Y-142909727D01*
X152352397Y-142778857D01*
X152110213Y-142709392D01*
X151309605Y-143510000D01*
X152110213Y-144310608D01*
X152352397Y-144241143D01*
X152402509Y-144100682D01*
X152484990Y-144300303D01*
X152877630Y-144693629D01*
X153390900Y-144906757D01*
X153946661Y-144907242D01*
X154460303Y-144695010D01*
X154853629Y-144302370D01*
X154939949Y-144094488D01*
X155024990Y-144300303D01*
X155417630Y-144693629D01*
X155930900Y-144906757D01*
X156486661Y-144907242D01*
X157000303Y-144695010D01*
X157393629Y-144302370D01*
X157479949Y-144094488D01*
X157564990Y-144300303D01*
X157957630Y-144693629D01*
X158470900Y-144906757D01*
X159026661Y-144907242D01*
X159540303Y-144695010D01*
X159933629Y-144302370D01*
X160019949Y-144094488D01*
X160104990Y-144300303D01*
X160497630Y-144693629D01*
X161010900Y-144906757D01*
X161566661Y-144907242D01*
X162080303Y-144695010D01*
X162473629Y-144302370D01*
X162559949Y-144094488D01*
X162644990Y-144300303D01*
X163037630Y-144693629D01*
X163550900Y-144906757D01*
X164106661Y-144907242D01*
X164620303Y-144695010D01*
X165013629Y-144302370D01*
X165099949Y-144094488D01*
X165184990Y-144300303D01*
X165577630Y-144693629D01*
X166090900Y-144906757D01*
X166646661Y-144907242D01*
X167160303Y-144695010D01*
X167553629Y-144302370D01*
X167639949Y-144094488D01*
X167724990Y-144300303D01*
X168117630Y-144693629D01*
X168630900Y-144906757D01*
X169186661Y-144907242D01*
X169700303Y-144695010D01*
X170093629Y-144302370D01*
X170179949Y-144094488D01*
X170264990Y-144300303D01*
X170657630Y-144693629D01*
X171170900Y-144906757D01*
X171726661Y-144907242D01*
X172240303Y-144695010D01*
X172633629Y-144302370D01*
X172719949Y-144094488D01*
X172804990Y-144300303D01*
X173197630Y-144693629D01*
X173230000Y-144707070D01*
X173230000Y-144780000D01*
X173287852Y-145070839D01*
X173452599Y-145317401D01*
X175992599Y-147857401D01*
X176063836Y-147905000D01*
X137845000Y-147905000D01*
X137845000Y-120065000D01*
X277663836Y-120065000D01*
X277592599Y-120112599D01*
M02*
