G04 #@! TF.FileFunction,Soldermask,Bot*
%FSLAX46Y46*%
G04 Gerber Fmt 4.6, Leading zero omitted, Abs format (unit mm)*
G04 Created by KiCad (PCBNEW 4.0.4+e1-6308~48~ubuntu16.04.1-stable) date Wed Sep 21 12:51:57 2016*
%MOMM*%
%LPD*%
G01*
G04 APERTURE LIST*
%ADD10C,0.100000*%
%ADD11C,2.600000*%
%ADD12C,0.900000*%
%ADD13C,2.000000*%
%ADD14C,1.998980*%
%ADD15R,2.500000X2.500000*%
%ADD16C,2.500000*%
%ADD17C,1.000000*%
%ADD18C,1.397000*%
%ADD19C,1.524000*%
%ADD20R,2.000000X2.000000*%
%ADD21C,1.500000*%
%ADD22C,1.600000*%
G04 APERTURE END LIST*
D10*
D11*
X168040000Y-135890000D03*
X215540000Y-135890000D03*
D12*
X158040000Y-137140000D03*
X158040000Y-138390000D03*
X228040000Y-137140000D03*
X228040000Y-133390000D03*
X158040000Y-134640000D03*
X158040000Y-133390000D03*
D13*
X303530000Y-137160000D03*
X303530000Y-132080000D03*
X393700000Y-132120000D03*
X393700000Y-137120000D03*
X383700000Y-134620000D03*
X383700000Y-127120000D03*
X383700000Y-142120000D03*
X381200000Y-129620000D03*
X381200000Y-139620000D03*
D14*
X261620000Y-121920000D03*
X251460000Y-121920000D03*
X323850000Y-146050000D03*
X334010000Y-146050000D03*
D11*
X310280000Y-125730000D03*
X357780000Y-125730000D03*
D12*
X300280000Y-124480000D03*
X300280000Y-123230000D03*
X370280000Y-124480000D03*
X370280000Y-128230000D03*
X300280000Y-126980000D03*
X300280000Y-128230000D03*
D11*
X310280000Y-137160000D03*
X357780000Y-137160000D03*
D12*
X300280000Y-135910000D03*
X300280000Y-134660000D03*
X370280000Y-135910000D03*
X370280000Y-139660000D03*
X300280000Y-138410000D03*
X300280000Y-139660000D03*
D15*
X218440000Y-125850000D03*
D16*
X218440000Y-140850000D03*
X218440000Y-133350000D03*
D15*
X233680000Y-125850000D03*
D16*
X233680000Y-140850000D03*
X233680000Y-133350000D03*
D15*
X248920000Y-125850000D03*
D16*
X248920000Y-140850000D03*
X248920000Y-133350000D03*
D15*
X264160000Y-140850000D03*
D16*
X264160000Y-125850000D03*
X264160000Y-133350000D03*
D17*
X194310000Y-123230000D03*
X194310000Y-125730000D03*
X194310000Y-128230000D03*
D18*
X153670000Y-138430000D03*
X153670000Y-133350000D03*
X146050000Y-138430000D03*
X146050000Y-133350000D03*
D19*
X146050000Y-143510000D03*
X148590000Y-143510000D03*
X151130000Y-143510000D03*
X153670000Y-143510000D03*
X156210000Y-143510000D03*
X158750000Y-143510000D03*
X161290000Y-143510000D03*
X163830000Y-143510000D03*
X166370000Y-143510000D03*
X168910000Y-143510000D03*
X171450000Y-143510000D03*
X173990000Y-143510000D03*
X176530000Y-143510000D03*
X179070000Y-143510000D03*
X181610000Y-143510000D03*
X184150000Y-143510000D03*
X186690000Y-143510000D03*
X186690000Y-128270000D03*
X184150000Y-128270000D03*
X181610000Y-128270000D03*
X179070000Y-128270000D03*
X176530000Y-128270000D03*
X173990000Y-128270000D03*
X171450000Y-128270000D03*
X168910000Y-128270000D03*
X166370000Y-128270000D03*
X163830000Y-128270000D03*
X161290000Y-128270000D03*
X158750000Y-128270000D03*
X156210000Y-128270000D03*
X153670000Y-128270000D03*
X151130000Y-128270000D03*
X148590000Y-128270000D03*
X146050000Y-128270000D03*
D20*
X139700000Y-142240000D03*
D13*
X139700000Y-139700000D03*
X139700000Y-137160000D03*
X139700000Y-134620000D03*
X139700000Y-132080000D03*
X139700000Y-129540000D03*
D21*
X284440000Y-123550000D03*
X281940000Y-123550000D03*
X279440000Y-123550000D03*
X272140000Y-130850000D03*
X272140000Y-133350000D03*
X272140000Y-135850000D03*
D13*
X275140000Y-125550000D03*
X275140000Y-141150000D03*
X288740000Y-141150000D03*
X288740000Y-125550000D03*
D22*
X290190000Y-129550000D03*
X294690000Y-137150000D03*
X290190000Y-137150000D03*
X294690000Y-129550000D03*
M02*
