G04 #@! TF.FileFunction,Legend,Top*
%FSLAX46Y46*%
G04 Gerber Fmt 4.6, Leading zero omitted, Abs format (unit mm)*
G04 Created by KiCad (PCBNEW 4.0.4+e1-6308~48~ubuntu16.04.1-stable) date Sun Oct  9 19:18:54 2016*
%MOMM*%
%LPD*%
G01*
G04 APERTURE LIST*
%ADD10C,0.100000*%
%ADD11C,0.150000*%
G04 APERTURE END LIST*
D10*
D11*
X396240000Y-144780000D02*
X396240000Y-124460000D01*
X396240000Y-124460000D02*
X379730000Y-124460000D01*
X379730000Y-124460000D02*
X379730000Y-144780000D01*
X379730000Y-144780000D02*
X396240000Y-144780000D01*
X205700000Y-128350000D02*
G75*
G03X205700000Y-128350000I-2500000J0D01*
G01*
X205700000Y-123350000D02*
X205700000Y-143350000D01*
X205700000Y-143350000D02*
X200700000Y-143350000D01*
X200700000Y-143350000D02*
X200700000Y-123350000D01*
X200700000Y-123350000D02*
X205700000Y-123350000D01*
X224750000Y-128350000D02*
G75*
G03X224750000Y-128350000I-2500000J0D01*
G01*
X224750000Y-123350000D02*
X224750000Y-143350000D01*
X224750000Y-143350000D02*
X219750000Y-143350000D01*
X219750000Y-143350000D02*
X219750000Y-123350000D01*
X219750000Y-123350000D02*
X224750000Y-123350000D01*
X245070000Y-128350000D02*
G75*
G03X245070000Y-128350000I-2500000J0D01*
G01*
X245070000Y-123350000D02*
X245070000Y-143350000D01*
X245070000Y-143350000D02*
X240070000Y-143350000D01*
X240070000Y-143350000D02*
X240070000Y-123350000D01*
X240070000Y-123350000D02*
X245070000Y-123350000D01*
X266660000Y-138350000D02*
G75*
G03X266660000Y-138350000I-2500000J0D01*
G01*
X261660000Y-143350000D02*
X261660000Y-123350000D01*
X261660000Y-123350000D02*
X266660000Y-123350000D01*
X266660000Y-123350000D02*
X266660000Y-143350000D01*
X266660000Y-143350000D02*
X261660000Y-143350000D01*
X158750000Y-135890000D02*
X163830000Y-130810000D01*
X163830000Y-130810000D02*
X168910000Y-135890000D01*
X168910000Y-135890000D02*
X163830000Y-140970000D01*
X163830000Y-140970000D02*
X158750000Y-135890000D01*
X181610000Y-130810000D02*
X181610000Y-135890000D01*
X181610000Y-135890000D02*
X186690000Y-135890000D01*
X186690000Y-135890000D02*
X186690000Y-130810000D01*
X186690000Y-130810000D02*
X181610000Y-130810000D01*
X186690000Y-133350000D02*
G75*
G03X186690000Y-133350000I-2540000J0D01*
G01*
X140970000Y-133350000D02*
X148590000Y-133350000D01*
X148590000Y-133350000D02*
X148590000Y-138430000D01*
X148590000Y-138430000D02*
X140970000Y-138430000D01*
X140970000Y-138430000D02*
X140970000Y-133350000D01*
X143510000Y-125730000D02*
X189230000Y-125730000D01*
X189230000Y-125730000D02*
X189230000Y-146050000D01*
X189230000Y-146050000D02*
X143510000Y-146050000D01*
X143510000Y-146050000D02*
X143510000Y-125730000D01*
X142070000Y-145350000D02*
X140270000Y-145350000D01*
X142070000Y-146750000D02*
X140270000Y-146750000D01*
X375525000Y-122590000D02*
X375525000Y-123790000D01*
X373775000Y-123790000D02*
X373775000Y-122590000D01*
X376520000Y-146925000D02*
X375320000Y-146925000D01*
X375320000Y-145175000D02*
X376520000Y-145175000D01*
X297780000Y-135970000D02*
X372780000Y-135970000D01*
X372780000Y-135970000D02*
X372780000Y-145970000D01*
X372780000Y-145970000D02*
X297780000Y-145970000D01*
X297780000Y-145970000D02*
X297780000Y-135970000D01*
X297780000Y-120730000D02*
X372780000Y-120730000D01*
X372780000Y-120730000D02*
X372780000Y-130730000D01*
X372780000Y-130730000D02*
X297780000Y-130730000D01*
X297780000Y-130730000D02*
X297780000Y-120730000D01*
X254750000Y-142295000D02*
X254750000Y-142595000D01*
X253250000Y-142295000D02*
X253250000Y-142595000D01*
X255400000Y-139995000D02*
X255600000Y-139995000D01*
X252600000Y-143895000D02*
X252800000Y-144095000D01*
X253900000Y-143895000D02*
X253700000Y-144095000D01*
X252600000Y-142595000D02*
X252600000Y-143895000D01*
X252800000Y-144095000D02*
X253700000Y-144095000D01*
X253900000Y-143895000D02*
X253900000Y-142595000D01*
X251150000Y-142595000D02*
X256850000Y-142595000D01*
X252400000Y-139995000D02*
X254100000Y-139995000D01*
X250650000Y-140895000D02*
X250650000Y-141695000D01*
X257350000Y-141695000D02*
X257350000Y-140895000D01*
X289440000Y-138350000D02*
X296940000Y-138350000D01*
X296940000Y-138350000D02*
X296940000Y-128350000D01*
X296940000Y-128350000D02*
X289440000Y-128350000D01*
X289440000Y-128350000D02*
X289440000Y-123350000D01*
X289440000Y-123350000D02*
X271940000Y-123350000D01*
X271940000Y-123350000D02*
X271940000Y-143350000D01*
X271940000Y-143350000D02*
X289440000Y-143350000D01*
X289440000Y-143350000D02*
X289440000Y-138350000D01*
X397962381Y-135358095D02*
X396962381Y-135358095D01*
X396962381Y-134977142D01*
X397010000Y-134881904D01*
X397057619Y-134834285D01*
X397152857Y-134786666D01*
X397295714Y-134786666D01*
X397390952Y-134834285D01*
X397438571Y-134881904D01*
X397486190Y-134977142D01*
X397486190Y-135358095D01*
X397962381Y-133834285D02*
X397962381Y-134405714D01*
X397962381Y-134120000D02*
X396962381Y-134120000D01*
X397105238Y-134215238D01*
X397200476Y-134310476D01*
X397248095Y-134405714D01*
X198524762Y-134683333D02*
X198572381Y-134540476D01*
X198572381Y-134302380D01*
X198524762Y-134207142D01*
X198477143Y-134159523D01*
X198381905Y-134111904D01*
X198286667Y-134111904D01*
X198191429Y-134159523D01*
X198143810Y-134207142D01*
X198096190Y-134302380D01*
X198048571Y-134492857D01*
X198000952Y-134588095D01*
X197953333Y-134635714D01*
X197858095Y-134683333D01*
X197762857Y-134683333D01*
X197667619Y-134635714D01*
X197620000Y-134588095D01*
X197572381Y-134492857D01*
X197572381Y-134254761D01*
X197620000Y-134111904D01*
X197572381Y-133778571D02*
X198572381Y-133540476D01*
X197858095Y-133349999D01*
X198572381Y-133159523D01*
X197572381Y-132921428D01*
X198572381Y-132016666D02*
X198572381Y-132588095D01*
X198572381Y-132302381D02*
X197572381Y-132302381D01*
X197715238Y-132397619D01*
X197810476Y-132492857D01*
X197858095Y-132588095D01*
X217574762Y-134683333D02*
X217622381Y-134540476D01*
X217622381Y-134302380D01*
X217574762Y-134207142D01*
X217527143Y-134159523D01*
X217431905Y-134111904D01*
X217336667Y-134111904D01*
X217241429Y-134159523D01*
X217193810Y-134207142D01*
X217146190Y-134302380D01*
X217098571Y-134492857D01*
X217050952Y-134588095D01*
X217003333Y-134635714D01*
X216908095Y-134683333D01*
X216812857Y-134683333D01*
X216717619Y-134635714D01*
X216670000Y-134588095D01*
X216622381Y-134492857D01*
X216622381Y-134254761D01*
X216670000Y-134111904D01*
X216622381Y-133778571D02*
X217622381Y-133540476D01*
X216908095Y-133349999D01*
X217622381Y-133159523D01*
X216622381Y-132921428D01*
X216717619Y-132588095D02*
X216670000Y-132540476D01*
X216622381Y-132445238D01*
X216622381Y-132207142D01*
X216670000Y-132111904D01*
X216717619Y-132064285D01*
X216812857Y-132016666D01*
X216908095Y-132016666D01*
X217050952Y-132064285D01*
X217622381Y-132635714D01*
X217622381Y-132016666D01*
X237894762Y-134683333D02*
X237942381Y-134540476D01*
X237942381Y-134302380D01*
X237894762Y-134207142D01*
X237847143Y-134159523D01*
X237751905Y-134111904D01*
X237656667Y-134111904D01*
X237561429Y-134159523D01*
X237513810Y-134207142D01*
X237466190Y-134302380D01*
X237418571Y-134492857D01*
X237370952Y-134588095D01*
X237323333Y-134635714D01*
X237228095Y-134683333D01*
X237132857Y-134683333D01*
X237037619Y-134635714D01*
X236990000Y-134588095D01*
X236942381Y-134492857D01*
X236942381Y-134254761D01*
X236990000Y-134111904D01*
X236942381Y-133778571D02*
X237942381Y-133540476D01*
X237228095Y-133349999D01*
X237942381Y-133159523D01*
X236942381Y-132921428D01*
X236942381Y-132635714D02*
X236942381Y-132016666D01*
X237323333Y-132350000D01*
X237323333Y-132207142D01*
X237370952Y-132111904D01*
X237418571Y-132064285D01*
X237513810Y-132016666D01*
X237751905Y-132016666D01*
X237847143Y-132064285D01*
X237894762Y-132111904D01*
X237942381Y-132207142D01*
X237942381Y-132492857D01*
X237894762Y-132588095D01*
X237847143Y-132635714D01*
X269644762Y-134683333D02*
X269692381Y-134540476D01*
X269692381Y-134302380D01*
X269644762Y-134207142D01*
X269597143Y-134159523D01*
X269501905Y-134111904D01*
X269406667Y-134111904D01*
X269311429Y-134159523D01*
X269263810Y-134207142D01*
X269216190Y-134302380D01*
X269168571Y-134492857D01*
X269120952Y-134588095D01*
X269073333Y-134635714D01*
X268978095Y-134683333D01*
X268882857Y-134683333D01*
X268787619Y-134635714D01*
X268740000Y-134588095D01*
X268692381Y-134492857D01*
X268692381Y-134254761D01*
X268740000Y-134111904D01*
X268692381Y-133778571D02*
X269692381Y-133540476D01*
X268978095Y-133349999D01*
X269692381Y-133159523D01*
X268692381Y-132921428D01*
X269025714Y-132111904D02*
X269692381Y-132111904D01*
X268644762Y-132350000D02*
X269359048Y-132588095D01*
X269359048Y-131969047D01*
X147828095Y-140422381D02*
X147828095Y-141231905D01*
X147875714Y-141327143D01*
X147923333Y-141374762D01*
X148018571Y-141422381D01*
X148209048Y-141422381D01*
X148304286Y-141374762D01*
X148351905Y-141327143D01*
X148399524Y-141231905D01*
X148399524Y-140422381D01*
X149399524Y-141422381D02*
X148828095Y-141422381D01*
X149113809Y-141422381D02*
X149113809Y-140422381D01*
X149018571Y-140565238D01*
X148923333Y-140660476D01*
X148828095Y-140708095D01*
X140231905Y-144902381D02*
X140231905Y-143902381D01*
X140470000Y-143902381D01*
X140612858Y-143950000D01*
X140708096Y-144045238D01*
X140755715Y-144140476D01*
X140803334Y-144330952D01*
X140803334Y-144473810D01*
X140755715Y-144664286D01*
X140708096Y-144759524D01*
X140612858Y-144854762D01*
X140470000Y-144902381D01*
X140231905Y-144902381D01*
X141755715Y-144902381D02*
X141184286Y-144902381D01*
X141470000Y-144902381D02*
X141470000Y-143902381D01*
X141374762Y-144045238D01*
X141279524Y-144140476D01*
X141184286Y-144188095D01*
X373002381Y-123356666D02*
X372526190Y-123690000D01*
X373002381Y-123928095D02*
X372002381Y-123928095D01*
X372002381Y-123547142D01*
X372050000Y-123451904D01*
X372097619Y-123404285D01*
X372192857Y-123356666D01*
X372335714Y-123356666D01*
X372430952Y-123404285D01*
X372478571Y-123451904D01*
X372526190Y-123547142D01*
X372526190Y-123928095D01*
X373002381Y-122404285D02*
X373002381Y-122975714D01*
X373002381Y-122690000D02*
X372002381Y-122690000D01*
X372145238Y-122785238D01*
X372240476Y-122880476D01*
X372288095Y-122975714D01*
X375753334Y-144402381D02*
X375420000Y-143926190D01*
X375181905Y-144402381D02*
X375181905Y-143402381D01*
X375562858Y-143402381D01*
X375658096Y-143450000D01*
X375705715Y-143497619D01*
X375753334Y-143592857D01*
X375753334Y-143735714D01*
X375705715Y-143830952D01*
X375658096Y-143878571D01*
X375562858Y-143926190D01*
X375181905Y-143926190D01*
X376134286Y-143497619D02*
X376181905Y-143450000D01*
X376277143Y-143402381D01*
X376515239Y-143402381D01*
X376610477Y-143450000D01*
X376658096Y-143497619D01*
X376705715Y-143592857D01*
X376705715Y-143688095D01*
X376658096Y-143830952D01*
X376086667Y-144402381D01*
X376705715Y-144402381D01*
X369684762Y-133922381D02*
X369351428Y-133446190D01*
X369113333Y-133922381D02*
X369113333Y-132922381D01*
X369494286Y-132922381D01*
X369589524Y-132970000D01*
X369637143Y-133017619D01*
X369684762Y-133112857D01*
X369684762Y-133255714D01*
X369637143Y-133350952D01*
X369589524Y-133398571D01*
X369494286Y-133446190D01*
X369113333Y-133446190D01*
X369970476Y-132922381D02*
X370303809Y-133922381D01*
X370637143Y-132922381D01*
X371494286Y-133922381D02*
X370922857Y-133922381D01*
X371208571Y-133922381D02*
X371208571Y-132922381D01*
X371113333Y-133065238D01*
X371018095Y-133160476D01*
X370922857Y-133208095D01*
X369684762Y-118682381D02*
X369351428Y-118206190D01*
X369113333Y-118682381D02*
X369113333Y-117682381D01*
X369494286Y-117682381D01*
X369589524Y-117730000D01*
X369637143Y-117777619D01*
X369684762Y-117872857D01*
X369684762Y-118015714D01*
X369637143Y-118110952D01*
X369589524Y-118158571D01*
X369494286Y-118206190D01*
X369113333Y-118206190D01*
X369970476Y-117682381D02*
X370303809Y-118682381D01*
X370637143Y-117682381D01*
X370922857Y-117777619D02*
X370970476Y-117730000D01*
X371065714Y-117682381D01*
X371303810Y-117682381D01*
X371399048Y-117730000D01*
X371446667Y-117777619D01*
X371494286Y-117872857D01*
X371494286Y-117968095D01*
X371446667Y-118110952D01*
X370875238Y-118682381D01*
X371494286Y-118682381D01*
X251166667Y-138199762D02*
X251309524Y-138247381D01*
X251547620Y-138247381D01*
X251642858Y-138199762D01*
X251690477Y-138152143D01*
X251738096Y-138056905D01*
X251738096Y-137961667D01*
X251690477Y-137866429D01*
X251642858Y-137818810D01*
X251547620Y-137771190D01*
X251357143Y-137723571D01*
X251261905Y-137675952D01*
X251214286Y-137628333D01*
X251166667Y-137533095D01*
X251166667Y-137437857D01*
X251214286Y-137342619D01*
X251261905Y-137295000D01*
X251357143Y-137247381D01*
X251595239Y-137247381D01*
X251738096Y-137295000D01*
X252071429Y-137247381D02*
X252309524Y-138247381D01*
X252500001Y-137533095D01*
X252690477Y-138247381D01*
X252928572Y-137247381D01*
X253214286Y-137247381D02*
X253880953Y-137247381D01*
X253452381Y-138247381D01*
X291392381Y-126611905D02*
X292201905Y-126611905D01*
X292297143Y-126564286D01*
X292344762Y-126516667D01*
X292392381Y-126421429D01*
X292392381Y-126230952D01*
X292344762Y-126135714D01*
X292297143Y-126088095D01*
X292201905Y-126040476D01*
X291392381Y-126040476D01*
X291392381Y-125659524D02*
X291392381Y-125040476D01*
X291773333Y-125373810D01*
X291773333Y-125230952D01*
X291820952Y-125135714D01*
X291868571Y-125088095D01*
X291963810Y-125040476D01*
X292201905Y-125040476D01*
X292297143Y-125088095D01*
X292344762Y-125135714D01*
X292392381Y-125230952D01*
X292392381Y-125516667D01*
X292344762Y-125611905D01*
X292297143Y-125659524D01*
M02*
