G04 #@! TF.FileFunction,Other,Fab,Top*
%FSLAX46Y46*%
G04 Gerber Fmt 4.6, Leading zero omitted, Abs format (unit mm)*
G04 Created by KiCad (PCBNEW 4.0.4+e1-6308~48~ubuntu16.04.1-stable) date Wed Sep 21 12:51:57 2016*
%MOMM*%
%LPD*%
G01*
G04 APERTURE LIST*
%ADD10C,0.100000*%
%ADD11C,0.150000*%
G04 APERTURE END LIST*
D10*
D11*
X378912381Y-136500952D02*
X377912381Y-136500952D01*
X377912381Y-136262857D01*
X377960000Y-136119999D01*
X378055238Y-136024761D01*
X378150476Y-135977142D01*
X378340952Y-135929523D01*
X378483810Y-135929523D01*
X378674286Y-135977142D01*
X378769524Y-136024761D01*
X378864762Y-136119999D01*
X378912381Y-136262857D01*
X378912381Y-136500952D01*
X378912381Y-135500952D02*
X377912381Y-135500952D01*
X378912381Y-135024762D02*
X377912381Y-135024762D01*
X378912381Y-134453333D01*
X377912381Y-134453333D01*
X379007619Y-134215238D02*
X379007619Y-133453333D01*
X377912381Y-132739047D02*
X377912381Y-133215238D01*
X378388571Y-133262857D01*
X378340952Y-133215238D01*
X378293333Y-133120000D01*
X378293333Y-132881904D01*
X378340952Y-132786666D01*
X378388571Y-132739047D01*
X378483810Y-132691428D01*
X378721905Y-132691428D01*
X378817143Y-132739047D01*
X378864762Y-132786666D01*
X378912381Y-132881904D01*
X378912381Y-133120000D01*
X378864762Y-133215238D01*
X378817143Y-133262857D01*
X255301905Y-117657619D02*
X255349524Y-117610000D01*
X255444762Y-117562381D01*
X255682858Y-117562381D01*
X255778096Y-117610000D01*
X255825715Y-117657619D01*
X255873334Y-117752857D01*
X255873334Y-117848095D01*
X255825715Y-117990952D01*
X255254286Y-118562381D01*
X255873334Y-118562381D01*
X256254286Y-117657619D02*
X256301905Y-117610000D01*
X256397143Y-117562381D01*
X256635239Y-117562381D01*
X256730477Y-117610000D01*
X256778096Y-117657619D01*
X256825715Y-117752857D01*
X256825715Y-117848095D01*
X256778096Y-117990952D01*
X256206667Y-118562381D01*
X256825715Y-118562381D01*
X257444762Y-117562381D02*
X257540001Y-117562381D01*
X257635239Y-117610000D01*
X257682858Y-117657619D01*
X257730477Y-117752857D01*
X257778096Y-117943333D01*
X257778096Y-118181429D01*
X257730477Y-118371905D01*
X257682858Y-118467143D01*
X257635239Y-118514762D01*
X257540001Y-118562381D01*
X257444762Y-118562381D01*
X257349524Y-118514762D01*
X257301905Y-118467143D01*
X257254286Y-118371905D01*
X257206667Y-118181429D01*
X257206667Y-117943333D01*
X257254286Y-117752857D01*
X257301905Y-117657619D01*
X257349524Y-117610000D01*
X257444762Y-117562381D01*
X327691905Y-149407619D02*
X327739524Y-149360000D01*
X327834762Y-149312381D01*
X328072858Y-149312381D01*
X328168096Y-149360000D01*
X328215715Y-149407619D01*
X328263334Y-149502857D01*
X328263334Y-149598095D01*
X328215715Y-149740952D01*
X327644286Y-150312381D01*
X328263334Y-150312381D01*
X328644286Y-149407619D02*
X328691905Y-149360000D01*
X328787143Y-149312381D01*
X329025239Y-149312381D01*
X329120477Y-149360000D01*
X329168096Y-149407619D01*
X329215715Y-149502857D01*
X329215715Y-149598095D01*
X329168096Y-149740952D01*
X328596667Y-150312381D01*
X329215715Y-150312381D01*
X329834762Y-149312381D02*
X329930001Y-149312381D01*
X330025239Y-149360000D01*
X330072858Y-149407619D01*
X330120477Y-149502857D01*
X330168096Y-149693333D01*
X330168096Y-149931429D01*
X330120477Y-150121905D01*
X330072858Y-150217143D01*
X330025239Y-150264762D01*
X329930001Y-150312381D01*
X329834762Y-150312381D01*
X329739524Y-150264762D01*
X329691905Y-150217143D01*
X329644286Y-150121905D01*
X329596667Y-149931429D01*
X329596667Y-149693333D01*
X329644286Y-149502857D01*
X329691905Y-149407619D01*
X329739524Y-149360000D01*
X329834762Y-149312381D01*
X302184762Y-118682381D02*
X301613333Y-118682381D01*
X301899047Y-118682381D02*
X301899047Y-117682381D01*
X301803809Y-117825238D01*
X301708571Y-117920476D01*
X301613333Y-117968095D01*
X302803809Y-117682381D02*
X302899048Y-117682381D01*
X302994286Y-117730000D01*
X303041905Y-117777619D01*
X303089524Y-117872857D01*
X303137143Y-118063333D01*
X303137143Y-118301429D01*
X303089524Y-118491905D01*
X303041905Y-118587143D01*
X302994286Y-118634762D01*
X302899048Y-118682381D01*
X302803809Y-118682381D01*
X302708571Y-118634762D01*
X302660952Y-118587143D01*
X302613333Y-118491905D01*
X302565714Y-118301429D01*
X302565714Y-118063333D01*
X302613333Y-117872857D01*
X302660952Y-117777619D01*
X302708571Y-117730000D01*
X302803809Y-117682381D01*
X303565714Y-118682381D02*
X303565714Y-117682381D01*
X303660952Y-118301429D02*
X303946667Y-118682381D01*
X303946667Y-118015714D02*
X303565714Y-118396667D01*
X302184762Y-130112381D02*
X301613333Y-130112381D01*
X301899047Y-130112381D02*
X301899047Y-129112381D01*
X301803809Y-129255238D01*
X301708571Y-129350476D01*
X301613333Y-129398095D01*
X302803809Y-129112381D02*
X302899048Y-129112381D01*
X302994286Y-129160000D01*
X303041905Y-129207619D01*
X303089524Y-129302857D01*
X303137143Y-129493333D01*
X303137143Y-129731429D01*
X303089524Y-129921905D01*
X303041905Y-130017143D01*
X302994286Y-130064762D01*
X302899048Y-130112381D01*
X302803809Y-130112381D01*
X302708571Y-130064762D01*
X302660952Y-130017143D01*
X302613333Y-129921905D01*
X302565714Y-129731429D01*
X302565714Y-129493333D01*
X302613333Y-129302857D01*
X302660952Y-129207619D01*
X302708571Y-129160000D01*
X302803809Y-129112381D01*
X303565714Y-130112381D02*
X303565714Y-129112381D01*
X303660952Y-129731429D02*
X303946667Y-130112381D01*
X303946667Y-129445714D02*
X303565714Y-129826667D01*
X223844762Y-137421428D02*
X223892381Y-137278571D01*
X223892381Y-137040475D01*
X223844762Y-136945237D01*
X223797143Y-136897618D01*
X223701905Y-136849999D01*
X223606667Y-136849999D01*
X223511429Y-136897618D01*
X223463810Y-136945237D01*
X223416190Y-137040475D01*
X223368571Y-137230952D01*
X223320952Y-137326190D01*
X223273333Y-137373809D01*
X223178095Y-137421428D01*
X223082857Y-137421428D01*
X222987619Y-137373809D01*
X222940000Y-137326190D01*
X222892381Y-137230952D01*
X222892381Y-136992856D01*
X222940000Y-136849999D01*
X222892381Y-136516666D02*
X223892381Y-136278571D01*
X223178095Y-136088094D01*
X223892381Y-135897618D01*
X222892381Y-135659523D01*
X223892381Y-135278571D02*
X222892381Y-135278571D01*
X222892381Y-134945238D02*
X222892381Y-134373809D01*
X223892381Y-134659524D02*
X222892381Y-134659524D01*
X223797143Y-133469047D02*
X223844762Y-133516666D01*
X223892381Y-133659523D01*
X223892381Y-133754761D01*
X223844762Y-133897619D01*
X223749524Y-133992857D01*
X223654286Y-134040476D01*
X223463810Y-134088095D01*
X223320952Y-134088095D01*
X223130476Y-134040476D01*
X223035238Y-133992857D01*
X222940000Y-133897619D01*
X222892381Y-133754761D01*
X222892381Y-133659523D01*
X222940000Y-133516666D01*
X222987619Y-133469047D01*
X223892381Y-133040476D02*
X222892381Y-133040476D01*
X223368571Y-133040476D02*
X223368571Y-132469047D01*
X223892381Y-132469047D02*
X222892381Y-132469047D01*
X223987619Y-132230952D02*
X223987619Y-131469047D01*
X223892381Y-131230952D02*
X222892381Y-131230952D01*
X223892381Y-130754762D02*
X222892381Y-130754762D01*
X223892381Y-130183333D01*
X222892381Y-130183333D01*
X222892381Y-129850000D02*
X223892381Y-129516667D01*
X222892381Y-129183333D01*
X239084762Y-137421428D02*
X239132381Y-137278571D01*
X239132381Y-137040475D01*
X239084762Y-136945237D01*
X239037143Y-136897618D01*
X238941905Y-136849999D01*
X238846667Y-136849999D01*
X238751429Y-136897618D01*
X238703810Y-136945237D01*
X238656190Y-137040475D01*
X238608571Y-137230952D01*
X238560952Y-137326190D01*
X238513333Y-137373809D01*
X238418095Y-137421428D01*
X238322857Y-137421428D01*
X238227619Y-137373809D01*
X238180000Y-137326190D01*
X238132381Y-137230952D01*
X238132381Y-136992856D01*
X238180000Y-136849999D01*
X238132381Y-136516666D02*
X239132381Y-136278571D01*
X238418095Y-136088094D01*
X239132381Y-135897618D01*
X238132381Y-135659523D01*
X239132381Y-135278571D02*
X238132381Y-135278571D01*
X238132381Y-134945238D02*
X238132381Y-134373809D01*
X239132381Y-134659524D02*
X238132381Y-134659524D01*
X239037143Y-133469047D02*
X239084762Y-133516666D01*
X239132381Y-133659523D01*
X239132381Y-133754761D01*
X239084762Y-133897619D01*
X238989524Y-133992857D01*
X238894286Y-134040476D01*
X238703810Y-134088095D01*
X238560952Y-134088095D01*
X238370476Y-134040476D01*
X238275238Y-133992857D01*
X238180000Y-133897619D01*
X238132381Y-133754761D01*
X238132381Y-133659523D01*
X238180000Y-133516666D01*
X238227619Y-133469047D01*
X239132381Y-133040476D02*
X238132381Y-133040476D01*
X238608571Y-133040476D02*
X238608571Y-132469047D01*
X239132381Y-132469047D02*
X238132381Y-132469047D01*
X239227619Y-132230952D02*
X239227619Y-131469047D01*
X239132381Y-131230952D02*
X238132381Y-131230952D01*
X239132381Y-130754762D02*
X238132381Y-130754762D01*
X239132381Y-130183333D01*
X238132381Y-130183333D01*
X238132381Y-129850000D02*
X239132381Y-129516667D01*
X238132381Y-129183333D01*
X254324762Y-137421428D02*
X254372381Y-137278571D01*
X254372381Y-137040475D01*
X254324762Y-136945237D01*
X254277143Y-136897618D01*
X254181905Y-136849999D01*
X254086667Y-136849999D01*
X253991429Y-136897618D01*
X253943810Y-136945237D01*
X253896190Y-137040475D01*
X253848571Y-137230952D01*
X253800952Y-137326190D01*
X253753333Y-137373809D01*
X253658095Y-137421428D01*
X253562857Y-137421428D01*
X253467619Y-137373809D01*
X253420000Y-137326190D01*
X253372381Y-137230952D01*
X253372381Y-136992856D01*
X253420000Y-136849999D01*
X253372381Y-136516666D02*
X254372381Y-136278571D01*
X253658095Y-136088094D01*
X254372381Y-135897618D01*
X253372381Y-135659523D01*
X254372381Y-135278571D02*
X253372381Y-135278571D01*
X253372381Y-134945238D02*
X253372381Y-134373809D01*
X254372381Y-134659524D02*
X253372381Y-134659524D01*
X254277143Y-133469047D02*
X254324762Y-133516666D01*
X254372381Y-133659523D01*
X254372381Y-133754761D01*
X254324762Y-133897619D01*
X254229524Y-133992857D01*
X254134286Y-134040476D01*
X253943810Y-134088095D01*
X253800952Y-134088095D01*
X253610476Y-134040476D01*
X253515238Y-133992857D01*
X253420000Y-133897619D01*
X253372381Y-133754761D01*
X253372381Y-133659523D01*
X253420000Y-133516666D01*
X253467619Y-133469047D01*
X254372381Y-133040476D02*
X253372381Y-133040476D01*
X253848571Y-133040476D02*
X253848571Y-132469047D01*
X254372381Y-132469047D02*
X253372381Y-132469047D01*
X254467619Y-132230952D02*
X254467619Y-131469047D01*
X254372381Y-131230952D02*
X253372381Y-131230952D01*
X254372381Y-130754762D02*
X253372381Y-130754762D01*
X254372381Y-130183333D01*
X253372381Y-130183333D01*
X253372381Y-129850000D02*
X254372381Y-129516667D01*
X253372381Y-129183333D01*
X259564762Y-137421428D02*
X259612381Y-137278571D01*
X259612381Y-137040475D01*
X259564762Y-136945237D01*
X259517143Y-136897618D01*
X259421905Y-136849999D01*
X259326667Y-136849999D01*
X259231429Y-136897618D01*
X259183810Y-136945237D01*
X259136190Y-137040475D01*
X259088571Y-137230952D01*
X259040952Y-137326190D01*
X258993333Y-137373809D01*
X258898095Y-137421428D01*
X258802857Y-137421428D01*
X258707619Y-137373809D01*
X258660000Y-137326190D01*
X258612381Y-137230952D01*
X258612381Y-136992856D01*
X258660000Y-136849999D01*
X258612381Y-136516666D02*
X259612381Y-136278571D01*
X258898095Y-136088094D01*
X259612381Y-135897618D01*
X258612381Y-135659523D01*
X259612381Y-135278571D02*
X258612381Y-135278571D01*
X258612381Y-134945238D02*
X258612381Y-134373809D01*
X259612381Y-134659524D02*
X258612381Y-134659524D01*
X259517143Y-133469047D02*
X259564762Y-133516666D01*
X259612381Y-133659523D01*
X259612381Y-133754761D01*
X259564762Y-133897619D01*
X259469524Y-133992857D01*
X259374286Y-134040476D01*
X259183810Y-134088095D01*
X259040952Y-134088095D01*
X258850476Y-134040476D01*
X258755238Y-133992857D01*
X258660000Y-133897619D01*
X258612381Y-133754761D01*
X258612381Y-133659523D01*
X258660000Y-133516666D01*
X258707619Y-133469047D01*
X259612381Y-133040476D02*
X258612381Y-133040476D01*
X259088571Y-133040476D02*
X259088571Y-132469047D01*
X259612381Y-132469047D02*
X258612381Y-132469047D01*
X259707619Y-132230952D02*
X259707619Y-131469047D01*
X259612381Y-131230952D02*
X258612381Y-131230952D01*
X259612381Y-130754762D02*
X258612381Y-130754762D01*
X259612381Y-130183333D01*
X258612381Y-130183333D01*
X258612381Y-129850000D02*
X259612381Y-129516667D01*
X258612381Y-129183333D01*
X148598571Y-130976667D02*
X149074762Y-130976667D01*
X148503333Y-131262381D02*
X148836666Y-130262381D01*
X149170000Y-131262381D01*
X149503333Y-131262381D02*
X149503333Y-130595714D01*
X149503333Y-130786190D02*
X149550952Y-130690952D01*
X149598571Y-130643333D01*
X149693809Y-130595714D01*
X149789048Y-130595714D01*
X150550953Y-131262381D02*
X150550953Y-130262381D01*
X150550953Y-131214762D02*
X150455715Y-131262381D01*
X150265238Y-131262381D01*
X150170000Y-131214762D01*
X150122381Y-131167143D01*
X150074762Y-131071905D01*
X150074762Y-130786190D01*
X150122381Y-130690952D01*
X150170000Y-130643333D01*
X150265238Y-130595714D01*
X150455715Y-130595714D01*
X150550953Y-130643333D01*
X151455715Y-130595714D02*
X151455715Y-131262381D01*
X151027143Y-130595714D02*
X151027143Y-131119524D01*
X151074762Y-131214762D01*
X151170000Y-131262381D01*
X151312858Y-131262381D01*
X151408096Y-131214762D01*
X151455715Y-131167143D01*
X151931905Y-131262381D02*
X151931905Y-130595714D01*
X151931905Y-130262381D02*
X151884286Y-130310000D01*
X151931905Y-130357619D01*
X151979524Y-130310000D01*
X151931905Y-130262381D01*
X151931905Y-130357619D01*
X152408095Y-130595714D02*
X152408095Y-131262381D01*
X152408095Y-130690952D02*
X152455714Y-130643333D01*
X152550952Y-130595714D01*
X152693810Y-130595714D01*
X152789048Y-130643333D01*
X152836667Y-130738571D01*
X152836667Y-131262381D01*
X153455714Y-131262381D02*
X153360476Y-131214762D01*
X153312857Y-131167143D01*
X153265238Y-131071905D01*
X153265238Y-130786190D01*
X153312857Y-130690952D01*
X153360476Y-130643333D01*
X153455714Y-130595714D01*
X153598572Y-130595714D01*
X153693810Y-130643333D01*
X153741429Y-130690952D01*
X153789048Y-130786190D01*
X153789048Y-131071905D01*
X153741429Y-131167143D01*
X153693810Y-131214762D01*
X153598572Y-131262381D01*
X153455714Y-131262381D01*
X153979524Y-131357619D02*
X154741429Y-131357619D01*
X154979524Y-131262381D02*
X154979524Y-130595714D01*
X154979524Y-130690952D02*
X155027143Y-130643333D01*
X155122381Y-130595714D01*
X155265239Y-130595714D01*
X155360477Y-130643333D01*
X155408096Y-130738571D01*
X155408096Y-131262381D01*
X155408096Y-130738571D02*
X155455715Y-130643333D01*
X155550953Y-130595714D01*
X155693810Y-130595714D01*
X155789048Y-130643333D01*
X155836667Y-130738571D01*
X155836667Y-131262381D01*
X156312857Y-131262381D02*
X156312857Y-130595714D01*
X156312857Y-130262381D02*
X156265238Y-130310000D01*
X156312857Y-130357619D01*
X156360476Y-130310000D01*
X156312857Y-130262381D01*
X156312857Y-130357619D01*
X157217619Y-131214762D02*
X157122381Y-131262381D01*
X156931904Y-131262381D01*
X156836666Y-131214762D01*
X156789047Y-131167143D01*
X156741428Y-131071905D01*
X156741428Y-130786190D01*
X156789047Y-130690952D01*
X156836666Y-130643333D01*
X156931904Y-130595714D01*
X157122381Y-130595714D01*
X157217619Y-130643333D01*
X157646190Y-131262381D02*
X157646190Y-130595714D01*
X157646190Y-130786190D02*
X157693809Y-130690952D01*
X157741428Y-130643333D01*
X157836666Y-130595714D01*
X157931905Y-130595714D01*
X158408095Y-131262381D02*
X158312857Y-131214762D01*
X158265238Y-131167143D01*
X158217619Y-131071905D01*
X158217619Y-130786190D01*
X158265238Y-130690952D01*
X158312857Y-130643333D01*
X158408095Y-130595714D01*
X158550953Y-130595714D01*
X158646191Y-130643333D01*
X158693810Y-130690952D01*
X158741429Y-130786190D01*
X158741429Y-131071905D01*
X158693810Y-131167143D01*
X158646191Y-131214762D01*
X158550953Y-131262381D01*
X158408095Y-131262381D01*
X268892381Y-140802381D02*
X269606667Y-140802381D01*
X269749524Y-140850001D01*
X269844762Y-140945239D01*
X269892381Y-141088096D01*
X269892381Y-141183334D01*
X269892381Y-140183334D02*
X269844762Y-140278572D01*
X269797143Y-140326191D01*
X269701905Y-140373810D01*
X269416190Y-140373810D01*
X269320952Y-140326191D01*
X269273333Y-140278572D01*
X269225714Y-140183334D01*
X269225714Y-140040476D01*
X269273333Y-139945238D01*
X269320952Y-139897619D01*
X269416190Y-139850000D01*
X269701905Y-139850000D01*
X269797143Y-139897619D01*
X269844762Y-139945238D01*
X269892381Y-140040476D01*
X269892381Y-140183334D01*
X269225714Y-139516667D02*
X269892381Y-139278572D01*
X269225714Y-139040476D02*
X269892381Y-139278572D01*
X270130476Y-139373810D01*
X270178095Y-139421429D01*
X270225714Y-139516667D01*
X269844762Y-138707143D02*
X269892381Y-138611905D01*
X269892381Y-138421429D01*
X269844762Y-138326190D01*
X269749524Y-138278571D01*
X269701905Y-138278571D01*
X269606667Y-138326190D01*
X269559048Y-138421429D01*
X269559048Y-138564286D01*
X269511429Y-138659524D01*
X269416190Y-138707143D01*
X269368571Y-138707143D01*
X269273333Y-138659524D01*
X269225714Y-138564286D01*
X269225714Y-138421429D01*
X269273333Y-138326190D01*
X269225714Y-137992857D02*
X269225714Y-137611905D01*
X268892381Y-137850000D02*
X269749524Y-137850000D01*
X269844762Y-137802381D01*
X269892381Y-137707143D01*
X269892381Y-137611905D01*
X269892381Y-137278571D02*
X269225714Y-137278571D01*
X268892381Y-137278571D02*
X268940000Y-137326190D01*
X268987619Y-137278571D01*
X268940000Y-137230952D01*
X268892381Y-137278571D01*
X268987619Y-137278571D01*
X269844762Y-136373809D02*
X269892381Y-136469047D01*
X269892381Y-136659524D01*
X269844762Y-136754762D01*
X269797143Y-136802381D01*
X269701905Y-136850000D01*
X269416190Y-136850000D01*
X269320952Y-136802381D01*
X269273333Y-136754762D01*
X269225714Y-136659524D01*
X269225714Y-136469047D01*
X269273333Y-136373809D01*
X269892381Y-135945238D02*
X268892381Y-135945238D01*
X269511429Y-135850000D02*
X269892381Y-135564285D01*
X269225714Y-135564285D02*
X269606667Y-135945238D01*
M02*
