M48
INCH,TZ
T1C0.016
T2C0.030
T3C0.039
T4C0.047
T5C0.051
T6C0.059
T7C0.063
T8C0.079
%
G90
G05
T1
X57000Y-55500
X59500Y-51500
X59500Y-52500
X61000Y-55500
X66000Y-47500
X67500Y-51500
X69500Y-54000
X69500Y-55000
X71500Y-54000
X74500Y-48000
X75000Y-51000
X75000Y-52000
X78000Y-50000
X83000Y-57500
X84000Y-56500
X85000Y-50500
X85000Y-51500
X86500Y-51500
X86500Y-53500
X102000Y-54000
X102500Y-50500
X105500Y-54500
X107000Y-54500
X109500Y-50000
X109500Y-56000
X112000Y-50000
X117000Y-49000
X119000Y-51000
T2
X57500Y-50500
X57500Y-56500
X58500Y-50500
X58500Y-56500
X59500Y-50500
X59500Y-56500
X60500Y-50500
X60500Y-56500
X61500Y-50500
X61500Y-56500
X62500Y-50500
X62500Y-56500
X63500Y-50500
X63500Y-56500
X64500Y-50500
X64500Y-56500
X65500Y-50500
X65500Y-56500
X66500Y-50500
X66500Y-56500
X67500Y-50500
X67500Y-56500
X68500Y-50500
X68500Y-56500
X69500Y-50500
X69500Y-56500
X70500Y-50500
X70500Y-56500
X71500Y-50500
X71500Y-56500
X72500Y-50500
X72500Y-56500
X73500Y-50500
X73500Y-56500
T3
X62220Y-52063
X62220Y-53039
X62220Y-53961
X62220Y-54937
X89780Y-52240
X89780Y-54110
X107142Y-51516
X107142Y-52500
X107142Y-53484
X110016Y-48642
X111000Y-48642
X111984Y-48642
X118220Y-48063
X118220Y-49039
X118220Y-49961
X118220Y-50937
X118220Y-54063
X118220Y-55039
X118220Y-55961
X118220Y-56937
X119500Y-52000
X119500Y-54000
X145780Y-48890
X145780Y-50760
X145780Y-54890
X145780Y-56760
T4
X114248Y-51004
X114248Y-53996
X116020Y-51004
X116020Y-53996
T5
X55000Y-51000
X55000Y-52000
X55000Y-53000
X55000Y-54000
X55000Y-55000
X55000Y-56000
X150079Y-51031
X150079Y-54969
X151063Y-50047
X151063Y-53000
X151063Y-55953
X155000Y-52016
X155000Y-53984
T6
X108323Y-49429
X108323Y-55571
X113677Y-49429
X113677Y-55571
T7
X80000Y-49547
X80000Y-52500
X80000Y-55453
X87500Y-49547
X87500Y-52500
X87500Y-55453
X95500Y-49547
X95500Y-52500
X95500Y-55453
X104000Y-49547
X104000Y-52500
X104000Y-55453
T8
X66157Y-53500
X84858Y-53500
X122157Y-49500
X122157Y-55500
X140858Y-49500
X140858Y-55500
T0
M30
