G04 #@! TF.FileFunction,Other,Fab,Bot*
%FSLAX46Y46*%
G04 Gerber Fmt 4.6, Leading zero omitted, Abs format (unit mm)*
G04 Created by KiCad (PCBNEW 4.0.4+e1-6308~48~ubuntu16.04.1-stable) date Wed Sep 21 12:51:57 2016*
%MOMM*%
%LPD*%
G01*
G04 APERTURE LIST*
%ADD10C,0.100000*%
%ADD11C,0.150000*%
G04 APERTURE END LIST*
D10*
D11*
X161135238Y-143842381D02*
X161706667Y-143842381D01*
X161420953Y-143842381D02*
X161420953Y-142842381D01*
X161516191Y-142985238D01*
X161611429Y-143080476D01*
X161706667Y-143128095D01*
X160516191Y-142842381D02*
X160420952Y-142842381D01*
X160325714Y-142890000D01*
X160278095Y-142937619D01*
X160230476Y-143032857D01*
X160182857Y-143223333D01*
X160182857Y-143461429D01*
X160230476Y-143651905D01*
X160278095Y-143747143D01*
X160325714Y-143794762D01*
X160420952Y-143842381D01*
X160516191Y-143842381D01*
X160611429Y-143794762D01*
X160659048Y-143747143D01*
X160706667Y-143651905D01*
X160754286Y-143461429D01*
X160754286Y-143223333D01*
X160706667Y-143032857D01*
X160659048Y-142937619D01*
X160611429Y-142890000D01*
X160516191Y-142842381D01*
X159754286Y-143842381D02*
X159754286Y-142842381D01*
X159659048Y-143461429D02*
X159373333Y-143842381D01*
X159373333Y-143175714D02*
X159754286Y-143556667D01*
X306498571Y-132548571D02*
X306546190Y-132691428D01*
X306593810Y-132739047D01*
X306689048Y-132786666D01*
X306831905Y-132786666D01*
X306927143Y-132739047D01*
X306974762Y-132691428D01*
X307022381Y-132596190D01*
X307022381Y-132215237D01*
X306022381Y-132215237D01*
X306022381Y-132548571D01*
X306070000Y-132643809D01*
X306117619Y-132691428D01*
X306212857Y-132739047D01*
X306308095Y-132739047D01*
X306403333Y-132691428D01*
X306450952Y-132643809D01*
X306498571Y-132548571D01*
X306498571Y-132215237D01*
X307022381Y-133643809D02*
X306498571Y-133643809D01*
X306403333Y-133596190D01*
X306355714Y-133500952D01*
X306355714Y-133310475D01*
X306403333Y-133215237D01*
X306974762Y-133643809D02*
X307022381Y-133548571D01*
X307022381Y-133310475D01*
X306974762Y-133215237D01*
X306879524Y-133167618D01*
X306784286Y-133167618D01*
X306689048Y-133215237D01*
X306641429Y-133310475D01*
X306641429Y-133548571D01*
X306593810Y-133643809D01*
X306355714Y-133977142D02*
X306355714Y-134358094D01*
X306022381Y-134119999D02*
X306879524Y-134119999D01*
X306974762Y-134167618D01*
X307022381Y-134262856D01*
X307022381Y-134358094D01*
X306355714Y-134548571D02*
X306355714Y-134929523D01*
X306022381Y-134691428D02*
X306879524Y-134691428D01*
X306974762Y-134739047D01*
X307022381Y-134834285D01*
X307022381Y-134929523D01*
X306974762Y-135643810D02*
X307022381Y-135548572D01*
X307022381Y-135358095D01*
X306974762Y-135262857D01*
X306879524Y-135215238D01*
X306498571Y-135215238D01*
X306403333Y-135262857D01*
X306355714Y-135358095D01*
X306355714Y-135548572D01*
X306403333Y-135643810D01*
X306498571Y-135691429D01*
X306593810Y-135691429D01*
X306689048Y-135215238D01*
X307022381Y-136120000D02*
X306355714Y-136120000D01*
X306546190Y-136120000D02*
X306450952Y-136167619D01*
X306403333Y-136215238D01*
X306355714Y-136310476D01*
X306355714Y-136405715D01*
X306355714Y-136643810D02*
X307022381Y-136881905D01*
X306355714Y-137120001D02*
X307022381Y-136881905D01*
X307260476Y-136786667D01*
X307308095Y-136739048D01*
X307355714Y-136643810D01*
X192214762Y-121658572D02*
X192262381Y-121801429D01*
X192262381Y-122039525D01*
X192214762Y-122134763D01*
X192167143Y-122182382D01*
X192071905Y-122230001D01*
X191976667Y-122230001D01*
X191881429Y-122182382D01*
X191833810Y-122134763D01*
X191786190Y-122039525D01*
X191738571Y-121849048D01*
X191690952Y-121753810D01*
X191643333Y-121706191D01*
X191548095Y-121658572D01*
X191452857Y-121658572D01*
X191357619Y-121706191D01*
X191310000Y-121753810D01*
X191262381Y-121849048D01*
X191262381Y-122087144D01*
X191310000Y-122230001D01*
X191262381Y-122563334D02*
X192262381Y-122801429D01*
X191548095Y-122991906D01*
X192262381Y-123182382D01*
X191262381Y-123420477D01*
X192262381Y-123801429D02*
X191262381Y-123801429D01*
X191262381Y-124134762D02*
X191262381Y-124706191D01*
X192262381Y-124420476D02*
X191262381Y-124420476D01*
X192167143Y-125610953D02*
X192214762Y-125563334D01*
X192262381Y-125420477D01*
X192262381Y-125325239D01*
X192214762Y-125182381D01*
X192119524Y-125087143D01*
X192024286Y-125039524D01*
X191833810Y-124991905D01*
X191690952Y-124991905D01*
X191500476Y-125039524D01*
X191405238Y-125087143D01*
X191310000Y-125182381D01*
X191262381Y-125325239D01*
X191262381Y-125420477D01*
X191310000Y-125563334D01*
X191357619Y-125610953D01*
X192262381Y-126039524D02*
X191262381Y-126039524D01*
X191738571Y-126039524D02*
X191738571Y-126610953D01*
X192262381Y-126610953D02*
X191262381Y-126610953D01*
X192357619Y-126849048D02*
X192357619Y-127610953D01*
X192262381Y-127849048D02*
X191262381Y-127849048D01*
X192262381Y-128325238D02*
X191262381Y-128325238D01*
X192262381Y-128896667D01*
X191262381Y-128896667D01*
X191262381Y-129230000D02*
X192262381Y-129563333D01*
X191262381Y-129896667D01*
X153121905Y-135278762D02*
X152979048Y-135326381D01*
X152740952Y-135326381D01*
X152645714Y-135278762D01*
X152598095Y-135231143D01*
X152550476Y-135135905D01*
X152550476Y-135040667D01*
X152598095Y-134945429D01*
X152645714Y-134897810D01*
X152740952Y-134850190D01*
X152931429Y-134802571D01*
X153026667Y-134754952D01*
X153074286Y-134707333D01*
X153121905Y-134612095D01*
X153121905Y-134516857D01*
X153074286Y-134421619D01*
X153026667Y-134374000D01*
X152931429Y-134326381D01*
X152693333Y-134326381D01*
X152550476Y-134374000D01*
X152217143Y-134326381D02*
X151979048Y-135326381D01*
X151788571Y-134612095D01*
X151598095Y-135326381D01*
X151360000Y-134326381D01*
X151217143Y-135421619D02*
X150455238Y-135421619D01*
X150217143Y-135326381D02*
X150217143Y-134326381D01*
X149836190Y-134326381D01*
X149740952Y-134374000D01*
X149693333Y-134421619D01*
X149645714Y-134516857D01*
X149645714Y-134659714D01*
X149693333Y-134754952D01*
X149740952Y-134802571D01*
X149836190Y-134850190D01*
X150217143Y-134850190D01*
X149217143Y-134326381D02*
X149217143Y-135135905D01*
X149169524Y-135231143D01*
X149121905Y-135278762D01*
X149026667Y-135326381D01*
X148836190Y-135326381D01*
X148740952Y-135278762D01*
X148693333Y-135231143D01*
X148645714Y-135135905D01*
X148645714Y-134326381D01*
X148217143Y-135278762D02*
X148074286Y-135326381D01*
X147836190Y-135326381D01*
X147740952Y-135278762D01*
X147693333Y-135231143D01*
X147645714Y-135135905D01*
X147645714Y-135040667D01*
X147693333Y-134945429D01*
X147740952Y-134897810D01*
X147836190Y-134850190D01*
X148026667Y-134802571D01*
X148121905Y-134754952D01*
X148169524Y-134707333D01*
X148217143Y-134612095D01*
X148217143Y-134516857D01*
X148169524Y-134421619D01*
X148121905Y-134374000D01*
X148026667Y-134326381D01*
X147788571Y-134326381D01*
X147645714Y-134374000D01*
X147217143Y-135326381D02*
X147217143Y-134326381D01*
X147217143Y-134802571D02*
X146645714Y-134802571D01*
X146645714Y-135326381D02*
X146645714Y-134326381D01*
X142692381Y-135485714D02*
X141692381Y-135485714D01*
X142406667Y-135819048D01*
X141692381Y-136152381D01*
X142692381Y-136152381D01*
X142692381Y-136628571D02*
X141692381Y-136628571D01*
X141692381Y-137009524D01*
X141740000Y-137104762D01*
X141787619Y-137152381D01*
X141882857Y-137200000D01*
X142025714Y-137200000D01*
X142120952Y-137152381D01*
X142168571Y-137104762D01*
X142216190Y-137009524D01*
X142216190Y-136628571D01*
X141692381Y-137533333D02*
X142692381Y-138200000D01*
X141692381Y-138200000D02*
X142692381Y-137533333D01*
X141692381Y-139057143D02*
X141692381Y-138580952D01*
X142168571Y-138533333D01*
X142120952Y-138580952D01*
X142073333Y-138676190D01*
X142073333Y-138914286D01*
X142120952Y-139009524D01*
X142168571Y-139057143D01*
X142263810Y-139104762D01*
X142501905Y-139104762D01*
X142597143Y-139057143D01*
X142644762Y-139009524D01*
X142692381Y-138914286D01*
X142692381Y-138676190D01*
X142644762Y-138580952D01*
X142597143Y-138533333D01*
X141692381Y-139723809D02*
X141692381Y-139819048D01*
X141740000Y-139914286D01*
X141787619Y-139961905D01*
X141882857Y-140009524D01*
X142073333Y-140057143D01*
X142311429Y-140057143D01*
X142501905Y-140009524D01*
X142597143Y-139961905D01*
X142644762Y-139914286D01*
X142692381Y-139819048D01*
X142692381Y-139723809D01*
X142644762Y-139628571D01*
X142597143Y-139580952D01*
X142501905Y-139533333D01*
X142311429Y-139485714D01*
X142073333Y-139485714D01*
X141882857Y-139533333D01*
X141787619Y-139580952D01*
X141740000Y-139628571D01*
X141692381Y-139723809D01*
X142692381Y-141009524D02*
X142692381Y-140438095D01*
X142692381Y-140723809D02*
X141692381Y-140723809D01*
X141835238Y-140628571D01*
X141930476Y-140533333D01*
X141978095Y-140438095D01*
X141692381Y-141628571D02*
X141692381Y-141723810D01*
X141740000Y-141819048D01*
X141787619Y-141866667D01*
X141882857Y-141914286D01*
X142073333Y-141961905D01*
X142311429Y-141961905D01*
X142501905Y-141914286D01*
X142597143Y-141866667D01*
X142644762Y-141819048D01*
X142692381Y-141723810D01*
X142692381Y-141628571D01*
X142644762Y-141533333D01*
X142597143Y-141485714D01*
X142501905Y-141438095D01*
X142311429Y-141390476D01*
X142073333Y-141390476D01*
X141882857Y-141438095D01*
X141787619Y-141485714D01*
X141740000Y-141533333D01*
X141692381Y-141628571D01*
X142692381Y-142390476D02*
X141692381Y-142390476D01*
X141692381Y-142628571D01*
X141740000Y-142771429D01*
X141835238Y-142866667D01*
X141930476Y-142914286D01*
X142120952Y-142961905D01*
X142263810Y-142961905D01*
X142454286Y-142914286D01*
X142549524Y-142866667D01*
X142644762Y-142771429D01*
X142692381Y-142628571D01*
X142692381Y-142390476D01*
X142692381Y-143390476D02*
X141692381Y-143390476D01*
X141692381Y-143771429D01*
X141740000Y-143866667D01*
X141787619Y-143914286D01*
X141882857Y-143961905D01*
X142025714Y-143961905D01*
X142120952Y-143914286D01*
X142168571Y-143866667D01*
X142216190Y-143771429D01*
X142216190Y-143390476D01*
M02*
